<svg width="22" height="19" viewBox="0 0 22 19" fill="none" xmlns="http://www.w3.org/2000/svg">
<mask id="mask0_39_1723" style="mask-type:luminance" maskUnits="userSpaceOnUse" x="0" y="0" width="22" height="20">
<path d="M0.472593 0.33037H21.6919V19.003H0.472593V0.33037Z" fill="white"/>
</mask>
<g mask="url(#mask0_39_1723)">
<path d="M8.7963 18.9281C8.91333 18.943 9.03037 18.9563 9.14815 18.9667C10.963 18.1215 12.4956 16.7296 13.5652 14.9215C14.6022 13.1689 15.1133 11.1807 15.0681 9.16519L13.0881 7.08889C13.8919 11.4711 12.3141 16.1111 8.79556 18.9281H8.7963Z" fill="#666666"/>
<path d="M8.08963 18.8319L8.1437 18.843C11.917 16.023 13.5348 11.1007 12.4674 6.57333L9.64889 3.61778C11.9133 8.44592 11.4563 14.403 8.09111 18.8326L8.08963 18.8319ZM17.6519 11.603C17.1748 13.8593 16.0281 15.8889 14.3348 17.4341C13.8478 17.8785 13.32 18.276 12.7585 18.6215C15.5259 17.7763 17.7659 15.5993 18.7963 12.8037L17.6519 11.603Z" fill="#666666"/>
<path d="M17.2037 11.2689L15.5763 9.56222C15.5524 11.5225 15.0139 13.4421 14.0148 15.1289C13.0311 16.7911 11.6711 18.1133 10.0637 19.0044H10.0711C10.4415 19.0044 10.8059 18.9807 11.1652 18.9356C14.2119 17.6304 16.5407 14.7874 17.2037 11.2689ZM8.33037 2.37111L6.38444 0.33037C2.93556 1.72815 0.471852 5.24889 0.471852 9.34519C0.471852 13.8607 3.46667 17.677 7.47481 18.7215C11.2104 13.9674 11.4104 7.31259 8.33037 2.37111ZM21.6911 10.9556C21.6911 5.64296 17.5474 1.2963 12.4822 1.2963C11.3215 1.2963 10.2096 1.52519 9.18444 1.94L21.0763 14.4119C21.4726 13.337 21.6911 12.1711 21.6911 10.9541V10.9556Z" fill="#666666"/>
</g>
</svg>
