<svg width="27" height="18" viewBox="0 0 27 18" fill="none" xmlns="http://www.w3.org/2000/svg">
<mask id="mask0_39_1742" style="mask-type:luminance" maskUnits="userSpaceOnUse" x="0" y="0" width="27" height="18">
<path d="M0.647059 0.764706H26.1765V17.2353H0.647059V0.764706Z" fill="white"/>
</mask>
<g mask="url(#mask0_39_1742)">
<path d="M26.1765 17.2024C23.5189 17.2024 21.0105 17.2188 18.4864 17.1711C18.2204 17.1711 17.8547 16.8664 17.7056 16.6086C15.7621 13.2338 13.8515 9.82765 11.9245 6.42153C11.7598 6.116 11.5761 5.82612 11.3274 5.39212C10.6299 6.62988 9.99824 7.73918 9.36741 8.84765C9.33447 8.89541 9.33447 8.95965 9.30153 8.99176C7.87188 10.5828 8.17165 12.1253 9.36741 13.7164C9.98177 14.5358 10.3968 15.4836 10.8951 16.3838C11.0112 16.6086 11.1108 16.8499 11.2772 17.2032H9.51647C7.90565 17.2032 6.31129 17.1702 4.69965 17.2196C3.98565 17.2509 3.60353 16.994 3.30459 16.3838C2.49094 14.8413 1.59412 13.3309 0.779647 11.772C0.647059 11.5151 0.596824 11.0802 0.730235 10.8398C1.61059 9.168 2.57412 7.51353 3.48741 5.82612C3.70318 5.40859 3.98565 5.26365 4.46741 5.28012C6.41094 5.31223 8.338 5.29659 10.2807 5.29659H11.2772C10.4133 3.75329 9.61612 2.34012 8.76953 0.812471C10.7954 0.812471 12.6731 0.909647 14.5491 0.780353C15.9614 0.684 16.6754 1.16659 17.3573 2.35576C20.1136 7.11165 23.0042 11.8041 25.8446 16.5122C25.9269 16.6893 26.0101 16.882 26.1765 17.2032V17.2024Z" fill="#DBFB36"/>
</g>
</svg>
