<svg width="20" height="22" viewBox="0 0 20 22" fill="none" xmlns="http://www.w3.org/2000/svg">
<mask id="mask0_39_1747" style="mask-type:luminance" maskUnits="userSpaceOnUse" x="0" y="0" width="20" height="22">
<path d="M0.117647 0.294118H19.8824V21.7059H0.117647V0.294118Z" fill="white"/>
</mask>
<g mask="url(#mask0_39_1747)">
<path d="M10.8375 6.37259L16.4392 11.8021C18.1702 13.4796 17.9092 15.8251 15.8808 16.8891C14.6151 17.5388 13.2011 17.2679 11.9913 16.1133C9.96294 14.1475 7.95271 12.1809 5.94247 10.2333C4.36129 8.69988 2.79741 7.16647 1.21541 5.65118C0.173647 4.64071 -0.143412 3.39635 0.377882 2.20553C0.936235 0.943059 1.95988 0.311412 3.37471 0.311412C7.80365 0.311412 12.2334 0.294118 16.6624 0.311412C18.5235 0.329529 19.8824 1.64635 19.8824 3.36012C19.8824 5.07388 18.5046 6.35447 16.6434 6.37259H10.8375ZM6.37071 15.8975C6.37071 16.8528 6.38965 17.8098 6.37071 18.7832C6.31471 20.4253 5.01188 21.6696 3.33682 21.7059C1.64365 21.7421 0.191765 20.4607 0.154706 18.8194C0.0987057 16.8347 0.0987057 14.8508 0.154706 12.8851C0.191765 11.1886 1.66176 9.90882 3.39282 9.96235C5.06788 10.0167 6.35176 11.3154 6.37071 13.0292C6.38965 13.9672 6.37071 14.9233 6.37071 15.8975Z" fill="#DBFB36"/>
</g>
</svg>
