<svg width="1920" height="294" viewBox="0 0 1920 294" fill="none" xmlns="http://www.w3.org/2000/svg">
<mask id="mask0_39_1650" style="mask-type:luminance" maskUnits="userSpaceOnUse" x="0" y="0" width="1920" height="294">
<path d="M0 0H1920V293.333H0V0Z" fill="white"/>
</mask>
<g mask="url(#mask0_39_1650)">
<path d="M1888.19 2.14267L1873.27 0M1888.19 2.14267H1843.99L1829.77 0M1888.19 2.14267L1903.59 4.356M1888.19 2.14267H1919.48V4.35467M1873.27 0H1878.69L1884.07 0.00533333L1889.32 0.0186667L1894.41 0.0453333L1899.29 0.0853333L1903.89 0.148L1908.16 0.236L1912.13 0.346667L1915.53 0.5L1918.63 0.678667L1919.48 0.741333V2.14133M1873.27 0H1829.77M1903.59 4.356L1858.65 4.35467M1903.59 4.356L1919.48 6.63733M1903.59 4.356L1919.48 4.35467M1829.77 0H1786.29M1786.29 0H1742.8M1786.29 0L1799.79 2.14267M1742.8 0H1699.31M1742.8 0L1755.59 2.14267M1699.31 0H1655.83M1699.31 0L1711.39 2.14267M1655.83 0H1612.33M1655.83 0L1667.19 2.14267M1612.33 0H1568.84M1612.33 0L1622.99 2.14267M1568.84 0H1525.36M1568.84 0L1578.79 2.14267H1534.59M1525.36 0H1481.87M1525.36 0L1534.59 2.14267M1481.87 0H1438.37M1481.87 0L1490.39 2.14267M1534.59 2.14267H1490.39M1534.59 2.14267L1536.95 2.68933L1538.13 2.96267L1544.13 4.35467M1438.37 0H1394.89M1438.37 0L1446.19 2.14267M1490.39 2.14267H1446.19M1490.39 2.14267L1499.2 4.35467M1394.89 0H1351.4M1394.89 0L1401.99 2.14267H1446.19M1446.19 2.14267L1448.19 2.68933L1449.19 2.964L1454.27 4.35467M1351.4 0H1307.91M1351.4 0L1352.97 0.529333L1355.37 1.32933L1357.79 2.14267M1307.91 0H1264.42M1307.91 0L1309.31 0.529333L1313.59 2.14267M1264.42 0H1220.93M1264.42 0L1269.39 2.14267M1313.59 2.14267H1269.39M1313.59 2.14267L1319.46 4.35467M1220.93 0H1177.44M1220.93 0L1222.51 0.794667L1224.12 1.6L1224.65 1.87067L1225.19 2.14267M1269.39 2.14267L1270.03 2.416L1270.66 2.69067L1271.3 2.964L1274.53 4.35467M1177.44 0H1133.96M1177.44 0L1178.76 0.794667L1179.21 1.06133L1179.65 1.33067L1181 2.14267M1133.96 0H1090.47M1133.96 0L1136.8 2.14267M1090.47 0L1090.73 0.264L1090.99 0.529333L1092.33 1.87067L1092.6 2.14267M1090.47 0H1046.98M1136.8 2.14267H1092.6M1136.8 2.14267L1137.16 2.416L1137.52 2.69067L1137.89 2.964L1139.73 4.35467M1092.6 2.14267L1094.8 4.35467M1046.98 0H1003.49M1046.98 0L1048.4 2.14267M1003.49 0H960M1003.49 0L1003.75 0.794667L1004.2 2.14133M960 0H916.512M960 0V2.14267M1004.2 2.14133H1048.4M1004.2 2.14133H960M1004.2 2.14133L1004.93 4.35467M916.512 0H873.021M916.512 0L916.248 0.794667L915.801 2.14133H871.601M960 2.14267H915.801L915.067 4.35733M960 2.14267V4.35467M873.021 0H829.533M873.021 0L871.601 2.14267M829.533 0L829.271 0.264L829.008 0.529333L827.673 1.87067L827.403 2.14267M829.533 0H786.045M786.045 0H742.555M786.045 0L783.564 1.87067L783.203 2.14267M742.555 0H699.067M742.555 0L741.237 0.794667L740.795 1.06133L739.903 1.6L739.455 1.87067L739.004 2.14267M783.203 2.14267H739.004M783.203 2.14267L782.841 2.416L782.479 2.69067L782.113 2.964L780.268 4.35467M699.067 0H655.577M699.067 0L697.485 0.794667L695.884 1.6L695.345 1.87067L694.805 2.14267M739.004 2.14267L738.099 2.68933L736.264 3.796L735.335 4.35467M655.577 0H612.089M655.577 0L650.607 2.14267L649.973 2.41467L645.469 4.35467M612.089 0H568.6M612.089 0L610.687 0.529333L606.408 2.14267M568.6 0H525.111M568.6 0L562.208 2.14267M606.408 2.14267H562.208M606.408 2.14267L605.684 2.416L600.537 4.35467M525.111 0H481.623M525.111 0L518.009 2.14267M562.208 2.14267H518.009M562.208 2.14267L560.577 2.68933L559.756 2.964L555.604 4.35467M481.623 0H438.133M481.623 0L473.809 2.14267M518.009 2.14267H473.809M438.133 0H394.644M438.133 0L429.611 2.14267M473.809 2.14267H429.611M473.809 2.14267L471.817 2.68933L470.813 2.96267L465.737 4.35467M394.644 0H351.156M394.644 0L385.412 2.14267M429.611 2.14267H385.412M429.611 2.14267L428.525 2.416L420.804 4.35467M351.156 0H307.668M351.156 0L341.212 2.14267M385.412 2.14267H341.212M385.412 2.14267L383.056 2.68933L381.871 2.964L375.872 4.35467M307.668 0H264.177M307.668 0L297.013 2.14267M341.212 2.14267H297.013M341.212 2.14267L330.939 4.356M264.177 0H220.689M264.177 0L252.813 2.14267M297.013 2.14267H252.813M297.013 2.14267L294.296 2.68933L286.005 4.356M220.689 0H177.2M220.689 0L208.615 2.14267M252.813 2.14267H208.615M252.813 2.14267L249.916 2.68933L248.456 2.964L241.073 4.356M177.2 0H133.711M177.2 0L164.416 2.14267M208.615 2.14267H164.416M208.615 2.14267L196.14 4.356M133.711 0H90.2227M133.711 0L120.217 2.14267M164.416 2.14267H120.217M164.416 2.14267L151.207 4.356M90.2227 0H46.7333M90.2227 0L76.0187 2.14267M120.217 2.14267H76.0187M120.217 2.14267L106.273 4.356M46.7333 0H41.3067L35.936 0.00533333L30.676 0.0186667L25.5827 0.0453333L20.7093 0.0853333L16.1093 0.148L11.836 0.236L7.86933 0.346667L4.46667 0.5L1.368 0.68L0.517333 0.741333V2.14133V4.35467M46.7333 0L31.8187 2.14267M76.0187 2.14267H31.8187M31.8187 2.14267L16.408 4.356M31.8187 2.14267H0.517333M106.273 4.356L91.86 6.644M106.273 4.356H151.207M106.273 4.356H61.34L72.3933 2.688L76.0187 2.14133M151.207 4.356L137.552 6.64267M151.207 4.356H196.14M286.005 4.356L274.627 6.64267M286.005 4.356H330.939M286.005 4.356H241.073M330.939 4.356L320.319 6.64267M330.939 4.356L375.872 4.35467M465.737 4.35467L457.393 6.64267M465.737 4.35467L510.671 4.356M465.737 4.35467H420.804M518.009 2.14133L517.104 2.41467L516.197 2.68933L510.671 4.356M510.671 4.356L505.96 5.776L503.084 6.64267M510.671 4.356L555.604 4.35467M645.469 4.35467L640.159 6.64267M645.469 4.35467H690.403M645.469 4.35467H600.537M694.805 2.14133H650.607H606.408M694.805 2.14133L693.719 2.688L693.171 2.96267L692.623 3.24L690.403 4.35467M694.805 2.14133H739.004M690.403 4.35467L687.576 5.776L685.851 6.64267M690.403 4.35467H735.335M827.403 2.14133H871.601M827.403 2.14133H783.203M827.403 2.14133L825.201 4.35467M871.601 2.14133L871.421 2.41467L871.24 2.68933L871.057 2.96267L870.505 3.79467L870.135 4.35467M825.201 4.35467L824.639 4.92L823.788 5.776L823.213 6.352L822.925 6.64267M825.201 4.35467H870.135M825.201 4.35467H780.268M870.135 4.35467L869.571 5.204L868.809 6.352L868.617 6.64267M870.135 4.35467L915.067 4.35733M1048.4 2.14133L1048.58 2.41467L1048.76 2.68933L1048.94 2.96267L1049.87 4.35467M1048.4 2.14133H1092.6M1004.93 4.35467L1005.03 4.63867L1005.12 4.92133L1005.21 5.20533L1005.31 5.49067L1005.41 5.77733L1005.69 6.64267M1004.93 4.35467H1049.87M1004.93 4.35467H960M1049.87 4.35467L1050.43 5.204L1051.19 6.352L1051.38 6.64267M1049.87 4.35467H1094.8M1181 2.14133H1225.19M1181 2.14133H1136.8M1181 2.14133L1181.9 2.688L1183.74 3.79467L1184.2 4.07467L1184.67 4.35467M1225.19 2.14133L1226.28 2.688L1226.83 2.96267L1227.38 3.24L1229.6 4.35467M1225.19 2.14133H1269.39M1184.67 4.35467L1185.6 4.92L1188.46 6.64267M1184.67 4.35467H1229.6M1184.67 4.35467H1139.73M1229.6 4.35467L1232.42 5.776L1234.15 6.64267M1229.6 4.35467H1274.53M1357.79 2.14133H1401.99L1402.89 2.41467L1403.8 2.68933L1409.33 4.356M1357.79 2.14133H1313.59M1357.79 2.14133L1359.43 2.688L1360.24 2.96267L1364.4 4.35467M1364.4 4.35467L1370.36 6.352L1371.23 6.64267M1364.4 4.35467L1409.33 4.356M1364.4 4.35467H1319.46M1409.33 4.356L1414.04 5.776L1416.92 6.64267M1409.33 4.356L1454.27 4.35467M1544.13 4.35467L1553.99 6.64267M1544.13 4.35467H1589.07M1544.13 4.35467H1499.2M1589.07 4.35467L1578.79 2.14133H1622.99M1589.07 4.35467L1599.68 6.64267M1589.07 4.35467H1634M1622.99 2.14133L1625.71 2.688L1634 4.35467M1622.99 2.14133H1667.19M1711.39 2.14133H1755.59M1711.39 2.14133H1667.19M1711.39 2.14133L1723.85 4.35467M1755.59 2.14133L1768.8 4.35467M1755.59 2.14133H1799.79M1667.19 2.14133L1670.08 2.688L1671.55 2.96267L1678.93 4.35467M1723.85 4.35467L1736.76 6.64267M1723.85 4.35467H1678.93M1723.85 4.35467H1768.8M1768.8 4.35467L1782.45 6.64267M1768.8 4.35467H1813.72M1799.79 2.14133L1813.72 4.35467M1799.79 2.14133H1843.99L1847.6 2.688L1858.65 4.35467M0.361333 22.176H0.517333M44.8493 22.176L61.724 19.3493M44.8493 22.176L27.3267 25.112M44.8493 22.176H95.6893L146.532 22.1747M44.8493 22.176H0.516M61.724 19.3493H11.82L28.9867 16.624M61.724 19.3493L77.988 16.624L93.6733 13.9947M61.724 19.3493H111.627M0.517333 19.348H11.82L0.517333 21.1413M0.517333 19.348V21.14V22.1733V25.1107V28.16M0.517333 19.348V16.6213V13.9933V13.5253V11.4587M61.52 11.4587H108.809M61.52 11.4587L76.9507 9.00933M61.52 11.4587H14.2347M61.52 11.4587L45.544 13.9947M108.809 11.4587L123.427 9.00933M108.809 11.4587L93.6733 13.9947M108.809 11.4587H156.099M76.9507 9.00933H123.427M76.9507 9.00933L91.8587 6.64267M76.9507 9.00933H30.476M14.2347 11.4587L30.476 9.00933M14.2347 11.4587H0.517333M14.2347 11.4587L0.517333 13.5267M45.544 13.9947H93.6733M45.544 13.9947L28.988 16.6227M45.544 13.9947H0.517333M123.427 9.00933H169.904M123.427 9.00933L137.552 6.64267M93.6733 13.9947L141.803 13.996M30.476 9.00933L46.1693 6.64267M30.476 9.00933H0.516M169.904 9.00933L156.099 11.46M169.904 9.00933H216.38M169.904 9.00933L183.244 6.644M137.552 6.64267L183.244 6.644M137.552 6.64267L91.86 6.644M0.0293333 66.8H0.517333M0.517333 66.8H41.0533M0.517333 66.8V62.112M0.517333 66.8V71.7227V75.5333M41.0533 66.8L62.8133 62.112M41.0533 66.8L18.2133 71.72M41.0533 66.8H106.693M62.8133 62.112L83.568 57.6427M62.8133 62.112H126.899M62.8133 62.112H0.517333M18.2133 71.72H85.4827M18.2133 71.72H0.517333M18.2133 71.72L0.517333 75.5333M106.693 66.8L126.899 62.112M106.693 66.8L85.4827 71.72M106.693 66.8H172.332M83.568 57.6427H20.9653M83.568 57.6427L103.383 53.3747M83.568 57.6427L146.171 57.6413M126.899 62.112L146.171 57.6413M126.899 62.112H190.984M0.517333 62.112V61.7533M20.9653 57.6427L42.196 53.3733M20.9653 57.6427H0.517333M20.9653 57.6427L0.517333 61.7533M42.196 53.3733L62.4867 49.2947M42.196 53.3733L103.383 53.3747M0.517333 57.6427V61.7533M0.517333 57.6427V53.3733V49.6973M62.4867 49.2947H122.321M62.4867 49.2947L81.9 45.3907M62.4867 49.2947H2.65333M122.321 49.2947L140.441 45.3907M122.321 49.2947L103.383 53.3747M122.321 49.2947H182.156M81.9 45.3907H140.441M81.9 45.3907H23.36M81.9 45.3907L100.493 41.6533M2.65333 49.2947L23.36 45.3907M2.65333 49.2947L0.517333 49.2933M2.65333 49.2947L0.517333 49.6973M140.441 45.3907L157.793 41.6533M140.441 45.3907H198.981M103.383 53.3747H164.569M182.156 49.2947L198.981 45.3907M182.156 49.2947L164.569 53.3747M182.156 49.2947H241.989M23.36 45.3907L43.1933 41.6533M23.36 45.3907H0.517333M100.493 41.6533H157.793M100.493 41.6533H43.1933M100.493 41.6533L118.313 38.0707M157.793 41.6533L174.427 38.0707M157.793 41.6533H215.095M198.981 45.3907L215.095 41.6533M198.981 45.3907H257.521M135.411 34.6333H190.383M135.411 34.6333L151.827 31.332M135.411 34.6333H80.4373M135.411 34.6333L118.313 38.0707M190.383 34.6333L205.704 31.332M190.383 34.6333L174.427 38.0707M190.383 34.6333H245.356M151.827 31.332H205.704M151.827 31.332H97.948M151.827 31.332L167.601 28.1613M80.4373 34.6333H25.4667M80.4373 34.6333L97.948 31.332M80.4373 34.6333L62.2013 38.0707M118.313 38.0707H174.427M118.313 38.0707H62.2013M205.704 31.332L220.428 28.1613M205.704 31.332H259.583M174.427 38.0707H230.539M245.356 34.6333L259.583 31.332M245.356 34.6333L230.539 38.0707M245.356 34.6333H300.328M97.948 31.332H44.072M167.601 28.1613H220.428M167.601 28.1613H114.775M167.601 28.1613L182.772 25.1107M220.428 28.1613L234.588 25.1107M220.428 28.1613H273.255M259.583 31.332L273.255 28.1613M259.583 31.332H313.461M197.373 22.1747H248.216M197.373 22.1747L211.436 19.348M197.373 22.1747H146.532M197.373 22.1747L182.772 25.1107M248.216 22.1747L261.34 19.348M248.216 22.1747L234.588 25.1107M248.216 22.1747H299.057M211.436 19.348H261.34M211.436 19.348H161.532M211.436 19.348L224.989 16.6227M146.532 22.1747L161.532 19.348M146.532 22.1747L130.959 25.1107H182.772M182.772 25.1107H234.588M261.34 19.348L273.991 16.6227M261.34 19.348H311.244M234.588 25.1107H286.403M299.057 22.1747L311.244 19.348M299.057 22.1747L286.403 25.1107M299.057 22.1747H349.899M161.532 19.348H111.628M161.532 19.348L175.989 16.6227M224.989 16.6227H273.991M224.989 16.6227H175.989M224.989 16.6227L238.061 13.9947M273.991 16.6227L286.189 13.9947M273.991 16.6227H322.991M311.244 19.348L322.991 16.6227M311.244 19.348H361.149M250.675 11.4587H297.964M250.675 11.4587L262.856 9.00933M250.675 11.4587H203.388M250.675 11.4587L238.061 13.9947M297.964 11.4587L309.332 9.00933M297.964 11.4587L286.189 13.9947M297.964 11.4587H345.252M262.856 9.00933H309.332M262.856 9.00933L274.627 6.64267M262.856 9.00933H216.38M238.061 13.9947H286.189M238.061 13.9947H189.932M309.332 9.00933H355.809M309.332 9.00933L320.319 6.64267M286.189 13.9947H334.32M345.252 11.4587L355.809 9.00933M345.252 11.4587L334.32 13.9947M345.252 11.4587H392.54M274.627 6.64267H320.319M274.627 6.64267L228.935 6.644M216.38 9.00933L203.388 11.46M216.38 9.00933L228.935 6.644M355.809 9.00933H402.285M355.809 9.00933L366.009 6.64267M320.319 6.64267H366.009M34.1453 148.067L64.772 138.831M34.1453 148.067L1.34933 157.957M34.1453 148.067H126.732M34.1453 148.067H0.517333M64.772 138.831L93.4373 130.185M64.772 138.831H154.293M64.772 138.831H0.517333M1.34933 157.957L97.2147 157.956M1.34933 157.957L0.517333 157.956M1.34933 157.957L0.517333 158.207M0.517333 148.067V157.956M0.517333 148.067V138.831M93.4373 130.185L120.323 122.076L145.591 114.455M93.4373 130.185H180.093M93.4373 130.185H6.78M154.293 138.831L180.093 130.185M154.293 138.831L126.731 148.067M154.293 138.831L243.817 138.829M0.517333 138.831V131.901M64.1493 114.457H145.591M64.1493 114.457L90.32 107.28M64.1493 114.457L36.3547 122.076H0.517333M64.1493 114.455H0.517333M145.591 114.455L169.381 107.281M145.591 114.455H227.032M169.381 107.281L90.32 107.283M169.381 107.281L191.824 100.513M169.381 107.281H248.444M227.032 114.455L248.444 107.281M227.032 114.455L204.289 122.077M227.032 114.455L308.473 114.456M90.32 107.283H11.2587L38.188 100.513M90.32 107.283L115.007 100.513H191.824M191.824 100.513L213.025 94.12M191.824 100.513L268.641 100.512M248.444 107.281L268.641 100.512M248.444 107.281H327.505M160.397 88.068H233.089M160.397 88.068L181.313 82.3347M160.397 88.068H87.7067M160.397 88.068L138.328 94.12M233.089 88.068L252.103 82.336M233.089 88.068L213.025 94.12M233.089 88.068L305.78 88.0693L378.471 88.0667M181.313 82.3347L252.103 82.336M181.313 82.3347L110.524 82.336L87.7067 88.068M181.313 82.3347L201.161 76.8933M87.7067 88.068L15.0147 88.0667M87.7067 88.068L63.6307 94.12M138.328 94.12H213.025M138.328 94.12H63.6307M252.103 82.336L270.148 76.8933M252.103 82.336L322.892 82.3347M213.025 94.12L287.723 94.1187M201.161 76.8933H270.148M201.161 76.8933L132.177 76.892M201.161 76.8933L220.024 71.72M270.148 76.8933L287.295 71.72M270.148 76.8933L339.132 76.892M322.892 82.3347L339.132 76.892M322.892 82.3347L305.78 88.0667L287.723 94.1187M322.892 82.3347H393.683M237.971 66.8H303.611M237.971 66.8L255.068 62.112M237.971 66.8H172.332M237.971 66.8L220.024 71.72M303.611 66.8L319.153 62.112M303.611 66.8L287.295 71.72M303.611 66.8H369.249M255.068 62.112H319.153M255.068 62.112H190.984M255.068 62.112L271.375 57.6427M172.332 66.8L190.984 62.112M172.332 66.8L152.753 71.72H220.024M220.024 71.72H287.295M319.153 62.112L333.977 57.6427M319.153 62.112H383.237M287.295 71.72H354.565M369.249 66.8L383.237 62.112M369.249 66.8L354.565 71.72M369.249 66.8H434.888M190.984 62.112L208.772 57.6427M271.375 57.6427H333.977M271.375 57.6427H208.772M271.375 57.6427L286.944 53.3747M333.977 57.6427L348.131 53.3747M333.977 57.6427L396.58 57.6413M383.237 62.112L396.58 57.6413M383.237 62.112H447.323M301.824 49.2933H361.659M301.824 49.2933L316.061 45.3907M301.824 49.2933L241.989 49.2947M301.824 49.2933L286.944 53.3747M361.659 49.2933L374.601 45.3907M361.659 49.2933L348.131 53.3747M361.659 49.2933L421.492 49.2947M316.061 45.3907H374.601M316.061 45.3907H257.521M316.061 45.3907L329.695 41.6533M241.989 49.2947L257.521 45.3907M241.989 49.2947L225.756 53.3733M286.944 53.3747H348.131M286.944 53.3747L225.756 53.3733M374.601 45.3907L386.996 41.6533M374.601 45.3907H433.141M348.131 53.3747H409.317M421.492 49.2947L433.141 45.3907M421.492 49.2947L409.317 53.3747M421.492 49.2947H481.327M257.521 45.3907L272.395 41.6533M329.695 41.6533H386.996M329.695 41.6533H272.395M329.695 41.6533L342.764 38.0707M386.996 41.6533L398.876 38.0707M386.996 41.6533H444.296M433.141 45.3907L444.296 41.6533M433.141 45.3907H491.68M355.301 34.6333H410.273M355.301 34.6333L367.339 31.332M355.301 34.6333H300.328M355.301 34.6333L342.764 38.0707M410.273 34.6333L411.667 34.2133L421.217 31.3333M410.273 34.6333L398.876 38.0707M410.273 34.6333H465.247M367.339 31.332L421.217 31.3333M367.339 31.332H313.461M367.339 31.332L378.908 28.1613M300.328 34.6333L313.461 31.332M300.328 34.6333L286.651 38.0707M342.764 38.0707H398.876M342.764 38.0707H286.651M421.217 31.3333L431.735 28.1613M421.217 31.3333L475.096 31.332M398.876 38.0707H454.988M465.247 34.6333L475.096 31.332M465.247 34.6333L454.988 38.0707M465.247 34.6333H520.219M313.461 31.332L326.081 28.1613M378.908 28.1613H431.735M378.908 28.1613H326.081M378.908 28.1613L390.033 25.1107M431.735 28.1613L440.605 25.4853L441.848 25.1107M431.735 28.1613H484.561M475.096 31.332L484.561 28.1613M475.096 31.332H528.975M400.74 22.1747H451.583M400.74 22.1747L411.053 19.348M400.74 22.1747H349.899M400.74 22.1747L390.033 25.1107M451.583 22.1747L460.957 19.348M451.583 22.1747L447.976 23.2627L441.848 25.1107M451.583 22.1747H502.424M411.053 19.348H460.957M411.053 19.348H361.149M411.053 19.348L420.992 16.6227M349.899 22.1747L359.765 19.6947L361.149 19.348M349.899 22.1747L338.217 25.1107M390.033 25.1107H441.848M390.033 25.1107H338.217M460.957 19.348L469.993 16.6227M460.957 19.348H510.861M441.848 25.1107H493.663M502.424 22.1747L510.861 19.348M502.424 22.1747L500.264 22.8987L493.663 25.1107M502.424 22.1747H553.267M361.149 19.348L371.992 16.6227M420.992 16.6227H469.993M420.992 16.6227H371.992M420.992 16.6227L430.579 13.9947M469.993 16.6227L478.707 13.9947M469.993 16.6227H518.993M510.861 19.348L518.993 16.6227M510.861 19.348H560.767M439.828 11.4587H487.117M439.828 11.4587L448.761 9.00933M439.828 11.4587H392.54M439.828 11.4587L430.579 13.9947M487.117 11.4587L493.235 9.61333L494.237 9.31067L495.239 9.00933M487.117 11.4587L478.707 13.9947M487.117 11.4587H534.405M448.761 9.00933H495.239M448.761 9.00933L457.393 6.64267M448.761 9.00933H402.285M392.54 11.4587L402.285 9.00933M392.54 11.4587L382.449 13.9947M430.579 13.9947H478.707M430.579 13.9947H382.449M495.239 9.00933H541.715M495.239 9.00933L503.084 6.64267M478.707 13.9947H526.836M534.405 11.4587L541.715 9.00933M534.405 11.4587L526.836 13.9947M534.405 11.4587H581.693M457.393 6.64267H503.084M457.393 6.64267H411.701M402.285 9.00933L411.701 6.64267M541.715 9.00933H588.191M541.715 9.00933L548.776 6.64267M503.084 6.64267H548.776M67.6907 253.277H195.164M67.6907 253.277L107.829 235.985M67.6907 253.277L23.584 272.28M67.6907 253.277H0.517333M195.164 253.277L229.568 235.985M195.164 253.277L157.359 272.28M195.164 253.277H322.636M107.829 235.985H229.568M107.829 235.985L144.512 220.181M107.829 235.985H0.517333M23.584 272.28H157.359M23.584 272.28L0.517333 282.219M23.584 272.28H0.517333M0.517333 253.277V272.28M0.517333 253.277V235.985M229.568 235.985L261.011 220.181M229.568 235.985H351.307M157.359 272.28L115.621 293.259M157.359 272.28H291.132M322.636 253.277L351.307 235.985M322.636 253.277L291.132 272.28M322.636 253.277H450.109M144.512 220.181H261.011M144.512 220.181H28.0133M144.512 220.181L178.167 205.681M0.517333 235.985V230.547M261.011 220.181L289.857 205.681M261.011 220.181H377.509M351.307 235.985L377.509 220.181M351.307 235.985H473.045M209.155 192.332H316.419M209.155 192.332L237.779 179.999M209.155 192.332H101.891M209.155 192.332L178.167 205.681M316.419 192.332L340.953 179.999M316.419 192.332L289.857 205.681M316.419 192.332H423.681M237.779 179.999H340.953M237.779 179.999H134.604M237.779 179.999L264.301 168.573M101.891 192.332L134.604 179.999M101.891 192.332L66.4773 205.681M101.891 192.332H0.517333M178.167 205.681H289.857M178.167 205.681H66.4773M340.953 179.999L363.687 168.573M340.953 179.999H444.128M289.857 205.681H401.548M423.681 192.332L444.128 179.999M423.681 192.332L401.548 205.681M423.681 192.332H530.945M134.604 179.999H31.4307M134.604 179.999L164.916 168.573M264.301 168.573H363.687M264.301 168.573H164.916M264.301 168.573L288.944 157.956M363.687 168.573L384.809 157.956M363.687 168.573H463.072M444.128 179.999L463.072 168.573M444.128 179.999H547.303M311.903 148.065H404.487M311.903 148.065L333.34 138.829M311.903 148.065H219.316M311.903 148.065L288.944 157.956M404.487 148.065L422.863 138.829M404.487 148.065L384.809 157.956M404.487 148.065H497.072M333.34 138.829H422.863M333.34 138.829H243.817M333.34 138.829L353.405 130.184M219.316 148.065L126.731 148.067M219.316 148.065L243.817 138.829M219.316 148.065L193.079 157.956M288.944 157.956H384.809M288.944 157.956H193.079M422.863 138.829L440.063 130.184M422.863 138.829H512.387M384.809 157.956H480.675M497.072 148.065L512.387 138.829M497.072 148.065L480.675 157.956M497.072 148.065H589.659M243.817 138.829L266.749 130.185M353.405 130.184H440.063M353.405 130.184L266.749 130.185M353.405 130.184L372.225 122.079H456.193L540.161 122.077M440.063 130.184L456.193 122.076L471.355 114.456M440.063 130.184L526.719 130.185M512.387 138.829L526.719 130.185M512.387 138.829H601.909M389.913 114.456H471.355M389.913 114.456L406.568 107.28M389.913 114.456H308.473M389.913 114.456L372.225 122.076H288.257L308.473 114.456M471.355 114.456L485.629 107.281M471.355 114.456L552.796 114.455M406.568 107.28L485.629 107.281M406.568 107.28L327.505 107.281M406.568 107.28L422.276 100.512M308.473 114.456L327.505 107.281M485.629 107.281L499.095 100.512M485.629 107.281L564.691 107.28M552.796 114.455L564.691 107.28M552.796 114.455L540.161 122.077M552.796 114.455L634.236 114.456M422.276 100.512H499.095M422.276 100.512H345.459M422.276 100.512L437.117 94.1187M499.095 100.512L511.816 94.1187M499.095 100.512H575.912M564.691 107.28L575.912 100.512M564.691 107.28L643.753 107.281M451.163 88.0667H523.853M451.163 88.0667L464.472 82.3333M451.163 88.0667H378.471M451.163 88.0667L437.117 94.1187M523.853 88.0667L535.261 82.3347M523.853 88.0667L511.816 94.1187M523.853 88.0667L596.545 88.068M464.472 82.3333L535.261 82.3347M464.472 82.3333L393.683 82.3347M464.472 82.3333L477.103 76.892M378.471 88.0667L393.683 82.3347M378.471 88.0667L362.421 94.12M437.117 94.1187H511.816M437.117 94.1187L362.421 94.12M535.261 82.3347L546.088 76.892M535.261 82.3347L606.052 82.3333M511.816 94.1187H586.513M596.545 88.068L606.052 82.3333M596.545 88.068L586.513 94.1187M596.545 88.068L669.236 88.0667M393.683 82.3347L408.119 76.892M477.103 76.892H546.088M477.103 76.892H408.119M477.103 76.892L489.107 71.72M546.088 76.892L556.376 71.72M546.088 76.892H615.073M606.052 82.3333L615.073 76.892M606.052 82.3333L676.841 82.3347M500.528 66.8H566.167M500.528 66.8L511.408 62.112M500.528 66.8H434.888M500.528 66.8L489.107 71.72M566.167 66.8L575.492 62.112M566.167 66.8L556.376 71.72M566.167 66.8H631.805M511.408 62.112H575.492M511.408 62.112H447.323M511.408 62.112L521.784 57.6427M434.888 66.8L447.323 62.112M434.888 66.8L421.836 71.72M489.107 71.72H556.376M489.107 71.72H421.836M575.492 62.112L584.387 57.6427M575.492 62.112H639.576M556.376 71.72H623.647M631.805 66.8L639.576 62.112M631.805 66.8L623.647 71.72M631.805 66.8H697.444M447.323 62.112L459.181 57.6413M521.784 57.6427H584.387M521.784 57.6427L459.181 57.6413M521.784 57.6427L531.692 53.372H592.879M584.387 57.6427L592.879 53.372M584.387 57.6427L646.988 57.6413M639.576 62.112L644.251 59.2933L646.988 57.6413M639.576 62.112H703.661M541.16 49.2933H600.996M541.16 49.2933L550.221 45.3907M541.16 49.2933L481.327 49.2947M541.16 49.2933L531.692 53.3747L470.504 53.3733M600.996 49.2933L608.76 45.3907M600.996 49.2933L592.879 53.3747M600.996 49.2933L660.829 49.2947M550.221 45.3907H608.76M550.221 45.3907H491.68M550.221 45.3907L558.897 41.6533M481.327 49.2947L491.68 45.3907M481.327 49.2947L470.504 53.3733M608.76 45.3907L616.197 41.6533M608.76 45.3907H667.301M660.829 49.2947L667.301 45.3907M660.829 49.2947L659.167 50.296L654.065 53.372M491.68 45.3907L501.596 41.652M558.897 41.6533H616.197M558.897 41.6533L501.596 41.652M558.897 41.6533L567.212 38.0707M616.197 41.6533L619.799 39.8413L623.325 38.0707M616.197 41.6533L673.497 41.652M667.301 45.3907L673.497 41.652M667.301 45.3907H725.84M575.191 34.6333H630.165M575.191 34.6333L582.852 31.332M575.191 34.6333H520.219M575.191 34.6333L567.212 38.0707M630.165 34.6333L629.324 35.0547L623.325 38.0707M630.165 34.6333L636.731 31.332M630.165 34.6333H685.137M582.852 31.332H636.731M582.852 31.332H528.975M582.852 31.332L590.215 28.1613M520.219 34.6333L528.975 31.332M520.219 34.6333L511.101 38.0693M567.212 38.0707H623.325M567.212 38.0707L511.101 38.0693M623.325 38.0707L679.439 38.0693M636.731 31.332L643.041 28.1613M636.731 31.332H690.609M685.137 34.6333L690.609 31.3307M685.137 34.6333L679.439 38.0693M685.137 34.6333H740.109M528.975 31.332L537.388 28.1613M590.215 28.1613H643.041M590.215 28.1613H537.388M590.215 28.1613L597.295 25.1107M643.041 28.1613L649.109 25.1107M643.041 28.1613L695.867 28.16M604.108 22.1747H654.949M604.108 22.1747L610.671 19.348M604.108 22.1747H553.267M604.108 22.1747L597.295 25.1107M654.949 22.1747L660.575 19.348M654.949 22.1747L652.785 23.2627L651.325 23.996L649.109 25.1107M654.949 22.1747H705.791M610.671 19.348H660.575M610.671 19.348H560.767M610.671 19.348L616.995 16.6227M553.267 22.1747L560.767 19.348M553.267 22.1747L545.479 25.1093M597.295 25.1107H649.109M597.295 25.1107L545.479 25.1093M660.575 19.348L662.631 18.3147L663.987 17.6333L665.996 16.6227M660.575 19.348H710.479M649.109 25.1107H700.924M705.791 22.1747L706.98 21.4573L710.479 19.348M705.791 22.1747L705.193 22.5347L704.592 22.8987L702.772 23.996L702.157 24.3653L700.924 25.1107M705.791 22.1747H756.632M560.767 19.348L567.995 16.6227M616.995 16.6227H665.996M616.995 16.6227H567.995M616.995 16.6227L621.591 14.6427L623.096 13.9947M665.996 16.6227L668.633 15.2973L671.224 13.9947M665.996 16.6227H714.997M710.479 19.348L711.053 19.0013L711.624 18.6573L713.883 17.2947L714.997 16.6227M710.479 19.348H760.384M628.983 11.4587H676.269M628.983 11.4587L633.264 9.61333L634.667 9.00933M628.983 11.4587H581.693M628.983 11.4587L623.843 13.672L623.096 13.9947M676.269 11.4587L679.941 9.61333L680.543 9.31067L681.143 9.00933M676.269 11.4587L673.769 12.7147L671.224 13.9947M676.269 11.4587H723.559M634.667 9.00933H681.143M634.667 9.00933L640.159 6.64267M634.667 9.00933H588.191M581.693 11.4587L588.191 9.00933M581.693 11.4587L574.965 13.9947M623.096 13.9947H671.224M623.096 13.9947H574.965M681.143 9.00933H727.619M681.143 9.00933L685.851 6.64267M671.224 13.9947H719.353M723.559 11.4587L727.619 9.00933M723.559 11.4587L719.353 13.9947M723.559 11.4587H770.847M640.159 6.64267H685.851M640.159 6.64267H594.468M588.191 9.00933L592.919 7.22667L594.468 6.64267M727.619 9.00933H774.095M727.619 9.00933L730.573 7.22667L731.543 6.64267M685.851 6.64267H731.543M577.581 253.277H705.055M577.581 253.277L594.784 235.985M577.581 253.277H450.109M577.581 253.277L558.679 272.28M705.055 253.277L716.523 235.985M705.055 253.277L692.453 272.28M705.055 253.277H832.528M594.784 235.985H716.523M594.784 235.985H473.045M594.784 235.985L610.505 220.181M450.109 253.277L473.045 235.985M450.109 253.277L424.905 272.28M558.679 272.28H692.453M558.679 272.28L537.811 293.259M558.679 272.28H424.905M716.523 235.985L727.004 220.181M716.523 235.985H838.261M692.453 272.28L678.54 293.259M692.453 272.28H826.227M832.528 253.277L838.261 235.985M832.528 253.277L826.227 272.28M832.528 253.277H960M473.045 235.985L494.007 220.181M610.505 220.181H727.004M610.505 220.181H494.007M610.505 220.181L624.928 205.681M727.004 220.181L736.62 205.681M727.004 220.181H843.501M838.261 235.985L843.501 220.181M838.261 235.985H960M638.209 192.332H745.472M638.209 192.332L650.477 179.999M638.209 192.332H530.945M638.209 192.332L624.928 205.681M745.472 192.332L753.651 179.999M745.472 192.332L736.62 205.681M745.472 192.332H852.737M650.477 179.999H753.651M650.477 179.999H547.303M650.477 179.999L661.844 168.573M530.945 192.332L547.303 179.999M530.945 192.332L513.239 205.681M624.928 205.681H736.62M624.928 205.681H513.239M753.651 179.999L761.229 168.573M753.651 179.999H856.825M736.62 205.681H848.309M852.737 192.332L856.825 179.999M852.737 192.332L848.309 205.681M852.737 192.332H960M547.303 179.999L562.459 168.573M661.844 168.573H761.229M661.844 168.573H562.459M661.844 168.573L672.405 157.956M761.229 168.573L768.271 157.956M761.229 168.573H860.615M856.825 179.999L860.615 168.573M856.825 179.999H960M682.244 148.065H774.829M682.244 148.065L691.432 138.829M682.244 148.065H589.659M682.244 148.065L672.405 157.956M774.829 148.065L780.955 138.829M774.829 148.065L768.271 157.956M774.829 148.065H867.415M691.432 138.829H780.955M691.432 138.829H601.909M691.432 138.829L700.031 130.184M589.659 148.065L601.909 138.829M589.659 148.065L576.54 157.956M672.405 157.956H768.271M672.405 157.956H576.54M780.955 138.829L786.688 130.184M780.955 138.829H870.477M768.271 157.956H864.135M867.415 148.065L870.477 138.829M867.415 148.065L864.135 157.956M867.415 148.065H960M601.909 138.829L613.375 130.185M700.031 130.184H786.688M700.031 130.184L613.375 130.185M700.031 130.184L708.097 122.079H792.064L876.032 122.077M786.688 130.184L792.064 122.076L797.117 114.456M786.688 130.184L873.344 130.185M870.477 138.829L873.344 130.185M870.477 138.829H960M715.677 114.456H797.117M715.677 114.456L722.815 107.28M715.677 114.456H634.236M715.677 114.456L708.097 122.076H624.129L634.236 114.456M797.117 114.456L801.876 107.281M797.117 114.456L878.559 114.455M722.815 107.28L801.876 107.281M722.815 107.28L643.753 107.281M722.815 107.28L729.547 100.512M634.236 114.456L643.753 107.281M801.876 107.281L806.365 100.512M801.876 107.281L880.939 107.28M878.559 114.455L880.939 107.28M878.559 114.455L876.032 122.077M878.559 114.455L960 114.456M643.753 107.281L652.729 100.512M729.547 100.512H806.365M729.547 100.512H652.729M729.547 100.512L735.908 94.1187M806.365 100.512L810.605 94.1187M806.365 100.512H883.183M880.939 107.28L883.183 100.512M880.939 107.28L960 107.281M741.927 88.0667H814.619M741.927 88.0667L747.631 82.3333M741.927 88.0667H669.236M741.927 88.0667L735.908 94.1187M814.619 88.0667L818.42 82.3347M814.619 88.0667L810.605 94.1187M814.619 88.0667L887.309 88.068M747.631 82.3333L818.42 82.3347M747.631 82.3333L676.841 82.3347M747.631 82.3333L753.044 76.892M669.236 88.0667L676.841 82.3347M669.236 88.0667L661.209 94.12M735.908 94.1187H810.605M735.908 94.1187L661.209 94.12M818.42 82.3347L822.029 76.892M818.42 82.3347L889.211 82.3333M810.605 94.1187H885.303M887.309 88.068L889.211 82.3333M887.309 88.068L885.303 94.1187M887.309 88.068L960 88.0667M676.841 82.3347L684.059 76.892M753.044 76.892H822.029M753.044 76.892H684.059M753.044 76.892L758.189 71.72M822.029 76.892L825.459 71.72M822.029 76.892H891.015M889.211 82.3333L891.015 76.892M889.211 82.3333L960 82.3347M763.083 66.8H828.721M763.083 66.8L767.745 62.112M763.083 66.8H697.444M763.083 66.8L758.189 71.72M828.721 66.8L831.831 62.112M828.721 66.8L825.459 71.72M828.721 66.8H894.361M767.745 62.112H831.831M767.745 62.112H703.661M767.745 62.112L769.439 60.412L772.193 57.6427M697.444 66.8L703.661 62.112M697.444 66.8L690.917 71.72M758.189 71.72H825.459M758.189 71.72H690.917M831.831 62.112L834.796 57.6427M831.831 62.112H895.916M825.459 71.72H892.729M894.361 66.8L895.916 62.112M894.361 66.8L892.729 71.72M894.361 66.8H960M703.661 62.112L709.591 57.6427M772.193 57.6427H834.796M772.193 57.6427H709.591M772.193 57.6427L776.439 53.3733M834.796 57.6427L837.625 53.3747M834.796 57.6427L897.397 57.6413M895.916 62.112L897.397 57.6413M895.916 62.112H960M780.497 49.2933H840.332M780.497 49.2933L784.38 45.3907M780.497 49.2933L720.663 49.2947M780.497 49.2933L777.472 52.3373L776.439 53.3733M840.332 49.2933L841.316 47.8107L842.92 45.3907M840.332 49.2933L837.625 53.3747M840.332 49.2933L900.167 49.2947M784.38 45.3907L784.853 44.9147L788.099 41.6533M784.38 45.3907H842.92M784.38 45.3907H725.84M720.663 49.2947L725.84 45.3907M720.663 49.2947L720 49.7933L717.988 51.3093L715.252 53.3733M776.439 53.3733L837.625 53.3747M776.439 53.3733H715.252M842.92 45.3907L843.863 43.9707L844.172 43.5013L844.483 43.036L845.399 41.6533M842.92 45.3907H901.46M837.625 53.3747H898.813M900.167 49.2947L901.46 45.3907M900.167 49.2947L898.813 53.3747M900.167 49.2947H960M788.099 41.6533H845.399M788.099 41.6533L730.799 41.652M788.099 41.6533L791.663 38.0707M725.84 45.3907L730.799 41.652M845.399 41.6533L902.7 41.652M901.46 45.3907L901.617 44.9133L902.7 41.652M901.46 45.3907H960M795.081 34.6333H850.055M795.081 34.6333L796.74 32.9667L797.149 32.5533L797.556 32.1453L797.963 31.7373L798.365 31.332M795.081 34.6333H740.109M795.081 34.6333L791.663 38.0707M850.055 34.6333L851.704 32.1453L851.975 31.7373L852.243 31.332M850.055 34.6333L847.776 38.0707M850.055 34.6333H905.028M798.365 31.332H852.243M798.365 31.332H744.487M798.365 31.332L800.352 29.336L800.743 28.9413L801.52 28.1613M740.109 34.6333L743.409 32.144L744.487 31.3307M740.109 34.6333L738.421 35.904L736.707 37.196L735.549 38.0707M791.663 38.0707H847.776M791.663 38.0707H735.549M852.243 31.332L853.568 29.336L853.829 28.9413L854.088 28.5507L854.347 28.16M852.243 31.332L906.123 31.3333M847.776 38.0707L846.599 39.8413L846.303 40.2907L845.399 41.6507M847.776 38.0707L903.887 38.0693M905.028 34.6333L906.123 31.3333M905.028 34.6333L904.605 35.904L904.177 37.196L903.887 38.0693M905.028 34.6333H960M801.52 28.1613L854.347 28.16M801.52 28.1613H748.693M801.52 28.1613L804.555 25.1107M854.347 28.16L856.369 25.1107M854.347 28.16L907.173 28.1613M906.123 31.3333L907.173 28.1613M906.123 31.3333L960 31.332H1013.88M807.475 22.1747H858.317M807.475 22.1747L810.288 19.348M807.475 22.1747H756.632M807.475 22.1747L806.755 22.8987L805.663 23.996L804.555 25.1107M858.317 22.1747L858.077 22.5347L856.617 24.7373L856.369 25.1107M858.317 22.1747L860.192 19.348M858.317 22.1747H909.159M810.288 19.348H860.192M810.288 19.348H760.384M810.288 19.348L812.999 16.6227M756.632 22.1747L759.921 19.6947L760.384 19.348M756.632 22.1747L756.155 22.5347L755.673 22.8987L755.191 23.2627L752.74 25.1093M804.555 25.1107H856.369M804.555 25.1107L752.74 25.1093M856.369 25.1107H908.185M860.192 19.348L860.877 18.3147L861.103 17.972L861.329 17.6333L861.999 16.6227M860.192 19.348H910.096M909.159 22.1747L909.865 20.044L909.98 19.6947L910.096 19.348M909.159 22.1747L908.185 25.1107M909.159 22.1747H960M760.384 19.348L763.997 16.6227M812.999 16.6227H861.999M812.999 16.6227H763.997M812.999 16.6227L813.66 15.956L813.989 15.6267L814.316 15.2973L814.644 14.9693L814.967 14.6427L815.291 14.3187L815.612 13.9947M861.999 16.6227L862.22 16.2893L862.44 15.956L862.879 15.2973L863.095 14.9693L863.312 14.6427L863.527 14.3173L863.741 13.9947M861.999 16.6227H911M910.096 19.348L911 16.6227M910.096 19.348H960M818.136 11.4587H865.423M818.136 11.4587L819.971 9.61333L820.571 9.00933M818.136 11.4587H770.847M818.136 11.4587L817.199 12.3987L816.885 12.7147L816.568 13.0333L815.612 13.9947M865.423 11.4587L865.629 11.148L866.039 10.5293L866.445 9.91733L867.047 9.00933M865.423 11.4587L864.589 12.7147L864.38 13.0333L863.955 13.6733L863.741 13.9947M865.423 11.4587H912.712M820.571 9.00933H867.047M820.571 9.00933L822.635 6.93467L822.925 6.64267M820.571 9.00933H774.095M770.847 11.4587L774.095 9.00933M770.847 11.4587L767.483 13.9947M815.612 13.9947H863.741M815.612 13.9947H767.483M867.047 9.00933L867.247 8.70933L867.445 8.41067L867.643 8.112L867.839 7.816L868.424 6.93467L868.617 6.64267M867.047 9.00933H913.524M863.741 13.9947H911.871M912.712 11.4587L913.524 9.00933M912.712 11.4587L911.871 13.9947M912.712 11.4587H960M822.925 6.64267H868.617M822.925 6.64267H777.233M774.095 9.00933L775.679 7.816L776.848 6.93467L777.233 6.64267M868.617 6.64267H914.309M913.524 9.00933L913.623 8.70933L913.723 8.41067L913.821 8.112L914.309 6.64267M913.524 9.00933H960M1087.47 253.277H1214.95M1087.47 253.277L1081.74 235.985M1087.47 253.277H960M1087.47 253.277L1093.77 272.28M1214.95 253.277L1203.48 235.985M1214.95 253.277L1227.55 272.28M1214.95 253.277H1342.41M1081.74 235.985H1203.48M1081.74 235.985H960M1081.74 235.985L1076.5 220.181M960 253.277V235.985M960 253.277V272.28M1093.77 272.28H1227.55M1093.77 272.28L1100.73 293.259M1093.77 272.28H960M1203.48 235.985L1193 220.181M1203.48 235.985H1325.22M1227.55 272.28L1241.46 293.259M1227.55 272.28H1361.32M1342.41 253.277L1325.22 235.985M1342.41 253.277L1361.32 272.28M1342.41 253.277H1469.89M960 235.985V220.181M1076.5 220.181H1193M1076.5 220.181H960M1076.5 220.181L1071.69 205.681M1193 220.181L1183.38 205.681M1193 220.181H1309.49M1325.22 235.985L1309.49 220.181M1325.22 235.985H1446.96M1067.26 192.332H1174.53M1067.26 192.332L1063.17 179.999M1067.26 192.332H960M1067.26 192.332L1071.69 205.681M1174.53 192.332L1166.35 179.999M1174.53 192.332L1183.38 205.681M1174.53 192.332H1281.79M1063.17 179.999H1166.35M1063.17 179.999H960M1063.17 179.999L1059.39 168.573M960 192.332V179.999M960 192.332V205.681M1071.69 205.681H1183.38M1071.69 205.681H960M1166.35 179.999L1158.77 168.573M1166.35 179.999H1269.52M1183.38 205.681H1295.07M1281.79 192.332L1269.52 179.999M1281.79 192.332L1295.07 205.681M1281.79 192.332H1389.05M960 179.999V168.573M1059.39 168.573H1158.77M1059.39 168.573H960M1059.39 168.573L1055.87 157.956M1158.77 168.573L1151.73 157.956M1158.77 168.573H1258.16M1269.52 179.999L1258.16 168.573M1269.52 179.999H1372.69M1052.59 148.065H1145.17M1052.59 148.065L1049.52 138.829M1052.59 148.065H960M1052.59 148.065L1055.87 157.956M1145.17 148.065L1139.05 138.829M1145.17 148.065L1151.73 157.956M1145.17 148.065H1237.76M1049.52 138.829H1139.05M1049.52 138.829H960M1049.52 138.829L1046.66 130.184M960 148.065V138.829M960 148.065V157.956M1055.87 157.956H1151.73M1055.87 157.956H960M1139.05 138.829L1133.31 130.184M1139.05 138.829H1228.57M1151.73 157.956H1247.59M1237.76 148.065L1228.57 138.829M1237.76 148.065L1247.59 157.956M1237.76 148.065H1330.34M960 138.829V130.183M1046.66 130.184H1133.31M1046.66 130.184L960 130.185M1046.66 130.184L1043.97 122.079H1127.94L1211.9 122.077M1133.31 130.184L1127.94 122.076L1122.88 114.456M1133.31 130.184L1219.97 130.185M1228.57 138.829L1219.97 130.185M1228.57 138.829H1318.09M1041.44 114.456H1122.88M1041.44 114.456L1039.06 107.28M1041.44 114.456H960M1041.44 114.456L1043.97 122.076H960V114.456M1122.88 114.456L1118.12 107.281M1122.88 114.456L1204.32 114.455M1039.06 107.28L1118.12 107.281M1039.06 107.28L960 107.281M1039.06 107.28L1036.82 100.512M960 114.456V107.281M1118.12 107.281L1113.63 100.512M1118.12 107.281L1197.19 107.28M1204.32 114.455L1197.19 107.28M1204.32 114.455L1211.9 122.077M1204.32 114.455L1285.76 114.456M960 107.281V100.512M1036.82 100.512H1113.63M1036.82 100.512H960M1036.82 100.512L1034.7 94.1187M1113.63 100.512L1109.39 94.1187M1113.63 100.512H1190.45M1197.19 107.28L1190.45 100.512M1197.19 107.28L1276.25 107.281M1032.69 88.0667H1105.38M1032.69 88.0667L1030.79 82.3333M1032.69 88.0667H960M1032.69 88.0667L1034.7 94.1187M1105.38 88.0667L1101.58 82.3347M1105.38 88.0667L1109.39 94.1187M1105.38 88.0667L1178.07 88.068M1030.79 82.3333L1101.58 82.3347M1030.79 82.3333L960 82.3347M1030.79 82.3333L1028.99 76.892M960 88.0667V82.3347M960 88.0667V94.12M1034.7 94.1187H1109.39M1034.7 94.1187L960 94.12M1101.58 82.3347L1097.97 76.892M1101.58 82.3347L1172.37 82.3333M1109.39 94.1187H1184.09M1178.07 88.068L1172.37 82.3333M1178.07 88.068L1184.09 94.1187M1178.07 88.068L1250.76 88.0667M960 82.3347V76.892M1028.99 76.892H1097.97M1028.99 76.892H960M1028.99 76.892L1027.48 72.3533L1027.27 71.72M1097.97 76.892L1094.54 71.72M1097.97 76.892H1166.96M1172.37 82.3333L1166.96 76.892M1172.37 82.3333L1243.16 82.3347M1025.64 66.8H1091.28M1025.64 66.8L1024.08 62.112M1025.64 66.8H960M1025.64 66.8L1027.27 71.72M1091.28 66.8L1088.17 62.112M1091.28 66.8L1094.54 71.72M1091.28 66.8H1156.92M1024.08 62.112H1088.17M1024.08 62.112H960M1024.08 62.112L1022.6 57.6427M960 66.8V62.112M960 66.8V71.72M1027.27 71.72H1094.54M1027.27 71.72H960M1088.17 62.112L1085.2 57.6427M1088.17 62.112H1152.25M1094.54 71.72H1161.81M1156.92 66.8L1152.25 62.112M1156.92 66.8L1161.81 71.72M1156.92 66.8H1222.56M960 62.112V57.6413M1022.6 57.6427H1085.2M1022.6 57.6427L960 57.6413M1022.6 57.6427L1021.19 53.372H1082.37M1085.2 57.6427L1082.37 53.372M1085.2 57.6427L1147.81 57.6413M1152.25 62.112L1151.12 60.9747L1147.81 57.6413M1152.25 62.112H1216.34M1019.83 49.2933H1079.67M1019.83 49.2933L1018.54 45.3907M1019.83 49.2933L960 49.2947M1019.83 49.2933L1021.19 53.3747L960 53.3733M1079.67 49.2933L1077.4 45.8693L1077.08 45.3907M1079.67 49.2933L1082.37 53.3747M1079.67 49.2933L1139.5 49.2947M1018.54 45.3907L1018.38 44.9147L1017.3 41.6533M1018.54 45.3907H1077.08M1018.54 45.3907H960M960 49.2947V45.3907M960 49.2947V53.3733M1077.08 45.3907L1076.14 43.9707L1075.83 43.5013L1075.52 43.036L1074.6 41.6533M1077.08 45.3907H1135.62M1139.5 49.2947L1135.62 45.3907M1139.5 49.2947L1142.53 52.336L1143.56 53.372M1017.3 41.6533H1074.6M1017.3 41.6533L960 41.652M1017.3 41.6533L1017 40.7413L1016.41 38.9507L1016.11 38.0707M960 45.3907V41.652M1074.6 41.6533L1131.9 41.652M1135.62 45.3907L1131.9 41.652M1135.62 45.3907H1194.16M1014.97 34.6333H1069.95M1014.97 34.6333L1013.88 31.332M1014.97 34.6333H960M1014.97 34.6333L1015.39 35.9053L1015.54 36.3333L1015.68 36.764L1015.97 37.632L1016.11 38.0707M1069.95 34.6333L1068.3 32.1453L1067.76 31.332M1069.95 34.6333L1072.22 38.0707M1069.95 34.6333H1124.92M1013.88 31.332H1067.76M1013.88 31.332L1012.83 28.1613M960 34.6333V31.3307V28.1613M960 34.6333V38.0693M1016.11 38.0707H1072.22M1016.11 38.0707L960 38.0693M1067.76 31.332L1066.43 29.336L1066.17 28.9413L1065.91 28.5507L1065.65 28.16M1067.76 31.332L1121.63 31.3333M1072.22 38.0707L1073.4 39.8413L1073.7 40.2907L1074.6 41.6507M1072.22 38.0707L1128.34 38.0693M1124.92 34.6333L1122.85 32.5547L1122.44 32.1453L1122.04 31.7373L1121.63 31.3333M1124.92 34.6333L1127.9 37.632L1128.34 38.0693M1124.92 34.6333H1179.89M1012.83 28.1613L1065.65 28.16M1012.83 28.1613H960M1012.83 28.1613L1011.81 25.1107M1065.65 28.16L1063.63 25.1107M1065.65 28.16L1118.48 28.1613M1121.63 31.3333L1120.04 29.732L1119.65 29.336L1119.26 28.9413L1118.48 28.1613M1121.63 31.3333L1175.51 31.332H1229.39M1010.84 22.1747H1061.68M1010.84 22.1747L1009.9 19.348M1010.84 22.1747H960M1010.84 22.1747L1011.81 25.1107M1061.68 22.1747L1061.92 22.5347L1063.38 24.7373L1063.63 25.1107M1061.68 22.1747L1059.81 19.348M1061.68 22.1747H1112.53M1009.9 19.348H1059.81M1009.9 19.348H960M1009.9 19.348L1009 16.6227M960 22.1747V19.348M960 22.1747V25.1093M1011.81 25.1107H1063.63M1011.81 25.1107L960 25.1093M1063.63 25.1107H1115.45M1059.81 19.348L1059.12 18.3147L1058.9 17.972L1058.67 17.6333L1058 16.6227M1059.81 19.348H1109.71M1112.53 22.1747L1109.71 19.348M1112.53 22.1747L1113.25 22.8987L1114.34 23.996L1115.45 25.1107M1112.53 22.1747H1163.37M960 19.348V16.6227M1009 16.6227H1058M1009 16.6227H960M1009 16.6227L1008.13 13.9947M1058 16.6227L1057.78 16.2893L1057.12 15.2973L1056.91 14.9693L1056.69 14.6427L1056.47 14.3173L1056.26 13.9947M1058 16.6227H1107M1109.71 19.348L1107 16.6227M1109.71 19.348H1159.62M1007.29 11.4587H1054.58M1007.29 11.4587L1006.48 9.00933M1007.29 11.4587H960M1007.29 11.4587L1008.13 13.9947M1054.58 11.4587L1054.37 11.148L1053.96 10.5293L1053.76 10.2227L1053.35 9.61333L1053.15 9.31067L1052.95 9.00933M1054.58 11.4587L1055.41 12.7147L1055.62 13.0333L1056.05 13.6733L1056.26 13.9947M1054.58 11.4587H1101.87M1006.48 9.00933L1006.38 8.70933L1006.28 8.41067L1006.18 8.112L1005.69 6.64267M1006.48 9.00933H1052.95M1006.48 9.00933H960M960 11.4587V9.00933M960 11.4587V13.9947M1008.13 13.9947H1056.26M1008.13 13.9947H960M1052.95 9.00933H1099.43M1052.95 9.00933L1052.55 8.40933L1052.36 8.112L1052.16 7.816L1051.58 6.93467L1051.38 6.64267M1056.26 13.9947H1104.39M1101.87 11.4587L1100.03 9.61333L1099.43 9.00933M1101.87 11.4587L1103.43 13.032L1104.39 13.9947M1101.87 11.4587H1149.15M1005.69 6.64267H1051.38M1005.69 6.64267L960 6.644M960 9.00933V6.644M1099.43 9.00933H1145.91M1099.43 9.00933L1097.66 7.22667L1097.07 6.64267M1051.38 6.64267H1097.07M1597.36 253.277H1724.84M1597.36 253.277L1568.69 235.985M1597.36 253.277H1469.89M1597.36 253.277L1628.87 272.28M1724.84 253.277L1690.43 235.985M1724.84 253.277L1762.64 272.28M1724.84 253.277H1852.31M1568.69 235.985H1690.43M1568.69 235.985H1446.96M1568.69 235.985L1542.49 220.181M1469.89 253.277L1446.96 235.985M1469.89 253.277L1495.09 272.28M1628.87 272.28H1762.64M1628.87 272.28L1663.65 293.259M1628.87 272.28H1495.09M1690.43 235.985L1658.99 220.181M1690.43 235.985H1812.17M1762.64 272.28L1804.37 293.259M1762.64 272.28H1896.41M1852.31 253.277L1812.17 235.985M1852.31 253.277L1896.41 272.28M1852.31 253.277H1919.48M1446.96 235.985L1425.99 220.181M1542.49 220.181H1658.99M1542.49 220.181H1425.99M1542.49 220.181L1518.45 205.681M1658.99 220.181L1630.15 205.681M1658.99 220.181H1775.49M1812.17 235.985L1775.49 220.181M1812.17 235.985H1919.48M1496.32 192.332H1603.59M1496.32 192.332L1475.87 179.999M1496.32 192.332H1389.05M1496.32 192.332L1518.45 205.681M1603.59 192.332L1579.05 179.999M1603.59 192.332L1630.15 205.681M1603.59 192.332H1710.84M1475.87 179.999H1579.05M1475.87 179.999H1372.69M1475.87 179.999L1456.93 168.573M1389.05 192.332L1372.69 179.999M1389.05 192.332L1406.76 205.681M1518.45 205.681H1630.15M1518.45 205.681H1406.76M1579.05 179.999L1556.31 168.573M1579.05 179.999H1682.23M1630.15 205.681H1741.83M1710.84 192.332L1682.23 179.999M1710.84 192.332L1741.83 205.681M1710.84 192.332H1818.11M1372.69 179.999L1357.55 168.573M1456.93 168.573H1556.31M1456.93 168.573H1357.55M1456.93 168.573L1439.32 157.956M1556.31 168.573L1535.19 157.956M1556.31 168.573H1655.69M1682.23 179.999L1655.69 168.573M1682.23 179.999H1785.4M1422.93 148.065H1515.51M1422.93 148.065L1407.61 138.829M1422.93 148.065H1330.34M1422.93 148.065L1439.32 157.956M1515.51 148.065L1497.13 138.829M1515.51 148.065L1535.19 157.956M1515.51 148.065H1608.09M1407.61 138.829H1497.13M1407.61 138.829H1318.09M1407.61 138.829L1393.28 130.184M1330.34 148.065L1318.09 138.829M1330.34 148.065L1343.47 157.956M1439.32 157.956H1535.19M1439.32 157.956H1343.47M1497.13 138.829L1479.93 130.184M1497.13 138.829H1586.65M1535.19 157.956H1631.05M1608.09 148.065L1586.65 138.829M1608.09 148.065L1631.05 157.956M1608.09 148.065L1700.68 148.067M1318.09 138.829L1306.63 130.184M1393.28 130.184H1479.93M1393.28 130.184H1306.63M1393.28 130.184L1379.84 122.076M1479.93 130.184L1463.81 122.076M1479.93 130.184H1566.6M1586.65 138.829L1566.6 130.184M1586.65 138.829L1676.19 138.831M1367.2 114.456H1448.64M1367.2 114.456L1355.31 107.28M1367.2 114.456H1285.76M1367.2 114.456L1379.84 122.076M1448.64 114.456L1434.37 107.281M1448.64 114.456L1463.81 122.076M1448.64 114.456L1530.09 114.455M1355.31 107.28L1434.37 107.281M1355.31 107.28L1276.25 107.281M1355.31 107.28L1344.09 100.512M1285.76 114.456L1276.25 107.281M1285.76 114.456L1295.87 122.076H1379.84M1379.84 122.076H1463.81M1434.37 107.281L1420.91 100.512M1434.37 107.281L1513.43 107.28M1463.81 122.076H1547.77M1530.09 114.455L1513.43 107.28M1530.09 114.455L1547.77 122.076M1530.09 114.455H1611.53M1276.25 107.281L1267.27 100.512M1344.09 100.512H1420.91M1344.09 100.512H1267.27M1344.09 100.512L1333.49 94.1187M1420.91 100.512L1408.19 94.1187M1420.91 100.512H1497.72M1513.43 107.28L1497.72 100.512M1513.43 107.28H1592.49L1574.55 100.512M1323.45 88.0667H1396.15M1323.45 88.0667L1313.95 82.3333M1323.45 88.0667H1250.76M1323.45 88.0667L1333.49 94.1187M1396.15 88.0667L1384.73 82.3347M1396.15 88.0667L1408.19 94.1187M1396.15 88.0667L1468.84 88.068M1313.95 82.3333L1384.73 82.3347M1313.95 82.3333L1243.16 82.3347M1313.95 82.3333L1304.93 76.892M1250.76 88.0667L1248.82 86.6053L1243.16 82.3347M1250.76 88.0667L1258.79 94.1187M1333.49 94.1187H1408.19M1333.49 94.1187H1258.79M1384.73 82.3347L1373.91 76.892M1384.73 82.3347L1455.53 82.3333M1408.19 94.1187H1482.88M1468.84 88.068L1455.53 82.3333M1468.84 88.068L1482.88 94.1187M1468.84 88.068H1541.53M1243.16 82.3347L1235.94 76.892M1304.93 76.892H1373.91M1304.93 76.892H1235.94M1304.93 76.892L1296.35 71.72M1373.91 76.892L1363.63 71.72M1373.91 76.892H1442.89M1455.53 82.3333L1442.89 76.892M1455.53 82.3333H1526.32L1511.88 76.892M1288.19 66.8H1353.84M1288.19 66.8L1280.42 62.112M1288.19 66.8H1222.56M1288.19 66.8L1296.35 71.72M1353.84 66.8L1344.51 62.112M1353.84 66.8L1363.63 71.72M1353.84 66.8H1419.47M1280.42 62.112H1344.51M1280.42 62.112H1216.34M1280.42 62.112L1273.01 57.6427M1222.56 66.8L1216.34 62.112M1222.56 66.8L1229.08 71.72M1296.35 71.72H1363.63M1296.35 71.72H1229.08M1344.51 62.112L1335.61 57.6427M1344.51 62.112H1408.59M1363.63 71.72H1430.89M1419.47 66.8L1408.59 62.112M1419.47 66.8L1430.89 71.72M1419.47 66.8H1485.11M1216.34 62.112L1210.41 57.6427M1273.01 57.6427H1335.61M1273.01 57.6427H1210.41M1273.01 57.6427L1265.93 53.3733M1335.61 57.6427L1327.12 53.3747M1335.61 57.6427L1398.21 57.6413M1408.59 62.112L1398.21 57.6413M1408.59 62.112H1472.68M1259.17 49.2933L1260 49.7947L1260.83 50.2973L1265.93 53.3733M1259.17 49.2933H1319.01M1259.17 49.2933L1252.7 45.3907M1259.17 49.2933L1199.34 49.2947M1265.93 53.3733L1327.12 53.3747M1265.93 53.3733H1204.75M1319.01 49.2933L1311.24 45.3907M1319.01 49.2933L1327.12 53.3747M1319.01 49.2933L1378.84 49.2947M1252.7 45.3907H1311.24M1252.7 45.3907H1194.16M1252.7 45.3907L1246.5 41.6533M1199.34 49.2947L1194.16 45.3907M1199.34 49.2947L1202.01 51.3093L1204.75 53.3733M1311.24 45.3907L1303.8 41.6533M1311.24 45.3907H1369.77M1327.12 53.3747H1388.31M1378.84 49.2947L1369.77 45.3907M1378.84 49.2947L1388.31 53.3747M1378.84 49.2947H1438.67M1194.16 45.3907L1189.2 41.6533M1246.5 41.6533H1303.8M1246.5 41.6533H1189.2M1246.5 41.6533L1244.99 40.7427L1240.56 38.0707M1303.8 41.6533L1301.09 40.292L1300.2 39.8427L1296.67 38.0707M1303.8 41.6533H1361.11M1369.77 45.3907L1361.11 41.6533M1369.77 45.3907H1428.32M1234.86 34.6333H1289.84M1234.86 34.6333L1229.39 31.332M1234.86 34.6333H1179.89M1234.86 34.6333L1240.56 38.0707M1289.84 34.6333L1285.7 32.5533L1283.27 31.332M1289.84 34.6333L1296.67 38.0707M1289.84 34.6333H1344.81M1229.39 31.332H1283.27M1229.39 31.332L1224.78 28.5507L1224.13 28.16M1179.89 34.6333L1176.59 32.144L1175.51 31.3307L1171.31 28.1613M1179.89 34.6333L1181.58 35.904L1184.45 38.0707M1240.56 38.0707H1296.67M1240.56 38.0707H1184.45M1283.27 31.332L1276.96 28.16M1283.27 31.332L1337.15 31.3333M1296.67 38.0707H1352.79M1344.81 34.6333L1337.15 31.3333M1344.81 34.6333L1352.79 38.0707M1344.81 34.6333H1399.79M1224.13 28.16H1276.96M1224.13 28.16L1171.31 28.1613M1224.13 28.16L1219.08 25.1107M1276.96 28.16L1270.89 25.1107M1276.96 28.16L1329.79 28.1613M1337.15 31.3333L1332.51 29.336L1331.6 28.9413L1329.79 28.1613M1337.15 31.3333L1391.03 31.332M1214.21 22.1747H1265.05M1214.21 22.1747L1213.02 21.4573L1209.52 19.348M1214.21 22.1747H1163.37M1214.21 22.1747L1215.41 22.8987L1217.84 24.3653L1219.08 25.1107M1265.05 22.1747L1259.43 19.348M1265.05 22.1747L1267.21 23.2627L1268.67 23.996L1270.89 25.1107M1265.05 22.1747H1315.89M1209.52 19.348H1259.43M1209.52 19.348H1159.62M1209.52 19.348L1206.12 17.2947L1205 16.6227M1163.37 22.1747L1160.08 19.6947L1159.62 19.348M1163.37 22.1747L1163.85 22.5347L1164.33 22.8987L1164.81 23.2627L1167.26 25.1107M1219.08 25.1107H1270.89M1219.08 25.1107H1167.26M1259.43 19.348L1257.37 18.3147L1256.01 17.6333L1254 16.6227M1259.43 19.348H1309.33M1270.89 25.1107H1322.71M1315.89 22.1747L1309.33 19.348M1315.89 22.1747L1320.12 23.996L1320.98 24.3653L1322.71 25.1107M1315.89 22.1747H1366.73M1159.62 19.348L1156 16.6227M1205 16.6227H1254M1205 16.6227H1156M1205 16.6227L1200.65 13.9947M1254 16.6227L1251.37 15.2973L1250.71 14.968L1248.78 13.9947M1254 16.6227H1303.01M1309.33 19.348L1303.01 16.6227M1309.33 19.348H1359.24M1196.44 11.4587H1243.73M1196.44 11.4587L1193.89 9.91733L1192.38 9.00933M1196.44 11.4587H1149.15M1196.44 11.4587L1200.65 13.9947M1243.73 11.4587L1240.06 9.61333L1239.46 9.31067L1238.86 9.00933M1243.73 11.4587L1246.23 12.7147L1248.78 13.9947M1243.73 11.4587H1291.02M1192.38 9.00933H1238.86M1192.38 9.00933L1190.4 7.816L1189.43 7.22667L1188.94 6.93333L1188.46 6.64267M1192.38 9.00933H1145.91M1149.15 11.4587L1146.71 9.61333L1145.91 9.00933M1149.15 11.4587L1152.52 13.9947M1200.65 13.9947H1248.78M1200.65 13.9947H1152.52M1238.86 9.00933H1285.33M1238.86 9.00933L1234.15 6.64267M1248.78 13.9947H1296.91M1291.02 11.4587L1286.74 9.61333L1285.33 9.00933M1291.02 11.4587L1296.16 13.672L1296.91 13.9947M1291.02 11.4587H1338.31M1188.46 6.64267H1234.15M1188.46 6.64267H1142.77M1145.91 9.00933L1144.32 7.816L1143.15 6.93467L1142.77 6.64267M1285.33 9.00933H1331.81M1285.33 9.00933L1279.84 6.64267M1234.15 6.64267H1279.84M1888.57 180H1785.4M1888.57 180L1854.47 168.575M1888.57 180H1919.48M1888.57 180L1919.48 190.359M1854.47 168.575L1822.79 157.957M1854.47 168.575L1755.08 168.573M1854.47 168.575L1919.48 168.573M1919.48 190.359V179.999V168.573M1919.48 190.359V192.332M1793.27 148.067H1885.85M1793.27 148.067L1765.71 138.831M1793.27 148.067H1700.68M1793.27 148.067L1822.79 157.957M1885.85 148.067L1855.23 138.831M1885.85 148.067L1918.65 157.957M1885.85 148.067H1919.48M1765.71 138.831H1855.23M1765.71 138.831H1676.19M1765.71 138.831L1739.91 130.185M1700.68 148.067L1676.19 138.831M1700.68 148.067L1726.92 157.956M1822.79 157.957H1918.65M1822.79 157.957L1726.92 157.956M1855.23 138.831L1826.56 130.185M1855.23 138.831H1919.48M1918.65 157.957L1919.48 157.956M1918.65 157.957L1919.48 158.207M1919.48 148.067V138.831M1919.48 148.067V157.956M1676.19 138.831L1653.25 130.184M1739.91 130.185H1826.56M1739.91 130.185L1653.25 130.184M1739.91 130.185L1715.71 122.077M1826.56 130.185L1799.68 122.077M1826.56 130.185L1913.21 130.184M1919.48 138.831V131.901M1692.97 114.457H1774.41M1692.97 114.457L1671.56 107.281M1692.97 114.457H1611.53M1692.97 114.457L1715.71 122.077M1774.41 114.457L1750.61 107.283M1774.41 114.457L1799.68 122.077M1774.41 114.457L1855.85 114.456M1671.56 107.281L1750.61 107.283M1671.56 107.281L1592.49 107.283L1611.53 114.455M1671.56 107.281L1651.36 100.513M1715.71 122.077H1799.68M1715.71 122.077H1631.75M1750.61 107.283L1728.17 100.513M1750.61 107.283L1829.68 107.281M1799.68 122.077L1883.64 122.076M1855.85 114.456L1829.68 107.281M1855.85 114.456L1883.64 122.076M1855.85 114.456L1919.48 114.455M1651.36 100.513H1728.17M1651.36 100.513L1574.55 100.512M1651.36 100.513L1632.28 94.12M1728.17 100.513L1706.97 94.12M1728.17 100.513L1805 100.512M1829.68 107.281L1805 100.512M1829.68 107.281L1908.75 107.28M1614.21 88.068H1686.91M1614.21 88.068L1597.11 82.3347M1614.21 88.068H1541.53M1614.21 88.068L1632.28 94.12M1686.91 88.068L1667.89 82.336M1686.91 88.068L1706.97 94.12M1686.91 88.068L1759.6 88.0693M1597.11 82.3347L1667.89 82.336M1597.11 82.3347L1526.32 82.336L1541.53 88.068M1597.11 82.3347L1580.87 76.8933M1541.53 88.068L1557.57 94.1187M1632.28 94.12H1706.97M1632.28 94.12L1557.57 94.1187M1667.89 82.336L1649.85 76.8933M1667.89 82.336L1738.69 82.3347M1706.97 94.12L1781.67 94.1187M1759.6 88.0693L1781.67 94.1187M1759.6 88.0693L1832.29 88.068M1580.87 76.8933H1649.85M1580.87 76.8933L1511.88 76.892M1580.87 76.8933L1565.44 71.72M1649.85 76.8933L1632.71 71.72M1649.85 76.8933L1718.84 76.892M1738.69 82.3347L1718.84 76.892M1738.69 82.3347L1759.6 88.0667M1738.69 82.3347H1809.48M1550.75 66.8H1616.39M1550.75 66.8L1536.76 62.112M1550.75 66.8H1485.11M1550.75 66.8L1565.44 71.72M1616.39 66.8L1600.85 62.112M1616.39 66.8L1632.71 71.72M1616.39 66.8H1682.03M1536.76 62.112H1600.85M1536.76 62.112H1472.68M1536.76 62.112L1523.43 57.6427M1485.11 66.8L1472.68 62.112M1485.11 66.8L1498.16 71.7213M1565.44 71.72H1632.71M1565.44 71.72L1498.16 71.7213M1600.85 62.112L1586.03 57.6427M1600.85 62.112H1664.93M1632.71 71.72H1699.97M1682.03 66.8L1664.93 62.112M1682.03 66.8L1699.97 71.72M1682.03 66.8H1747.67M1472.68 62.112L1460.81 57.6427M1523.43 57.6427H1586.03M1523.43 57.6427H1460.81M1523.43 57.6427L1510.68 53.3747M1586.03 57.6427L1571.87 53.3747M1586.03 57.6427L1648.63 57.6413M1664.93 62.112L1648.63 57.6413M1664.93 62.112H1729.01M1498.51 49.2933H1558.35M1498.51 49.2933L1486.85 45.3907M1498.51 49.2933L1438.67 49.2947M1498.51 49.2933L1510.68 53.3747M1558.35 49.2933L1545.4 45.3907M1558.35 49.2933L1571.87 53.3747M1558.35 49.2933L1618.17 49.2947M1486.85 45.3907H1545.4M1486.85 45.3907H1428.32M1486.85 45.3907L1475.71 41.6533M1438.67 49.2947L1428.32 45.3907M1438.67 49.2947L1449.49 53.3733M1510.68 53.3747H1571.87M1510.68 53.3747L1449.49 53.3733M1545.4 45.3907L1533 41.6533M1545.4 45.3907H1603.93M1571.87 53.3747H1633.05M1618.17 49.2947L1603.93 45.3907M1618.17 49.2947L1633.05 53.3747M1618.17 49.2947H1678.01M1428.32 45.3907L1418.4 41.6533M1475.71 41.6533H1533M1475.71 41.6533H1418.4M1475.71 41.6533L1465.01 38.0707M1533 41.6533L1521.12 38.0707M1533 41.6533H1590.31M1603.93 45.3907L1590.31 41.6533M1603.93 45.3907H1662.48M1454.76 34.6333H1509.72M1454.76 34.6333L1444.91 31.332M1454.76 34.6333H1399.79M1454.76 34.6333L1465.01 38.0707M1509.72 34.6333L1498.79 31.332M1509.72 34.6333L1521.12 38.0707M1509.72 34.6333H1564.69M1444.91 31.332H1498.79M1444.91 31.332H1391.03M1444.91 31.332L1435.44 28.1613M1399.79 34.6333L1391.03 31.332M1399.79 34.6333L1408.89 38.0707M1465.01 38.0707H1521.12M1465.01 38.0707H1408.89M1498.79 31.332L1488.27 28.1613M1498.79 31.332H1552.67M1521.12 38.0707H1577.24M1564.69 34.6333L1552.67 31.332M1564.69 34.6333L1577.24 38.0707M1564.69 34.6333H1619.67M1391.03 31.332L1382.61 28.1613M1435.44 28.1613H1488.27M1435.44 28.1613H1382.61M1435.44 28.1613L1426.33 25.1107M1488.27 28.1613L1479.4 25.4853L1478.15 25.1107M1488.27 28.1613H1541.09M1552.67 31.332L1541.09 28.1613M1552.67 31.332H1606.53M1417.57 22.1747H1468.41M1417.57 22.1747L1409.13 19.348M1417.57 22.1747H1366.73M1417.57 22.1747L1419.73 22.8987L1420.83 23.2627L1426.33 25.1107M1468.41 22.1747L1459.04 19.348M1468.41 22.1747L1478.15 25.1107M1468.41 22.1747H1519.25M1409.13 19.348H1459.04M1409.13 19.348H1359.24M1409.13 19.348L1401 16.6227M1366.73 22.1747L1359.24 19.348M1366.73 22.1747L1374.52 25.1107M1426.33 25.1107H1478.15M1426.33 25.1107H1374.52M1459.04 19.348L1450.01 16.6227M1459.04 19.348H1508.95M1478.15 25.1107H1529.97M1519.25 22.1747L1508.95 19.348M1519.25 22.1747L1529.97 25.1107M1519.25 22.1747H1570.11M1359.24 19.348L1352 16.6227M1401 16.6227H1450.01M1401 16.6227H1352M1401 16.6227L1393.16 13.9947M1450.01 16.6227L1441.29 13.9947M1450.01 16.6227H1499.01M1508.95 19.348L1499.01 16.6227M1508.95 19.348H1558.85M1385.6 11.4587H1432.88M1385.6 11.4587L1378.28 9.00933M1385.6 11.4587H1338.31M1385.6 11.4587L1393.16 13.9947M1432.88 11.4587L1426.76 9.61333L1425.76 9.31067L1424.76 9.00933M1432.88 11.4587L1441.29 13.9947M1432.88 11.4587H1480.17M1378.28 9.00933H1424.76M1378.28 9.00933L1372.09 6.93467L1371.23 6.64267M1378.28 9.00933H1331.81M1338.31 11.4587L1331.81 9.00933M1338.31 11.4587L1345.04 13.9947M1393.16 13.9947H1441.29M1393.16 13.9947H1345.04M1424.76 9.00933H1471.24M1424.76 9.00933L1416.92 6.64267M1441.29 13.9947H1489.43M1480.17 11.4587L1471.24 9.00933M1480.17 11.4587L1489.43 13.9947M1480.17 11.4587H1527.45M1371.23 6.64267H1416.92M1371.23 6.64267H1325.53M1331.81 9.00933L1327.08 7.22667L1325.53 6.64267M1471.24 9.00933H1517.72M1471.24 9.00933L1462.61 6.64267M1416.92 6.64267H1462.61M1904.99 88.068L1880.27 82.3347M1904.99 88.068H1832.29M1904.99 88.068L1919.48 91.4307M1904.99 88.068H1919.48M1880.27 82.3347H1809.48M1880.27 82.3347L1856.81 76.892M1880.27 82.3347L1919.48 82.3333M1832.29 88.068L1809.48 82.3347M1832.29 88.068L1856.37 94.1187M1919.48 91.4307V88.068M1919.48 91.4307V94.1187M1919.48 88.068V82.3333M1809.48 82.3347L1787.83 76.892M1856.81 76.892L1834.52 71.72M1856.81 76.892H1787.83M1856.81 76.892H1919.48M1919.48 82.3333V76.892M1813.31 66.8H1878.95M1813.31 66.8L1793.11 62.112M1813.31 66.8H1747.67M1813.31 66.8L1834.52 71.72M1878.95 66.8L1857.19 62.112M1878.95 66.8L1901.79 71.72M1878.95 66.8H1919.48M1793.11 62.112H1857.19M1793.11 62.112H1729.01M1793.11 62.112L1773.83 57.6427M1747.67 66.8L1729.01 62.112M1747.67 66.8L1767.24 71.72M1834.52 71.72H1901.79M1834.52 71.72H1767.24M1857.19 62.112L1836.43 57.6427M1857.19 62.112H1919.48M1901.79 71.72L1919.48 75.5333M1901.79 71.72H1919.48M1919.48 66.8H1919.97M1919.48 66.8V62.112M1919.48 66.8V71.72M1729.01 62.112L1711.23 57.6427M1773.83 57.6427H1836.43M1773.83 57.6427H1711.23M1773.83 57.6427L1755.43 53.3747M1836.43 57.6427L1816.61 53.3747M1836.43 57.6427H1899.04M1919.48 62.112V61.7533M1737.84 49.2933H1797.68M1737.84 49.2933L1721.01 45.3907M1737.84 49.2933L1678.01 49.2947M1737.84 49.2933L1755.43 53.3747M1797.68 49.2933L1779.56 45.3907M1797.68 49.2933L1816.61 53.3747M1797.68 49.2933L1857.51 49.2947M1721.01 45.3907H1779.56M1721.01 45.3907H1662.48M1721.01 45.3907L1704.91 41.6533M1678.01 49.2947L1662.48 45.3907M1678.01 49.2947L1694.24 53.3733M1755.43 53.3747H1816.61M1755.43 53.3747L1694.24 53.3733M1779.56 45.3907L1762.21 41.6533M1779.56 45.3907H1838.09M1816.61 53.3747H1877.8M1857.51 49.2947L1838.09 45.3907M1857.51 49.2947L1877.8 53.3747M1857.51 49.2947H1917.35M1662.48 45.3907L1647.6 41.6533M1704.91 41.6533H1762.21M1704.91 41.6533H1647.6M1704.91 41.6533L1689.47 38.0707M1762.21 41.6533L1745.57 38.0707M1762.21 41.6533H1819.51M1838.09 45.3907L1819.51 41.6533M1838.09 45.3907H1896.64M1674.64 34.6333H1729.61M1674.64 34.6333L1660.41 31.332M1674.64 34.6333H1619.67M1674.64 34.6333L1689.47 38.0707M1729.61 34.6333L1714.29 31.332M1729.61 34.6333L1745.57 38.0707M1729.61 34.6333H1784.59M1660.41 31.332H1714.29M1660.41 31.332H1606.53M1660.41 31.332L1646.75 28.1613M1619.67 34.6333L1606.53 31.332M1619.67 34.6333L1633.35 38.0707M1689.47 38.0707H1745.57M1689.47 38.0707H1633.35M1714.29 31.332L1699.57 28.1613M1714.29 31.332H1768.17M1745.57 38.0707H1801.69M1784.59 34.6333L1768.17 31.332M1784.59 34.6333L1801.69 38.0707M1784.59 34.6333H1839.56M1606.53 31.332L1593.92 28.1613M1646.75 28.1613H1699.57M1646.75 28.1613H1593.92M1646.75 28.1613L1633.6 25.1107M1699.57 28.1613L1685.41 25.1107M1699.57 28.1613H1752.4M1768.17 31.332L1752.4 28.1613M1768.17 31.332H1822.05M1620.95 22.1747H1671.79M1620.95 22.1747L1608.76 19.348M1620.95 22.1747H1570.11M1620.95 22.1747L1633.6 25.1107M1671.79 22.1747L1658.65 19.348M1671.79 22.1747L1685.41 25.1107M1671.79 22.1747H1722.63M1608.76 19.348H1658.65M1608.76 19.348H1558.85M1608.76 19.348L1597.01 16.6227M1570.11 22.1747L1560.24 19.6947L1558.85 19.348M1570.11 22.1747L1581.79 25.1107M1633.6 25.1107H1685.41M1633.6 25.1107H1581.79M1658.65 19.348L1646.01 16.6227M1658.65 19.348H1708.56M1685.41 25.1107H1737.23M1722.63 22.1747L1708.56 19.348M1722.63 22.1747L1737.23 25.1107M1722.63 22.1747H1773.47M1558.85 19.348L1548.01 16.6227M1597.01 16.6227H1646.01M1597.01 16.6227H1548.01M1597.01 16.6227L1585.68 13.9947M1646.01 16.6227L1633.81 13.9947M1646.01 16.6227H1695.01M1708.56 19.348L1695.01 16.6227M1708.56 19.348H1758.47M1574.75 11.4587H1622.04M1574.75 11.4587L1564.19 9.00933M1574.75 11.4587H1527.45M1574.75 11.4587L1585.68 13.9947M1622.04 11.4587L1610.67 9.00933M1622.04 11.4587L1633.81 13.9947M1622.04 11.4587H1669.32M1564.19 9.00933H1610.67M1564.19 9.00933L1553.99 6.64267M1564.19 9.00933H1517.72M1527.45 11.4587L1517.72 9.00933M1527.45 11.4587L1537.55 13.9947M1585.68 13.9947H1633.81M1585.68 13.9947H1537.55M1610.67 9.00933H1657.15M1610.67 9.00933L1599.68 6.64267M1633.81 13.9947H1681.93M1669.32 11.4587L1657.15 9.00933M1669.32 11.4587L1681.93 13.9947M1669.32 11.4587H1716.61M1553.99 6.64267H1599.68M1553.99 6.64267H1508.29M1517.72 9.00933L1508.29 6.64267M1657.15 9.00933H1703.61M1657.15 9.00933L1645.37 6.64267M1599.68 6.64267H1645.37M1894.53 34.6333L1875.93 31.332M1894.53 34.6333H1839.56M1894.53 34.6333L1913.91 38.0707M1894.53 34.6333H1919.48M1875.93 31.332H1822.05M1875.93 31.332L1858.05 28.1613M1875.93 31.332H1919.48M1839.56 34.6333L1822.05 31.332M1839.56 34.6333L1857.8 38.0707M1913.91 38.0707H1857.8M1913.91 38.0707H1919.48M1913.91 38.0707L1919.48 39.0573M1919.48 34.6333V31.332M1919.48 34.6333V38.072V39.0587V41.6533M1822.05 31.332L1805.23 28.1613M1858.05 28.1613H1910.88M1858.05 28.1613H1805.23M1858.05 28.1613L1840.85 25.1107M1919.48 31.332V29.6013M1824.31 22.1747H1875.15M1824.31 22.1747L1808.37 19.348M1824.31 22.1747H1773.47M1824.31 22.1747L1840.85 25.1107M1875.15 22.1747L1858.28 19.348M1875.15 22.1747L1892.67 25.1107M1875.15 22.1747H1919.48M1808.37 19.348H1858.28M1808.37 19.348H1758.47M1808.37 19.348L1793.01 16.6227M1773.47 22.1747L1758.47 19.348M1773.47 22.1747L1789.04 25.1107M1840.85 25.1107H1892.67M1840.85 25.1107H1789.04M1858.28 19.348L1842.01 16.6227M1858.28 19.348H1908.19M1892.67 25.1107L1910.88 28.1613M1892.67 25.1107H1919.48M1919.48 22.1747H1919.64M1919.48 22.1747V21.1413M1919.48 22.1747V25.1107M1758.47 19.348L1744.01 16.6227M1793.01 16.6227H1842.01M1793.01 16.6227H1744.01M1793.01 16.6227L1778.2 13.9947M1842.01 16.6227L1826.32 13.9947M1842.01 16.6227H1891.01M1908.19 19.348L1891.01 16.6227M1908.19 19.348L1919.48 21.1413M1908.19 19.348H1919.48M1763.91 11.4587H1811.19M1763.91 11.4587L1750.09 9.00933M1763.91 11.4587H1716.61M1763.91 11.4587L1778.2 13.9947M1811.19 11.4587L1796.57 9.00933M1811.19 11.4587L1826.32 13.9947M1811.19 11.4587H1858.48M1750.09 9.00933H1796.57M1750.09 9.00933L1736.76 6.64267M1750.09 9.00933H1703.61M1716.61 11.4587L1703.61 9.00933M1716.61 11.4587L1730.07 13.9947M1778.2 13.9947H1826.32M1778.2 13.9947H1730.07M1796.57 9.00933H1843.05M1796.57 9.00933L1782.45 6.64267M1826.32 13.9947H1874.45M1858.48 11.4587L1843.05 9.00933M1858.48 11.4587L1874.45 13.9947M1858.48 11.4587H1905.76M1736.76 6.64267H1782.45M1736.76 6.64267H1691.07M1703.61 9.00933L1691.07 6.64267M1843.05 9.00933H1889.52M1843.05 9.00933L1828.13 6.64267M1782.45 6.64267H1828.13M1874.45 13.9947L1891.01 16.6227M1874.45 13.9947H1919.48M1905.76 11.4587L1889.52 9.00933M1905.76 11.4587L1919.48 13.5267M1905.76 11.4587H1919.48M1889.52 9.00933L1873.83 6.64267M1889.52 9.00933H1919.48M1828.13 6.64267H1873.83M1828.13 6.64267L1813.72 4.35467M1891.01 16.6227H1919.48M1919.48 13.9947V13.5267M1919.48 13.9947V16.6227M1919.48 13.5267V11.4587M1919.48 11.4587V9.00933M1873.83 6.64267L1858.65 4.35467M1873.83 6.64267H1919.48M1919.48 9.00933V6.64267M1813.72 4.35467H1858.65M1919.48 6.64267H1919.52L1919.48 6.63733M1919.48 6.64267V6.63733M1919.48 21.1413V19.348M1919.48 19.348V16.6227M1744.01 16.6227L1730.07 13.9947M1744.01 16.6227H1695.01M1730.07 13.9947H1681.93M1910.88 28.1613L1919.48 29.6013M1910.88 28.1613H1919.48M1919.48 25.1107V28.1613M1919.48 29.6013V28.1613M1805.23 28.1613L1789.04 25.1107M1805.23 28.1613H1752.4M1789.04 25.1107H1737.23M1681.93 13.9947L1695.01 16.6227M1645.37 6.64267H1691.07M1645.37 6.64267L1634 4.35467M1691.07 6.64267L1678.93 4.35467M1634 4.35467H1678.93M1548.01 16.6227L1537.55 13.9947M1548.01 16.6227H1499.01M1537.55 13.9947H1489.43M1737.23 25.1107L1752.4 28.1613M1593.92 28.1613L1581.79 25.1107M1593.92 28.1613H1541.09M1581.79 25.1107H1529.97M1801.69 38.0707L1819.51 41.6533M1801.69 38.0707H1857.8M1857.8 38.0707L1876.81 41.6533M1819.51 41.6533H1876.81M1876.81 41.6533L1896.64 45.3907M1876.81 41.6533H1919.48M1896.64 45.3907L1917.35 49.2947M1896.64 45.3907H1919.48M1647.6 41.6533L1633.35 38.0707M1647.6 41.6533H1590.31M1919.48 41.6533H1919.79M1919.48 41.6533V45.3907M1633.35 38.0707H1577.24M1877.8 53.3747L1899.04 57.6427M1877.8 53.3747L1919.48 53.3733M1917.35 49.2947L1919.48 49.6973M1917.35 49.2947L1919.48 49.2933M1919.48 45.3907V49.296V49.6973M1919.48 49.6973L1920 49.7947M1919.48 49.6973V53.3733M1899.04 57.6427H1919.48M1899.04 57.6427L1919.48 61.7533M1919.48 53.3733V57.6427M1919.48 57.6427V61.7533M1711.23 57.6427L1694.24 53.3733M1711.23 57.6427L1648.63 57.6413M1694.24 53.3733L1633.05 53.3747M1919.48 75.5333V71.72M1919.48 75.5333V76.892M1767.24 71.72H1699.97M1767.24 71.72L1787.83 76.892M1919.68 75.5747L1919.48 75.532M1489.43 13.9947L1499.01 16.6227M1462.61 6.64267H1508.29M1462.61 6.64267L1454.27 4.35467M1508.29 6.64267L1507.15 6.352L1504.85 5.776L1499.2 4.35467M1454.27 4.35467H1499.2M1352 16.6227L1345.04 13.9947M1352 16.6227H1303.01M1345.04 13.9947H1296.91M1529.97 25.1107L1541.09 28.1613M1382.61 28.1613L1374.52 25.1107M1382.61 28.1613H1329.79M1374.52 25.1107H1322.71M1577.24 38.0707L1590.31 41.6533M1418.4 41.6533L1408.89 38.0707M1418.4 41.6533H1361.11M1408.89 38.0707H1352.79M1633.05 53.3747L1648.63 57.6413M1460.81 57.6427L1449.49 53.3733M1460.81 57.6427L1398.21 57.6413M1449.49 53.3733L1388.31 53.3747M1699.97 71.72L1718.84 76.892M1718.84 76.892H1787.83M1511.88 76.892L1498.16 71.7213M1511.88 76.892H1442.89M1498.16 71.7213L1430.89 71.72M1781.67 94.1187L1805 100.512M1781.67 94.1187H1856.37M1856.37 94.1187L1881.81 100.512M1856.37 94.1187H1919.48M1805 100.512H1881.81M1881.81 100.512L1908.75 107.28M1881.81 100.512H1919.48M1919.48 94.1187V100.512M1908.75 107.28L1919.48 107.281M1908.75 107.28L1919.48 109.98M1574.55 100.512L1557.57 94.1187M1574.55 100.512H1497.72M1919.48 100.512V107.281M1557.57 94.1187H1482.88M1883.64 122.076L1913.21 130.184M1883.64 122.076L1919.48 122.077M1919.48 114.455V109.98M1919.48 114.455V122.077M1919.48 107.281V109.98M1913.21 130.184L1919.48 131.901M1913.21 130.184H1919.48M1919.48 122.077V130.184M1919.48 131.901V130.184M1653.25 130.184L1631.75 122.077M1653.25 130.184H1566.6M1631.75 122.077L1611.53 114.455M1631.75 122.077L1547.77 122.076M1919.48 157.956V158.207M1919.48 158.207V168.573M1726.92 157.956H1631.05M1726.92 157.956L1755.08 168.573M1296.91 13.9947L1298.41 14.6427L1303.01 16.6227M1279.84 6.64267H1325.53M1279.84 6.64267L1274.53 4.35467M1325.53 6.64267L1323.23 5.776L1319.46 4.35467M1274.53 4.35467H1319.46M1156 16.6227L1155.12 15.956L1152.52 13.9947M1156 16.6227H1107M1152.52 13.9947H1104.39M1322.71 25.1107L1329.79 28.1613M1171.31 28.1613L1170.79 27.7733L1170.28 27.3867L1167.26 25.1107M1171.31 28.1613H1118.48M1167.26 25.1107H1115.45M1352.79 38.0707L1361.11 41.6533M1189.2 41.6533L1184.45 38.0707M1189.2 41.6533L1131.9 41.652M1184.45 38.0707L1128.34 38.0693M1388.31 53.3747L1398.21 57.6413M1210.41 57.6427L1204.75 53.3733M1210.41 57.6427L1147.81 57.6413M1204.75 53.3733L1143.56 53.372M1430.89 71.72L1442.89 76.892M1235.94 76.892L1229.08 71.72M1235.94 76.892H1166.96M1229.08 71.72H1161.81M1482.88 94.1187L1497.72 100.512M1267.27 100.512L1258.79 94.1187M1267.27 100.512H1190.45M1258.79 94.1187H1184.09M1547.77 122.076L1566.6 130.184M1306.63 130.184L1295.87 122.079L1211.9 122.077M1306.63 130.184L1219.97 130.185M1631.05 157.956L1655.69 168.573M1655.69 168.573H1755.08M1755.08 168.573L1785.4 179.999M1785.4 179.999L1818.11 192.332M1357.55 168.573L1343.47 157.956M1357.55 168.573H1258.16M1343.47 157.956H1247.59M1741.83 205.681L1775.49 220.181M1741.83 205.681H1853.52M1818.11 192.332L1853.52 205.681M1818.11 192.332H1919.48M1853.52 205.681L1891.99 220.181M1853.52 205.681H1919.48M1919.48 192.332V205.681M1775.49 220.181H1891.99M1891.99 220.181H1919.48M1891.99 220.181L1919.48 230.547M1919.48 205.681V220.181M1919.48 235.985V230.547M1919.48 235.985V253.277M1425.99 220.181L1406.76 205.681M1425.99 220.181H1309.49M1919.48 220.181V230.547M1406.76 205.681H1295.07M1896.41 272.28L1919.48 282.219M1896.41 272.28H1919.48M1919.48 253.277V272.28M1804.37 293.259H1663.65M1804.37 293.259H1919.48M1919.48 282.219V272.28M1919.48 282.219V293.259M1663.65 293.259H1522.92M1919.48 293.259V293.333H0.517333V293.259M1522.92 293.259L1495.09 272.28M1522.92 293.259H1382.19M1495.09 272.28H1361.32M1104.39 13.9947L1104.71 14.3173L1105.03 14.6427L1105.36 14.9693L1105.68 15.2973L1107 16.6227M1097.07 6.64267L1096.79 6.352L1096.21 5.776L1095.64 5.204L1095.36 4.92L1094.8 4.35467M1097.07 6.64267H1142.77M1142.77 6.64267L1140.11 4.63733L1139.73 4.35467M1094.8 4.35467H1139.73M960 16.6227H911M960 13.9947H911.871M960 13.9947V16.624M1115.45 25.1107L1118.48 28.1613M960 28.1613V25.1093M960 28.1613H907.173M960 25.1093L908.185 25.1107M1128.34 38.0693L1131.9 41.652M960 41.652V38.0693M960 41.652H902.7M960 38.0693H903.887M1143.56 53.372H1082.37M1143.56 53.372L1147.81 57.6413M1139.5 49.292H1199.34M960 57.6413V53.3733M960 57.6413H897.397M960 53.3733L898.813 53.3747M1161.81 71.72L1166.96 76.892M960 76.892V71.72M960 76.892H891.015M960 71.72H892.729M1184.09 94.1187L1190.45 100.512M960 100.512V94.12M960 100.512H883.183M960 94.12L885.303 94.1187M1211.9 122.077L1219.97 130.185M960 130.185V122.079L876.032 122.077M960 130.185H873.344M1247.59 157.956L1258.16 168.573M960 168.573V157.956M960 168.573H860.615M960 157.956H864.135M1295.07 205.681L1309.49 220.181M960 220.181V205.681M960 220.181H843.501M960 205.681H848.309M1361.32 272.28L1382.19 293.259M1241.46 293.259H1382.19M1241.46 293.259H1100.73M1100.73 293.259H960M960 293.259V272.28M960 293.259H819.269M960 272.28H826.227M911.871 13.9947L911.763 14.3173L911.656 14.6427L911.547 14.9693L911 16.6227M914.309 6.64267L960 6.644M914.309 6.64267L914.596 5.77733L914.692 5.49067L915.067 4.35733M960 6.644V4.35467M915.067 4.35733L960 4.35467M763.997 16.6227L764.88 15.956L767.483 13.9947M763.997 16.6227H714.997M767.483 13.9947H719.353M908.185 25.1107L907.173 28.1613M748.693 28.1613L752.74 25.1093M748.693 28.1613L695.867 28.16M748.693 28.1613L744.487 31.3307M752.74 25.1093L700.924 25.1107M903.887 38.0693L903.596 38.9493L903.001 40.7413L902.7 41.652M730.799 41.652L735.549 38.0707M730.799 41.652H673.497M735.549 38.0707L679.439 38.0693M898.813 53.3747L897.397 57.6413M709.591 57.6427L715.252 53.3733M709.591 57.6427L646.988 57.6413M715.252 53.3733L654.065 53.372M892.729 71.72L891.015 76.892M684.059 76.892L690.917 71.72M684.059 76.892H615.073M690.917 71.72H623.647M885.303 94.1187L883.183 100.512M652.729 100.512L661.209 94.12M652.729 100.512H575.912M661.209 94.12L586.513 94.1187M876.032 122.077L873.344 130.185M613.375 130.185L624.129 122.079L540.161 122.077M613.375 130.185H526.719M864.135 157.956L860.615 168.573M562.459 168.573L576.54 157.956M562.459 168.573H463.072M576.54 157.956H480.675M848.309 205.681L843.501 220.181M494.007 220.181L513.239 205.681M494.007 220.181H377.509M513.239 205.681H401.548M826.227 272.28L819.269 293.259M678.54 293.259H819.269M678.54 293.259H537.811M537.811 293.259H397.08M397.08 293.259L424.905 272.28M397.08 293.259H256.351M424.905 272.28H291.132M719.353 13.9947L714.997 16.6227M731.543 6.64267H777.233M731.543 6.64267L734.399 4.92L735.335 4.35467M777.233 6.64267L777.619 6.352L778.384 5.776L780.268 4.35467M735.335 4.35467H780.268M567.995 16.6227L574.965 13.9947M567.995 16.6227H518.993M574.965 13.9947H526.836M700.924 25.1107L695.867 28.16M695.867 28.16L690.609 31.3307M690.609 31.3307H744.487M537.388 28.1613L544.485 25.4853L545.479 25.1093M537.388 28.1613H484.561M545.479 25.1093L493.663 25.1107M679.439 38.0693L673.497 41.652M501.596 41.652L511.101 38.0693M501.596 41.652L444.296 41.6533M511.101 38.0693L454.988 38.0707M654.065 53.372H592.879M654.065 53.372L646.988 57.6413M660.829 49.292H720.663M459.181 57.6413L470.504 53.3733M459.181 57.6413H396.58M470.504 53.3733L409.317 53.3747M623.647 71.72L615.073 76.892M408.119 76.892L421.836 71.72M408.119 76.892H339.132M421.836 71.72H354.565M586.513 94.1187L575.912 100.512M345.459 100.512L362.421 94.12M345.459 100.512H268.641M362.421 94.12L287.723 94.1187M540.161 122.077L526.719 130.185M266.749 130.185L288.257 122.079L204.289 122.077M266.749 130.185H180.093M480.675 157.956L463.072 168.573M164.916 168.573L193.079 157.956M164.916 168.573H65.5293M193.079 157.956H97.2147M401.548 205.681L377.509 220.181M28.0133 220.181L66.4773 205.681M28.0133 220.181H0.517333M28.0133 220.181L0.517333 230.547M66.4773 205.681H0.517333M291.132 272.28L256.351 293.259M115.621 293.259H256.351M115.621 293.259H0.517333M0.517333 293.259V282.219M0.517333 282.219V272.28M526.836 13.9947L518.993 16.6227M548.776 6.64267L549.643 6.352L555.604 4.35467M548.776 6.64267H594.468M594.468 6.64267L596.768 5.776L600.537 4.35467M555.604 4.35467H600.537M371.992 16.6227L382.449 13.9947M371.992 16.6227H322.991M382.449 13.9947H334.32M493.663 25.1107L484.561 28.1613M326.081 28.1613L338.217 25.1107M326.081 28.1613H273.255M338.217 25.1107H286.403M454.988 38.0707L444.296 41.6533M272.395 41.6533L286.651 38.0707M272.395 41.6533H215.095M286.651 38.0707H230.539M409.317 53.3747L396.58 57.6413M208.772 57.6427L225.756 53.3733M208.772 57.6427L146.171 57.6413M225.756 53.3733L164.569 53.3747M354.565 71.72L339.132 76.892M132.177 76.892L152.753 71.7227H85.484M132.177 76.892L63.1907 76.8933M132.177 76.892L110.524 82.3333H39.7333M287.723 94.1187L268.641 100.512M115.005 100.512H38.1893M115.008 100.512L138.329 94.1187M345.46 100.512L327.507 107.28M63.6307 94.12L38.188 100.513M63.6307 94.12H0.517333M204.289 122.077L120.323 122.079H36.3547M204.289 122.077L180.093 130.185M6.78 130.185L36.3533 122.079M6.78 130.185H0.517333M6.78 130.185L0.517333 131.901M126.731 148.067L97.2147 157.956M0.517333 130.185V131.901M0.517333 130.185V122.076M0.517333 122.076V114.453V109.979V107.28M97.2147 157.956L65.5293 168.573M0.517333 157.956V158.207M0.517333 158.207V168.573V179.999M65.5293 168.573L31.4307 179.999M65.5293 168.573H0.516M31.4307 179.999H0.517333M31.4307 179.999L0.517333 190.357M0.517333 179.999V190.357M0.517333 190.357V192.332M0.517333 192.332V205.681M0.517333 205.681V220.181M0.517333 220.181V230.547M334.32 13.9947L322.991 16.6227M366.009 6.64267L367.26 6.352L375.872 4.35467M366.009 6.64267H411.701M411.701 6.64267L412.856 6.352L420.804 4.35467M375.872 4.35467H420.804M175.989 16.6227H126.988M189.932 13.9947L141.803 13.996M189.932 13.9947L203.388 11.46M189.932 13.9947L175.989 16.624M286.403 25.1107L273.255 28.1613M114.775 28.1613L130.957 25.1093L79.1427 25.1107L95.6907 22.1747L111.628 19.348M114.775 28.1613L61.9493 28.16M114.775 28.1613L97.948 31.3307M230.539 38.0707L215.095 41.6533M43.1933 41.6533L62.2013 38.0707M43.1933 41.6533H0.517333M62.2013 38.0707H6.08933M164.569 53.3747L146.171 57.6413M42.1973 53.3733H0.516M85.4827 71.72L63.1907 76.8933M0.517333 75.5333V76.892M63.1907 76.8933L39.7333 82.3333M63.1907 76.8933L0.517333 76.892M39.7333 82.3333L15.016 88.0667M39.7333 82.3333H0.517333M15.016 88.0667H0.517333M15.016 88.0667L0.517333 91.432M0.517333 76.892V82.336V88.0693V91.432M0.32 75.5733L0.516 75.5333M0.517333 91.432V94.12M38.188 100.513L0.517333 100.515M0.517333 94.12V100.512V107.28M0.517333 107.28H11.2587L0.517333 109.981M141.803 13.996L156.099 11.46M141.803 13.996L126.989 16.624M156.099 11.46H203.388M183.244 6.644H228.935M183.244 6.644L196.14 4.356M91.86 6.644L46.1693 6.64267M228.935 6.644L241.073 4.356M196.14 4.356H241.073M126.988 16.6227H77.988H28.988M126.988 16.6227L111.628 19.348M28.988 16.6227H0.518667M27.3293 25.1107L9.12267 28.16M9.12267 28.16H61.9493M9.12267 28.16L0.517333 29.6M9.12267 28.16H0.517333M0.516 25.1093H27.328H79.1413L61.9493 28.16M61.9493 28.16L44.0707 31.3307M44.0693 31.3307L25.4667 34.6333M25.4667 34.6333L6.08933 38.0707M25.4667 34.6333H0.517333M44.0693 31.332H0.517333M0.517333 31.332V34.6333M0.517333 31.332V29.6027V28.16M6.08933 38.0707L0.514667 39.0573M6.08933 38.0707H0.516M0.517333 34.6333V38.0707V39.0587V41.6533M0.517333 45.3907V49.2933M0.517333 45.3907V41.6533M0.517333 41.6533H0.217333M0.517333 49.2933V49.6973M0.517333 49.6973L0 49.7947M0.517333 11.4587V9.00933L0.518667 6.64267M46.1693 6.64267L61.3413 4.35467L16.408 4.356M46.1693 6.64267H0.518667M0.518667 6.64267H0.477333L0.517333 6.63733M0.518667 6.64267L0.517333 6.63733M16.408 4.356L0.517333 6.63733M16.408 4.356L0.517333 4.35467M0.517333 6.63733V4.35467M1919.48 6.63733V4.35467" stroke="url(#paint0_radial_39_1650)" stroke-opacity="0.6" stroke-width="2.51867" stroke-miterlimit="10" stroke-linecap="round" stroke-linejoin="round"/>
</g>
<defs>
<radialGradient id="paint0_radial_39_1650" cx="0" cy="0" r="1" gradientUnits="userSpaceOnUse" gradientTransform="translate(960 282.521) rotate(-90) scale(459.175 3005.51)">
<stop stop-color="#3D3D3D"/>
<stop offset="0.489" stop-color="#3D3D3D"/>
</radialGradient>
</defs>
</svg>
