<svg width="35" height="35" viewBox="0 0 35 35" fill="none" xmlns="http://www.w3.org/2000/svg">
<mask id="mask0_39_1788" style="mask-type:luminance" maskUnits="userSpaceOnUse" x="0" y="0" width="35" height="35">
<path d="M29.6154 0H5.38462C2.41077 0 0 2.41077 0 5.38462V29.6154C0 32.5892 2.41077 35 5.38462 35H29.6154C32.5892 35 35 32.5892 35 29.6154V5.38462C35 2.41077 32.5892 0 29.6154 0Z" fill="white"/>
</mask>
<g mask="url(#mask0_39_1788)">
<path d="M29.6154 0H5.38462C2.41077 0 0 2.41077 0 5.38462V29.6154C0 32.5892 2.41077 35 5.38462 35H29.6154C32.5892 35 35 32.5892 35 29.6154V5.38462C35 2.41077 32.5892 0 29.6154 0Z" fill="#141414"/>
<path d="M3.53365 37.0421V-2.01923M8.91827 37.0421V-2.01923M14.3029 37.0421V-2.01923M19.6875 37.0421V-2.01923M25.0721 37.0421V-2.01923M30.4567 37.0421V-2.01923M-2.1875 3.71337H36.8745M-2.1875 9.09798H36.8745M-2.1875 14.4826H36.8745M-2.1875 19.8672H36.8745M-2.1875 25.2518H36.8745M-2.1875 30.6364H36.8745" stroke="#DCFC36" stroke-opacity="0.2" stroke-width="0.673077"/>
<mask id="mask1_39_1788" style="mask-type:luminance" maskUnits="userSpaceOnUse" x="9" y="9" width="17" height="17">
<path d="M9.42308 9.42308H25.5769V25.5769H9.42308V9.42308Z" fill="white"/>
</mask>
<g mask="url(#mask1_39_1788)">
<path fill-rule="evenodd" clip-rule="evenodd" d="M17.5 9.42308C21.9605 9.42308 25.5769 13.0395 25.5769 17.5C25.5769 21.9605 21.9605 25.5769 17.5 25.5769C13.0395 25.5769 9.42308 21.9605 9.42308 17.5C9.42308 13.0395 13.0395 9.42308 17.5 9.42308ZM15.8025 14.9686C16.0408 14.9686 16.2555 14.9887 16.4507 15.0318C16.6465 15.0722 16.8121 15.1422 16.9528 15.2371C17.0914 15.3313 17.1985 15.4579 17.2779 15.6154C17.3539 15.7715 17.3916 15.9674 17.3916 16.1989C17.3916 16.45 17.3351 16.6587 17.2207 16.8263C17.1062 16.9932 16.938 17.1291 16.7145 17.2368C17.0201 17.3243 17.2462 17.4791 17.3977 17.6992C17.5491 17.92 17.6218 18.1852 17.6218 18.4975C17.6218 18.7499 17.5727 18.966 17.4771 19.149C17.3835 19.3281 17.2488 19.4824 17.084 19.5993C16.9198 19.7158 16.7307 19.8012 16.5187 19.8564C16.3066 19.912 16.0883 19.94 15.8691 19.9399H13.4595V14.9692L15.8025 14.9686ZM18.7324 15.3697H20.7483V15.8611L18.7324 15.8604V15.3697ZM19.1807 19.075C19.3287 19.2197 19.5421 19.2924 19.8201 19.2924C20.0193 19.2924 20.193 19.2419 20.3363 19.141C20.4797 19.04 20.5665 18.933 20.6002 18.8226H21.4712C21.3298 19.2567 21.1191 19.5643 20.8284 19.7508C20.543 19.9372 20.193 20.0314 19.7871 20.0314C19.5024 20.0314 19.2487 19.9857 19.0198 19.8955C18.8004 19.8101 18.6022 19.678 18.4389 19.5085C18.2782 19.3352 18.1537 19.1315 18.0728 18.9094C17.9847 18.6633 17.941 18.4035 17.9436 18.1421C17.9436 17.8722 17.988 17.6212 18.0762 17.3889C18.159 17.1648 18.287 16.9601 18.4522 16.7875C18.6175 16.6149 18.8164 16.478 19.0366 16.3854C19.2743 16.2847 19.5304 16.2345 19.7885 16.238C20.0927 16.238 20.3592 16.2965 20.5881 16.4163C20.8156 16.5348 21.0034 16.6943 21.1501 16.8929C21.2975 17.0921 21.4012 17.321 21.4664 17.5761C21.5304 17.8318 21.5526 18.0984 21.5351 18.3784H18.9357C18.9357 18.6611 19.0306 18.9303 19.18 19.0743L19.1807 19.075ZM20.3155 17.185C20.199 17.0551 19.9985 16.9844 19.7568 16.9844C19.5987 16.9844 19.4681 17.0113 19.3644 17.0645C19.2614 17.1184 19.178 17.1843 19.1134 17.2631C19.0522 17.3379 19.0071 17.4245 18.9808 17.5175C18.9575 17.5947 18.9422 17.6741 18.935 17.7544H20.545C20.5214 17.5013 20.4346 17.3156 20.3162 17.1843L20.3155 17.185ZM15.6598 16.9763C15.8543 16.9763 16.0152 16.9299 16.1411 16.837C16.2676 16.7455 16.3275 16.594 16.3275 16.3861C16.3315 16.2868 16.3102 16.1881 16.2656 16.0993C16.2261 16.0274 16.168 15.9674 16.0973 15.9257C16.0231 15.8814 15.9411 15.8519 15.8557 15.8388C15.7631 15.8218 15.6691 15.8134 15.575 15.8139H14.5519V16.9757H15.6605L15.6598 16.9763ZM15.7204 19.0925C15.8231 19.0934 15.9257 19.0826 16.026 19.0602C16.1236 19.038 16.2104 19.0057 16.2831 18.9552C16.3586 18.9052 16.42 18.8365 16.4614 18.756C16.5059 18.6725 16.5261 18.5655 16.5261 18.4342C16.5261 18.1785 16.4534 17.9954 16.31 17.885C16.1666 17.776 15.9755 17.7221 15.7386 17.7221H14.5519V19.0905H15.7197V19.0925H15.7204Z" fill="#DBFB36"/>
</g>
</g>
</svg>
