<svg width="20" height="22" viewBox="0 0 20 22" fill="none" xmlns="http://www.w3.org/2000/svg">
<mask id="mask0_39_1736" style="mask-type:luminance" maskUnits="userSpaceOnUse" x="0" y="0" width="20" height="22">
<path d="M0.117647 0.294118H19.8824V21.7059H0.117647V0.294118Z" fill="white"/>
</mask>
<g mask="url(#mask0_39_1736)">
<path d="M15.0655 0.381412V5.12C14.7575 5.13729 14.4487 5.15541 14.1572 5.15541H5.75718C5.32894 5.15541 4.90071 5.06729 4.90071 5.78706C4.91718 9.20965 4.90071 12.6314 4.90071 16.054V16.8965H7.746V21.7224H0.16953C0.152236 21.4078 0.117647 21.0924 0.117647 20.7753C0.117647 15.8613 0.101176 10.9473 0.152235 6.03247C0.152235 5.54165 0.409177 4.96188 0.735294 4.59376C1.93518 3.25965 3.20341 1.99635 4.47165 0.732235C4.69482 0.504118 5.05471 0.311412 5.34624 0.311412C8.46576 0.276 11.5861 0.293294 14.7056 0.293294C14.8086 0.293294 14.9115 0.346 15.0655 0.381412Z" fill="#DBFB36"/>
<path d="M7.84894 16.88C8.68894 15.2469 9.426 13.7382 10.2314 12.2814C10.3344 12.0879 10.7799 12.0179 11.0549 12.0179C12.3569 11.9825 13.6771 12.0006 15.1339 12.0006V5.26082H19.8824C19.8824 7.45471 19.8988 9.63129 19.8659 11.8244C19.8659 12.0179 19.66 12.2279 19.5225 12.3868C18.2169 13.735 16.9025 15.0747 15.5794 16.4056C15.3908 16.5992 15.1166 16.8446 14.8942 16.8619C12.5966 16.8973 10.3171 16.88 7.84894 16.88Z" fill="#DBFB36"/>
</g>
</svg>
