<svg width="20" height="23" viewBox="0 0 20 23" fill="none" xmlns="http://www.w3.org/2000/svg">
<mask id="mask0_39_1895" style="mask-type:luminance" maskUnits="userSpaceOnUse" x="0" y="0" width="20" height="23">
<path d="M0.185185 0.555555H19.5889V22.7778H0.185185V0.555555Z" fill="white"/>
</mask>
<g mask="url(#mask0_39_1895)">
<path d="M11.0252 15.0584L10.6252 22.351L10.6052 22.7436C10.0187 22.661 9.45747 22.4512 8.96071 22.1288L2.00294 17.5858C1.41345 17.2004 0.935936 16.6664 0.618491 16.0377C0.299994 15.4113 0.152555 14.7119 0.191084 14.0103L0.645158 5.71397C0.679293 5.122 0.842892 4.54472 1.12442 4.02286L7.56664 8.23027L7.47331 9.95471C7.4263 10.7714 7.59652 11.5859 7.96664 12.3155C8.33623 13.0471 8.89285 13.6678 9.57997 14.1147L11.0252 15.0569V15.0584ZM19.5829 8.67693C19.5829 8.67693 19.2429 14.8599 19.1311 16.9517C19.0311 17.211 18.257 17.9555 17.1615 18.9088L17.5496 8.98582C17.5699 8.51079 17.4678 8.03851 17.253 7.61433C17.0381 7.19016 16.7179 6.82833 16.3229 6.5636L8.09034 1.00138C9.5096 0.680637 10.5644 0.499896 10.8311 0.570266C12.5866 1.71841 17.7696 5.0999 17.7718 5.0999C18.3619 5.48492 18.8397 6.01899 19.157 6.64804C19.474 7.27573 19.6208 7.97479 19.5829 8.67693Z" fill="#666666"/>
<path d="M14.4185 9.59111L13.9504 21.5615C13.6141 21.8319 13.2726 22.0978 12.9348 22.3615C12.4129 22.621 11.8405 22.763 11.2578 22.7778L11.9319 10.4919C11.9353 10.4342 11.9234 10.3767 11.8973 10.3252C11.8713 10.2737 11.8321 10.23 11.7837 10.1985L1.48148 3.47259C1.83959 3.01309 2.29294 2.63656 2.81037 2.36889C3.22074 2.25185 3.63926 2.1363 4.05482 2.02148L13.9837 8.72889C14.2696 8.92148 14.4341 9.24518 14.4193 9.58963L14.4185 9.59111Z" fill="#666666"/>
<path d="M16.8963 8.96L16.4837 19.4911C15.8714 20.009 15.2529 20.5194 14.6281 21.0222L15.0741 9.6163C15.0858 9.33555 15.0252 9.05649 14.8981 8.80589C14.771 8.55529 14.5816 8.34156 14.3481 8.18518L4.89259 1.7963C5.7 1.58148 6.49259 1.38148 7.22148 1.20741L15.9563 7.10815C16.2589 7.31038 16.5042 7.58714 16.6687 7.91176C16.8332 8.23638 16.9114 8.5979 16.8956 8.96148V8.96H16.8963Z" fill="#666666"/>
</g>
</svg>
