<svg width="35" height="35" viewBox="0 0 35 35" fill="none" xmlns="http://www.w3.org/2000/svg">
<mask id="mask0_39_1800" style="mask-type:luminance" maskUnits="userSpaceOnUse" x="0" y="0" width="35" height="35">
<path d="M29.6154 0H5.38462C2.41077 0 0 2.41077 0 5.38462V29.6154C0 32.5892 2.41077 35 5.38462 35H29.6154C32.5892 35 35 32.5892 35 29.6154V5.38462C35 2.41077 32.5892 0 29.6154 0Z" fill="white"/>
</mask>
<g mask="url(#mask0_39_1800)">
<path d="M29.6154 0H5.38462C2.41077 0 0 2.41077 0 5.38462V29.6154C0 32.5892 2.41077 35 5.38462 35H29.6154C32.5892 35 35 32.5892 35 29.6154V5.38462C35 2.41077 32.5892 0 29.6154 0Z" fill="#141414"/>
<path d="M4.03846 37.0421V-2.01923M9.42308 37.0421V-2.01923M14.8077 37.0421V-2.01923M20.1923 37.0421V-2.01923M25.5769 37.0421V-2.01923M30.9615 37.0421V-2.01923M-1.68269 3.71337H37.3793M-1.68269 9.09798H37.3793M-1.68269 14.4826H37.3793M-1.68269 19.8672H37.3793M-1.68269 25.2518H37.3793M-1.68269 30.6364H37.3793" stroke="#DCFC36" stroke-opacity="0.2" stroke-width="0.673077"/>
<mask id="mask1_39_1800" style="mask-type:luminance" maskUnits="userSpaceOnUse" x="9" y="9" width="17" height="17">
<path d="M9.42308 9.42308H25.5769V25.5769H9.42308V9.42308Z" fill="white"/>
</mask>
<g mask="url(#mask1_39_1800)">
<g filter="url(#filter0_d_39_1800)">
<path fill-rule="evenodd" clip-rule="evenodd" d="M25.5769 12.4903C24.973 12.7594 24.3316 12.935 23.6748 13.0112C24.3664 12.5967 24.8844 11.9456 25.1327 11.1785C24.482 11.5639 23.7705 11.8359 23.0287 11.9828C22.7183 11.6526 22.3434 11.3897 21.9273 11.2103C21.5112 11.0308 21.0628 10.9387 20.6096 10.9395C20.1748 10.9394 19.7442 11.025 19.3424 11.1914C18.9406 11.3577 18.5756 11.6016 18.268 11.909C17.9605 12.2165 17.7166 12.5815 17.5502 12.9832C17.3837 13.385 17.2981 13.8155 17.2981 14.2504C17.2981 14.5082 17.3263 14.7612 17.3829 15.0042C16.0654 14.938 14.7766 14.5955 13.6001 13.9989C12.4236 13.4023 11.3858 12.565 10.5538 11.5412C10.2605 12.0472 10.1059 12.6216 10.1056 13.2064C10.1056 14.3554 10.6885 15.3711 11.5783 15.9634C11.0519 15.9465 10.5371 15.8051 10.076 15.5508V15.5918C10.0757 16.3571 10.3403 17.0989 10.825 17.6912C11.3096 18.2834 11.9844 18.6896 12.7346 18.8408C12.2459 18.9737 11.7332 18.9935 11.2357 18.8987C11.4481 19.5566 11.8603 20.1319 12.415 20.5445C12.9697 20.9571 13.6393 21.1864 14.3305 21.2006C13.6429 21.7407 12.8555 22.1399 12.0134 22.3751C11.1713 22.6104 10.291 22.6772 9.42308 22.5716C10.9382 23.5461 12.702 24.0633 14.5035 24.0612C20.5968 24.0612 23.9319 19.0117 23.9319 14.6334C23.9319 14.488 23.9286 14.3466 23.9225 14.2039C24.5719 13.7373 25.1316 13.1572 25.5749 12.4916L25.5769 12.4903Z" fill="#DBFB36"/>
</g>
</g>
</g>
<defs>
<filter id="filter0_d_39_1800" x="1.34615" y="2.86259" width="32.3077" height="29.2755" filterUnits="userSpaceOnUse" color-interpolation-filters="sRGB">
<feFlood flood-opacity="0" result="BackgroundImageFix"/>
<feColorMatrix in="SourceAlpha" type="matrix" values="0 0 0 0 0 0 0 0 0 0 0 0 0 0 0 0 0 0 127 0" result="hardAlpha"/>
<feOffset/>
<feGaussianBlur stdDeviation="4.03846"/>
<feComposite in2="hardAlpha" operator="out"/>
<feColorMatrix type="matrix" values="0 0 0 0 0.862745 0 0 0 0 0.988235 0 0 0 0 0.211765 0 0 0 0.3 0"/>
<feBlend mode="normal" in2="BackgroundImageFix" result="effect1_dropShadow_39_1800"/>
<feBlend mode="normal" in="SourceGraphic" in2="effect1_dropShadow_39_1800" result="shape"/>
</filter>
</defs>
</svg>
