<svg width="1310" height="200" viewBox="0 0 1310 200" fill="none" xmlns="http://www.w3.org/2000/svg">
<mask id="mask0_39_1959" style="mask-type:luminance" maskUnits="userSpaceOnUse" x="0" y="0" width="1310" height="200">
<path d="M0 0H1309.09V200H0V0Z" fill="white"/>
</mask>
<g mask="url(#mask0_39_1959)">
<path d="M21.6945 198.539L31.8636 200M21.6945 198.539H51.8309M21.6945 198.539L11.1873 197.03M21.6945 198.539H0.351818M31.8636 200L28.1636 199.999L24.5018 199.996L20.9155 199.987L17.4427 199.97L14.1191 199.941L10.9827 199.898L8.07 199.839L5.36545 199.764L3.04545 199.658L0.932727 199.537L0.351818 199.495V198.539M31.8636 200H61.5155M51.8309 198.539L61.5155 200M51.8309 198.539H81.9664M51.8309 198.539L49.3591 198.166L41.8236 197.031M11.1873 197.03L41.8236 197.031M11.1873 197.03L0.351818 195.475M0.351818 198.539L0.350909 197.03M61.5155 200H91.1664M91.1664 200H120.818M91.1664 200L81.9664 198.539M120.818 200H150.47M120.818 200L112.102 198.539M81.9664 198.539H112.102M81.9664 198.539L72.4591 197.031M150.47 200H180.121M150.47 200L142.237 198.539M112.102 198.539H142.237M112.102 198.539L103.095 197.031M180.121 200H209.773M180.121 200L172.373 198.539M142.237 198.539H172.373M142.237 198.539L133.732 197.031M209.773 200H239.425M209.773 200L202.509 198.539M172.373 198.539H202.509M172.373 198.539L170.396 198.166L169.402 197.979L164.368 197.031M239.425 200H269.075M239.425 200L232.645 198.539M202.509 198.539H232.645M202.509 198.539L200.656 198.166L195.004 197.031M269.075 200H298.727M269.075 200L262.781 198.539M232.645 198.539H262.781M232.645 198.539L225.64 197.031M298.727 200H328.379M298.727 200L292.916 198.539M262.781 198.539H292.916M262.781 198.539L261.175 198.166L260.366 197.979L256.276 197.031M328.379 200H358.03M328.379 200L323.052 198.539M292.916 198.539H323.052M292.916 198.539L286.912 197.031M358.03 200H387.682M358.03 200L353.188 198.539M323.052 198.539H353.188M323.052 198.539L321.694 198.166L321.009 197.979L317.548 197.031M387.682 200H417.334M387.682 200L386.605 199.639L384.975 199.093L383.324 198.539M353.188 198.539H383.324M353.188 198.539L352.571 198.354L351.953 198.166L348.185 197.031M417.334 200H446.985M417.334 200L416.377 199.639L413.46 198.539M383.324 198.539H413.46M383.324 198.539L382.212 198.166L381.652 197.979L378.821 197.031M446.985 200H476.636M446.985 200L443.595 198.539M413.46 198.539H443.595M413.46 198.539L409.456 197.031M476.636 200H506.288M476.636 200L475.558 199.457L474.465 198.909L474.099 198.725L473.731 198.539M443.595 198.539H473.731M443.595 198.539L443.164 198.354L442.731 198.166L442.295 197.979L440.093 197.031M506.288 200H535.939M506.288 200L505.389 199.457L505.087 199.275L504.784 199.093L503.866 198.539M473.731 198.539H503.866M473.731 198.539L472.99 198.166L472.616 197.979L472.242 197.791L470.729 197.031M535.939 200H565.591M535.939 200L534.002 198.539M503.866 198.539H534.002M503.866 198.539L503.249 198.166L501.998 197.413L501.683 197.222L501.365 197.031M565.591 200L565.412 199.82L565.233 199.639L564.323 198.725L564.138 198.539M565.591 200H595.242M534.002 198.539H564.138M534.002 198.539L533.755 198.354L533.508 198.166L533.259 197.98L532.002 197.031M564.138 198.539H594.274M564.138 198.539L562.637 197.031M595.242 200H624.895M595.242 200L594.274 198.539M624.895 200H654.545M624.895 200L624.715 199.457L624.41 198.539M594.274 198.539H624.41M594.274 198.539L594.151 198.354L594.027 198.166L593.903 197.98L593.274 197.031M654.545 200H684.196M654.545 200V198.539M624.41 198.539H654.545M624.41 198.539L623.909 197.031M684.196 200H713.849M684.196 200L684.376 199.457L684.681 198.539M654.545 198.539H684.681M654.545 198.539V197.031M713.849 200H743.5M713.849 200L714.817 198.539M684.681 198.539H714.817M684.681 198.539L685.182 197.031M743.5 200L743.679 199.82L743.858 199.639L744.768 198.725L744.953 198.539M743.5 200H773.151M714.817 198.539H744.953M714.817 198.539L714.94 198.354L715.064 198.166L715.188 197.98L715.565 197.413L715.817 197.031M744.953 198.539H775.089M744.953 198.539L746.454 197.031M773.151 200H802.804M773.151 200L774.843 198.725L775.089 198.539M802.804 200H832.455M802.804 200L803.702 199.457L804.004 199.275L804.612 198.909L804.917 198.725L805.225 198.539M775.089 198.539H805.225M775.089 198.539L775.335 198.354L775.583 198.166L775.832 197.98L777.09 197.031M832.455 200H862.106M832.455 200L833.533 199.457L834.625 198.909L834.992 198.725L835.36 198.539M805.225 198.539H835.36M805.225 198.539L805.842 198.166L807.093 197.413L807.726 197.031M862.106 200H891.757M862.106 200L865.495 198.539M835.36 198.539H865.495M835.36 198.539L836.101 198.166L836.475 197.98L836.848 197.791L838.362 197.031M891.757 200H921.409M891.757 200L892.714 199.639L895.631 198.539M865.495 198.539L865.927 198.354L868.998 197.031M865.495 198.539H895.631M921.409 200H951.064M921.409 200L925.764 198.539M895.631 198.539H925.764M895.631 198.539L896.125 198.354L899.634 197.031M951.064 200H980.709M951.064 200L955.9 198.539M925.764 198.539H955.9M925.764 198.539L926.882 198.166L927.436 197.98L930.273 197.031M980.709 200H1010.36M980.709 200L986.036 198.539M955.9 198.539H986.036M955.9 198.539L956.518 198.354L957.136 198.166L960.909 197.031M1010.36 200H1040.02M1010.36 200L1016.17 198.539M986.036 198.539H1016.17M986.036 198.539L987.4 198.166L988.082 197.98L991.545 197.031M1040.02 200H1069.66M1040.02 200L1046.31 198.539M1016.17 198.539H1046.31M1016.17 198.539L1016.92 198.354L1022.18 197.031M1069.66 200H1099.32M1069.66 200L1076.45 198.539M1046.31 198.539H1076.45M1046.31 198.539L1047.92 198.166L1048.73 197.98L1052.82 197.031M1099.32 200H1128.97M1099.32 200L1106.58 198.539M1076.45 198.539H1106.58M1076.45 198.539L1083.45 197.031M1128.97 200H1158.62M1128.97 200L1136.72 198.539M1106.58 198.539H1136.72M1106.58 198.539L1108.44 198.166L1114.09 197.031M1158.62 200H1188.27M1158.62 200L1166.85 198.539M1136.72 198.539H1166.85M1136.72 198.539L1138.69 198.166L1139.69 197.98L1144.73 197.031M1188.27 200H1217.93M1188.27 200L1196.99 198.539M1166.85 198.539H1196.99M1166.85 198.539L1175.35 197.031M1217.93 200H1247.57M1217.93 200L1227.13 198.539M1196.99 198.539H1227.13M1196.99 198.539L1206 197.031M1247.57 200H1277.23M1247.57 200L1257.26 198.539M1227.13 198.539H1257.26M1227.13 198.539L1236.63 197.031M1277.23 200L1280.93 199.999L1284.59 199.996L1288.17 199.987L1291.65 199.97L1294.97 199.942L1298.11 199.899L1301.02 199.839L1303.73 199.764L1306.05 199.659L1308.15 199.537L1308.74 199.495V198.539M1277.23 200L1287.4 198.539M1257.26 198.539H1287.4M1257.26 198.539L1259.73 198.166L1267.26 197.031M1308.74 198.539H1287.4M1308.74 198.539V197.031M1287.4 198.539L1297.9 197.031M1236.63 197.031L1246.45 195.471M1236.63 197.031H1206M1236.63 197.031H1267.26M1206 197.031L1215.31 195.471M1206 197.031H1175.35M1114.09 197.031L1121.85 195.471M1114.09 197.031H1083.45M1114.09 197.031H1144.73M1083.45 197.031L1090.69 195.471M1083.45 197.031H1052.82M991.545 197.031L997.236 195.471M991.545 197.031H960.909M991.545 197.031H1022.18M960.909 197.031L964.118 196.062L966.082 195.471M960.909 197.031H930.273M868.998 197.031L872.619 195.471M868.998 197.031H838.362M868.998 197.031H899.634M838.362 197.031L840.289 196.062L841.465 195.471M838.362 197.031H807.726M746.454 197.031L746.837 196.645L747.417 196.062L747.809 195.669L748.006 195.471M746.454 197.031H715.817M746.454 197.031H777.09M715.817 197.031L716.202 196.452L716.721 195.669L716.852 195.471M715.817 197.031H685.182M623.909 197.031L623.845 196.838L623.782 196.645L623.717 196.452L623.653 196.257L623.587 196.062L623.392 195.471M623.909 197.031H593.274M623.909 197.031H654.545M593.274 197.031L592.889 196.452L592.37 195.669L592.239 195.471M593.274 197.031H562.637M501.365 197.031L500.726 196.645L498.778 195.471M501.365 197.031H470.729M501.365 197.031H532.002M470.729 197.031L468.802 196.062L467.625 195.471M470.729 197.031H440.093M378.821 197.031L374.755 195.669L374.165 195.471M378.821 197.031H348.185M378.821 197.031H409.456M348.185 197.031L344.973 196.062L343.012 195.471M348.185 197.031H317.548M256.276 197.031L249.552 195.471M256.276 197.031H225.64M256.276 197.031H286.912M225.64 197.031L218.399 195.471M225.64 197.031H195.004M133.732 197.031L124.938 195.471M133.732 197.031H164.368M133.732 197.031H103.095M103.095 197.031L93.7855 195.471M103.095 197.031H72.4591M1308.85 184.881H1308.74M1308.74 184.881H1278.51M1308.74 184.881V182.879M1308.74 184.881V185.585M1278.51 184.881L1267.01 186.808M1278.51 184.881L1290.45 182.879M1278.51 184.881H1243.85M1267.01 186.808H1301.04M1267.01 186.808L1255.92 188.666M1267.01 186.808H1232.98M1290.45 182.879L1302.87 180.799M1290.45 182.879H1255.13M1290.45 182.879H1308.74M1243.85 184.881L1232.98 186.808M1243.85 184.881L1255.13 182.879M1243.85 184.881H1209.18M1301.04 186.808L1289.33 188.666M1301.04 186.808H1308.74M1301.04 186.808L1308.74 185.585M1255.92 188.666L1245.22 190.458M1255.92 188.666H1222.51M1255.92 188.666H1289.33M1232.98 186.808L1222.51 188.666M1232.98 186.808H1198.95M1289.33 188.666L1278.04 190.458M1289.33 188.666H1308.74M1308.74 186.808V185.585M1308.74 186.808V188.666M1267.15 192.187H1234.9M1267.15 192.187L1256.63 193.857M1267.15 192.187H1299.38M1267.15 192.187L1278.04 190.458M1234.9 192.187L1224.94 193.857M1234.9 192.187L1245.22 190.458M1234.9 192.187H1202.66M1256.63 193.857H1224.94M1256.63 193.857L1246.45 195.471M1256.63 193.857H1288.31M1299.38 192.187L1288.31 193.857M1299.38 192.187H1308.74M1299.38 192.187L1308.74 190.777M1278.04 190.458H1245.22M1278.04 190.458H1308.74M1224.94 193.857H1193.25M1224.94 193.857L1215.31 195.471M1245.22 190.458H1212.41M1202.66 192.187L1193.25 193.857M1202.66 192.187L1212.41 190.458M1202.66 192.187H1170.42M1246.45 195.471H1215.31M1246.45 195.471H1277.61M1288.31 193.857L1277.61 195.471M1288.31 193.857H1308.74M1193.25 193.857H1161.55M1193.25 193.857L1184.15 195.471M1215.31 195.471H1184.15M1309.07 154.455H1308.74M1308.74 154.455H1281.1M1308.74 154.455V157.65M1308.74 154.455V151.099V148.501M1281.1 154.455L1266.26 157.65M1281.1 154.455L1296.67 151.1M1281.1 154.455H1236.35M1266.26 157.65L1252.11 160.698M1266.26 157.65H1222.57M1266.26 157.65H1308.74M1296.67 151.1L1250.81 151.099M1296.67 151.1H1308.74M1296.67 151.1L1308.74 148.501M1236.35 154.455L1222.57 157.65M1236.35 154.455L1250.81 151.099M1236.35 154.455H1191.59M1252.11 160.698H1294.8M1252.11 160.698L1238.6 163.609M1252.11 160.698H1209.43M1222.57 157.65L1209.43 160.698M1222.57 157.65H1178.87M1308.74 157.65V157.895M1294.8 160.698L1280.32 163.609M1294.8 160.698H1308.74M1294.8 160.698L1308.74 157.895M1280.32 163.609L1266.48 166.391M1280.32 163.609H1238.6M1280.32 163.609H1308.74M1308.74 160.698V157.895M1308.74 160.698V163.609M1266.48 166.391H1225.69M1266.48 166.391L1253.25 169.052M1266.48 166.391H1307.28M1225.69 166.391L1213.34 169.052M1225.69 166.391L1238.6 163.609M1225.69 166.391H1184.89M1253.25 169.052H1213.34M1253.25 169.052H1293.16M1253.25 169.052L1240.57 171.6M1307.28 166.391L1293.16 169.052M1307.28 166.391H1308.74M1307.28 166.391L1308.74 166.115M1213.34 169.052L1201.51 171.6M1213.34 169.052H1173.42M1238.6 163.609H1196.88M1184.89 166.391L1173.42 169.052M1184.89 166.391L1196.88 163.609M1184.89 166.391L1144.1 166.39M1293.16 169.052L1279.65 171.6M1293.16 169.052H1308.74M1240.57 171.6H1201.51M1240.57 171.6H1279.65M1240.57 171.6L1228.43 174.043M1201.51 171.6L1190.16 174.043M1201.51 171.6H1162.44M1173.42 169.052L1162.44 171.6M1173.42 169.052H1133.51M1216.76 176.386H1179.28M1216.76 176.386L1205.57 178.637M1216.76 176.386H1254.25M1216.76 176.386L1228.43 174.043M1179.28 176.386L1168.84 178.637M1179.28 176.386L1190.16 174.043M1179.28 176.386H1141.8M1205.57 178.637H1168.84M1205.57 178.637H1242.31M1205.57 178.637L1194.82 180.799M1254.25 176.386H1291.73M1254.25 176.386L1242.31 178.637M1254.25 176.386L1266.68 174.043M1228.43 174.043H1190.16M1228.43 174.043H1266.68M1168.84 178.637L1158.8 180.799M1168.84 178.637H1132.1M1190.16 174.043H1151.91M1141.8 176.386L1132.1 178.637M1141.8 176.386L1151.91 174.043M1141.8 176.386H1104.32M1242.31 178.637H1279.05M1242.31 178.637L1230.84 180.799M1194.82 180.799H1158.8M1194.82 180.799H1230.84M1194.82 180.799L1184.47 182.879M1158.8 180.799L1149.15 182.879M1158.8 180.799H1122.78M1132.1 178.637L1122.78 180.799M1132.1 178.637H1095.36M1174.52 184.881H1139.85M1174.52 184.881L1164.93 186.808M1174.52 184.881H1209.18M1174.52 184.881L1184.47 182.879M1139.85 184.881L1130.9 186.808M1139.85 184.881L1149.15 182.879M1139.85 184.881H1105.19M1164.93 186.808H1130.9M1164.93 186.808H1198.95M1164.93 186.808L1155.69 188.666M1209.18 184.881L1198.95 186.808M1209.18 184.881L1219.8 182.879M1184.47 182.879H1149.15M1184.47 182.879H1219.8M1130.9 186.808L1122.28 188.666M1130.9 186.808H1096.88M1149.15 182.879H1113.82M1105.19 184.881L1096.88 186.808M1105.19 184.881L1113.82 182.879M1105.19 184.881H1070.53M1198.95 186.808L1189.1 188.666M1155.69 188.666H1122.28M1155.69 188.666H1189.1M1155.69 188.666L1146.77 190.458M1122.28 188.666L1113.96 190.458M1122.28 188.666H1088.87M1096.88 186.808L1088.87 188.666M1096.88 186.808H1062.85M1138.17 192.187H1105.94M1138.17 192.187L1129.87 193.857M1138.17 192.187H1170.42M1138.17 192.187L1146.77 190.458M1105.94 192.187L1098.18 193.857M1105.94 192.187L1113.96 190.458M1105.94 192.187H1073.69M1129.87 193.857H1098.18M1129.87 193.857L1121.85 195.471M1129.87 193.857H1161.55M1170.42 192.187L1161.55 193.857M1170.42 192.187L1179.59 190.458M1146.77 190.458H1113.96M1146.77 190.458H1179.59M1098.18 193.857H1066.49M1098.18 193.857L1090.69 195.471M1113.96 190.458H1081.15M1073.69 192.187L1066.49 193.857M1073.69 192.187L1081.15 190.458M1073.69 192.187H1041.45M1121.85 195.471H1090.69M1121.85 195.471H1153M1161.55 193.857L1153 195.471M1066.49 193.857H1034.81M1066.49 193.857L1059.54 195.471M1090.69 195.471H1059.54M1285.81 99.0464L1264.93 105.344M1285.81 99.0464L1308.17 92.3027M1285.81 99.0464H1222.68M1285.81 99.0464H1308.74M1264.93 105.344L1245.38 111.238M1264.93 105.344H1203.89M1264.93 105.344H1308.74M1308.17 92.3027H1242.81M1308.17 92.3027H1308.74M1308.17 92.3027L1308.74 92.1318M1222.68 99.0464L1203.89 105.344M1222.68 99.0464L1242.81 92.3027M1222.68 99.0464L1159.55 99.0455M1308.74 99.0464V92.3027M1308.74 99.0464V105.344M1245.38 111.238L1227.05 116.766M1245.38 111.238H1186.3M1245.38 111.238H1304.46M1203.89 105.344L1186.3 111.238M1203.89 105.344L1142.85 105.343M1308.74 105.344V110.067M1265.35 121.962H1209.83M1265.35 121.962L1247.51 126.855M1265.35 121.962L1284.3 116.766M1265.35 121.962H1308.74M1209.83 121.962L1193.6 126.855M1209.83 121.962L1227.05 116.766M1209.83 121.962H1154.3M1247.51 126.855H1193.6M1247.51 126.855H1301.42M1247.51 126.855L1230.68 131.469M1284.3 116.766H1227.05M1284.3 116.766L1304.46 111.238M1284.3 116.766H1308.74M1193.6 126.855L1178.3 131.469M1193.6 126.855H1139.7M1227.05 116.766H1169.8M1154.3 121.962L1139.7 126.855M1154.3 121.962L1169.8 116.766M1154.3 121.962H1098.77M1301.42 126.855L1283.05 131.469M1301.42 126.855H1308.74M1301.42 126.855L1308.74 125.014M1230.68 131.469H1178.3M1230.68 131.469H1283.05M1230.68 131.469L1214.77 135.828M1178.3 131.469L1163.85 135.828M1178.3 131.469H1125.93M1139.7 126.855L1125.93 131.469M1139.7 126.855L1085.79 126.854M1199.73 139.954H1150.16M1199.73 139.954L1185.46 143.864M1199.73 139.954H1249.29M1199.73 139.954L1214.77 135.828M1150.16 139.954L1137.2 143.864M1150.16 139.954L1163.85 135.828M1150.16 139.954H1100.6M1185.46 143.864H1137.2M1185.46 143.864H1233.74M1185.46 143.864L1171.94 147.574M1249.29 139.954H1298.85M1249.29 139.954L1233.74 143.864M1249.29 139.954L1265.71 135.828M1214.77 135.828H1163.85M1214.77 135.828H1265.71M1137.2 143.864L1124.9 147.574M1137.2 143.864H1088.94M1163.85 135.828H1112.92M1100.6 139.954L1088.94 143.864M1100.6 139.954L1112.92 135.828M1100.6 139.954H1051.05M1233.74 143.864H1282M1233.74 143.864L1218.97 147.574M1171.94 147.574H1124.9M1171.94 147.574H1218.97M1171.94 147.574L1159.07 151.099M1124.9 147.574L1113.21 151.099M1124.9 147.574H1077.86M1088.94 143.864L1077.86 147.574M1088.94 143.864H1040.67M1146.84 154.455H1102.08M1146.84 154.455L1135.18 157.65M1146.84 154.455H1191.59M1146.84 154.455L1159.07 151.099M1102.08 154.455L1091.49 157.65M1102.08 154.455L1113.21 151.099M1102.08 154.455H1057.33M1135.18 157.65H1091.49M1135.18 157.65H1178.87M1135.18 157.65L1124.06 160.698M1191.59 154.455L1178.87 157.65M1191.59 154.455L1204.94 151.099M1159.07 151.099H1113.21M1159.07 151.099H1204.94M1091.49 157.65L1081.38 160.698M1091.49 157.65H1047.79M1113.21 151.099H1067.35M1057.33 154.455L1047.79 157.65M1057.33 154.455L1067.35 151.099M1057.33 154.455L1012.57 154.454M1178.87 157.65L1166.75 160.698M1124.06 160.698H1081.38M1124.06 160.698H1166.75M1124.06 160.698L1113.45 163.609M1081.38 160.698L1071.73 163.609M1081.38 160.698H1038.7M1047.79 157.65L1038.7 160.698M1047.79 157.65L1004.1 157.649M1103.3 166.39H1062.51M1103.3 166.39L1093.59 169.052M1103.3 166.39H1144.1M1103.3 166.39L1113.45 163.609M1062.51 166.39L1053.68 169.052M1062.51 166.39L1071.73 163.609M1062.51 166.39H1021.71M1093.59 169.052H1053.68M1093.59 169.052H1133.51M1093.59 169.052L1084.3 171.6M1144.1 166.39L1133.51 169.052M1144.1 166.39L1155.16 163.609M1113.45 163.609H1071.73M1113.45 163.609H1155.16M1053.68 169.052L1045.23 171.6M1053.68 169.052H1013.76M1071.73 163.609H1030.01M1021.71 166.39L1013.76 169.052M1021.71 166.39L1030.01 163.609M1021.71 166.39H980.909M1133.51 169.052L1123.36 171.6M1084.3 171.6H1045.23M1084.3 171.6H1123.36M1084.3 171.6L1075.39 174.043M1045.23 171.6L1037.13 174.043M1045.23 171.6H1006.16M1013.76 169.052L1006.16 171.6M1013.76 169.052H973.855M1066.84 176.386H1029.36M1066.84 176.386L1058.64 178.637M1066.84 176.386H1104.32M1066.84 176.386L1075.39 174.043M1029.36 176.386L1028.41 176.673L1021.9 178.637M1029.36 176.386L1037.13 174.043M1029.36 176.386H991.882M1058.64 178.637H1021.9M1058.64 178.637H1095.36M1058.64 178.637L1050.75 180.799M1104.32 176.386L1095.36 178.637M1104.32 176.386L1113.65 174.043M1075.39 174.043H1037.13M1075.39 174.043H1113.65M1021.9 178.637L1014.73 180.799M1021.9 178.637H985.164M1037.13 174.043H998.873M991.882 176.386L985.164 178.637M991.882 176.386L998.873 174.043M991.882 176.386L954.4 176.385M1095.36 178.637L1086.76 180.799M1050.75 180.799H1014.73M1050.75 180.799H1086.76M1050.75 180.799L1043.16 182.879M1014.73 180.799L1008.68 182.624L1007.83 182.879M1014.73 180.799H978.709M985.164 178.637L978.709 180.799M985.164 178.637H948.427M1035.85 184.881H1001.19M1035.85 184.881L1028.83 186.808M1035.85 184.881H1070.53M1035.85 184.881L1043.16 182.879M1001.19 184.881L994.8 186.808M1001.19 184.881L1003.65 184.139L1007.83 182.879M1001.19 184.881H966.527M1028.83 186.808H994.8M1028.83 186.808H1062.85M1028.83 186.808L1022.05 188.666M1070.53 184.881L1063.8 186.572L1062.85 186.808M1070.53 184.881L1078.49 182.879M1043.16 182.879H1007.83M1043.16 182.879H1078.49M994.8 186.808L988.645 188.666M994.8 186.808H960.773M1007.83 182.879H972.5M966.527 184.881L960.773 186.808M966.527 184.881L968 184.387L972.5 182.879M966.527 184.881H931.864M1062.85 186.808L1055.46 188.666M1022.05 188.666H988.645M1022.05 188.666H1055.46M1022.05 188.666L1015.52 190.458M988.645 188.666L982.7 190.458M988.645 188.666H955.227M960.773 186.808L955.227 188.666M960.773 186.808L926.755 186.807M1009.21 192.187H976.964M1009.21 192.187L1003.12 193.857M1009.21 192.187H1041.45M1009.21 192.187L1015.52 190.458M976.964 192.187L972.791 193.445L972.109 193.652L971.427 193.857M976.964 192.187L982.7 190.458M976.964 192.187H944.727M1003.12 193.857H971.427M1003.12 193.857L997.236 195.471M1003.12 193.857H1034.81M1041.45 192.187L1034.81 193.857M1041.45 192.187L1048.33 190.458M1015.52 190.458H982.7M1015.52 190.458H1048.33M971.427 193.857H939.736M971.427 193.857L966.082 195.471M982.7 190.458H949.882M944.727 192.187L939.736 193.857M944.727 192.187L949.882 190.458M944.727 192.187H912.482M997.236 195.471H966.082M997.236 195.471H1028.38M1034.81 193.857L1028.38 195.471M939.736 193.857H908.052M939.736 193.857L934.927 195.471M966.082 195.471H934.927M1262.94 27.3109H1176.03M1262.94 27.3109L1235.57 39.1018M1262.94 27.3109L1293.01 14.3545M1262.94 27.3109H1308.74M1176.03 27.3109L1152.56 39.1018M1176.03 27.3109L1201.8 14.3545M1176.03 27.3109H1089.11M1235.57 39.1018H1152.56M1235.57 39.1018L1210.56 49.8764M1235.57 39.1018L1308.74 39.1009M1293.01 14.3545H1201.8M1293.01 14.3545L1308.74 7.57818M1293.01 14.3545H1308.74M1308.74 27.3109V14.3545M1308.74 27.3109V39.1009M1152.56 39.1018L1131.13 49.8764M1152.56 39.1018L1069.56 39.1009M1201.8 14.3545L1230.25 0.0509091M1201.8 14.3545H1110.59M1089.11 27.3109L1069.56 39.1009M1089.11 27.3109L1110.59 14.3545M1089.11 27.3109H1002.2M1210.56 49.8764H1131.13M1210.56 49.8764H1289.99M1210.56 49.8764L1187.61 59.7627M1308.74 39.1009V42.8091M1131.13 49.8764L1111.46 59.7618M1131.13 49.8764H1051.7M1069.56 39.1009L1051.7 49.8764M1069.56 39.1009L986.564 39.1018M1166.48 68.8646H1093.35M1166.48 68.8646L1146.97 77.2736M1166.48 68.8646H1239.62M1166.48 68.8646L1187.61 59.7627M1093.35 68.8646L1076.62 77.2727M1093.35 68.8646L1111.46 59.7618M1093.35 68.8646L1020.22 68.8636M1146.97 77.2736L1076.62 77.2727M1146.97 77.2736L1217.32 77.2727M1146.97 77.2736L1128.88 85.0636M1239.62 68.8646L1217.32 77.2727M1239.62 68.8646L1263.76 59.7627M1239.62 68.8646H1308.74M1187.61 59.7627L1111.46 59.7618M1187.61 59.7627H1263.76M1076.62 77.2727L1061.12 85.0636M1076.62 77.2727H1006.27M1111.46 59.7618L1035.31 59.7627M1020.22 68.8636L1006.27 77.2727M1020.22 68.8636L1035.31 59.7627M1020.22 68.8636L947.082 68.8646M1217.32 77.2727H1287.66M1217.32 77.2727L1196.65 85.0646M1128.88 85.0636H1061.12M1128.88 85.0636L1196.65 85.0646M1128.88 85.0636L1112.08 92.3018M1061.12 85.0636L1046.72 92.3018M1061.12 85.0636H993.364M1006.27 77.2727L993.364 85.0636M1006.27 77.2727H935.927M1096.43 99.0455H1033.3M1096.43 99.0455L1081.81 105.343M1096.43 99.0455H1159.55M1096.43 99.0455L1112.08 92.3018M1033.3 99.0455L1020.77 105.343M1033.3 99.0455L1046.72 92.3018M1033.3 99.0455H970.182M1081.81 105.343H1020.77M1081.81 105.343H1142.85M1081.81 105.343L1068.14 111.237M1159.55 99.0455L1142.85 105.343M1159.55 99.0455L1177.45 92.3027M1112.08 92.3018H1046.72M1112.08 92.3018L1177.45 92.3027M1020.77 105.343L1009.05 111.237M1020.77 105.343H959.736M1046.72 92.3018L981.355 92.3027M970.182 99.0455L959.736 105.343M970.182 99.0455L981.355 92.3027M970.182 99.0455H907.051M1142.85 105.343L1127.22 111.238M1068.14 111.237H1009.05M1068.14 111.237L1127.22 111.238M1068.14 111.237L1055.3 116.765M1009.05 111.237L998.045 116.765M1009.05 111.237L949.964 111.238M959.736 105.343L949.964 111.238M959.736 105.343H898.698M1043.25 121.961H987.709M1043.25 121.961L1031.88 126.854M1043.25 121.961H1098.77M1043.25 121.961L1055.3 116.765M987.709 121.961L977.982 126.854M987.709 121.961L998.045 116.765M987.709 121.961H932.182M1031.88 126.854H977.982M1031.88 126.854H1085.79M1031.88 126.854L1021.17 131.468M1055.3 116.765H998.045M1055.3 116.765L1112.55 116.766M977.982 126.854L968.8 131.468M977.982 126.854H924.073M998.045 116.765L940.8 116.766M1085.79 126.854L1073.55 131.469M1085.79 126.854L1098.77 121.962M1021.17 131.468H968.8M1021.17 131.468L1073.55 131.469M1021.17 131.468L1011.05 135.827M968.8 131.468L960.127 135.827M968.8 131.468L916.427 131.469M924.073 126.854L916.427 131.469M924.073 126.854L932.182 121.962M924.073 126.854H870.168M1001.48 139.953H951.918M1001.48 139.953L992.409 143.863M1001.48 139.953H1051.05M1001.48 139.953L1011.05 135.827M951.918 139.953L944.136 143.863M951.918 139.953L960.127 135.827M951.918 139.953H902.355M992.409 143.863H944.136M992.409 143.863H1040.67M992.409 143.863L983.791 147.573M1011.05 135.827H960.127M1011.05 135.827L1061.98 135.828M944.136 143.863L936.755 147.573M944.136 143.863H895.874M960.127 135.827L909.2 135.828M983.791 147.573H936.755M983.791 147.573L1030.83 147.574M983.791 147.573L975.609 151.099M936.755 147.573L929.745 151.099M936.755 147.573L889.723 147.574M967.818 154.454H923.073M967.818 154.454L960.4 157.649M967.818 154.454H1012.57M967.818 154.454L975.609 151.098M923.073 154.454L916.709 157.649M923.073 154.454L929.745 151.098M923.073 154.454H878.315M960.4 157.649H916.709M960.4 157.649H1004.1M960.4 157.649L953.327 160.697M1012.57 154.454L1004.1 157.649M1012.57 154.454L1021.47 151.099M916.709 157.649L910.646 160.697M916.709 157.649H873.016M878.315 154.454L873.016 157.649M878.315 154.454L883.877 151.099M878.315 154.454H833.561M1004.1 157.649L996.009 160.698M873.016 157.649L869.829 159.572L867.963 160.698M873.016 157.649H829.322M940.118 166.389H899.321M940.118 166.389L933.936 169.051M940.118 166.389H980.909M940.118 166.389L946.573 163.608M899.321 166.389L894.027 169.051M899.321 166.389L904.855 163.608M899.321 166.389H858.525M933.936 169.051H894.027M933.936 169.051H973.855M933.936 169.051L928.027 171.599M894.027 169.051L888.956 171.599M894.027 169.051H854.113M928.027 171.599H888.956M928.027 171.599L967.091 171.6M928.027 171.599L922.355 174.043M888.956 171.599L886.501 172.835L884.096 174.043M888.956 171.599L849.888 171.6M916.918 176.385H879.433M916.918 176.385L911.691 178.636M916.918 176.385H954.4M916.918 176.385L922.355 174.042M879.433 176.385L880.006 176.098L884.096 174.042M879.433 176.385L874.956 178.636M879.433 176.385H841.952M911.691 178.636H874.956M911.691 178.636H948.427M911.691 178.636L906.672 180.798M954.4 176.385L948.427 178.637M954.4 176.385L960.609 174.043M874.956 178.636L870.654 180.798M874.956 178.636H838.221M841.952 176.385L838.221 178.637M841.952 176.385L845.837 174.043M841.952 176.385H804.471M906.672 180.798H870.654M906.672 180.798L942.691 180.799M906.672 180.798L901.845 182.879M870.654 180.798L866.516 182.879M870.654 180.798L834.636 180.799M897.199 184.88H862.535M897.199 184.88L892.725 186.807M897.199 184.88H931.864M897.199 184.88L901.845 182.878M862.535 184.88L858.699 186.807M862.535 184.88L864.01 184.138L865.005 183.637L866.516 182.878M862.535 184.88H827.87M892.725 186.807H858.699M892.725 186.807H926.755M892.725 186.807L888.413 188.665M858.699 186.807L857.297 187.512L856.373 187.976L855.003 188.665M858.699 186.807H824.674M926.755 186.807L921.818 188.666M926.755 186.807L931.864 184.881M824.674 186.807L824.282 187.045L823.893 187.279L822.353 188.208L821.593 188.666M824.674 186.807L827.059 185.37L827.87 184.881M824.674 186.807H790.647M880.239 192.186H847.998M880.239 192.186L877.32 193.445L876.364 193.856M880.239 192.186H912.482M880.239 192.186L883.744 190.677L884.253 190.457M847.998 192.186L845.495 193.445L845.085 193.651L844.675 193.856M847.998 192.186L849.703 191.33L851.438 190.457M847.998 192.186H815.755M876.364 193.856H844.675M876.364 193.856L872.619 195.471M876.364 193.856L908.052 193.857M884.253 190.457H851.438M884.253 190.457L885.279 190.016L888.413 188.666M884.253 190.457L917.073 190.458M844.675 193.856L812.987 193.857M844.675 193.856L841.465 195.471M851.438 190.457L853.205 189.57L855.003 188.666M851.438 190.457L818.623 190.458M872.619 195.471H841.465M872.619 195.471H903.772M908.052 193.857L912.482 192.187M908.052 193.857L904.828 195.073L903.772 195.471M812.987 193.857L815.755 192.187M812.987 193.857L781.299 193.856M812.987 193.857L810.973 195.073L810.312 195.471M841.465 195.471H810.312M915.282 27.3109H828.372M915.282 27.3109L903.556 39.1018M915.282 27.3109H1002.2M915.282 27.3109L928.173 14.3545M828.372 27.3109L820.553 39.1018M828.372 27.3109L836.964 14.3545M828.372 27.3109H741.458M903.556 39.1018H820.553M903.556 39.1018H986.564M903.556 39.1018L892.837 49.8764M1002.2 27.3109L986.564 39.1018M1002.2 27.3109L1019.38 14.3545M928.173 14.3545H836.964M928.173 14.3545L942.4 0.0509091M928.173 14.3545H1019.38M820.553 39.1018L813.406 49.8764M820.553 39.1018L737.549 39.1009M836.964 14.3545L846.45 0.0509091M836.964 14.3545H745.755M741.458 27.3109L737.549 39.1009M741.458 27.3109L745.755 14.3545M741.458 27.3109H654.545M986.564 39.1018L972.264 49.8764M892.837 49.8764H813.406M892.837 49.8764H972.264M892.837 49.8764L883.004 59.7627M813.406 49.8764H733.976M737.549 39.1009L733.976 49.8764M737.549 39.1009L654.545 39.1018M873.948 68.8646H800.815M873.948 68.8646L865.584 77.2736M873.948 68.8646H947.082M873.948 68.8646L883.004 59.7627M800.815 68.8646L795.238 77.2727M800.815 68.8646L806.85 59.7618M800.815 68.8646L727.679 68.8636M865.584 77.2736L795.238 77.2727M865.584 77.2736L935.927 77.2727M865.584 77.2736L857.834 85.0636M947.082 68.8646L935.927 77.2727M947.082 68.8646L959.155 59.7636M883.004 59.7627L806.85 59.7636M883.004 59.7627L959.155 59.7636M795.238 77.2727L790.071 85.0636M795.238 77.2727H724.892M727.679 68.8636L724.892 77.2727M727.679 68.8636L730.698 59.7627M727.679 68.8636L654.545 68.8646M935.927 77.2727L925.6 85.0646M857.834 85.0636H790.071M857.834 85.0636L925.6 85.0646M857.834 85.0636L850.633 92.3018M790.071 85.0636L785.27 92.3018M790.071 85.0636H722.308M724.892 77.2727L722.308 85.0636M724.892 77.2727H654.545M843.925 99.0455H780.798M843.925 99.0455L837.66 105.343M843.925 99.0455H907.051M843.925 99.0455L850.633 92.3018M780.798 99.0455L776.622 105.343M780.798 99.0455L785.27 92.3018M780.798 99.0455H717.672M837.66 105.343H776.622M837.66 105.343H898.698M837.66 105.343L831.797 111.237M907.051 99.0455L898.698 105.343M907.051 99.0455L916 92.3027M850.633 92.3018H785.27M850.633 92.3018L916 92.3027M776.622 105.343L772.713 111.237M776.622 105.343H715.584M785.27 92.3018L719.908 92.3027M717.672 99.0455L715.584 105.343M717.672 99.0455L719.908 92.3027M717.672 99.0455H654.545M898.698 105.343L890.881 111.238M831.797 111.237H772.713M831.797 111.237L890.881 111.238M831.797 111.237L826.297 116.765M772.713 111.237L769.047 116.765M772.713 111.237L713.629 111.238M715.584 105.343L713.629 111.238M715.584 105.343H654.545M821.129 121.961H765.602M821.129 121.961L816.263 126.853M821.129 121.961H876.657M821.129 121.961L826.297 116.765M765.602 121.961L762.357 126.853M765.602 121.961L769.047 116.765M765.602 121.961H710.074M816.263 126.853H762.357M816.263 126.853H870.168M816.263 126.853L811.673 131.468M826.297 116.765H769.047M826.297 116.765L883.548 116.766M762.357 126.853L759.296 131.468M762.357 126.853H708.451M769.047 116.765L711.796 116.766M811.673 131.468H759.296M811.673 131.468L864.048 131.469M811.673 131.468L807.335 135.827M759.296 131.468L756.405 135.827M759.296 131.468L706.921 131.469M803.232 139.953H753.669M803.232 139.953L799.343 143.863M803.232 139.953H852.794M803.232 139.953L807.335 135.827M753.669 139.953L751.077 143.863M753.669 139.953L756.405 135.827M753.669 139.953H704.107M799.343 143.863H751.077M799.343 143.863H847.608M799.343 143.863L795.652 147.573M807.335 135.827H756.405M807.335 135.827L858.266 135.828M751.077 143.863L748.616 147.573M751.077 143.863H702.811M756.405 135.827L705.475 135.828M795.652 147.573H748.616M795.652 147.573L842.687 147.574M795.652 147.573L792.144 151.099M748.616 147.573L746.278 151.099M748.616 147.573L701.581 147.574M788.807 154.454H744.054M788.807 154.454L785.628 157.649M788.807 154.454H833.561M788.807 154.454L792.144 151.098M744.054 154.454L741.934 157.649M744.054 154.454L746.278 151.098M744.054 154.454H699.299M785.628 157.649H741.934M785.628 157.649H829.322M785.628 157.649L784.474 158.809L782.595 160.697M833.561 154.454L829.322 157.649M833.561 154.454L838.011 151.099M741.934 157.649L739.912 160.697M741.934 157.649H698.239M699.299 154.454L698.239 157.649M699.299 154.454L700.412 151.099M699.299 154.454H654.545M829.322 157.649L825.279 160.698M698.239 157.649L697.229 160.698M698.239 157.649H654.545M776.934 166.389H736.137M776.934 166.389L774.286 169.051M776.934 166.389H817.73M776.934 166.389L778.996 164.315L779.701 163.608M736.137 166.389L735.466 167.401L734.373 169.051M736.137 166.389L737.983 163.608M736.137 166.389H695.341M774.286 169.051L773.964 169.375L771.751 171.599M774.286 169.051H734.373M774.286 169.051H814.2M734.373 169.051L733.73 170.019L733.519 170.339L733.307 170.656L732.683 171.599M734.373 169.051H694.459M771.751 171.599H732.683M771.751 171.599L810.819 171.6M771.751 171.599L769.321 174.043M732.683 171.599L732.066 172.528L731.865 172.835L731.062 174.043M732.683 171.599L693.614 171.6M766.99 176.385H729.508M766.99 176.385L765.859 177.522L765.58 177.803L765.303 178.082L765.025 178.36L764.751 178.636M766.99 176.385H804.471M766.99 176.385L769.321 174.042M729.508 176.385L728.384 178.082L728.199 178.36L728.016 178.636M729.508 176.385L731.062 174.042M729.508 176.385H692.026M764.751 178.636H728.016M764.751 178.636H801.486M764.751 178.636L763.396 179.997L763.13 180.266L762.6 180.798M804.471 176.385L802.221 178.083L801.486 178.637M804.471 176.385L805.622 175.519L806.791 174.638L807.58 174.043M728.016 178.636L727.113 179.997L726.935 180.266L726.758 180.533L726.582 180.798M728.016 178.636H691.28M692.026 176.385L691.28 178.637M692.026 176.385L692.315 175.519L692.606 174.638L692.805 174.043M692.026 176.385H654.545M762.6 180.798H726.582M762.6 180.798L798.618 180.799M762.6 180.798L760.531 182.879M726.582 180.798L725.203 182.879M726.582 180.798L690.564 180.799M758.54 184.88H723.875M758.54 184.88L756.622 186.807M758.54 184.88H793.205M758.54 184.88L759.031 184.386L759.775 183.637L760.531 182.878M723.875 184.88L724.038 184.634L725.034 183.133L725.203 182.878M723.875 184.88L722.596 186.807M723.875 184.88H689.21M756.622 186.807H722.596M756.622 186.807H790.647M756.622 186.807L754.774 188.665M722.596 186.807L722.129 187.512L721.975 187.745L721.821 187.976L721.365 188.665M722.596 186.807H688.571M790.647 186.807L788.184 188.666M790.647 186.807L790.963 186.572L793.205 184.881M688.571 186.807L688.65 186.572L688.728 186.334L689.21 184.881M688.571 186.807L687.955 188.666M688.571 186.807H654.545M751.271 192.186H719.03M751.271 192.186L750.02 193.445L749.611 193.856M751.271 192.186H783.514M751.271 192.186L751.91 191.545L752.124 191.33L752.34 191.113L752.992 190.457M719.03 192.186L718.889 192.398L718.61 192.819L718.333 193.237L717.923 193.856M719.03 192.186L719.598 191.33L719.741 191.113L720.031 190.676L720.176 190.457M719.03 192.186H686.787M749.611 193.856H717.923M749.611 193.856L748.204 195.271L748.006 195.47M749.611 193.856H781.299M752.992 190.457H720.176M752.992 190.457L753.211 190.237L753.432 190.016L753.652 189.794L753.875 189.57L754.098 189.345L754.323 189.12L754.774 188.666M752.992 190.457L785.807 190.458M717.923 193.856L717.786 194.061L717.651 194.265L717.516 194.468L717.383 194.67L716.984 195.271L716.852 195.47M717.923 193.856H686.234M720.176 190.457L720.323 190.237L720.469 190.016L720.617 189.794L720.765 189.57L721.064 189.12L721.214 188.894L721.365 188.666M720.176 190.457L687.361 190.458M781.299 193.856L783.514 192.187M781.299 193.856L780.219 194.671L779.422 195.272L779.159 195.471M686.234 193.856L686.787 192.187M686.234 193.856L686.166 194.062L686.098 194.265L686.031 194.469L685.698 195.471M686.234 193.856H654.545M567.633 27.3109H480.719M567.633 27.3109L571.542 39.1018M567.633 27.3109H654.545M567.633 27.3109L563.336 14.3545M480.719 27.3109L488.538 39.1018M480.719 27.3109L472.127 14.3545M480.719 27.3109H393.805M571.542 39.1018H488.538M571.542 39.1018H654.545M571.542 39.1018L575.115 49.8764M654.545 27.3109V39.1018M654.545 27.3109V14.3545M563.336 14.3545H472.127M563.336 14.3545L558.593 0.0509091M563.336 14.3545H654.545M488.538 39.1018L495.685 49.8764M488.538 39.1018L405.535 39.1009M472.127 14.3545L462.641 0.0509091M472.127 14.3545H380.917M393.805 27.3109L405.535 39.1009M393.805 27.3109L380.917 14.3545M393.805 27.3109H306.892M654.545 39.1018V49.8764M575.115 49.8764H495.685M575.115 49.8764H654.545M575.115 49.8764L578.393 59.7627M495.685 49.8764L502.24 59.7618M495.685 49.8764H416.254M405.535 39.1009L416.254 49.8764M405.535 39.1009L322.531 39.1018M581.412 68.8646H508.276M581.412 68.8646L584.199 77.2736M581.412 68.8646H654.545M581.412 68.8646L578.393 59.7627M508.276 68.8646L513.853 77.2727M508.276 68.8646L502.24 59.7618M508.276 68.8646L435.143 68.8636M584.199 77.2736L513.853 77.2727M584.199 77.2736L654.545 77.2727M584.199 77.2736L586.783 85.0636M654.545 68.8646V77.2727M654.545 68.8646V59.7636M578.393 59.7627L502.24 59.7618M578.393 59.7627L654.545 59.7636M513.853 77.2727L519.02 85.0636M513.853 77.2727H443.507M502.24 59.7618L426.087 59.7627M435.143 68.8636L443.507 77.2727M435.143 68.8636L426.087 59.7627M435.143 68.8636L362.008 68.8646M654.545 77.2727V85.0646M586.783 85.0636H519.02M586.783 85.0636L654.545 85.0646M586.783 85.0636L589.183 92.3018M519.02 85.0636L523.821 92.3018M519.02 85.0636H451.257M443.507 77.2727L451.257 85.0636M443.507 77.2727H373.161M591.419 99.0455H528.293M591.419 99.0455L593.507 105.343M591.419 99.0455H654.545M591.419 99.0455L589.183 92.3018M528.293 99.0455L532.469 105.343M528.293 99.0455L523.821 92.3018M528.293 99.0455H465.166M593.507 105.343H532.469M593.507 105.343H654.545M593.507 105.343L595.462 111.237M654.545 99.0455V105.343M654.545 99.0455V92.3027M589.183 92.3018H523.821M589.183 92.3018L654.545 92.3027M532.469 105.343L536.377 111.237M532.469 105.343H471.431M523.821 92.3018L458.458 92.3027M465.166 99.0455L471.431 105.343M465.166 99.0455L458.458 92.3027M465.166 99.0455H402.04M654.545 105.343V111.238M595.462 111.237H536.377M595.462 111.237L654.545 111.238M595.462 111.237L597.295 116.765M536.377 111.237L540.044 116.765M536.377 111.237L477.294 111.238M471.431 105.343L477.294 111.238M471.431 105.343H410.393M599.017 121.961H543.489M599.017 121.961L600.64 126.853M599.017 121.961H654.545M599.017 121.961L597.295 116.765M543.489 121.961L546.734 126.853M543.489 121.961L540.044 116.765M543.489 121.961H487.962M600.64 126.853H546.734M600.64 126.853H654.545M600.64 126.853L602.17 131.468M597.295 116.765H540.044M597.295 116.765L654.545 116.766M546.734 126.853L549.795 131.468M546.734 126.853H492.828M540.044 116.765L482.794 116.766M602.17 131.468H549.795M602.17 131.468L654.545 131.469M602.17 131.468L603.615 135.827M549.795 131.468L552.685 135.827M549.795 131.468L497.418 131.469M604.984 139.953H555.422M604.984 139.953L606.28 143.863M604.984 139.953H654.545M604.984 139.953L603.615 135.827M555.422 139.953L558.014 143.863M555.422 139.953L552.685 135.827M555.422 139.953H505.859M606.28 143.863H558.014M606.28 143.863H654.545M606.28 143.863L607.51 147.573M603.615 135.827H552.685M603.615 135.827L654.545 135.828M558.014 143.863L560.475 147.573M558.014 143.863H509.748M552.685 135.827L501.755 135.828M607.51 147.573H560.475M607.51 147.573L654.545 147.574M607.51 147.573L608.536 150.668L608.679 151.099M560.475 147.573L562.813 151.099M560.475 147.573L513.439 147.574M609.792 154.454H565.037M609.792 154.454L610.852 157.649M609.792 154.454H654.545M609.792 154.454L608.679 151.098M565.037 154.454L567.157 157.649M565.037 154.454L562.813 151.098M565.037 154.454H520.284M610.852 157.649H567.157M610.852 157.649H654.545M610.852 157.649L611.862 160.697M654.545 154.454V157.649M654.545 154.454V151.099M567.157 157.649L569.179 160.697M567.157 157.649H523.463M520.284 154.454L523.463 157.649M520.284 154.454L516.946 151.099M520.284 154.454H475.53M654.545 157.649V160.698M523.463 157.649L524.235 158.425L526.495 160.698M523.463 157.649H479.769M613.75 166.389H572.954M613.75 166.389L614.632 169.051M613.75 166.389H654.545M613.75 166.389L612.827 163.608M572.954 166.389L574.502 168.725L574.718 169.051M572.954 166.389L571.108 163.608M572.954 166.389H532.157M614.632 169.051L614.739 169.375L615.477 171.599M614.632 169.051H574.718M614.632 169.051H654.545M574.718 169.051L575.361 170.019L575.572 170.339L575.784 170.656L576.408 171.599M574.718 169.051H534.805M615.477 171.599H576.408M615.477 171.599L654.545 171.6M615.477 171.599L615.683 172.22L616.087 173.442L616.286 174.043M576.408 171.599L577.025 172.528L577.226 172.835L578.029 174.043M576.408 171.599L537.34 171.6M617.065 176.385H579.583M617.065 176.385L617.81 178.636M617.065 176.385H654.545M617.065 176.385L616.776 175.518L616.679 175.226L616.583 174.933L616.386 174.34L616.286 174.042M579.583 176.385L580.707 178.082L581.075 178.636M579.583 176.385L578.029 174.042M579.583 176.385H542.101M617.81 178.636H581.075M617.81 178.636H654.545M617.81 178.636L618.527 180.798M654.545 176.385V178.637M654.545 176.385V174.043M581.075 178.636L581.977 179.997L582.156 180.266L582.333 180.533L582.509 180.798M581.075 178.636H544.34M542.101 176.385L543.511 177.804L543.788 178.083L544.065 178.361L544.34 178.637M542.101 176.385L540.066 174.341L539.77 174.043M542.101 176.385H504.62M618.527 180.798H582.509M618.527 180.798L654.545 180.799M618.527 180.798L619.217 182.879M582.509 180.798L583.888 182.879M582.509 180.798L546.491 180.799M619.881 184.88H585.216M619.881 184.88L620.52 186.807M619.881 184.88H654.545M619.881 184.88L619.217 182.878M585.216 184.88L585.053 184.634L584.057 183.133L583.888 182.878M585.216 184.88L586.495 186.807M585.216 184.88H550.551M620.52 186.807H586.495M620.52 186.807H654.545M620.52 186.807L621.135 188.665M586.495 186.807L586.962 187.512L587.115 187.745L587.27 187.976L587.726 188.665M586.495 186.807H552.469M654.545 186.807V188.666M654.545 186.807V184.881M552.469 186.807L554.317 188.666M552.469 186.807L550.551 184.881M552.469 186.807H518.444M622.303 192.186H590.061M622.303 192.186L622.857 193.856M622.303 192.186H654.545M622.303 192.186L621.73 190.457M590.061 192.186L590.202 192.398L590.482 192.819L590.62 193.029L590.895 193.445L591.032 193.651L591.169 193.856M590.061 192.186L589.493 191.33L589.35 191.113L589.06 190.676L588.915 190.457M590.061 192.186H557.819M622.857 193.856L622.925 194.061L622.993 194.265L623.06 194.468L623.392 195.47M622.857 193.856H591.169M622.857 193.856H654.545M621.73 190.457H588.915M621.73 190.457L621.135 188.666M621.73 190.457L654.545 190.458M591.169 193.856H559.48M591.169 193.856L591.44 194.265L591.575 194.468L591.708 194.67L592.106 195.271L592.239 195.47M588.915 190.457L588.768 190.237L588.622 190.016L588.474 189.794L588.326 189.57L587.877 188.894L587.726 188.666M588.915 190.457L556.099 190.458M654.545 193.856V192.187M654.545 193.856V195.471M559.48 193.856L559.071 193.445L557.819 192.187M559.48 193.856H527.792M559.48 193.856L560.689 195.073L561.085 195.471M219.979 27.3109H133.066M219.979 27.3109L239.527 39.1018M219.979 27.3109H306.892M219.979 27.3109L198.498 14.3545M133.066 27.3109L156.524 39.1018M133.066 27.3109L107.29 14.3545M133.066 27.3109H46.1527M239.527 39.1018H156.524M239.527 39.1018H322.531M239.527 39.1018L257.392 49.8764M306.892 27.3109L322.531 39.1018M306.892 27.3109L289.708 14.3545M198.498 14.3545H107.29M198.498 14.3545L174.785 0.0509091H270.736M198.498 14.3545H289.708M156.524 39.1018L177.962 49.8764M156.524 39.1018L73.52 39.1009M107.29 14.3545L78.8327 0.0509091M107.29 14.3545H16.08M46.1527 27.3109L73.52 39.1009M46.1527 27.3109L16.08 14.3545M46.1527 27.3109H0.352727M322.531 39.1018L336.823 49.8764M257.392 49.8764H177.962M257.392 49.8764H336.823M257.392 49.8764L273.783 59.7627M177.962 49.8764H98.5309M73.52 39.1009L98.5309 49.8764M73.52 39.1009H0.351818M288.874 68.8646H215.739M288.874 68.8646L302.815 77.2736M288.874 68.8646H362.008M288.874 68.8646L273.783 59.7627M215.739 68.8646L232.468 77.2727M215.739 68.8646L197.63 59.7618M215.739 68.8646L142.605 68.8636M302.815 77.2736L232.468 77.2727M302.815 77.2736L373.161 77.2727M302.815 77.2736L315.731 85.0636M362.008 68.8646L373.161 77.2727M362.008 68.8646L349.935 59.7627M273.783 59.7627H349.935M232.468 77.2727L247.968 85.0636M232.468 77.2727H162.122M142.605 68.8636L162.122 77.2727M142.605 68.8636L121.477 59.7636M373.161 77.2727L383.495 85.0646M315.731 85.0636H247.968M315.731 85.0636L383.495 85.0646M315.731 85.0636L327.733 92.3018M247.968 85.0636L262.37 92.3018M247.968 85.0636H180.205M162.122 77.2727L180.205 85.0636M162.122 77.2727L91.7755 77.2736M338.913 99.0455H275.786M338.913 99.0455L349.355 105.343M338.913 99.0455H402.04M338.913 99.0455L327.733 92.3018M275.786 99.0455L288.315 105.343M275.786 99.0455L262.37 92.3018M275.786 99.0455H212.66M349.355 105.343H288.315M349.355 105.343H410.393M349.355 105.343L359.126 111.237M402.04 99.0455L410.393 105.343M402.04 99.0455L393.095 92.3027M327.733 92.3018H262.37M327.733 92.3018L393.095 92.3027M288.315 105.343L300.042 111.237M288.315 105.343H227.277M262.37 92.3018L197.007 92.3027M212.66 99.0455L227.277 105.343M212.66 99.0455L197.007 92.3027M212.66 99.0455H149.534M410.393 105.343L418.21 111.238M359.126 111.237H300.042M359.126 111.237L418.21 111.238M359.126 111.237L368.292 116.765M300.042 111.237L311.041 116.765M300.042 111.237L240.958 111.238M227.277 105.343L240.958 111.238M227.277 105.343H166.238M376.905 121.961H321.378M376.905 121.961L385.016 126.853M376.905 121.961H432.434M376.905 121.961L368.292 116.765M321.378 121.961L331.111 126.853M321.378 121.961L311.041 116.765M321.378 121.961H265.85M385.016 126.853H331.111M385.016 126.853H438.923M385.016 126.853L392.667 131.468M368.292 116.765H311.041M368.292 116.765L425.543 116.766M331.111 126.853L340.292 131.468M331.111 126.853H277.205M311.041 116.765L253.79 116.766M392.667 131.468H340.292M392.667 131.468L445.043 131.469M392.667 131.468L399.895 135.827M340.292 131.468L348.965 135.827M340.292 131.468L287.915 131.469M406.735 139.953H357.173M406.735 139.953L413.217 143.863M406.735 139.953H456.297M406.735 139.953L399.895 135.827M357.173 139.953L364.951 143.863M357.173 139.953L348.965 135.827M357.173 139.953H307.61M413.217 143.863H364.951M413.217 143.863H461.483M413.217 143.863L419.368 147.573M399.895 135.827H348.965M399.895 135.827L450.825 135.828M364.951 143.863L372.333 147.573M364.951 143.863H316.685M348.965 135.827L298.035 135.828M419.368 147.573H372.333M419.368 147.573L466.404 147.574M419.368 147.573L425.214 151.099M372.333 147.573L379.347 151.099M372.333 147.573L325.297 147.574M430.776 154.454H386.023M430.776 154.454L436.075 157.649M430.776 154.454H475.53M430.776 154.454L425.214 151.098M386.023 154.454L392.381 157.649M386.023 154.454L379.347 151.098M386.023 154.454H341.269M436.075 157.649H392.381M436.075 157.649H479.769M436.075 157.649L441.128 160.697M475.53 154.454L479.769 157.649M475.53 154.454L471.08 151.099M392.381 157.649L398.445 160.697M392.381 157.649H348.687M341.269 154.454L348.687 157.649M341.269 154.454L333.482 151.099M341.269 154.454H296.515M479.769 157.649L483.812 160.698M348.687 157.649L355.762 160.698M348.687 157.649H304.993M450.565 166.389L450 166.048L449.431 165.705L445.954 163.608M450.565 166.389H409.769M450.565 166.389L454.977 169.051M450.565 166.389H491.361M409.769 166.389L415.064 169.051M409.769 166.389L404.235 163.608M409.769 166.389H368.973M454.977 169.051H415.064M454.977 169.051H494.891M454.977 169.051L459.203 171.599M415.064 169.051L420.135 171.599M415.064 169.051H375.15M459.203 171.599H420.135M459.203 171.599L498.272 171.6M459.203 171.599L460.232 172.22L463.254 174.043M420.135 171.599L421.981 172.528L422.59 172.835L424.995 174.043M420.135 171.599L381.066 171.6M467.139 176.385H429.657M467.139 176.385L470.87 178.636M467.139 176.385H504.62M467.139 176.385L463.254 174.042M429.657 176.385L432.477 177.803L434.135 178.636M429.657 176.385L424.995 174.042M429.657 176.385H392.175M470.87 178.636H434.135M470.87 178.636H507.605M470.87 178.636L474.014 180.533L474.455 180.798M504.62 176.385L506.869 178.083L507.605 178.637M504.62 176.385L503.469 175.519L501.511 174.043M434.135 178.636L438.436 180.798M434.135 178.636H397.399M392.175 176.385L397.399 178.637M392.175 176.385L386.735 174.043M392.175 176.385H354.695M474.455 180.798H438.436M474.455 180.798L510.473 180.799M474.455 180.798L477.903 182.879M438.436 180.798L442.575 182.879M438.436 180.798L402.419 180.799M481.221 184.88H446.556M481.221 184.88L482.031 185.368L484.417 186.807M481.221 184.88H515.885M481.221 184.88L480.404 184.386L478.744 183.385L477.903 182.878M446.556 184.88L450.392 186.807M446.556 184.88L445.081 184.138L444.085 183.637L442.575 182.878M446.556 184.88H411.892M484.417 186.807H450.392M484.417 186.807H518.444M484.417 186.807L486.738 188.207L487.498 188.665M450.392 186.807L451.794 187.512L452.718 187.976L454.088 188.665M450.392 186.807H416.366M518.444 186.807L520.907 188.666M518.444 186.807L518.128 186.572L515.885 184.881M416.366 186.807L420.678 188.666M416.366 186.807L411.892 184.881M416.366 186.807H382.34M493.335 192.186H461.093M493.335 192.186L495.077 193.237L496.104 193.856M493.335 192.186H525.577M493.335 192.186L490.468 190.457M461.093 192.186L463.596 193.445L464.006 193.651L464.415 193.856M461.093 192.186L459.388 191.33L457.653 190.457M461.093 192.186H428.852M496.104 193.856H464.415M496.104 193.856L497.453 194.67L498.118 195.072L498.449 195.271L498.778 195.47M496.104 193.856H527.792M490.468 190.457H457.653M490.468 190.457L487.498 188.666M490.468 190.457L523.284 190.458M464.415 193.856H432.727M464.415 193.856L467.625 195.47M457.653 190.457L456.331 189.794L455.886 189.57L454.088 188.666M457.653 190.457L424.837 190.458M527.792 193.856L527.245 193.445L525.577 192.187M527.792 193.856L528.872 194.671L529.669 195.272L529.932 195.471M432.727 193.856L431.771 193.445L428.852 192.187M432.727 193.856H401.039M432.727 193.856L436.472 195.471M91.7755 77.2736H21.4291L44.6791 85.0646M91.7755 77.2736L112.442 85.0636M91.7755 77.2736L69.4709 68.8655M44.6791 85.0646L66.2836 92.3027H131.645M44.6791 85.0646L112.442 85.0636M0.351818 77.2727H21.43L0.351818 70.2091M0.351818 77.2727V85.0636V92.1318V92.3027V99.0455M0.351818 77.2727V70.2091M0.351818 70.2091V68.8646V59.7627M86.4073 99.0455H23.2809M86.4073 99.0455L105.2 105.343M86.4073 99.0455H149.534M86.4073 99.0455L66.2827 92.3018M23.2809 99.0455L44.1627 105.343M23.2809 99.0455L0.92 92.3018L66.2818 92.3027M23.2809 99.0455H0.351818M105.2 105.343H44.1627M105.2 105.343H166.238M105.2 105.343L122.791 111.237M149.534 99.0455L166.238 105.343M149.534 99.0455L131.645 92.3027M44.1627 105.343L63.7073 111.237M44.1627 105.343H0.352727M0.351818 99.0455V105.344V110.067M166.238 105.343L181.875 111.238M122.791 111.237L63.7064 111.238M122.791 111.237L181.875 111.238M122.791 111.237L139.288 116.765M154.795 121.961H99.2664M154.795 121.961L169.394 126.853M154.795 121.961H210.323M154.795 121.961L139.288 116.765M99.2664 121.961L115.487 126.853M99.2664 121.961L82.0382 116.765M99.2664 121.961H43.7382M169.394 126.853H115.487M169.394 126.853H223.299M169.394 126.853L183.165 131.467M139.288 116.765H82.0382M139.288 116.765L196.539 116.766M115.487 126.853L130.789 131.467M115.487 126.853H61.5818M82.0382 116.765L63.7064 111.238M82.0382 116.765L24.7873 116.766M208.486 139.953H158.925M208.486 139.953L220.154 143.863M208.486 139.953H258.048M208.486 139.953L196.175 135.827M158.925 139.953L171.888 143.863M158.925 139.953L145.245 135.827M158.925 139.953H109.362M220.154 143.863H171.888M220.154 143.863H268.419M220.154 143.863L231.226 147.573M196.175 135.827H145.245M196.175 135.827L183.165 131.468M196.175 135.827L247.105 135.828M171.888 143.863L184.192 147.573M171.888 143.863H123.623M145.245 135.827L130.789 131.468M145.245 135.827L94.3146 135.828M231.226 147.573H184.192M231.226 147.573L278.263 147.574M231.226 147.573L241.749 151.099M184.192 147.573L195.883 151.099M184.192 147.573L137.155 147.574M251.761 154.454H207.007M251.761 154.454L261.298 157.649M251.761 154.454H296.515M251.761 154.454L241.749 151.098M207.007 154.454L217.605 157.649M207.007 154.454L195.883 151.098M207.007 154.454H162.254M261.298 157.649H217.605M261.298 157.649H304.993M261.298 157.649L270.395 160.697M296.515 154.454L304.993 157.649M296.515 154.454L287.615 151.099M217.605 157.649L227.712 160.697M217.605 157.649H173.91M162.254 154.454L173.91 157.649M162.254 154.454L150.016 151.099M162.254 154.454L117.499 154.455M304.993 157.649L313.078 160.698M173.91 157.649L185.028 160.698M173.91 157.649L130.216 157.65M287.381 166.389H246.585M287.381 166.389L295.324 169.051M287.381 166.389H328.177M287.381 166.389L279.08 163.608M246.585 166.389L255.41 169.051M246.585 166.389L237.362 163.608M246.585 166.389H205.789M295.324 169.051H255.41M295.324 169.051H335.236M295.324 169.051L302.929 171.599M255.41 169.051L263.861 171.599M255.41 169.051H215.496M302.929 171.599H263.861M302.929 171.599L341.997 171.6M302.929 171.599L310.219 174.043M263.861 171.599L271.96 174.043M263.861 171.599L224.792 171.6M317.214 176.385H279.733M317.214 176.385L323.929 178.636M317.214 176.385H354.695M317.214 176.385L310.219 174.042M279.733 176.385L287.194 178.636M279.733 176.385L271.96 174.042M279.733 176.385H242.25M323.929 178.636H287.194M323.929 178.636H360.665M323.929 178.636L330.383 180.798M354.695 176.385L360.665 178.637M354.695 176.385L348.478 174.043M287.194 178.636L294.365 180.798M287.194 178.636H250.458M242.25 176.385L250.458 178.637M242.25 176.385L233.703 174.043M242.25 176.385L204.769 176.386M330.383 180.798H294.365M330.383 180.798L366.401 180.799M330.383 180.798L336.588 182.879M294.365 180.798L300.413 182.624L301.26 182.879M294.365 180.798L258.346 180.799M342.562 184.88H307.897M342.562 184.88L348.315 186.807M342.562 184.88H377.226M342.562 184.88L341.089 184.386L340.349 184.138L336.588 182.878M307.897 184.88L314.289 186.807M307.897 184.88L301.26 182.878M307.897 184.88H273.233M348.315 186.807H314.289M348.315 186.807H382.34M348.315 186.807L353.859 188.665M314.289 186.807L320.45 188.665M314.289 186.807H280.264M382.34 186.807L387.269 188.666M382.34 186.807L377.226 184.881M280.264 186.807L287.04 188.666M280.264 186.807L273.233 184.881M280.264 186.807L246.238 186.808M364.367 192.186H332.125M364.367 192.186L369.351 193.856M364.367 192.186H396.609M364.367 192.186L359.206 190.457M332.125 192.186L336.296 193.445L336.98 193.651L337.663 193.856M332.125 192.186L326.391 190.457M332.125 192.186H299.884M369.351 193.856H337.663M369.351 193.856L373.572 195.271L374.165 195.47M369.351 193.856H401.039M359.206 190.457H326.391M359.206 190.457L353.859 188.666M359.206 190.457L392.023 190.458M337.663 193.856H305.974M337.663 193.856L343.012 195.47M326.391 190.457L320.45 188.666M326.391 190.457L293.576 190.458M401.039 193.856L396.609 192.187M401.039 193.856L404.263 195.073L405.319 195.471M305.974 193.856L299.884 192.187M305.974 193.856L274.285 193.857M305.974 193.856L311.858 195.471M10.2382 139.954L27.0909 143.864M10.2382 139.954H59.8M10.2382 139.954L0.351818 137.66M10.2382 139.954H0.351818M27.0909 143.864H75.3573M27.0909 143.864L43.0845 147.574M27.0909 143.864H0.351818M59.8 139.954H109.362M59.8 139.954L75.3573 143.864M59.8 139.954L43.3845 135.828M0.351818 137.66V139.954M0.351818 137.66V135.828M0.351818 139.954V143.864M75.3573 143.864H123.623M75.3573 143.864L90.12 147.574M43.0845 147.574L58.2836 151.099M43.0845 147.574H90.12M43.0845 147.574H0.351818M0.351818 143.864V147.574M72.7455 154.455H27.9909M72.7455 154.455L86.5227 157.65M72.7455 154.455H117.499M72.7455 154.455L58.2836 151.099M27.9909 154.455L42.8273 157.65M27.9909 154.455L12.4182 151.099M27.9909 154.455H0.351818M86.5227 157.65H42.8273M86.5227 157.65H130.215M86.5227 157.65L99.6609 160.698M117.499 154.455L130.216 157.65M117.499 154.455L104.15 151.099M58.2836 151.099H12.4182M58.2836 151.099H104.15M42.8273 157.65L56.9773 160.698M42.8273 157.65H0.351818M12.4182 151.099L0.351818 148.501M12.4182 151.099H0.351818M0.351818 154.455H0.02M0.351818 154.455V157.65M0.351818 154.455V151.099M99.6609 160.698H56.9773M99.6609 160.698H142.345M99.6609 160.698L112.206 163.609M56.9773 160.698L70.4882 163.609M56.9773 160.698H14.2945M0.351818 157.65V157.895M124.197 166.39H83.4009M124.197 166.39L135.669 169.052M124.197 166.39H164.993M124.197 166.39L112.206 163.609M83.4009 166.39L95.7555 169.052M83.4009 166.39L70.4882 163.609M83.4009 166.39H42.6045M135.669 169.052H95.7555M135.669 169.052H175.583M135.669 169.052L146.655 171.6M164.993 166.39H205.789M164.993 166.39L175.583 169.052M164.993 166.39L153.925 163.609M112.206 163.609H70.4882M112.206 163.609H153.925M95.7555 169.052L107.586 171.6M95.7555 169.052H55.8418M70.4882 163.609H28.77M42.6045 166.39L55.8418 169.052M42.6045 166.39L28.7709 163.609M42.6045 166.39H1.80909M175.583 169.052H215.496M175.583 169.052L185.724 171.6M146.655 171.6H107.586M146.655 171.6H185.724M146.655 171.6L157.185 174.043M107.586 171.6L118.927 174.043M107.586 171.6H68.5182M55.8418 169.052L68.5182 171.6M55.8418 169.052H15.9273M167.288 176.386H129.807M167.288 176.386L176.988 178.637M167.288 176.386H204.769M167.288 176.386L157.185 174.043M129.807 176.386L140.253 178.637M129.807 176.386L118.927 174.043M129.807 176.386H92.3245M176.988 178.637H140.253M176.988 178.637H213.724M176.988 178.637L186.31 180.799M204.769 176.386L213.724 178.637M204.769 176.386L195.445 174.043M157.185 174.043H118.927M157.185 174.043H195.445M140.253 178.637L150.292 180.799M140.253 178.637H103.518M118.927 174.043H80.6682M92.3245 176.386L103.518 178.637M92.3245 176.386L80.6682 174.043M92.3245 176.386H54.8445M213.724 178.637H250.458M213.724 178.637L222.328 180.799M186.31 180.799H150.292M186.31 180.799H222.328M186.31 180.799L195.275 182.879M150.292 180.799L159.946 182.879M150.292 180.799H114.274M103.518 178.637L114.274 180.799M103.518 178.637H66.7818H30.0482L17.3627 176.386M203.903 184.881H169.237M203.903 184.881L212.212 186.808M203.903 184.881H238.567M203.903 184.881L195.275 182.879M169.237 184.881L178.186 186.808M169.237 184.881L159.946 182.879M169.237 184.881H134.573M212.212 186.808H178.186M212.212 186.808H246.238M212.212 186.808L220.221 188.666M238.567 184.881H273.233M238.567 184.881L245.295 186.572L246.238 186.808M238.567 184.881L230.603 182.879M195.275 182.879H159.946M195.275 182.879H230.603M178.186 186.808L186.812 188.666M178.186 186.808H144.161M159.946 182.879H124.617M134.573 184.881L144.161 186.808M134.573 184.881L124.617 182.879M134.573 184.881H99.9082M246.238 186.808L253.631 188.666M220.221 188.666H186.812M220.221 188.666H253.631M220.221 188.666L227.945 190.458M186.812 188.666L195.129 190.458M186.812 188.666H153.402M144.161 186.808L153.402 188.666M144.161 186.808H110.135M235.399 192.187H203.157M235.399 192.187L242.597 193.857M235.399 192.187H267.641M235.399 192.187L227.945 190.458M203.157 192.187L210.909 193.857M203.157 192.187L195.129 190.458M203.157 192.187H170.915M242.597 193.857H210.909M242.597 193.857L249.552 195.471M242.597 193.857H274.285M267.641 192.187H299.884M267.641 192.187L274.285 193.857M267.641 192.187L260.761 190.458M227.945 190.458H195.129M227.945 190.458H260.761M210.909 193.857H179.22M210.909 193.857L218.399 195.471M195.129 190.458H162.315M170.915 192.187L179.22 193.857M170.915 192.187L162.315 190.458M170.915 192.187H138.674M249.552 195.471H218.399M249.552 195.471H280.705M274.285 193.857L280.705 195.471M179.22 193.857H147.532M179.22 193.857L187.245 195.471M218.399 195.471H187.245M17.3627 176.386H54.8445M17.3627 176.386L4.15091 174.043M17.3627 176.386H0.351818M54.8445 176.386L66.7836 178.637L78.2555 180.799M54.8445 176.386L42.41 174.043M4.15091 174.043H42.41M4.15091 174.043H0.351818M4.15091 174.043L0.351818 173.369M0.351818 176.386V178.637M0.351818 176.386V174.043M42.2364 180.799L30.0473 178.637H0.351818M42.2364 180.799H6.21909M42.2364 180.799H78.2555M42.2364 180.799L53.9609 182.879M0.351818 178.637V179.816M65.2427 184.881H30.5791M65.2427 184.881L76.11 186.808M65.2427 184.881H99.9082M65.2427 184.881L53.9609 182.879M30.5791 184.881L42.0845 186.808M30.5791 184.881L18.6327 182.879M30.5791 184.881H0.351818M76.11 186.808H42.0845M76.11 186.808H110.135M76.11 186.808L86.5827 188.666M99.9082 184.881L110.135 186.808M99.9082 184.881L89.2891 182.879M53.9609 182.879H18.6327M53.9609 182.879H89.2891M42.0845 186.808L53.1736 188.666M42.0845 186.808H8.05909M18.6327 182.879L6.21909 180.799M18.6327 182.879H0.351818M0.351818 184.881H0.246364M0.351818 184.881V185.585M0.351818 184.881V182.879M110.135 186.808L119.993 188.666M86.5827 188.666H53.1736M86.5827 188.666H119.993M86.5827 188.666L96.6836 190.458M53.1736 188.666L63.8682 190.458M53.1736 188.666H19.7636M8.05909 186.808L19.7636 188.666M8.05909 186.808L0.351818 185.585M8.05909 186.808H0.351818M106.431 192.187H74.1891M106.431 192.187L115.844 193.857M106.431 192.187H138.674M106.431 192.187L96.6836 190.458M74.1891 192.187L84.1555 193.857M74.1891 192.187L63.8682 190.458M74.1891 192.187H41.9455M115.844 193.857H84.1555M115.844 193.857L124.938 195.471M115.844 193.857H147.532M138.674 192.187L147.532 193.857M138.674 192.187L129.499 190.458M96.6836 190.458H63.8682M96.6836 190.458H129.499M84.1555 193.857H52.4673M84.1555 193.857L93.7855 195.471M63.8682 190.458H31.0527M124.938 195.471H93.7855M124.938 195.471H156.092M147.532 193.857L156.092 195.471M52.4673 193.857L41.9473 192.187M52.4673 193.857H20.7791M52.4673 193.857L62.6318 195.471M93.7855 195.471H62.6318M31.0527 190.458L41.9473 192.187M31.0527 190.458L19.7636 188.666M31.0527 190.458H0.352727M41.9473 192.187H9.70545M9.70545 192.187L20.7791 193.857M9.70545 192.187L0.351818 190.777M9.70545 192.187H0.351818M20.7791 193.857L31.4791 195.471M20.7791 193.857H0.351818M62.6318 195.471H31.4791M62.6318 195.471L72.4591 197.031M19.7636 188.666H0.351818M0.351818 190.777V192.187M0.351818 190.777V190.458V188.666M0.351818 192.187V193.857M31.4791 195.471L41.8236 197.031M31.4791 195.471H0.352727M0.351818 193.857V195.471M72.4591 197.031H41.8236M0.351818 185.585V186.808M0.351818 186.808V188.666M119.993 188.666L129.499 190.458M119.993 188.666H153.402M129.499 190.458H162.315M6.21909 180.799L0.351818 179.816M6.21909 180.799H0.351818M0.351818 182.879V180.799M0.351818 179.816V180.799M78.2555 180.799L89.2891 182.879M78.2555 180.799H114.274M89.2891 182.879H124.617M162.315 190.458L153.402 188.666M187.245 195.471H156.092M187.245 195.471L195.004 197.031M156.092 195.471L164.368 197.031M195.004 197.031H164.368M253.631 188.666L260.761 190.458M253.631 188.666H287.04M260.761 190.458H293.576M124.617 182.879L114.274 180.799M222.328 180.799L230.603 182.879M222.328 180.799H258.346M230.603 182.879H265.932M80.6682 174.043L68.5182 171.6M80.6682 174.043H42.41M42.41 174.043L29.4482 171.6M68.5182 171.6H29.4482M29.4482 171.6L15.9273 169.052M29.4482 171.6H0.352727M0.351818 174.043V173.369M0.351818 173.369V171.6M15.9273 169.052L1.81 166.39M15.9273 169.052H0.351818M185.724 171.6L195.445 174.043M185.724 171.6H224.792M195.445 174.043H233.703M1.80909 166.39L0.351818 166.115M1.80909 166.39H0.351818M0.351818 169.052V171.6M0.351818 169.052V166.39M0.148182 171.6H0.351818M0.351818 166.115L0 166.049M0.351818 166.115V166.39M0.351818 166.115V163.609M28.77 163.609L14.2945 160.698M28.77 163.609H0.351818M14.2945 160.698H0.351818M14.2945 160.698L0.351818 157.895M0.351818 163.609V160.698M0.351818 160.698V157.895M142.345 160.698L153.925 163.609M142.345 160.698H185.028M142.345 160.698L130.216 157.65M153.925 163.609H195.644M0.351818 148.501L0.219091 148.472M0.351818 148.501V151.099M0.351818 148.501V147.574M104.15 151.099H150.016M104.15 151.099L90.12 147.574M320.45 188.666H287.04M320.45 188.666H353.859M293.576 190.458L299.884 192.187M293.576 190.458L287.04 188.666M311.858 195.471H343.012M311.858 195.471H280.705M311.858 195.471L317.548 197.031M343.012 195.471H374.165M374.165 195.471H405.319M280.705 195.471L281.493 195.668L283.058 196.062L286.912 197.031M317.548 197.031H286.912M353.859 188.666H387.269M273.233 184.881L265.932 182.879M387.269 188.666L392.023 190.458M387.269 188.666H420.678M392.023 190.458H424.837M392.023 190.458L396.609 192.187M265.932 182.879H301.26M265.932 182.879L258.346 180.799M301.26 182.879H336.588M336.588 182.879H371.917M258.346 180.799L250.458 178.637M366.401 180.799L371.917 182.879M366.401 180.799H402.419M366.401 180.799L360.665 178.637M371.917 182.879L377.226 184.881M371.917 182.879H407.246M233.703 174.043H271.96M233.703 174.043L224.792 171.6M271.96 174.043H310.219M310.219 174.043H348.478M224.792 171.6L215.496 169.052M215.496 169.052L205.789 166.39M205.789 166.39L195.644 163.609M341.997 171.6L348.478 174.043M341.997 171.6H381.066M341.997 171.6L335.236 169.052M348.478 174.043H386.735M195.644 163.609H237.362M195.644 163.609L185.028 160.698M237.362 163.609L227.712 160.698M237.362 163.609H279.08M227.712 160.698H185.028M227.712 160.698H270.395M279.08 163.609L270.395 160.698M279.08 163.609H320.798M270.395 160.698H313.078M313.078 160.698L320.798 163.609M313.078 160.698H355.762M320.798 163.609L328.177 166.39M320.798 163.609H362.517M150.016 151.099H195.883M150.016 151.099L137.155 147.574M195.883 151.099H241.749M241.749 151.099H287.615M137.155 147.574L123.623 143.864M137.155 147.574H90.12M123.623 143.864L109.362 139.954M109.362 139.954L94.3146 135.828M278.263 147.574L287.615 151.099M278.263 147.574H325.297M278.263 147.574L268.419 143.864M287.615 151.099H333.482M94.3146 135.828L78.4127 131.468M94.3146 135.828H43.3845M43.3845 135.828L26.0373 131.468M43.3845 135.828H0.351818M130.789 131.468H78.4127M130.789 131.468H183.165M78.4127 131.468L61.5827 126.854M78.4127 131.468H26.0373M26.0373 131.468L7.67636 126.854M26.0373 131.468H0.351818M0.351818 135.828V131.468M183.165 131.468H235.54M61.5827 126.854L43.7382 121.962M61.5827 126.854H7.67636M43.7382 121.962L24.7873 116.766M43.7382 121.962H0.351818M7.67636 126.854H0.351818M7.67636 126.854L0.351818 125.014M235.54 131.468L247.105 135.828M235.54 131.468L287.915 131.469M235.54 131.468L223.299 126.854M0.351818 131.468V126.854M247.105 135.828L258.048 139.954M247.105 135.828H298.035M24.7873 116.766L4.62364 111.238M24.7873 116.766H0.351818M0.351818 121.962V125.014M0.351818 121.962V116.766M0.351818 126.854V125.014M63.7064 111.238H4.62364M4.62364 111.238L0.351818 110.067M4.62364 111.238H0.351818M0.351818 116.766V111.238M0.351818 110.067V111.238M181.875 111.238L196.539 116.766M181.875 111.238H240.958M196.539 116.766L210.323 121.962M196.539 116.766H253.79M0.918182 92.3027H0.352727M0.920909 92.3027L0.352727 92.1318M131.645 92.3027H197.007M131.645 92.3027L112.442 85.0636M454.088 188.666H420.678M454.088 188.666H487.498M424.837 190.458L425.346 190.677L428.852 192.187M424.837 190.458L423.812 190.016L420.678 188.666M428.852 192.187H396.609M436.472 195.471H467.625M436.472 195.471H405.319M436.472 195.471L440.093 197.031M467.625 195.471H498.778M498.778 195.471H529.932M405.319 195.471L406.887 196.062L409.456 197.031M440.093 197.031H409.456M487.498 188.666H520.907M411.892 184.881L409.009 183.638L408.424 183.386L407.246 182.879M411.892 184.881H377.226M520.907 188.666L521.509 189.12L523.284 190.458M520.907 188.666H554.317M523.284 190.458H556.099M523.284 190.458L525.577 192.187M407.246 182.879H442.575M407.246 182.879L402.419 180.799M442.575 182.879H477.903M477.903 182.879H513.232M402.419 180.799L401.182 180.267L400.56 179.998L397.399 178.637M397.399 178.637H360.665M510.473 180.799L510.824 181.064L511.173 181.327L513.232 182.879M510.473 180.799H546.491M510.473 180.799L507.605 178.637M513.232 182.879L514.903 184.139L515.232 184.387L515.56 184.635L515.885 184.881M513.232 182.879H548.56M386.735 174.043H424.995M386.735 174.043L381.066 171.6M424.995 174.043H463.254M463.254 174.043H501.511M381.066 171.6L375.15 169.052M375.15 169.052L368.973 166.39M375.15 169.052H335.236M368.973 166.39L362.517 163.609M368.973 166.39H328.177M335.236 169.052L328.177 166.39M498.272 171.6L501.511 174.043M498.272 171.6H537.34M498.272 171.6L494.891 169.052M501.511 174.043H539.77M362.517 163.609H404.235M362.517 163.609L355.762 160.698M404.235 163.609L398.445 160.698M404.235 163.609H445.954M398.445 160.698H355.762M398.445 160.698H441.128M445.954 163.609L441.128 160.698M445.954 163.609H487.672M441.128 160.698H483.812M483.812 160.698L487.672 163.609M483.812 160.698H526.495M487.672 163.609L489.537 165.015L491.361 166.39M487.672 163.609H529.39M333.482 151.099H379.347M333.482 151.099L325.297 147.574M379.347 151.099H425.214M425.214 151.099H471.08M325.297 147.574L316.685 143.864M316.685 143.864L307.61 139.954M316.685 143.864H268.419M307.61 139.954L298.035 135.828M307.61 139.954H258.048M268.419 143.864L258.048 139.954M466.404 147.574L471.08 151.099M466.404 147.574H513.439M466.404 147.574L461.483 143.864M471.08 151.099H516.946M298.035 135.828L287.915 131.469M287.915 131.469L277.205 126.854M277.205 126.854L265.85 121.962M277.205 126.854H223.299M265.85 121.962L253.79 116.766M265.85 121.962H210.323M223.299 126.854L210.323 121.962M445.043 131.469L450.825 135.828M445.043 131.469H497.418M445.043 131.469L438.923 126.854M450.825 135.828L456.297 139.954M450.825 135.828H501.755M253.79 116.766L240.958 111.238M418.21 111.238L425.543 116.766M418.21 111.238H477.294M425.543 116.766L432.434 121.962M425.543 116.766H482.794M197.007 92.3027L180.205 85.0636M180.205 85.0636H112.442M383.495 85.0646L393.095 92.3027M383.495 85.0646L451.257 85.0636M393.095 92.3027H458.458M142.605 68.8655H69.4709M69.4709 68.8655L45.3255 59.7636M69.4709 68.8655H0.352727M44.68 85.0655H0.351818M197.629 59.7636L177.961 49.8773M197.629 59.7636H121.476M197.629 59.7636H273.782M121.476 59.7636L98.53 49.8773M121.476 59.7636H45.3245M45.3245 59.7636L19.1 49.8764M45.3245 59.7636L0.351818 59.7627M19.1 49.8764H98.5309M19.1 49.8764H0.350909M19.1 49.8764L0.351818 42.8091M0.351818 59.7627L0.350909 49.8764M336.823 49.8764L349.935 59.7627M336.823 49.8764H416.254M0.350909 49.8764L0.351818 42.8091M0.351818 42.8091V39.1V27.3091V14.3545V7.57818V0.0509091M349.935 59.7627H426.087M16.08 14.3545L0.352727 7.57818M16.08 14.3545H0.352727M174.784 0.0509091H78.8318H0.351818M0.351818 0.0509091V0H1308.74V0.0509091M270.736 0.0509091L289.708 14.3545M270.736 0.0509091H366.689M289.708 14.3545H380.917M587.726 188.666H554.317M587.726 188.666H621.135M556.099 190.458L556.751 191.114L557.819 192.187M556.099 190.458L555.88 190.237L555.659 190.016L555.438 189.794L555.215 189.57L554.317 188.666M557.819 192.187H525.577M561.085 195.471H592.239M561.085 195.471L561.282 195.669L561.673 196.062L562.062 196.452L562.254 196.645L562.637 197.031M561.085 195.471H529.932M592.239 195.471H623.392M623.392 195.471H654.545M529.932 195.471L531.745 196.838L532.002 197.031M562.637 197.031H532.002M621.135 188.666H654.545M550.551 184.881L550.06 184.387L549.315 183.638L548.56 182.879M550.551 184.881H515.885M654.545 188.666V190.458M654.545 188.666H687.955M654.545 190.458H687.361M654.545 190.458V192.187M548.56 182.879H583.888M548.56 182.879L546.491 180.799M583.888 182.879H619.217M619.217 182.879H654.545M546.491 180.799L545.961 180.267L545.695 179.998L545.426 179.729L544.34 178.637M544.34 178.637H507.605M654.545 180.799V182.879M654.545 180.799H690.564M654.545 180.799V178.637M654.545 182.879V184.881M654.545 182.879H689.874M539.77 174.043H578.029M539.77 174.043L537.34 171.6M578.029 174.043H616.286M616.286 174.043H654.545M537.34 171.6L534.805 169.052M534.805 169.052L532.157 166.39M534.805 169.052H494.891M532.157 166.39L530.094 164.315L529.39 163.609M532.157 166.39H491.361M494.891 169.052L491.361 166.39M654.545 171.6V174.043M654.545 171.6H693.614M654.545 171.6V169.052M654.545 174.043H692.805M529.39 163.609H571.108M529.39 163.609L526.495 160.698M571.108 163.609L569.179 160.698M571.108 163.609H612.827M569.179 160.698H526.495M569.179 160.698H611.862M612.827 163.609L611.862 160.698M612.827 163.609H654.545M611.862 160.698H654.545M654.545 160.698V163.609M654.545 160.698H697.229M654.545 163.609V166.39M654.545 163.609H696.264M516.946 151.099H562.813M516.946 151.099L513.439 147.574M562.813 151.099H608.679M608.679 151.099H654.545M513.439 147.574L509.748 143.864M509.748 143.864L505.859 139.954M509.748 143.864H461.483M505.859 139.954L501.755 135.828M505.859 139.954H456.297M461.483 143.864L457.62 140.951L456.297 139.954M654.545 147.574V151.099M654.545 147.574H701.581M654.545 147.574V143.864M654.545 151.099H700.412M501.755 135.828L497.418 131.469M497.418 131.469L492.828 126.854M492.828 126.854L487.962 121.962M492.828 126.854H438.923M487.962 121.962L482.794 116.766M487.962 121.962H432.434M438.923 126.854L432.434 121.962M654.545 131.469V135.828M654.545 131.469H706.921M654.545 131.469V126.854M654.545 135.828V139.954M654.545 135.828H705.475M482.794 116.766L477.294 111.238M654.545 111.238V116.766M654.545 111.238H713.629M654.545 116.766V121.962M654.545 116.766H711.796M458.458 92.3027L451.257 85.0636M654.545 85.0646V92.3027M654.545 85.0646L722.308 85.0636M654.545 92.3027H719.908M426.087 59.7627L416.254 49.8764M654.545 49.8764V59.7636M654.545 49.8764H733.976M654.545 59.7636L730.698 59.7627M380.917 14.3545L366.689 0.0509091M462.641 0.0509091H366.689M462.641 0.0509091H558.593M558.593 0.0509091H654.545M654.545 0.0509091V14.3545M654.545 0.0509091H750.498M654.545 14.3545H745.755M721.365 188.666H687.955M721.365 188.666H754.774M687.361 190.458L686.787 192.187M687.361 190.458L687.435 190.237L687.507 190.016L687.582 189.794L687.955 188.666M686.787 192.187H654.545M685.698 195.471H716.852M685.698 195.471H654.545M685.698 195.471L685.503 196.062L685.437 196.257L685.182 197.031M716.852 195.471H748.006M748.006 195.471H779.159M654.545 195.471V197.031M685.182 197.031H654.545M754.774 188.666H788.184M689.21 184.881L689.874 182.879M689.21 184.881H654.545M788.184 188.666L787.582 189.12L785.807 190.458M788.184 188.666H821.593M785.807 190.458H818.623M785.807 190.458L783.514 192.187M689.874 182.879H725.203M689.874 182.879L690.564 180.799M725.203 182.879H760.531M760.531 182.879H795.859M690.564 180.799L691.28 178.637M691.28 178.637H654.545M798.618 180.799L795.859 182.879M798.618 180.799H834.636M798.618 180.799L801.486 178.637M795.859 182.879L794.188 184.139L793.859 184.387L793.531 184.635L793.205 184.881M795.859 182.879H831.188M692.805 174.043H731.062M692.805 174.043L693.003 173.442L693.408 172.22L693.614 171.6M731.062 174.043H769.321M769.321 174.043H807.58M693.614 171.6L694.352 169.376L694.459 169.052M694.459 169.052L695.341 166.39M694.459 169.052H654.545M695.341 166.39L696.264 163.609M695.341 166.39H654.545M654.545 169.052V166.39M810.819 171.6L807.58 174.043M810.819 171.6H849.888M810.819 171.6L814.2 169.052M807.58 174.043H845.837M696.264 163.609H737.983M696.264 163.609L697.229 160.698M737.983 163.609L739.912 160.698M737.983 163.609H779.701M739.912 160.698H697.229M739.912 160.698H782.595M779.701 163.609L782.595 160.698M779.701 163.609H821.419M782.595 160.698H825.279M825.279 160.698L821.419 163.609M825.279 160.698H867.963M821.419 163.609L819.554 165.015L818.182 166.049L817.73 166.39M821.419 163.609H863.137M700.412 151.099H746.278M700.412 151.099L701.581 147.574M746.278 151.099H792.144M792.144 151.099H838.011M701.581 147.574L702.811 143.864M702.811 143.864L704.107 139.954M702.811 143.864H654.545M704.107 139.954L705.475 135.828M704.107 139.954H654.545M654.545 143.864V139.954M842.687 147.574L838.011 151.099M842.687 147.574H889.723M842.687 147.574L847.608 143.864M838.011 151.099H883.877M705.475 135.828L706.921 131.469M706.921 131.469L708.451 126.854M708.451 126.854L710.074 121.962M708.451 126.854H654.545M710.074 121.962L711.796 116.766M710.074 121.962H654.545M654.545 126.854V121.962M864.048 131.469L858.266 135.828M864.048 131.469H916.427M864.048 131.469L870.168 126.854M858.266 135.828L852.794 139.954M858.266 135.828H909.2M711.796 116.766L713.629 111.238M890.881 111.238L883.548 116.766M890.881 111.238H949.964M883.548 116.766L876.657 121.962M883.548 116.766H940.8M719.908 92.3027L722.308 85.0636M925.6 85.0646L916 92.3027M925.6 85.0646L993.364 85.0636M916 92.3027H981.355M730.698 59.7627L806.85 59.7636M730.698 59.7627L733.976 49.8773M806.85 59.7636L813.406 49.8773M972.264 49.8764L959.155 59.7636M972.264 49.8764H1051.7M959.155 59.7636L1035.31 59.7627M745.755 14.3545L750.498 0.0509091M846.45 0.0509091H750.498M846.45 0.0509091H942.4M942.4 0.0509091H1038.35M1038.35 0.0509091L1019.38 14.3545M1038.35 0.0509091H1134.31M1019.38 14.3545H1110.59M855.003 188.666H821.593M855.003 188.666H888.413M818.623 190.458L815.755 192.187M818.623 190.458L821.593 188.666M815.755 192.187H783.514M810.312 195.471H779.159M810.312 195.471L808.365 196.645L807.726 197.031M779.159 195.471L778.896 195.669L778.375 196.062L777.09 197.031M807.726 197.031H777.09M888.413 188.666H921.818M827.87 184.881L828.277 184.635L828.687 184.387L829.928 183.638L830.347 183.386L831.188 182.879M827.87 184.881H793.205M921.818 188.666L917.073 190.458M921.818 188.666H955.227M917.073 190.458H949.882M917.073 190.458L912.482 192.187M831.188 182.879H866.516M831.188 182.879L834.636 180.799M866.516 182.879H901.845M901.845 182.879H937.173M834.636 180.799L838.221 178.637M838.221 178.637H801.486M942.691 180.799L937.855 182.624L937.173 182.879M942.691 180.799H978.709M942.691 180.799L948.427 178.637M937.173 182.879L931.864 184.881M937.173 182.879H972.5M845.837 174.043H884.096M845.837 174.043L849.888 171.6M884.096 174.043H922.355M922.355 174.043H960.609M849.888 171.6L854.113 169.052M854.113 169.052L858.525 166.39M854.113 169.052H814.2M858.525 166.39L859.659 165.706L863.137 163.609M858.525 166.39H817.73M814.2 169.052L817.73 166.39M967.091 171.6L960.609 174.043M967.091 171.6H1006.16M967.091 171.6L973.855 169.052M960.609 174.043H998.873M863.137 163.609H904.855M863.137 163.609L867.963 160.698M904.855 163.609L910.646 160.698M904.855 163.609H946.573M910.646 160.698H867.963M910.646 160.698H953.327M946.573 163.609L953.327 160.698M946.573 163.609H988.291M953.327 160.698H996.009M996.009 160.698L988.291 163.609M996.009 160.698H1038.7M988.291 163.609L980.909 166.39M988.291 163.609H1030.01M883.877 151.099H929.745M883.877 151.099L889.723 147.574M929.745 151.099H975.609M975.609 151.099H1021.47M889.723 147.574L895.874 143.864M895.874 143.864L902.355 139.954M895.874 143.864H847.608M902.355 139.954L909.2 135.828M902.355 139.954H852.794M847.608 143.864L852.794 139.954M1030.83 147.574L1021.47 151.099M1030.83 147.574H1077.86M1030.83 147.574L1040.67 143.864M1021.47 151.099H1067.35M909.2 135.828L916.427 131.469M932.182 121.962L940.8 116.766M932.182 121.962H876.657M870.168 126.854L876.657 121.962M1073.55 131.469L1061.98 135.828M1073.55 131.469H1125.93M1061.98 135.828L1051.05 139.954M1061.98 135.828H1112.92M940.8 116.766L949.964 111.238M1127.22 111.238L1112.55 116.766M1127.22 111.238H1186.3M1112.55 116.766L1098.77 121.962M1112.55 116.766H1169.8M981.355 92.3027L993.364 85.0636M1196.65 85.0646L1177.45 92.3027M1196.65 85.0646L1264.41 85.0636M1177.45 92.3027H1242.81M1035.31 59.7627L1051.7 49.8764M1289.99 49.8764L1263.76 59.7627M1289.99 49.8764H1308.74M1289.99 49.8764L1308.74 42.8091M1263.76 59.7627H1308.74M1110.59 14.3545L1134.31 0.0509091M1230.25 0.0509091H1134.31M1230.25 0.0509091H1308.74M1308.74 0.0509091V7.57818M1308.74 7.57818V14.3545M949.882 190.458L955.227 188.666M934.927 195.471L934.336 195.669L930.273 197.031M934.927 195.471H903.772M903.772 195.471L902.204 196.062L899.634 197.031M930.273 197.031H899.634M1055.46 188.666L1048.33 190.458M1055.46 188.666H1088.87M1048.33 190.458H1081.15M972.5 182.879L978.709 180.799M1086.76 180.799L1078.49 182.879M1086.76 180.799H1122.78M1078.49 182.879H1113.82M998.873 174.043L1006.16 171.6M973.855 169.052L980.909 166.39M1123.36 171.6L1113.65 174.043M1123.36 171.6H1162.44M1113.65 174.043H1151.91M1030.01 163.609L1038.7 160.698M1166.75 160.698L1155.16 163.609M1166.75 160.698H1209.43M1155.16 163.609H1196.88M1067.35 151.099L1077.86 147.574M1040.67 143.864L1051.05 139.954M1218.97 147.574L1204.94 151.099M1218.97 147.574H1266.01M1204.94 151.099H1250.81M1112.92 135.828L1125.93 131.469M1283.05 131.469L1265.71 135.828M1283.05 131.469H1308.74M1265.71 135.828H1308.74M1169.8 116.766L1186.3 111.238M1304.46 111.238H1308.74M1304.46 111.238L1308.74 110.067M1308.74 111.238V110.067M1308.74 111.238V116.766M1308.74 116.766V121.961V125.014M1242.81 92.3027L1264.41 85.0636M1308.74 92.3027V92.1318M1308.74 92.1318V85.0636M1264.41 85.0636L1287.66 77.2727M1264.41 85.0636H1308.74M1287.66 77.2727H1308.74M1287.66 77.2727L1308.74 70.2109M1308.74 77.2727V70.2091V68.8646M1308.74 77.2727V85.0636M1308.74 68.8646V59.7627M1308.74 59.7627V49.8764M1308.74 49.8764V42.8091M1081.15 190.458L1088.87 188.666M1059.54 195.471L1058.68 195.669L1052.82 197.031M1059.54 195.471H1028.38M1028.38 195.471L1027.6 195.669L1022.18 197.031M1052.82 197.031H1022.18M1189.1 188.666L1179.59 190.458M1189.1 188.666H1222.51M1179.59 190.458H1212.41M1113.82 182.879L1122.78 180.799M1230.84 180.799L1219.8 182.879M1230.84 180.799H1266.85M1219.8 182.879H1255.13M1151.91 174.043L1162.44 171.6M1279.65 171.6L1266.68 174.043M1279.65 171.6H1308.74M1266.68 174.043H1304.94M1196.88 163.609L1209.43 160.698M1308.74 163.609V166.115M1250.81 151.099L1266.01 147.574M1308.74 148.501L1308.87 148.472M1308.74 148.501V147.574M1266.01 147.574L1282 143.864M1266.01 147.574H1308.74M1282 143.864L1298.85 139.954M1282 143.864H1308.74M1298.85 139.954H1308.74M1298.85 139.954L1308.74 137.661M1308.74 147.574V143.863V139.953V137.66V135.828M1308.74 135.828V131.469M1308.74 126.855V125.014M1308.74 126.855V131.469M1212.41 190.458L1222.51 188.666M1184.15 195.471H1153M1184.15 195.471L1175.35 197.031M1153 195.471L1144.73 197.031M1175.35 197.031H1144.73M1308.74 188.666V190.458M1308.74 190.458V190.777M1255.13 182.879L1266.85 180.799M1302.87 180.799H1266.85M1302.87 180.799L1308.74 179.816M1302.87 180.799H1308.74M1308.74 182.879V180.799M1266.85 180.799L1279.05 178.637M1279.05 178.637L1291.73 176.386M1279.05 178.637H1308.74M1291.73 176.386L1304.94 174.043M1291.73 176.386H1308.74M1308.74 178.637V176.386M1308.74 178.637V179.816M1308.74 179.816V180.799M1304.94 174.043L1308.74 173.369M1304.94 174.043H1308.74M1308.74 176.386V174.043M1308.74 173.369V171.6M1308.74 173.369V174.043M1308.74 169.052V166.391M1308.74 169.052V171.6M1308.74 171.6H1308.95M1308.74 166.391V166.115M1308.74 166.115L1309.09 166.049M1308.74 192.187V190.777M1308.74 192.187V193.857M1277.61 195.471L1267.26 197.031M1277.61 195.471H1308.74M1308.74 193.857V195.471M1267.26 197.031H1297.9M1308.74 195.471H1308.76L1308.74 195.475M1308.74 195.471V195.475M1297.9 197.031L1308.74 195.475M1297.9 197.031H1308.74M1308.74 195.475V197.031M0.351818 195.475L0.350909 197.03M0.351818 195.475L0.324545 195.471H0.351818M0.351818 195.475V195.471M11.1882 197.03H0.350909" stroke="url(#paint0_radial_39_1959)" stroke-opacity="0.6" stroke-width="1.71727" stroke-miterlimit="10" stroke-linecap="round" stroke-linejoin="round"/>
</g>
<defs>
<radialGradient id="paint0_radial_39_1959" cx="0" cy="0" r="1" gradientUnits="userSpaceOnUse" gradientTransform="translate(654.545 7.37092) rotate(90) scale(313.074 2049.21)">
<stop stop-color="#3D3D3D"/>
<stop offset="0.489" stop-color="#3D3D3D"/>
</radialGradient>
</defs>
</svg>
