<svg width="23" height="23" viewBox="0 0 23 23" fill="none" xmlns="http://www.w3.org/2000/svg">
<mask id="mask0_39_1701" style="mask-type:luminance" maskUnits="userSpaceOnUse" x="0" y="0" width="23" height="23">
<path d="M0.444445 0.555555H22.2133V22.7778H0.444445V0.555555Z" fill="white"/>
</mask>
<g mask="url(#mask0_39_1701)">
<path d="M13.9111 14.9074C12.9585 12.4807 12.0274 10.0948 11.0756 7.65926C10.96 7.9763 10.8607 8.24445 10.7622 8.51259C9.76074 11.2733 8.76 14.0296 7.92296 16.8444C7.74593 17.4415 7.61037 18.0519 7.44889 18.6533C7.39556 18.8511 7.44889 18.983 7.61037 19.1104C8.26148 19.6378 9.01926 19.9222 9.82296 20.1119C11.0378 20.4007 12.2252 20.223 13.4037 19.9015C15.3489 19.3704 16.9926 18.3726 18.2 16.7244C19.1022 15.4926 19.5844 14.0956 19.7533 12.5911C19.9756 10.6015 19.6459 8.70963 18.6037 6.98741C17.0704 4.45407 14.8207 2.96593 11.8748 2.6363C7.02519 2.10074 2.65259 5.46741 1.86593 10.2926C1.49111 12.6037 1.9237 14.7719 3.11852 16.7822C3.15185 16.84 3.19259 16.8978 3.22593 16.96C3.34148 17.1778 3.2837 17.417 3.08519 17.5407C2.99536 17.6011 2.88541 17.6236 2.77909 17.6035C2.67278 17.5834 2.57865 17.5223 2.51704 17.4333C2.27294 17.1024 2.04478 16.7601 1.83333 16.4074C-0.680741 12.0356 0.288148 6.48519 4.13259 3.18444C10.1481 -1.97852 19.543 0.836296 21.723 8.48815C22.7037 11.9363 22.2259 15.2207 20.1526 18.1874C18.6822 20.297 16.6133 21.5993 14.1578 22.2956C12.9711 22.6333 11.7637 22.8563 10.5193 22.7489C8.80074 22.6007 7.22296 22.0852 5.87482 20.9489C4.99333 20.2067 4.70889 19.3163 4.97259 18.1919C5.33556 16.6296 5.81704 15.1096 6.33704 13.597C7.44519 10.3748 8.66519 7.18963 9.94667 4.03333C10.1607 3.50148 10.5726 3.22593 11.1044 3.24593C11.6111 3.26667 11.9985 3.59259 12.1674 4.13259L16.2593 17.2978C16.2837 17.3837 16.3126 17.4667 16.3415 17.5526C16.4526 17.8948 16.317 18.2244 16.0119 18.3689C15.6985 18.517 15.3526 18.3978 15.163 18.0889C14.5578 17.0993 13.7993 16.2467 12.8556 15.5667C11.9533 14.92 10.9644 14.5489 9.83111 14.6311C9.51408 14.6563 9.29926 14.483 9.27926 14.2067C9.25852 13.9185 9.44 13.7252 9.76519 13.6837C10.9933 13.5356 12.1222 13.84 13.177 14.4504C13.42 14.5859 13.6393 14.7348 13.9111 14.9074Z" fill="#666666"/>
</g>
</svg>
