<svg width="1920" height="294" viewBox="0 0 1920 294" fill="none" xmlns="http://www.w3.org/2000/svg">
<mask id="mask0_39_1494" style="mask-type:luminance" maskUnits="userSpaceOnUse" x="0" y="0" width="1920" height="294">
<path d="M0 0H1920V293.333H0V0Z" fill="white"/>
</mask>
<g mask="url(#mask0_39_1494)">
<path d="M31.8187 291.191L46.7333 293.333M31.8187 291.191H76.0187M31.8187 291.191L16.408 288.977M31.8187 291.191H0.516M46.7333 293.333L41.3067 293.332L35.936 293.328L30.676 293.315L25.5827 293.289L20.708 293.247L16.108 293.184L11.836 293.097L7.86933 292.987L4.46667 292.832L1.368 292.655L0.516 292.592V291.191M46.7333 293.333H90.2227M76.0187 291.191L90.2227 293.333M76.0187 291.191H120.217M76.0187 291.191L72.3933 290.644L61.3413 288.979M16.408 288.977L61.3413 288.979M16.408 288.977L0.516 286.696M0.516 291.191L0.514667 288.977M90.2227 293.333H133.711M133.711 293.333H177.2M133.711 293.333L120.217 291.191M177.2 293.333H220.689M177.2 293.333L164.416 291.191M120.217 291.191H164.416M120.217 291.191L106.273 288.979M220.689 293.333H264.177M220.689 293.333L208.615 291.191M164.416 291.191H208.615M164.416 291.191L151.207 288.979M264.177 293.333H307.667M264.177 293.333L252.813 291.191M208.615 291.191H252.813M208.615 291.191L196.14 288.979M307.667 293.333H351.156M307.667 293.333L297.013 291.191M252.813 291.191H297.013M252.813 291.191L249.915 290.644L248.456 290.369L241.073 288.979M351.156 293.333H394.644M351.156 293.333L341.212 291.191M297.013 291.191H341.212M297.013 291.191L294.296 290.644L286.005 288.979M394.644 293.333H438.133M394.644 293.333L385.412 291.191M341.212 291.191H385.412M341.212 291.191L330.939 288.979M438.133 293.333H481.623M438.133 293.333L429.611 291.191M385.412 291.191H429.611M385.412 291.191L383.056 290.644L381.871 290.369L375.872 288.979M481.623 293.333H525.111M481.623 293.333L473.809 291.191M429.611 291.191H473.809M429.611 291.191L420.804 288.979M525.111 293.333H568.6M525.111 293.333L518.009 291.191M473.809 291.191H518.009M473.809 291.191L471.817 290.644L470.813 290.369L465.737 288.979M568.6 293.333H612.089M568.6 293.333L567.021 292.804L564.629 292.003L562.208 291.191M518.009 291.191H562.208M518.009 291.191L517.104 290.919L516.197 290.644L510.671 288.979M612.089 293.333H655.577M612.089 293.333L610.687 292.804L606.408 291.191M562.208 291.191H606.408M562.208 291.191L560.577 290.644L559.756 290.369L555.604 288.979M655.577 293.333H699.067M655.577 293.333L650.607 291.191M606.408 291.191H650.607M606.408 291.191L600.536 288.979M699.067 293.333H742.556M699.067 293.333L697.485 292.537L695.883 291.733L695.345 291.463L694.805 291.191M650.607 291.191H694.805M650.607 291.191L649.973 290.919L649.339 290.644L648.7 290.369L645.469 288.979M742.556 293.333H786.044M742.556 293.333L741.237 292.537L740.795 292.271L740.349 292.003L739.004 291.191M694.805 291.191H739.004M694.805 291.191L693.719 290.644L693.171 290.369L692.621 290.093L690.403 288.979M786.044 293.333H829.533M786.044 293.333L783.203 291.191M739.004 291.191H783.203M739.004 291.191L738.099 290.644L736.264 289.539L735.801 289.259L735.335 288.979M829.533 293.333L829.271 293.069L829.008 292.804L827.673 291.463L827.403 291.191M829.533 293.333H873.021M783.203 291.191H827.403M783.203 291.191L782.841 290.919L782.479 290.644L782.113 290.371L780.269 288.979M827.403 291.191H871.601M827.403 291.191L825.201 288.979M873.021 293.333H916.512M873.021 293.333L871.601 291.191M916.512 293.333H960M916.512 293.333L916.248 292.537L915.801 291.191M871.601 291.191H915.801M871.601 291.191L871.421 290.919L871.24 290.644L871.057 290.371L870.135 288.979M960 293.333H1003.49M960 293.333V291.191M915.801 291.191H960M915.801 291.191L915.067 288.979M1003.49 293.333H1046.98M1003.49 293.333L1003.75 292.537L1004.2 291.191M960 291.191H1004.2M960 291.191V288.979M1046.98 293.333H1090.47M1046.98 293.333L1048.4 291.191M1004.2 291.191H1048.4M1004.2 291.191L1004.93 288.979M1090.47 293.333L1090.73 293.069L1090.99 292.804L1092.33 291.463L1092.6 291.191M1090.47 293.333H1133.95M1048.4 291.191H1092.6M1048.4 291.191L1048.58 290.919L1048.76 290.644L1048.94 290.371L1049.49 289.539L1049.87 288.979M1092.6 291.191H1136.8M1092.6 291.191L1094.8 288.979M1133.95 293.333H1177.45M1133.95 293.333L1136.44 291.463L1136.8 291.191M1177.45 293.333H1220.93M1177.45 293.333L1178.76 292.537L1179.21 292.271L1180.1 291.733L1180.55 291.463L1181 291.191M1136.8 291.191H1181M1136.8 291.191L1137.16 290.919L1137.52 290.644L1137.89 290.371L1139.73 288.979M1220.93 293.333H1264.42M1220.93 293.333L1222.51 292.537L1224.12 291.733L1224.65 291.463L1225.19 291.191M1181 291.191H1225.19M1181 291.191L1181.9 290.644L1183.74 289.539L1184.67 288.979M1264.42 293.333H1307.91M1264.42 293.333L1269.39 291.191M1225.19 291.191H1269.39M1225.19 291.191L1226.28 290.644L1226.83 290.371L1227.38 290.093L1229.6 288.979M1307.91 293.333H1351.4M1307.91 293.333L1309.31 292.804L1313.59 291.191M1269.39 291.191L1270.03 290.919L1274.53 288.979M1269.39 291.191H1313.59M1351.4 293.333H1394.89M1351.4 293.333L1357.79 291.191M1313.59 291.191H1357.79M1313.59 291.191L1314.32 290.919L1319.46 288.979M1394.89 293.333H1438.37M1394.89 293.333L1401.99 291.191M1357.79 291.191H1401.99M1357.79 291.191L1359.43 290.644L1360.24 290.371L1364.4 288.979M1438.37 293.333H1481.87M1438.37 293.333L1446.19 291.191M1401.99 291.191H1446.19M1401.99 291.191L1402.89 290.919L1403.8 290.644L1409.33 288.979M1481.87 293.333H1525.36M1481.87 293.333L1490.39 291.191M1446.19 291.191H1490.39M1446.19 291.191L1448.19 290.644L1449.19 290.371L1454.27 288.979M1525.36 293.333H1568.84M1525.36 293.333L1534.59 291.191M1490.39 291.191H1534.59M1490.39 291.191L1491.48 290.919L1499.2 288.979M1568.84 293.333H1612.33M1568.84 293.333L1578.79 291.191M1534.59 291.191H1578.79M1534.59 291.191L1536.95 290.644L1538.13 290.371L1544.13 288.979M1612.33 293.333H1655.83M1612.33 293.333L1622.99 291.191M1578.79 291.191H1622.99M1578.79 291.191L1589.07 288.979M1655.83 293.333H1699.31M1655.83 293.333L1667.19 291.191M1622.99 291.191H1667.19M1622.99 291.191L1625.71 290.644L1634 288.979M1699.31 293.333H1742.8M1699.31 293.333L1711.39 291.191M1667.19 291.191H1711.39M1667.19 291.191L1670.08 290.644L1671.55 290.371L1678.93 288.979M1742.8 293.333H1786.29M1742.8 293.333L1755.59 291.191M1711.39 291.191H1755.59M1711.39 291.191L1723.85 288.979M1786.29 293.333H1829.77M1786.29 293.333L1799.79 291.191M1755.59 291.191H1799.79M1755.59 291.191L1768.8 288.979M1829.77 293.333H1873.27M1829.77 293.333L1843.99 291.191M1799.79 291.191H1843.99M1799.79 291.191L1813.72 288.979M1873.27 293.333L1878.69 293.332L1884.07 293.328L1889.32 293.315L1894.41 293.289L1899.29 293.248L1903.89 293.185L1908.16 293.097L1912.13 292.987L1915.53 292.833L1918.63 292.655L1919.48 292.592V291.191M1873.27 293.333L1888.19 291.191M1843.99 291.191H1888.19M1843.99 291.191L1847.6 290.644L1858.65 288.979M1919.48 291.191H1888.19M1919.48 291.191V288.979M1888.19 291.191L1903.59 288.979M1813.72 288.979L1828.13 286.691M1813.72 288.979H1768.8M1813.72 288.979H1858.65M1768.8 288.979L1782.45 286.691M1768.8 288.979H1723.85M1634 288.979L1645.37 286.691M1634 288.979H1589.07M1634 288.979H1678.93M1589.07 288.979L1599.68 286.691M1589.07 288.979H1544.13M1454.27 288.979L1462.61 286.691M1454.27 288.979H1409.33M1454.27 288.979H1499.2M1409.33 288.979L1414.04 287.557L1416.92 286.691M1409.33 288.979H1364.4M1274.53 288.979L1279.84 286.691M1274.53 288.979H1229.6M1274.53 288.979H1319.46M1229.6 288.979L1232.42 287.557L1234.15 286.691M1229.6 288.979H1184.67M1094.8 288.979L1095.36 288.413L1096.21 287.557L1096.79 286.981L1097.07 286.691M1094.8 288.979H1049.87M1094.8 288.979H1139.73M1049.87 288.979L1050.43 288.129L1051.19 286.981L1051.38 286.691M1049.87 288.979H1004.93M915.067 288.979L914.973 288.696L914.88 288.413L914.785 288.129L914.691 287.844L914.595 287.557L914.308 286.691M915.067 288.979H870.135M915.067 288.979H960M870.135 288.979L869.571 288.129L868.809 286.981L868.617 286.691M870.135 288.979H825.201M735.335 288.979L734.399 288.413L731.541 286.691M735.335 288.979H690.403M735.335 288.979H780.269M690.403 288.979L687.576 287.557L685.851 286.691M690.403 288.979H645.469M555.604 288.979L549.641 286.981L548.776 286.691M555.604 288.979H510.671M555.604 288.979H600.536M510.671 288.979L505.96 287.557L503.084 286.691M510.671 288.979H465.737M375.872 288.979L366.009 286.691M375.872 288.979H330.939M375.872 288.979H420.804M330.939 288.979L320.319 286.691M330.939 288.979H286.005M196.14 288.979L183.243 286.691M196.14 288.979H241.073M196.14 288.979H151.207M151.207 288.979L137.552 286.691M151.207 288.979H106.273M1919.64 271.159H1919.48M1919.48 271.159H1875.15M1919.48 271.159V268.223M1919.48 271.159V272.192M1875.15 271.159L1858.28 273.985M1875.15 271.159L1892.67 268.223M1875.15 271.159H1824.31M1858.28 273.985H1908.19M1858.28 273.985L1842.01 276.711M1858.28 273.985H1808.37M1892.67 268.223L1910.88 265.172M1892.67 268.223H1840.85M1892.67 268.223H1919.48M1824.31 271.159L1808.37 273.985M1824.31 271.159L1840.85 268.223M1824.31 271.159H1773.47M1908.19 273.985L1891.01 276.711M1908.19 273.985H1919.48M1908.19 273.985L1919.48 272.192M1842.01 276.711L1826.32 279.339M1842.01 276.711H1793.01M1842.01 276.711H1891.01M1808.37 273.985L1793.01 276.711M1808.37 273.985H1758.47M1891.01 276.711L1874.45 279.339M1891.01 276.711H1919.48M1919.48 273.985V272.192M1919.48 273.985V276.711M1858.48 281.875H1811.19M1858.48 281.875L1843.05 284.324M1858.48 281.875H1905.76M1858.48 281.875L1874.45 279.339M1811.19 281.875L1796.57 284.324M1811.19 281.875L1826.32 279.339M1811.19 281.875H1763.91M1843.05 284.324H1796.57M1843.05 284.324L1828.13 286.691M1843.05 284.324H1889.52M1905.76 281.875L1889.52 284.324M1905.76 281.875H1919.48M1905.76 281.875L1919.48 279.807M1874.45 279.339H1826.32M1874.45 279.339H1919.48M1796.57 284.324H1750.09M1796.57 284.324L1782.45 286.691M1826.32 279.339H1778.2M1763.91 281.875L1750.09 284.324M1763.91 281.875L1778.2 279.339M1763.91 281.875H1716.61M1828.13 286.691H1782.45M1828.13 286.691H1873.83M1889.52 284.324L1873.83 286.691M1889.52 284.324H1919.48M1750.09 284.324H1703.61M1750.09 284.324L1736.76 286.691M1782.45 286.691H1736.76M1919.97 226.533H1919.48M1919.48 226.533H1878.95M1919.48 226.533V231.22M1919.48 226.533V221.612V217.801M1878.95 226.533L1857.19 231.22M1878.95 226.533L1901.79 221.613M1878.95 226.533H1813.31M1857.19 231.22L1836.43 235.691M1857.19 231.22H1793.11M1857.19 231.22H1919.48M1901.79 221.613L1834.52 221.612M1901.79 221.613H1919.48M1901.79 221.613L1919.48 217.801M1813.31 226.533L1793.11 231.22M1813.31 226.533L1834.52 221.612M1813.31 226.533H1747.67M1836.43 235.691H1899.04M1836.43 235.691L1816.61 239.96M1836.43 235.691H1773.83M1793.11 231.22L1773.83 235.691M1793.11 231.22H1729.01M1919.48 231.22V231.58M1899.04 235.691L1877.8 239.96M1899.04 235.691H1919.48M1899.04 235.691L1919.48 231.58M1877.8 239.96L1857.51 244.04M1877.8 239.96H1816.61M1877.8 239.96H1919.48M1919.48 235.691V231.58M1919.48 235.691V239.96M1857.51 244.04H1797.68M1857.51 244.04L1838.09 247.943M1857.51 244.04H1917.35M1797.68 244.04L1779.56 247.943M1797.68 244.04L1816.61 239.96M1797.68 244.04H1737.84M1838.09 247.943H1779.56M1838.09 247.943H1896.64M1838.09 247.943L1819.51 251.68M1917.35 244.04L1896.64 247.943M1917.35 244.04H1919.48M1917.35 244.04L1919.48 243.636M1779.56 247.943L1762.21 251.68M1779.56 247.943H1721.01M1816.61 239.96H1755.43M1737.84 244.04L1721.01 247.943M1737.84 244.04L1755.43 239.96M1737.84 244.04L1678.01 244.039M1896.64 247.943L1876.81 251.68M1896.64 247.943H1919.48M1819.51 251.68H1762.21M1819.51 251.68H1876.81M1819.51 251.68L1801.69 255.263M1762.21 251.68L1745.57 255.263M1762.21 251.68H1704.91M1721.01 247.943L1704.91 251.68M1721.01 247.943H1662.48M1784.59 258.7H1729.61M1784.59 258.7L1768.17 262.001M1784.59 258.7H1839.56M1784.59 258.7L1801.69 255.263M1729.61 258.7L1714.29 262.001M1729.61 258.7L1745.57 255.263M1729.61 258.7H1674.64M1768.17 262.001H1714.29M1768.17 262.001H1822.05M1768.17 262.001L1752.4 265.172M1839.56 258.7H1894.53M1839.56 258.7L1822.05 262.001M1839.56 258.7L1857.8 255.263M1801.69 255.263H1745.57M1801.69 255.263H1857.8M1714.29 262.001L1699.57 265.172M1714.29 262.001H1660.41M1745.57 255.263H1689.47M1674.64 258.7L1660.41 262.001M1674.64 258.7L1689.47 255.263M1674.64 258.7H1619.67M1822.05 262.001H1875.93M1822.05 262.001L1805.23 265.172M1752.4 265.172H1699.57M1752.4 265.172H1805.23M1752.4 265.172L1737.23 268.223M1699.57 265.172L1685.41 268.223M1699.57 265.172H1646.75M1660.41 262.001L1646.75 265.172M1660.41 262.001H1606.53M1722.63 271.159H1671.79M1722.63 271.159L1708.56 273.985M1722.63 271.159H1773.47M1722.63 271.159L1737.23 268.223M1671.79 271.159L1658.65 273.985M1671.79 271.159L1685.41 268.223M1671.79 271.159H1620.95M1708.56 273.985H1658.65M1708.56 273.985H1758.47M1708.56 273.985L1695.01 276.711M1773.47 271.159L1758.47 273.985M1773.47 271.159L1789.04 268.223M1737.23 268.223H1685.41M1737.23 268.223H1789.04M1658.65 273.985L1646.01 276.711M1658.65 273.985H1608.76M1685.41 268.223H1633.6M1620.95 271.159L1608.76 273.985M1620.95 271.159L1633.6 268.223M1620.95 271.159H1570.11M1758.47 273.985L1744.01 276.711M1695.01 276.711H1646.01M1695.01 276.711H1744.01M1695.01 276.711L1681.93 279.339M1646.01 276.711L1633.81 279.339M1646.01 276.711H1597.01M1608.76 273.985L1597.01 276.711M1608.76 273.985H1558.85M1669.32 281.875H1622.04M1669.32 281.875L1657.15 284.324M1669.32 281.875H1716.61M1669.32 281.875L1681.93 279.339M1622.04 281.875L1610.67 284.324M1622.04 281.875L1633.81 279.339M1622.04 281.875H1574.75M1657.15 284.324H1610.67M1657.15 284.324L1645.37 286.691M1657.15 284.324H1703.61M1716.61 281.875L1703.61 284.324M1716.61 281.875L1730.07 279.339M1681.93 279.339H1633.81M1681.93 279.339H1730.07M1610.67 284.324H1564.19M1610.67 284.324L1599.68 286.691M1633.81 279.339H1585.68M1574.75 281.875L1564.19 284.324M1574.75 281.875L1585.68 279.339M1574.75 281.875H1527.45M1645.37 286.691H1599.68M1645.37 286.691H1691.07M1703.61 284.324L1691.07 286.691M1564.19 284.324H1517.72M1564.19 284.324L1553.99 286.691M1599.68 286.691H1553.99M1885.85 145.268L1855.23 154.504M1885.85 145.268L1918.65 135.377M1885.85 145.268H1793.27M1885.85 145.268H1919.48M1855.23 154.504L1826.56 163.149M1855.23 154.504H1765.71M1855.23 154.504H1919.48M1918.65 135.377H1822.79M1918.65 135.377H1919.48M1918.65 135.377L1919.48 135.127M1793.27 145.268L1765.71 154.504M1793.27 145.268L1822.79 135.377M1793.27 145.268L1700.68 145.267M1919.48 145.268V135.377M1919.48 145.268V154.504M1826.56 163.149L1799.68 171.257M1826.56 163.149H1739.91M1826.56 163.149H1913.21M1765.71 154.504L1739.91 163.149M1765.71 154.504L1676.19 154.503M1919.48 154.504V161.432M1855.85 178.877H1774.41M1855.85 178.877L1829.68 186.053M1855.85 178.877L1883.64 171.257M1855.85 178.877H1919.48M1774.41 178.877L1750.61 186.053M1774.41 178.877L1799.68 171.257M1774.41 178.877H1692.97M1829.68 186.053H1750.61M1829.68 186.053H1908.75M1829.68 186.053L1805 192.821M1883.64 171.257H1799.68M1883.64 171.257L1913.21 163.149M1883.64 171.257H1919.48M1750.61 186.053L1728.17 192.821M1750.61 186.053H1671.56M1799.68 171.257H1715.71M1692.97 178.877L1671.56 186.053M1692.97 178.877L1715.71 171.257M1692.97 178.877H1611.53M1908.75 186.053L1881.81 192.821M1908.75 186.053H1919.48M1908.75 186.053L1919.48 183.353M1805 192.821H1728.17M1805 192.821H1881.81M1805 192.821L1781.67 199.215M1728.17 192.821L1706.97 199.215M1728.17 192.821H1651.36M1671.56 186.053L1651.36 192.821M1671.56 186.053L1592.49 186.052M1759.6 205.265H1686.91M1759.6 205.265L1738.68 211M1759.6 205.265H1832.29M1759.6 205.265L1781.67 199.215M1686.91 205.265L1667.89 211M1686.91 205.265L1706.97 199.215M1686.91 205.265H1614.21M1738.68 211H1667.89M1738.68 211H1809.48M1738.68 211L1718.84 216.441M1832.29 205.265H1904.99M1832.29 205.265L1809.48 211M1832.29 205.265L1856.37 199.215M1781.67 199.215H1706.97M1781.67 199.215H1856.37M1667.89 211L1649.85 216.441M1667.89 211H1597.11M1706.97 199.215H1632.28M1614.21 205.265L1597.11 211M1614.21 205.265L1632.28 199.215M1614.21 205.265H1541.53M1809.48 211H1880.27M1809.48 211L1787.83 216.441M1718.84 216.441H1649.85M1718.84 216.441H1787.83M1718.84 216.441L1699.97 221.612M1649.85 216.441L1632.71 221.612M1649.85 216.441H1580.87M1597.11 211L1580.87 216.441M1597.11 211H1526.32M1682.03 226.533H1616.39M1682.03 226.533L1664.93 231.22M1682.03 226.533H1747.67M1682.03 226.533L1699.97 221.612M1616.39 226.533L1600.85 231.22M1616.39 226.533L1632.71 221.612M1616.39 226.533H1550.75M1664.93 231.22H1600.85M1664.93 231.22H1729.01M1664.93 231.22L1648.63 235.691M1747.67 226.533L1729.01 231.22M1747.67 226.533L1767.24 221.612M1699.97 221.612H1632.71M1699.97 221.612H1767.24M1600.85 231.22L1586.03 235.691M1600.85 231.22H1536.76M1632.71 221.612H1565.44M1550.75 226.533L1536.76 231.22M1550.75 226.533L1565.44 221.612M1550.75 226.533L1485.11 226.532M1729.01 231.22L1711.23 235.691M1648.63 235.691H1586.03M1648.63 235.691H1711.23M1648.63 235.691L1633.05 239.96M1586.03 235.691L1571.87 239.96M1586.03 235.691H1523.43M1536.76 231.22L1523.43 235.691M1536.76 231.22L1472.68 231.219M1618.17 244.039H1558.35M1618.17 244.039L1603.93 247.943M1618.17 244.039H1678.01M1618.17 244.039L1633.05 239.96M1558.35 244.039L1545.4 247.943M1558.35 244.039L1571.87 239.96M1558.35 244.039H1498.51M1603.93 247.943H1545.4M1603.93 247.943H1662.48M1603.93 247.943L1590.31 251.68M1678.01 244.039L1662.48 247.943M1678.01 244.039L1694.24 239.96M1633.05 239.96H1571.87M1633.05 239.96H1694.24M1545.4 247.943L1533 251.68M1545.4 247.943H1486.85M1571.87 239.96H1510.68M1498.51 244.039L1486.85 247.943M1498.51 244.039L1510.68 239.96M1498.51 244.039H1438.67M1662.48 247.943L1647.6 251.68M1590.31 251.68H1533M1590.31 251.68H1647.6M1590.31 251.68L1577.24 255.263M1533 251.68L1521.12 255.263M1533 251.68H1475.71M1486.85 247.943L1475.71 251.68M1486.85 247.943H1428.32M1564.69 258.7H1509.73M1564.69 258.7L1552.67 262.001M1564.69 258.7H1619.67M1564.69 258.7L1577.24 255.263M1509.73 258.7L1508.33 259.12L1498.79 262.001M1509.73 258.7L1521.12 255.263M1509.73 258.7H1454.76M1552.67 262.001H1498.79M1552.67 262.001H1606.53M1552.67 262.001L1541.09 265.172M1619.67 258.7L1606.53 262.001M1619.67 258.7L1633.35 255.263M1577.24 255.263H1521.12M1577.24 255.263H1633.35M1498.79 262.001L1488.27 265.172M1498.79 262.001H1444.91M1521.12 255.263H1465.01M1454.76 258.7L1444.91 262.001M1454.76 258.7L1465.01 255.263M1454.76 258.7L1399.79 258.699M1606.53 262.001L1593.92 265.172M1541.09 265.172H1488.27M1541.09 265.172H1593.92M1541.09 265.172L1529.97 268.223M1488.27 265.172L1479.4 267.848L1478.15 268.223M1488.27 265.172H1435.44M1444.91 262.001L1435.44 265.172M1444.91 262.001H1391.03M1519.25 271.159H1468.41M1519.25 271.159L1508.95 273.985M1519.25 271.159H1570.11M1519.25 271.159L1529.97 268.223M1468.41 271.159L1459.04 273.985M1468.41 271.159L1472.03 270.071L1478.15 268.223M1468.41 271.159H1417.57M1508.95 273.985H1459.04M1508.95 273.985H1558.85M1508.95 273.985L1499.01 276.711M1570.11 271.159L1560.24 273.639L1558.85 273.985M1570.11 271.159L1581.79 268.223M1529.97 268.223H1478.15M1529.97 268.223H1581.79M1459.04 273.985L1450.01 276.711M1459.04 273.985H1409.13M1478.15 268.223H1426.33M1417.57 271.159L1409.13 273.985M1417.57 271.159L1419.73 270.435L1426.33 268.223M1417.57 271.159H1366.73M1558.85 273.985L1548.01 276.711M1499.01 276.711H1450.01M1499.01 276.711H1548.01M1499.01 276.711L1489.43 279.339M1450.01 276.711L1441.29 279.339M1450.01 276.711H1401M1409.13 273.985L1401 276.711M1409.13 273.985L1359.24 273.984M1480.17 281.875H1432.88M1480.17 281.875L1471.24 284.324M1480.17 281.875H1527.45M1480.17 281.875L1489.43 279.339M1432.88 281.875L1426.76 283.72L1425.76 284.023L1424.76 284.324M1432.88 281.875L1441.29 279.339M1432.88 281.875H1385.6M1471.24 284.324H1424.76M1471.24 284.324L1462.61 286.691M1471.24 284.324H1517.72M1527.45 281.875L1517.72 284.324M1527.45 281.875L1537.55 279.339M1489.43 279.339H1441.29M1489.43 279.339H1537.55M1424.76 284.324H1378.28M1424.76 284.324L1416.92 286.691M1441.29 279.339H1393.16M1385.6 281.875L1378.28 284.324M1385.6 281.875L1393.16 279.339M1385.6 281.875H1338.31M1462.61 286.691H1416.92M1462.61 286.691H1508.29M1517.72 284.324L1508.29 286.691M1378.28 284.324H1331.81M1378.28 284.324L1371.23 286.691M1416.92 286.691H1371.23M1852.31 40.056H1724.84M1852.31 40.056L1812.17 57.3493M1852.31 40.056L1896.41 21.0533M1852.31 40.056H1919.48M1724.84 40.056L1690.43 57.3493M1724.84 40.056L1762.64 21.0533M1724.84 40.056H1597.36M1812.17 57.3493H1690.43M1812.17 57.3493L1775.49 73.152M1812.17 57.3493L1919.48 57.348M1896.41 21.0533H1762.64M1896.41 21.0533L1919.48 11.1147M1896.41 21.0533H1919.48M1919.48 40.056V21.0533M1919.48 40.056V57.348M1690.43 57.3493L1658.99 73.152M1690.43 57.3493L1568.69 57.348M1762.64 21.0533L1804.37 0.0746667M1762.64 21.0533H1628.87M1597.36 40.056L1568.69 57.348M1597.36 40.056L1628.87 21.0533M1597.36 40.056H1469.89M1775.49 73.152H1658.99M1775.49 73.152H1891.99M1775.49 73.152L1741.83 87.652M1919.48 57.348V62.7867M1658.99 73.152L1630.15 87.6507M1658.99 73.152H1542.49M1568.69 57.348L1542.49 73.152M1568.69 57.348L1446.96 57.3493M1710.84 101.001H1603.59M1710.84 101.001L1682.23 113.335M1710.84 101.001H1818.11M1710.84 101.001L1741.83 87.652M1603.59 101.001L1579.04 113.333M1603.59 101.001L1630.15 87.6507M1603.59 101.001L1496.32 101M1682.23 113.335L1579.04 113.333M1682.23 113.335L1785.4 113.333M1682.23 113.335L1655.69 124.76M1818.11 101.001L1785.4 113.333M1818.11 101.001L1853.52 87.652M1818.11 101.001H1919.48M1741.83 87.652L1630.15 87.6507M1741.83 87.652H1853.52M1579.04 113.333L1556.31 124.76M1579.04 113.333H1475.87M1630.15 87.6507L1518.45 87.652M1496.32 101L1475.87 113.333M1496.32 101L1518.45 87.652M1496.32 101L1389.05 101.001M1785.4 113.333H1888.57M1785.4 113.333L1755.08 124.761M1655.69 124.76H1556.31M1655.69 124.76L1755.08 124.761M1655.69 124.76L1631.05 135.376M1556.31 124.76L1535.19 135.376M1556.31 124.76H1456.93M1475.87 113.333L1456.93 124.76M1475.87 113.333H1372.69M1608.09 145.267H1515.51M1608.09 145.267L1586.65 154.503M1608.09 145.267H1700.68M1608.09 145.267L1631.05 135.376M1515.51 145.267L1497.13 154.503M1515.51 145.267L1535.19 135.376M1515.51 145.267H1422.93M1586.65 154.503H1497.13M1586.65 154.503H1676.19M1586.65 154.503L1566.6 163.148M1700.68 145.267L1676.19 154.503M1700.68 145.267L1726.92 135.377M1631.05 135.376H1535.19M1631.05 135.376L1726.92 135.377M1497.13 154.503L1479.93 163.148M1497.13 154.503H1407.61M1535.19 135.376L1439.32 135.377M1422.93 145.267L1407.61 154.503M1422.93 145.267L1439.32 135.377M1422.93 145.267H1330.34M1676.19 154.503L1653.25 163.149M1566.6 163.148H1479.93M1566.6 163.148L1653.25 163.149M1566.6 163.148L1547.77 171.256M1479.93 163.148L1463.8 171.256M1479.93 163.148L1393.28 163.149M1407.61 154.503L1393.28 163.149M1407.61 154.503H1318.09M1530.09 178.876H1448.64M1530.09 178.876L1513.43 186.052M1530.09 178.876H1611.53M1530.09 178.876L1547.77 171.256M1448.64 178.876L1434.37 186.052M1448.64 178.876L1463.8 171.256M1448.64 178.876H1367.2M1513.43 186.052H1434.37M1513.43 186.052H1592.49M1513.43 186.052L1497.72 192.82M1547.77 171.256H1463.8M1547.77 171.256L1631.75 171.257M1434.37 186.052L1420.91 192.82M1434.37 186.052H1355.31M1463.8 171.256L1379.84 171.257M1592.49 186.052L1574.55 192.821M1592.49 186.052L1611.53 178.877M1497.72 192.82H1420.91M1497.72 192.82L1574.55 192.821M1497.72 192.82L1482.88 199.213M1420.91 192.82L1408.19 199.213M1420.91 192.82L1344.09 192.821M1355.31 186.052L1344.09 192.821M1355.31 186.052L1367.2 178.877M1355.31 186.052H1276.25M1468.84 205.264H1396.15M1468.84 205.264L1455.53 210.999M1468.84 205.264H1541.53M1468.84 205.264L1482.88 199.213M1396.15 205.264L1384.73 210.999M1396.15 205.264L1408.19 199.213M1396.15 205.264H1323.45M1455.53 210.999H1384.73M1455.53 210.999H1526.32M1455.53 210.999L1442.89 216.44M1482.88 199.213H1408.19M1482.88 199.213L1557.57 199.215M1384.73 210.999L1373.91 216.44M1384.73 210.999H1313.95M1408.19 199.213L1333.49 199.215M1442.89 216.44H1373.91M1442.89 216.44L1511.88 216.441M1442.89 216.44L1430.89 221.612M1373.91 216.44L1363.63 221.612M1373.91 216.44L1304.93 216.441M1419.47 226.532H1353.84M1419.47 226.532L1408.59 231.219M1419.47 226.532H1485.11M1419.47 226.532L1430.89 221.611M1353.84 226.532L1344.51 231.219M1353.84 226.532L1363.63 221.611M1353.84 226.532H1288.19M1408.59 231.219H1344.51M1408.59 231.219H1472.68M1408.59 231.219L1398.21 235.689M1485.11 226.532L1472.68 231.219M1485.11 226.532L1498.16 221.612M1344.51 231.219L1335.61 235.689M1344.51 231.219H1280.42M1288.19 226.532L1280.42 231.219M1288.19 226.532L1296.35 221.612M1288.19 226.532H1222.56M1472.68 231.219L1460.81 235.691M1280.42 231.219L1275.75 234.039L1273.01 235.691M1280.42 231.219H1216.34M1378.84 244.037H1319M1378.84 244.037L1369.77 247.941M1378.84 244.037H1438.67M1378.84 244.037L1388.31 239.959M1319 244.037L1311.24 247.941M1319 244.037L1327.12 239.959M1319 244.037H1259.17M1369.77 247.941H1311.24M1369.77 247.941H1428.32M1369.77 247.941L1361.11 251.679M1311.24 247.941L1303.8 251.679M1311.24 247.941H1252.7M1361.11 251.679H1303.8M1361.11 251.679L1418.4 251.68M1361.11 251.679L1352.79 255.263M1303.8 251.679L1300.2 253.491L1296.67 255.263M1303.8 251.679L1246.5 251.68M1344.81 258.699H1289.83M1344.81 258.699L1337.15 262M1344.81 258.699H1399.79M1344.81 258.699L1352.79 255.261M1289.83 258.699L1290.68 258.277L1296.67 255.261M1289.83 258.699L1283.27 262M1289.83 258.699H1234.86M1337.15 262H1283.27M1337.15 262H1391.03M1337.15 262L1329.79 265.171M1399.79 258.699L1391.03 262.001M1399.79 258.699L1408.89 255.263M1283.27 262L1276.96 265.171M1283.27 262H1229.39M1234.86 258.699L1229.39 262.001M1234.86 258.699L1240.56 255.263M1234.86 258.699H1179.89M1329.79 265.171H1276.96M1329.79 265.171L1382.61 265.172M1329.79 265.171L1322.71 268.223M1276.96 265.171L1270.89 268.223M1276.96 265.171L1224.13 265.172M1315.89 271.157H1265.05M1315.89 271.157L1309.33 273.984M1315.89 271.157H1366.73M1315.89 271.157L1322.71 268.221M1265.05 271.157L1259.43 273.984M1265.05 271.157L1267.21 270.069L1268.67 269.335L1270.89 268.221M1265.05 271.157H1214.21M1309.33 273.984H1259.43M1309.33 273.984H1359.24M1309.33 273.984L1303.01 276.709M1259.43 273.984L1257.37 275.017L1256.01 275.699L1254 276.709M1259.43 273.984H1209.52M1359.24 273.984L1352 276.711M1359.24 273.984L1366.73 271.159M1209.52 273.984L1208.95 274.332L1208.38 274.676L1206.12 276.039L1205 276.711M1209.52 273.984L1213.02 271.876L1214.21 271.159M1209.52 273.984H1159.62M1291.02 281.873H1243.73M1291.02 281.873L1286.74 283.719L1285.33 284.323M1291.02 281.873H1338.31M1291.02 281.873L1296.16 279.66L1296.9 279.337M1243.73 281.873L1240.06 283.719L1239.46 284.021L1238.86 284.323M1243.73 281.873L1246.23 280.617L1248.78 279.337M1243.73 281.873H1196.44M1285.33 284.323H1238.86M1285.33 284.323L1279.84 286.691M1285.33 284.323L1331.81 284.324M1296.9 279.337H1248.78M1296.9 279.337L1298.41 278.691L1303.01 276.711M1296.9 279.337L1345.04 279.339M1238.86 284.323L1192.38 284.324M1238.86 284.323L1234.15 286.691M1248.78 279.337L1251.37 278.036L1254 276.711M1248.78 279.337L1200.65 279.339M1279.84 286.691H1234.15M1279.84 286.691H1325.53M1331.81 284.324L1338.31 281.875M1331.81 284.324L1327.08 286.107L1325.53 286.691M1192.38 284.324L1196.44 281.875M1192.38 284.324L1145.91 284.323M1192.38 284.324L1189.43 286.107L1188.46 286.691M1234.15 286.691H1188.46M1342.41 40.056H1214.95M1342.41 40.056L1325.22 57.3493M1342.41 40.056H1469.89M1342.41 40.056L1361.32 21.0533M1214.95 40.056L1203.48 57.3493M1214.95 40.056L1227.55 21.0533M1214.95 40.056H1087.47M1325.22 57.3493H1203.48M1325.22 57.3493H1446.96M1325.22 57.3493L1309.49 73.152M1469.89 40.056L1446.96 57.3493M1469.89 40.056L1495.09 21.0533M1361.32 21.0533H1227.55M1361.32 21.0533L1382.19 0.0746667M1361.32 21.0533H1495.09M1203.48 57.3493L1193 73.152M1203.48 57.3493L1081.74 57.348M1227.55 21.0533L1241.46 0.0746667M1227.55 21.0533H1093.77M1087.47 40.056L1081.74 57.348M1087.47 40.056L1093.77 21.0533M1087.47 40.056H960M1446.96 57.3493L1425.99 73.152M1309.49 73.152H1193M1309.49 73.152H1425.99M1309.49 73.152L1295.07 87.652M1193 73.152H1076.5M1081.74 57.348L1076.5 73.152M1081.74 57.348L960 57.3493M1281.79 101.001H1174.53M1281.79 101.001L1269.52 113.335M1281.79 101.001H1389.05M1281.79 101.001L1295.07 87.652M1174.53 101.001L1166.35 113.333M1174.53 101.001L1183.38 87.6507M1174.53 101.001L1067.26 101M1269.52 113.335L1166.35 113.333M1269.52 113.335L1372.69 113.333M1269.52 113.335L1258.16 124.76M1389.05 101.001L1372.69 113.333M1389.05 101.001L1406.76 87.6533M1295.07 87.652L1183.38 87.6533M1295.07 87.652L1406.76 87.6533M1166.35 113.333L1158.77 124.76M1166.35 113.333H1063.17M1067.26 101L1063.17 113.333M1067.26 101L1071.69 87.652M1067.26 101L960 101.001M1372.69 113.333L1357.55 124.761M1258.16 124.76H1158.77M1258.16 124.76L1357.55 124.761M1258.16 124.76L1247.59 135.376M1158.77 124.76L1151.73 135.376M1158.77 124.76H1059.39M1063.17 113.333L1059.39 124.76M1063.17 113.333H960M1237.76 145.267H1145.17M1237.76 145.267L1228.57 154.503M1237.76 145.267H1330.34M1237.76 145.267L1247.59 135.376M1145.17 145.267L1139.05 154.503M1145.17 145.267L1151.73 135.376M1145.17 145.267H1052.59M1228.57 154.503H1139.05M1228.57 154.503H1318.09M1228.57 154.503L1219.97 163.148M1330.34 145.267L1318.09 154.503M1330.34 145.267L1343.47 135.377M1247.59 135.376H1151.73M1247.59 135.376L1343.47 135.377M1139.05 154.503L1133.31 163.148M1139.05 154.503H1049.52M1151.73 135.376L1055.87 135.377M1052.59 145.267L1049.52 154.503M1052.59 145.267L1055.87 135.377M1052.59 145.267H960M1318.09 154.503L1306.63 163.149M1219.97 163.148H1133.31M1219.97 163.148L1306.63 163.149M1219.97 163.148L1211.9 171.256M1133.31 163.148L1127.94 171.256M1133.31 163.148L1046.66 163.149M1049.52 154.503L1046.66 163.149M1049.52 154.503H960M1204.32 178.876H1122.88M1204.32 178.876L1197.19 186.051M1204.32 178.876H1285.76M1204.32 178.876L1211.9 171.256M1122.88 178.876L1118.12 186.051M1122.88 178.876L1127.94 171.256M1122.88 178.876H1041.44M1197.19 186.051H1118.12M1197.19 186.051H1276.25M1197.19 186.051L1190.45 192.82M1211.9 171.256H1127.94M1211.9 171.256L1295.87 171.257M1118.12 186.051L1113.63 192.82M1118.12 186.051H1039.06M1127.94 171.256L1043.97 171.257M1190.45 192.82H1113.63M1190.45 192.82L1267.27 192.821M1190.45 192.82L1184.09 199.213M1113.63 192.82L1109.39 199.213M1113.63 192.82L1036.82 192.821M1178.07 205.264H1105.38M1178.07 205.264L1172.37 210.999M1178.07 205.264H1250.76M1178.07 205.264L1184.09 199.213M1105.38 205.264L1101.58 210.999M1105.38 205.264L1109.39 199.213M1105.38 205.264H1032.69M1172.37 210.999H1101.58M1172.37 210.999H1243.16M1172.37 210.999L1166.96 216.44M1184.09 199.213H1109.39M1184.09 199.213L1258.79 199.215M1101.58 210.999L1097.97 216.44M1101.58 210.999H1030.79M1109.39 199.213L1034.7 199.215M1166.96 216.44H1097.97M1166.96 216.44L1235.94 216.441M1166.96 216.44L1161.81 221.612M1097.97 216.44L1094.54 221.612M1097.97 216.44L1028.99 216.441M1156.92 226.532H1091.28M1156.92 226.532L1152.25 231.219M1156.92 226.532H1222.56M1156.92 226.532L1161.81 221.611M1091.28 226.532L1088.17 231.219M1091.28 226.532L1094.54 221.611M1091.28 226.532H1025.64M1152.25 231.219H1088.17M1152.25 231.219H1216.34M1152.25 231.219L1150.56 232.92L1147.81 235.689M1222.56 226.532L1216.34 231.219M1222.56 226.532L1229.08 221.612M1088.17 231.219L1085.2 235.689M1088.17 231.219H1024.08M1025.64 226.532L1024.08 231.219M1025.64 226.532L1027.27 221.612M1025.64 226.532H960M1216.34 231.219L1210.41 235.691M1024.08 231.219L1022.6 235.691M1024.08 231.219H960M1139.5 244.037H1079.67M1139.5 244.037L1135.62 247.941M1139.5 244.037H1199.34M1139.5 244.037L1142.53 240.995L1143.56 239.959M1079.67 244.037L1078.68 245.521L1077.08 247.941M1079.67 244.037L1082.37 239.959M1079.67 244.037H1019.83M1135.62 247.941L1135.15 248.417L1131.9 251.679M1135.62 247.941H1077.08M1135.62 247.941H1194.16M1077.08 247.941L1076.14 249.361L1075.83 249.831L1075.52 250.296L1074.6 251.679M1077.08 247.941H1018.54M1131.9 251.679H1074.6M1131.9 251.679L1189.2 251.68M1131.9 251.679L1128.34 255.263M1074.6 251.679L1073.7 253.041L1073.4 253.491L1072.22 255.263M1074.6 251.679L1017.3 251.68M1124.92 258.699H1069.95M1124.92 258.699L1123.26 260.365L1122.85 260.777L1122.44 261.187L1122.04 261.595L1121.63 262M1124.92 258.699H1179.89M1124.92 258.699L1128.34 255.261M1069.95 258.699L1068.3 261.187L1068.03 261.595L1067.76 262M1069.95 258.699L1072.22 255.261M1069.95 258.699H1014.97M1121.63 262H1067.76M1121.63 262H1175.51M1121.63 262L1119.65 263.996L1119.26 264.391L1118.48 265.171M1179.89 258.699L1176.59 261.188L1175.51 262.001M1179.89 258.699L1181.58 257.428L1183.29 256.136L1184.45 255.263M1067.76 262L1066.43 263.996L1066.17 264.391L1065.91 264.781L1065.65 265.171M1067.76 262H1013.88M1014.97 258.699L1013.88 262.001M1014.97 258.699L1015.39 257.428L1015.82 256.136L1016.11 255.263M1014.97 258.699H960M1118.48 265.171H1065.65M1118.48 265.171L1171.31 265.172M1118.48 265.171L1115.45 268.223M1065.65 265.171L1063.63 268.223M1065.65 265.171L1012.83 265.172M1112.53 271.157H1061.68M1112.53 271.157L1109.71 273.984M1112.53 271.157H1163.37M1112.53 271.157L1113.25 270.433L1114.34 269.335L1115.45 268.221M1061.68 271.157L1061.92 270.796L1063.38 268.595L1063.63 268.221M1061.68 271.157L1059.81 273.984M1061.68 271.157H1010.84M1109.71 273.984H1059.81M1109.71 273.984H1159.62M1109.71 273.984L1107 276.709M1059.81 273.984L1059.12 275.017L1058.9 275.36L1058.67 275.699L1058 276.709M1059.81 273.984H1009.9M1159.62 273.984L1156 276.711M1159.62 273.984L1160.08 273.639L1163.37 271.159M1009.9 273.984L1010.02 273.639L1010.13 273.289L1010.84 271.159M1009.9 273.984L1009 276.711M1009.9 273.984H960M1101.86 281.873H1054.58M1101.86 281.873L1100.03 283.719L1099.43 284.323M1101.86 281.873H1149.15M1101.86 281.873L1102.8 280.933L1103.11 280.617L1103.43 280.299L1104.39 279.337M1054.58 281.873L1054.37 282.184L1053.96 282.801L1053.55 283.415L1052.95 284.323M1054.58 281.873L1055.41 280.617L1055.62 280.299L1056.05 279.659L1056.26 279.337M1054.58 281.873H1007.29M1099.43 284.323H1052.95M1099.43 284.323L1097.37 286.397L1097.07 286.689M1099.43 284.323H1145.91M1104.39 279.337H1056.26M1104.39 279.337L1104.71 279.015L1105.03 278.691L1105.36 278.364L1105.68 278.036L1106.01 277.707L1106.34 277.376L1107 276.711M1104.39 279.337L1152.52 279.339M1052.95 284.323L1052.75 284.623L1052.55 284.921L1052.36 285.22L1052.16 285.516L1051.58 286.397L1051.38 286.689M1052.95 284.323H1006.48M1056.26 279.337L1056.47 279.015L1056.69 278.691L1056.91 278.364L1057.12 278.036L1057.56 277.376L1057.78 277.044L1058 276.711M1056.26 279.337L1008.13 279.339M1145.91 284.323L1149.15 281.875M1145.91 284.323L1144.32 285.517L1143.15 286.399L1142.77 286.691M1006.48 284.323L1007.29 281.875M1006.48 284.323L1006.38 284.624L1006.28 284.923L1006.18 285.221L1005.69 286.691M1006.48 284.323H960M832.528 40.056H705.055M832.528 40.056L838.261 57.3493M832.528 40.056H960M832.528 40.056L826.227 21.0533M705.055 40.056L716.523 57.3493M705.055 40.056L692.453 21.0533M705.055 40.056H577.581M838.261 57.3493H716.523M838.261 57.3493H960M838.261 57.3493L843.501 73.152M960 40.056V57.3493M960 40.056V21.0533M826.227 21.0533H692.453M826.227 21.0533L819.269 0.0746667M826.227 21.0533H960M716.523 57.3493L727.004 73.152M716.523 57.3493L594.784 57.348M692.453 21.0533L678.54 0.0746667M692.453 21.0533H558.679M577.581 40.056L594.784 57.348M577.581 40.056L558.679 21.0533M577.581 40.056H450.108M960 57.3493V73.152M843.501 73.152H727.004M843.501 73.152H960M843.501 73.152L848.309 87.652M727.004 73.152L736.619 87.6507M727.004 73.152H610.505M594.784 57.348L610.505 73.152M594.784 57.348L473.045 57.3493M852.737 101.001H745.472M852.737 101.001L856.825 113.335M852.737 101.001H960M852.737 101.001L848.309 87.652M745.472 101.001L753.651 113.333M745.472 101.001L736.619 87.6507M745.472 101.001L638.209 101M856.825 113.335L753.651 113.333M856.825 113.335L960 113.333M856.825 113.335L860.615 124.76M960 101.001V113.333M960 101.001V87.6533M848.309 87.652L736.619 87.6507M848.309 87.652L960 87.6533M753.651 113.333L761.229 124.76M753.651 113.333H650.477M736.619 87.6507L624.928 87.652M638.209 101L650.477 113.333M638.209 101L624.928 87.652M638.209 101L530.945 101.001M960 113.333V124.761M860.615 124.76H761.229M860.615 124.76L960 124.761M860.615 124.76L864.135 135.376M761.229 124.76L768.271 135.376M761.229 124.76H661.844M650.477 113.333L661.844 124.76M650.477 113.333H547.303M867.415 145.267H774.829M867.415 145.267L870.477 154.503M867.415 145.267H960M867.415 145.267L864.135 135.376M774.829 145.267L780.955 154.503M774.829 145.267L768.271 135.376M774.829 145.267H682.244M870.477 154.503H780.955M870.477 154.503H960M870.477 154.503L873.344 163.148M960 145.267V154.503M960 145.267V135.377M864.135 135.376H768.271M864.135 135.376L960 135.377M780.955 154.503L786.687 163.148M780.955 154.503H691.432M768.271 135.376L672.405 135.377M682.244 145.267L691.432 154.503M682.244 145.267L672.405 135.377M682.244 145.267H589.659M960 154.503V163.149M873.344 163.148H786.687M873.344 163.148L960 163.149M873.344 163.148L876.032 171.256M786.687 163.148L792.064 171.256M786.687 163.148L700.031 163.149M691.432 154.503L700.031 163.149M691.432 154.503H601.909M878.559 178.876H797.117M878.559 178.876L880.939 186.051M878.559 178.876H960M878.559 178.876L876.032 171.256M797.117 178.876L801.876 186.051M797.117 178.876L792.064 171.256M797.117 178.876H715.677M880.939 186.051H801.876M880.939 186.051H960M880.939 186.051L883.183 192.82M876.032 171.256H792.064M876.032 171.256L960 171.257M801.876 186.051L806.365 192.82M801.876 186.051H722.815M792.064 171.256L708.097 171.257M883.183 192.82H806.365M883.183 192.82L960 192.821M883.183 192.82L885.303 199.213M806.365 192.82L810.605 199.213M806.365 192.82L729.547 192.821M887.309 205.264H814.619M887.309 205.264L889.211 210.999M887.309 205.264H960M887.309 205.264L885.303 199.213M814.619 205.264L818.42 210.999M814.619 205.264L810.605 199.213M814.619 205.264H741.927M889.211 210.999H818.42M889.211 210.999H960M889.211 210.999L891.015 216.44M885.303 199.213H810.605M885.303 199.213L960 199.215M818.42 210.999L822.029 216.44M818.42 210.999H747.631M810.605 199.213L735.908 199.215M891.015 216.44H822.029M891.015 216.44L960 216.441M891.015 216.44L892.52 220.98L892.729 221.612M822.029 216.44L825.459 221.612M822.029 216.44L753.044 216.441M894.361 226.532H828.721M894.361 226.532L895.916 231.219M894.361 226.532H960M894.361 226.532L892.729 221.611M828.721 226.532L831.831 231.219M828.721 226.532L825.459 221.611M828.721 226.532H763.083M895.916 231.219H831.831M895.916 231.219H960M895.916 231.219L897.397 235.689M960 226.532V231.219M960 226.532V221.612M831.831 231.219L834.796 235.689M831.831 231.219H767.745M763.083 226.532L767.745 231.219M763.083 226.532L758.188 221.612M763.083 226.532H697.444M960 231.219V235.691M767.745 231.219L768.877 232.357L772.193 235.691M767.745 231.219H703.661M900.167 244.037H840.332M900.167 244.037L901.46 247.941M900.167 244.037H960M900.167 244.037L898.813 239.959M840.332 244.037L842.603 247.463L842.92 247.941M840.332 244.037L837.625 239.959M840.332 244.037H780.497M901.46 247.941L901.617 248.417L902.7 251.679M901.46 247.941H842.92M901.46 247.941H960M842.92 247.941L843.863 249.361L844.172 249.831L844.483 250.296L845.399 251.679M842.92 247.941H784.38M902.7 251.679H845.399M902.7 251.679L960 251.68M902.7 251.679L903.001 252.589L903.595 254.381L903.887 255.263M845.399 251.679L846.303 253.041L846.599 253.491L847.776 255.263M845.399 251.679L788.099 251.68M905.028 258.699H850.055M905.028 258.699L906.121 262M905.028 258.699H960M905.028 258.699L904.605 257.427L904.463 256.999L904.321 256.568L904.033 255.699L903.887 255.261M850.055 258.699L851.704 261.187L852.244 262M850.055 258.699L847.776 255.261M850.055 258.699H795.081M906.121 262H852.244M906.121 262H960M906.121 262L907.173 265.171M960 258.699V262.001M960 258.699V255.263M852.244 262L853.567 263.996L853.829 264.391L854.088 264.781L854.347 265.171M852.244 262H798.365M795.081 258.699L797.149 260.779L797.556 261.188L797.963 261.596L798.365 262.001M795.081 258.699L792.097 255.7L791.663 255.263M795.081 258.699H740.109M907.173 265.171H854.347M907.173 265.171L960 265.172M907.173 265.171L908.185 268.223M854.347 265.171L856.369 268.223M854.347 265.171L801.52 265.172M909.159 271.157H858.317M909.159 271.157L910.096 273.984M909.159 271.157H960M909.159 271.157L908.185 268.221M858.317 271.157L858.077 270.796L856.617 268.595L856.369 268.221M858.317 271.157L860.192 273.984M858.317 271.157H807.475M910.096 273.984H860.192M910.096 273.984H960M910.096 273.984L910.999 276.709M860.192 273.984L860.877 275.017L861.103 275.359L861.329 275.699L861.999 276.709M860.192 273.984H810.288M960 273.984V276.711M960 273.984V271.159M810.288 273.984L812.999 276.711M810.288 273.984L807.475 271.159M810.288 273.984H760.384M912.711 281.873H865.423M912.711 281.873L913.524 284.323M912.711 281.873H960M912.711 281.873L911.871 279.337M865.423 281.873L865.629 282.184L866.04 282.801L866.243 283.109L866.647 283.719L866.847 284.021L867.048 284.323M865.423 281.873L864.589 280.617L864.38 280.299L863.955 279.659L863.741 279.337M865.423 281.873H818.135M913.524 284.323L913.623 284.623L913.723 284.921L913.821 285.22L914.308 286.689M913.524 284.323H867.048M913.524 284.323H960M911.871 279.337H863.741M911.871 279.337L910.999 276.711M911.871 279.337L960 279.339M867.048 284.323H820.571M867.048 284.323L867.445 284.921L867.643 285.22L867.839 285.516L868.423 286.397L868.617 286.689M863.741 279.337L863.527 279.015L863.312 278.691L863.095 278.364L862.879 278.036L862.22 277.044L861.999 276.711M863.741 279.337L815.612 279.339M960 284.323V281.875M960 284.323V286.691M820.571 284.323L819.971 283.72L818.135 281.875M820.571 284.323H774.095M820.571 284.323L822.344 286.107L822.925 286.691M322.636 40.056H195.164M322.636 40.056L351.307 57.3493M322.636 40.056H450.108M322.636 40.056L291.131 21.0533M195.164 40.056L229.568 57.3493M195.164 40.056L157.359 21.0533M195.164 40.056H67.6907M351.307 57.3493H229.568M351.307 57.3493H473.045M351.307 57.3493L377.508 73.152M450.108 40.056L473.045 57.3493M450.108 40.056L424.905 21.0533M291.131 21.0533H157.359M291.131 21.0533L256.351 0.0746667H397.08M291.131 21.0533H424.905M229.568 57.3493L261.011 73.152M229.568 57.3493L107.829 57.348M157.359 21.0533L115.621 0.0746667M157.359 21.0533H23.584M67.6907 40.056L107.829 57.348M67.6907 40.056L23.584 21.0533M67.6907 40.056H0.517333M473.045 57.3493L494.007 73.152M377.508 73.152H261.011M377.508 73.152H494.007M377.508 73.152L401.548 87.652M261.011 73.152H144.512M107.829 57.348L144.512 73.152M107.829 57.348H0.516M423.681 101.001H316.417M423.681 101.001L444.128 113.335M423.681 101.001H530.945M423.681 101.001L401.548 87.652M316.417 101.001L340.953 113.333M316.417 101.001L289.857 87.6507M316.417 101.001L209.155 101M444.128 113.335L340.953 113.333M444.128 113.335L547.303 113.333M444.128 113.335L463.072 124.76M530.945 101.001L547.303 113.333M530.945 101.001L513.239 87.652M401.548 87.652H513.239M340.953 113.333L363.687 124.76M340.953 113.333H237.779M209.155 101L237.779 113.333M209.155 101L178.167 87.6533M547.303 113.333L562.459 124.761M463.072 124.76H363.687M463.072 124.76L562.459 124.761M463.072 124.76L480.675 135.376M363.687 124.76L384.809 135.376M363.687 124.76H264.301M237.779 113.333L264.301 124.76M237.779 113.333L134.604 113.335M497.072 145.267H404.487M497.072 145.267L512.387 154.503M497.072 145.267H589.659M497.072 145.267L480.675 135.376M404.487 145.267L422.863 154.503M404.487 145.267L384.809 135.376M404.487 145.267H311.901M512.387 154.503H422.863M512.387 154.503H601.909M512.387 154.503L526.719 163.148M589.659 145.267L601.909 154.503M589.659 145.267L576.54 135.377M480.675 135.376H384.809M480.675 135.376L576.54 135.377M422.863 154.503L440.061 163.148M422.863 154.503H333.34M384.809 135.376L288.944 135.377M311.901 145.267L333.34 154.503M311.901 145.267L288.944 135.377M311.901 145.267H219.316M601.909 154.503L613.375 163.149M526.719 163.148H440.061M526.719 163.148L613.375 163.149M526.719 163.148L540.161 171.256M440.061 163.148L456.193 171.256M440.061 163.148L353.405 163.149M333.34 154.503L353.405 163.149M333.34 154.503H243.816M552.795 178.876H471.355M552.795 178.876L564.691 186.051M552.795 178.876H634.236M552.795 178.876L540.161 171.256M471.355 178.876L485.629 186.051M471.355 178.876L456.193 171.256M471.355 178.876H389.913M564.691 186.051H485.629M564.691 186.051H643.753M564.691 186.051L575.912 192.82M540.161 171.256H456.193M540.161 171.256L624.129 171.257M485.629 186.051L499.095 192.82M485.629 186.051H406.568M456.193 171.256L372.225 171.257M575.912 192.82H499.095M575.912 192.82L652.729 192.821M575.912 192.82L586.513 199.213M499.095 192.82L511.815 199.213M499.095 192.82L422.276 192.821M596.545 205.264H523.853M596.545 205.264L606.052 210.999M596.545 205.264H669.236M596.545 205.264L586.513 199.213M523.853 205.264L535.261 210.999M523.853 205.264L511.815 199.213M523.853 205.264H451.161M606.052 210.999H535.261M606.052 210.999H676.841M606.052 210.999L615.073 216.44M586.513 199.213H511.815M586.513 199.213L661.209 199.215M535.261 210.999L546.088 216.44M535.261 210.999H464.472M511.815 199.213L437.117 199.215M615.073 216.44H546.088M615.073 216.44L684.059 216.441M615.073 216.44L623.647 221.612M546.088 216.44L556.376 221.612M546.088 216.44L477.103 216.441M631.805 226.532H566.167M631.805 226.532L639.576 231.219M631.805 226.532H697.444M631.805 226.532L623.647 221.611M566.167 226.532L575.492 231.219M566.167 226.532L556.376 221.611M566.167 226.532H500.528M639.576 231.219H575.492M639.576 231.219H703.661M639.576 231.219L646.988 235.689M697.444 226.532L703.661 231.219M697.444 226.532L690.917 221.612M575.492 231.219L584.387 235.689M575.492 231.219H511.408M500.528 226.532L511.408 231.219M500.528 226.532L489.107 221.612M500.528 226.532H434.888M703.661 231.219L709.591 235.691M511.408 231.219L521.784 235.691M511.408 231.219H447.323M660.829 244.037L660 243.537L659.165 243.035L654.065 239.959M660.829 244.037H600.995M660.829 244.037L667.3 247.941M660.829 244.037H720.663M600.995 244.037L608.76 247.941M600.995 244.037L592.879 239.959M600.995 244.037H541.16M667.3 247.941H608.76M667.3 247.941H725.84M667.3 247.941L673.497 251.679M608.76 247.941L616.197 251.679M608.76 247.941H550.22M673.497 251.679H616.197M673.497 251.679L730.799 251.68M673.497 251.679L675.007 252.589L679.439 255.263M616.197 251.679L618.905 253.041L619.799 253.491L623.325 255.263M616.197 251.679L558.897 251.68M685.137 258.699H630.164M685.137 258.699L690.609 262M685.137 258.699H740.109M685.137 258.699L679.439 255.261M630.164 258.699L634.3 260.777L636.731 262M630.164 258.699L623.325 255.261M630.164 258.699H575.191M690.609 262H636.731M690.609 262H744.487M690.609 262L695.22 264.781L695.867 265.171M740.109 258.699L743.408 261.188L744.487 262.001M740.109 258.699L738.421 257.428L735.549 255.263M636.731 262L643.04 265.171M636.731 262H582.852M575.191 258.699L582.852 262.001M575.191 258.699L567.212 255.263M575.191 258.699H520.219M695.867 265.171H643.04M695.867 265.171L748.693 265.172M695.867 265.171L700.924 268.223M643.04 265.171L649.109 268.223M643.04 265.171L590.215 265.172M705.791 271.157H654.949M705.791 271.157L706.979 271.873L710.479 273.984M705.791 271.157H756.632M705.791 271.157L704.592 270.433L702.157 268.965L700.924 268.221M654.949 271.157L660.575 273.984M654.949 271.157L652.785 270.069L651.325 269.335L649.109 268.221M654.949 271.157H604.108M710.479 273.984H660.575M710.479 273.984H760.384M710.479 273.984L713.883 276.037L714.997 276.709M660.575 273.984L662.631 275.017L663.987 275.699L665.996 276.709M660.575 273.984H610.671M760.384 273.984L763.997 276.711M760.384 273.984L759.921 273.639L756.632 271.159M610.671 273.984L616.995 276.711M610.671 273.984L604.108 271.159M610.671 273.984H560.765M723.559 281.873H676.269M723.559 281.873L726.113 283.415L727.619 284.323M723.559 281.873H770.847M723.559 281.873L719.353 279.337M676.269 281.873L679.941 283.719L680.543 284.021L681.143 284.323M676.269 281.873L673.769 280.617L671.224 279.337M676.269 281.873H628.983M727.619 284.323H681.143M727.619 284.323L729.597 285.516L730.573 286.105L731.059 286.397L731.541 286.689M727.619 284.323H774.095M719.353 279.337H671.224M719.353 279.337L714.997 276.711M719.353 279.337L767.483 279.339M681.143 284.323H634.667M681.143 284.323L685.851 286.689M671.224 279.337L669.285 278.364L668.633 278.036L665.996 276.711M671.224 279.337L623.095 279.339M774.095 284.323L773.293 283.72L770.847 281.875M774.095 284.323L775.679 285.517L776.848 286.399L777.233 286.691M634.667 284.323L633.264 283.72L628.983 281.875M634.667 284.323H588.191M634.667 284.323L640.159 286.691M134.604 113.335H31.4293L65.5293 124.761M134.604 113.335L164.915 124.76M134.604 113.335L101.891 101.003M65.5293 124.761L97.216 135.377H193.08M65.5293 124.761L164.915 124.76M0.516 113.333H31.4307L0.516 102.973M0.516 113.333V124.76V135.127V135.377V145.267M0.516 113.333V102.973M0.516 102.973V101.001V87.652M126.731 145.267H34.1453M126.731 145.267L154.293 154.503M126.731 145.267H219.316M126.731 145.267L97.2147 135.376M34.1453 145.267L64.772 154.503M34.1453 145.267L1.34933 135.376L97.2133 135.377M34.1453 145.267H0.516M154.293 154.503H64.772M154.293 154.503H243.816M154.293 154.503L180.093 163.148M219.316 145.267L243.816 154.503M219.316 145.267L193.08 135.377M64.772 154.503L93.4373 163.148M64.772 154.503H0.517333M0.516 145.267V154.504V161.432M243.816 154.503L266.749 163.149M180.093 163.148L93.436 163.149M180.093 163.148L266.749 163.149M180.093 163.148L204.289 171.256M227.032 178.876H145.591M227.032 178.876L248.444 186.051M227.032 178.876H308.473M227.032 178.876L204.289 171.256M145.591 178.876L169.381 186.051M145.591 178.876L120.323 171.256M145.591 178.876H64.1493M248.444 186.051H169.381M248.444 186.051H327.505M248.444 186.051L268.641 192.819M204.289 171.256H120.323M204.289 171.256L288.257 171.257M169.381 186.051L191.824 192.819M169.381 186.051H90.32M120.323 171.256L93.436 163.149M120.323 171.256L36.3547 171.257M305.78 205.264H233.089M305.78 205.264L322.892 210.999M305.78 205.264H378.471M305.78 205.264L287.723 199.213M233.089 205.264L252.103 210.999M233.089 205.264L213.025 199.213M233.089 205.264H160.397M322.892 210.999H252.103M322.892 210.999H393.681M322.892 210.999L339.132 216.44M287.723 199.213H213.025M287.723 199.213L268.641 192.82M287.723 199.213L362.421 199.215M252.103 210.999L270.148 216.44M252.103 210.999H181.313M213.025 199.213L191.824 192.82M213.025 199.213L138.328 199.215M339.132 216.44H270.148M339.132 216.44L408.119 216.441M339.132 216.44L354.565 221.612M270.148 216.44L287.295 221.612M270.148 216.44L201.161 216.441M369.249 226.532H303.611M369.249 226.532L383.237 231.219M369.249 226.532H434.888M369.249 226.532L354.565 221.611M303.611 226.532L319.153 231.219M303.611 226.532L287.295 221.611M303.611 226.532H237.972M383.237 231.219H319.153M383.237 231.219H447.323M383.237 231.219L396.58 235.689M434.888 226.532L447.323 231.219M434.888 226.532L421.836 221.612M319.153 231.219L333.977 235.689M319.153 231.219H255.068M237.972 226.532L255.068 231.219M237.972 226.532L220.024 221.612M237.972 226.532L172.332 226.533M447.323 231.219L459.181 235.691M255.068 231.219L271.375 235.691M255.068 231.219L190.984 231.22M421.492 244.037H361.659M421.492 244.037L433.141 247.941M421.492 244.037H481.327M421.492 244.037L409.317 239.959M361.659 244.037L374.601 247.941M361.659 244.037L348.131 239.959M361.659 244.037H301.824M433.141 247.941H374.601M433.141 247.941H491.68M433.141 247.941L444.296 251.679M374.601 247.941L386.996 251.679M374.601 247.941H316.061M444.296 251.679H386.996M444.296 251.679L501.596 251.68M444.296 251.679L454.988 255.263M386.996 251.679L398.875 255.263M386.996 251.679L329.695 251.68M465.247 258.699H410.275M465.247 258.699L475.096 262M465.247 258.699H520.219M465.247 258.699L454.988 255.261M410.275 258.699L421.217 262M410.275 258.699L398.875 255.261M410.275 258.699H355.3M475.096 262H421.217M475.096 262H528.975M475.096 262L484.561 265.171M520.219 258.699L528.975 262.001M520.219 258.699L511.101 255.263M421.217 262L431.735 265.171M421.217 262H367.339M355.3 258.699L367.339 262.001M355.3 258.699L342.764 255.263M355.3 258.699L300.328 258.7M484.561 265.171H431.735M484.561 265.171L537.388 265.172M484.561 265.171L493.663 268.223M431.735 265.171L440.605 267.848L441.848 268.223M431.735 265.171L378.908 265.172M502.424 271.157H451.583M502.424 271.157L510.861 273.984M502.424 271.157H553.265M502.424 271.157L500.264 270.433L499.179 270.069L493.663 268.221M451.583 271.157L460.957 273.984M451.583 271.157L441.848 268.221M451.583 271.157H400.741M510.861 273.984H460.957M510.861 273.984H560.765M510.861 273.984L518.993 276.709M460.957 273.984L469.993 276.709M460.957 273.984H411.053M560.765 273.984L567.995 276.711M560.765 273.984L553.265 271.159M411.053 273.984L420.992 276.711M411.053 273.984L400.741 271.159M411.053 273.984L361.149 273.985M534.405 281.873H487.117M534.405 281.873L541.715 284.323M534.405 281.873H581.693M534.405 281.873L526.836 279.337M487.117 281.873L493.235 283.719L494.237 284.021L495.239 284.323M487.117 281.873L478.707 279.337M487.117 281.873H439.829M541.715 284.323H495.239M541.715 284.323L547.905 286.397L548.776 286.689M541.715 284.323H588.191M526.836 279.337H478.707M526.836 279.337L518.993 276.711M526.836 279.337L574.967 279.339M495.239 284.323H448.761M495.239 284.323L503.084 286.689M478.707 279.337L469.993 276.711M478.707 279.337L430.579 279.339M588.191 284.323L581.693 281.875M588.191 284.323L592.919 286.107L594.468 286.691M448.761 284.323L439.829 281.875M448.761 284.323L402.285 284.324M448.761 284.323L457.392 286.691M15.016 205.265L39.7333 211M15.016 205.265H87.7067M15.016 205.265L0.516 201.901M15.016 205.265H0.516M39.7333 211H110.524M39.7333 211L63.1907 216.441M39.7333 211H0.516M87.7067 205.265H160.397M87.7067 205.265L110.524 211M87.7067 205.265L63.6307 199.215M0.516 201.901V205.265M0.516 201.901V199.215M0.516 205.265V211M110.524 211H181.313M110.524 211L132.176 216.441M63.1907 216.441L85.4827 221.612M63.1907 216.441H132.176M63.1907 216.441H0.516M0.516 211V216.441M106.693 226.533H41.0533M106.693 226.533L126.9 231.22M106.693 226.533H172.332M106.693 226.533L85.4827 221.612M41.0533 226.533L62.8133 231.22M41.0533 226.533L18.2133 221.612M41.0533 226.533H0.516M126.9 231.22H62.8133M126.9 231.22H190.983M126.9 231.22L146.169 235.691M172.332 226.533L190.984 231.22M172.332 226.533L152.753 221.612M85.4827 221.612H18.2133M85.4827 221.612H152.753M62.8133 231.22L83.5667 235.691M62.8133 231.22H0.516M18.2133 221.612L0.516 217.801M18.2133 221.612H0.516M0.516 226.533H0.0293333M0.516 226.533V231.22M0.516 226.533V221.612M146.169 235.691H83.5667M146.169 235.691H208.772M146.169 235.691L164.569 239.96M83.5667 235.691L103.383 239.96M83.5667 235.691H20.9653M0.516 231.22V231.58M182.156 244.039H122.321M182.156 244.039L198.981 247.943M182.156 244.039H241.989M182.156 244.039L164.569 239.96M122.321 244.039L140.441 247.943M122.321 244.039L103.383 239.96M122.321 244.039H62.4867M198.981 247.943H140.441M198.981 247.943H257.521M198.981 247.943L215.095 251.68M241.989 244.039H301.824M241.989 244.039L257.521 247.943M241.989 244.039L225.756 239.96M164.569 239.96H103.383M164.569 239.96H225.756M140.441 247.943L157.793 251.68M140.441 247.943H81.9013M103.383 239.96H42.196M62.4867 244.039L81.9013 247.943M62.4867 244.039L42.1973 239.96M62.4867 244.039H2.65333M257.521 247.943H316.061M257.521 247.943L272.395 251.68M215.095 251.68H157.793M215.095 251.68H272.395M215.095 251.68L230.539 255.263M157.793 251.68L174.427 255.263M157.793 251.68H100.493M81.9013 247.943L100.493 251.68M81.9013 247.943H23.36M245.356 258.7H190.384M245.356 258.7L259.583 262.001M245.356 258.7H300.328M245.356 258.7L230.539 255.263M190.384 258.7L205.704 262.001M190.384 258.7L174.427 255.263M190.384 258.7H135.409M259.583 262.001H205.704M259.583 262.001H313.461M259.583 262.001L273.255 265.172M300.328 258.7L313.461 262.001M300.328 258.7L286.652 255.263M230.539 255.263H174.427M230.539 255.263H286.652M205.704 262.001L220.428 265.172M205.704 262.001H151.827M174.427 255.263H118.313M135.409 258.7L151.827 262.001M135.409 258.7L118.313 255.263M135.409 258.7H80.4387M313.461 262.001H367.339M313.461 262.001L326.081 265.172M273.255 265.172H220.428M273.255 265.172H326.081M273.255 265.172L286.403 268.223M220.428 265.172L234.588 268.223M220.428 265.172H167.601M151.827 262.001L167.601 265.172M151.827 262.001H97.9467H44.0707L25.4653 258.7M299.057 271.159H248.215M299.057 271.159L311.244 273.985M299.057 271.159H349.899M299.057 271.159L286.403 268.223M248.215 271.159L261.34 273.985M248.215 271.159L234.588 268.223M248.215 271.159H197.373M311.244 273.985H261.34M311.244 273.985H361.149M311.244 273.985L322.991 276.711M349.899 271.159H400.741M349.899 271.159L359.765 273.639L361.149 273.985M349.899 271.159L338.217 268.223M286.403 268.223H234.588M286.403 268.223H338.217M261.34 273.985L273.991 276.711M261.34 273.985H211.436M234.588 268.223H182.772M197.373 271.159L211.436 273.985M197.373 271.159L182.772 268.223M197.373 271.159H146.532M361.149 273.985L371.992 276.711M322.991 276.711H273.991M322.991 276.711H371.992M322.991 276.711L334.32 279.339M273.991 276.711L286.189 279.339M273.991 276.711H224.989M211.436 273.985L224.989 276.711M211.436 273.985H161.532M345.252 281.875H297.964M345.252 281.875L355.809 284.324M345.252 281.875H392.54M345.252 281.875L334.32 279.339M297.964 281.875L309.333 284.324M297.964 281.875L286.189 279.339M297.964 281.875H250.675M355.809 284.324H309.333M355.809 284.324L366.009 286.691M355.809 284.324H402.285M392.54 281.875H439.829M392.54 281.875L402.285 284.324M392.54 281.875L382.449 279.339M334.32 279.339H286.189M334.32 279.339H382.449M309.333 284.324H262.856M309.333 284.324L320.319 286.691M286.189 279.339H238.061M250.675 281.875L262.856 284.324M250.675 281.875L238.061 279.339M250.675 281.875H203.388M366.009 286.691H320.319M366.009 286.691H411.701M402.285 284.324L411.701 286.691M262.856 284.324H216.38M262.856 284.324L274.627 286.691M320.319 286.691H274.627M25.4653 258.7H80.4387M25.4653 258.7L6.088 255.263M25.4653 258.7H0.516M80.4387 258.7L97.9493 262.001L114.775 265.172M80.4387 258.7L62.2013 255.263M6.088 255.263H62.2013M6.088 255.263H0.516M6.088 255.263L0.516 254.275M0.516 258.7V262.001M0.516 258.7V255.263M61.9467 265.172L44.0693 262.001H0.516M61.9467 265.172H9.12133M61.9467 265.172H114.775M61.9467 265.172L79.1427 268.223M0.516 262.001V263.731M95.6893 271.159H44.8493M95.6893 271.159L111.628 273.985M95.6893 271.159H146.532M95.6893 271.159L79.1427 268.223M44.8493 271.159L61.724 273.985M44.8493 271.159L27.328 268.223M44.8493 271.159H0.516M111.628 273.985H61.724M111.628 273.985H161.532M111.628 273.985L126.988 276.711M146.532 271.159L161.532 273.985M146.532 271.159L130.957 268.223M79.1427 268.223H27.328M79.1427 268.223H130.957M61.724 273.985L77.988 276.711M61.724 273.985H11.82M27.328 268.223L9.12133 265.172M27.328 268.223H0.516M0.516 271.159H0.361333M0.516 271.159V272.192M0.516 271.159V268.223M161.532 273.985L175.989 276.711M126.988 276.711H77.988M126.988 276.711H175.989M126.988 276.711L141.803 279.339M77.988 276.711L93.6733 279.339M77.988 276.711H28.9867M11.82 273.985L28.9867 276.711M11.82 273.985L0.516 272.192M11.82 273.985H0.516M156.099 281.875H108.811M156.099 281.875L169.904 284.324M156.099 281.875H203.388M156.099 281.875L141.803 279.339M108.811 281.875L123.428 284.324M108.811 281.875L93.6733 279.339M108.811 281.875H61.52M169.904 284.324H123.428M169.904 284.324L183.243 286.691M169.904 284.324H216.38M203.388 281.875L216.38 284.324M203.388 281.875L189.932 279.339M141.803 279.339H93.6733M141.803 279.339H189.932M123.428 284.324H76.952M123.428 284.324L137.552 286.691M93.6733 279.339H45.544M183.243 286.691H137.552M183.243 286.691H228.935M216.38 284.324L228.935 286.691M76.952 284.324L61.5227 281.875M76.952 284.324H30.476M76.952 284.324L91.86 286.691M137.552 286.691H91.86M45.544 279.339L61.5227 281.875M45.544 279.339L28.9867 276.711M45.544 279.339H0.517333M61.5227 281.875H14.2347M14.2347 281.875L30.476 284.324M14.2347 281.875L0.516 279.807M14.2347 281.875H0.516M30.476 284.324L46.1693 286.691M30.476 284.324H0.516M91.86 286.691H46.1693M91.86 286.691L106.273 288.979M28.9867 276.711H0.516M0.516 279.807V281.875M0.516 279.807V279.339V276.711M0.516 281.875V284.324M46.1693 286.691L61.3413 288.979M46.1693 286.691H0.517333M0.516 284.324V286.691M106.273 288.979H61.3413M0.516 272.192V273.985M0.516 273.985V276.711M175.989 276.711L189.932 279.339M175.989 276.711H224.989M189.932 279.339H238.061M9.12133 265.172L0.516 263.731M9.12133 265.172H0.516M0.516 268.223V265.172M0.516 263.731V265.172M114.775 265.172L130.957 268.223M114.775 265.172H167.601M130.957 268.223H182.772M238.061 279.339L224.989 276.711M274.627 286.691H228.935M274.627 286.691L286.005 288.979M228.935 286.691L241.073 288.979M286.005 288.979H241.073M371.992 276.711L382.449 279.339M371.992 276.711H420.992M382.449 279.339H430.579M182.772 268.223L167.601 265.172M326.081 265.172L338.217 268.223M326.081 265.172H378.908M338.217 268.223H390.033M118.313 255.263L100.493 251.68M118.313 255.263H62.2013M62.2013 255.263L43.1907 251.68M100.493 251.68H43.1907M43.1907 251.68L23.36 247.943M43.1907 251.68H0.517333M0.516 255.263V254.275M0.516 254.275V251.68M23.36 247.943L2.65467 244.039M23.36 247.943H0.516M272.395 251.68L286.652 255.263M272.395 251.68H329.695M286.652 255.263H342.764M2.65333 244.039L0.516 243.636M2.65333 244.039H0.516M0.516 247.943V251.68M0.516 247.943V244.039M0.217333 251.68H0.516M0.516 243.636L0 243.539M0.516 243.636V244.039M0.516 243.636V239.96M42.196 239.96L20.9653 235.691M42.196 239.96H0.516M20.9653 235.691H0.516M20.9653 235.691L0.516 231.58M0.516 239.96V235.691M0.516 235.691V231.58M208.772 235.691L225.756 239.96M208.772 235.691H271.375M208.772 235.691L190.984 231.22M225.756 239.96H286.944M0.516 217.801L0.321333 217.759M0.516 217.801V221.612M0.516 217.801V216.441M152.753 221.612H220.024M152.753 221.612L132.176 216.441M469.993 276.711H420.992M469.993 276.711H518.993M430.579 279.339L439.829 281.875M430.579 279.339L420.992 276.711M457.392 286.691H503.084M457.392 286.691H411.701M457.392 286.691L465.737 288.979M503.084 286.691H548.776M548.776 286.691H594.468M411.701 286.691L412.856 286.98L415.152 287.557L420.804 288.979M465.737 288.979H420.804M518.993 276.711H567.995M400.741 271.159L390.033 268.223M567.995 276.711L574.967 279.339M567.995 276.711H616.995M574.967 279.339H623.095M574.967 279.339L581.693 281.875M390.033 268.223H441.848M390.033 268.223L378.908 265.172M441.848 268.223H493.663M493.663 268.223H545.479M378.908 265.172L367.339 262.001M537.388 265.172L545.479 268.223M537.388 265.172H590.215M537.388 265.172L528.975 262.001M545.479 268.223L553.265 271.159M545.479 268.223H597.295M342.764 255.263H398.875M342.764 255.263L329.695 251.68M398.875 255.263H454.988M454.988 255.263H511.101M329.695 251.68L316.061 247.943M316.061 247.943L301.824 244.039M301.824 244.039L286.944 239.96M501.596 251.68L511.101 255.263M501.596 251.68H558.897M501.596 251.68L491.68 247.943M511.101 255.263H567.212M286.944 239.96H348.131M286.944 239.96L271.375 235.691M348.131 239.96L333.977 235.691M348.131 239.96H409.317M333.977 235.691H271.375M333.977 235.691H396.58M409.317 239.96L396.58 235.691M409.317 239.96H470.504M396.58 235.691H459.181M459.181 235.691L470.504 239.96M459.181 235.691H521.784M470.504 239.96L481.327 244.039M470.504 239.96H531.692M220.024 221.612H287.295M220.024 221.612L201.161 216.441M287.295 221.612H354.565M354.565 221.612H421.836M201.161 216.441L181.313 211M201.161 216.441H132.176M181.313 211L160.397 205.265M160.397 205.265L138.328 199.215M408.119 216.441L421.836 221.612M408.119 216.441H477.103M408.119 216.441L393.681 211M421.836 221.612H489.107M138.328 199.215L115.005 192.82M138.328 199.215H63.6307M63.6307 199.215L38.188 192.82M63.6307 199.215H0.516M191.824 192.82H115.005M191.824 192.82H268.641M115.005 192.82L90.3213 186.052M115.005 192.82H38.188M38.188 192.82L11.2587 186.052M38.188 192.82H0.516M0.516 199.215V192.82M268.641 192.82H345.459M90.3213 186.052L64.1493 178.877M90.3213 186.052H11.2587M64.1493 178.877L36.3547 171.257M64.1493 178.877H0.516M11.2587 186.052H0.516M11.2587 186.052L0.516 183.353M345.459 192.82L362.421 199.215M345.459 192.82L422.276 192.821M345.459 192.82L327.505 186.052M0.516 192.82V186.052M362.421 199.215L378.471 205.265M362.421 199.215H437.117M36.3547 171.257L6.78133 163.149M36.3547 171.257H0.516M0.516 178.877V183.353M0.516 178.877V171.257M0.516 186.052V183.353M93.436 163.149H6.78133M6.78133 163.149L0.516 161.432M6.78133 163.149H0.516M0.516 171.257V163.149M0.516 161.432V163.149M266.749 163.149L288.257 171.257M266.749 163.149H353.405M288.257 171.257L308.473 178.877M288.257 171.257H372.225M1.34667 135.377H0.517333M1.35067 135.377L0.517333 135.127M193.08 135.377H288.944M193.08 135.377L164.915 124.76M665.996 276.711H616.995M665.996 276.711H714.997M623.095 279.339L623.841 279.66L628.983 281.875M623.095 279.339L621.591 278.691L616.995 276.711M628.983 281.875H581.693M640.159 286.691H685.851M640.159 286.691H594.468M640.159 286.691L645.469 288.979M685.851 286.691H731.541M731.541 286.691H777.233M594.468 286.691L596.768 287.557L600.536 288.979M645.469 288.979H600.536M714.997 276.711H763.997M604.108 271.159L599.88 269.336L599.021 268.967L597.295 268.223M604.108 271.159H553.265M763.997 276.711L764.88 277.376L767.483 279.339M763.997 276.711H812.999M767.483 279.339H815.612M767.483 279.339L770.847 281.875M597.295 268.223H649.109M597.295 268.223L590.215 265.172M649.109 268.223H700.924M700.924 268.223H752.74M590.215 265.172L588.4 264.392L587.488 263.997L582.852 262.001M582.852 262.001H528.975M748.693 265.172L749.208 265.56L749.72 265.947L752.74 268.223M748.693 265.172H801.52M748.693 265.172L744.487 262.001M752.74 268.223L755.191 270.071L755.673 270.435L756.155 270.797L756.632 271.159M752.74 268.223H804.555M567.212 255.263H623.325M567.212 255.263L558.897 251.68M623.325 255.263H679.439M679.439 255.263H735.549M558.897 251.68L550.22 247.943M550.22 247.943L541.16 244.039M550.22 247.943H491.68M541.16 244.039L531.692 239.96M541.16 244.039H481.327M491.68 247.943L481.327 244.039M730.799 251.68L735.549 255.263M730.799 251.68H788.099M730.799 251.68L725.84 247.943M735.549 255.263H791.663M531.692 239.96H592.879M531.692 239.96L521.784 235.691M592.879 239.96L584.387 235.691M592.879 239.96H654.065M584.387 235.691H521.784M584.387 235.691H646.988M654.065 239.96L646.988 235.691M654.065 239.96H715.252M646.988 235.691H709.591M709.591 235.691L715.252 239.96M709.591 235.691H772.193M715.252 239.96L717.988 242.023L720.663 244.039M715.252 239.96H776.439M489.107 221.612H556.376M489.107 221.612L477.103 216.441M556.376 221.612H623.647M623.647 221.612H690.917M477.103 216.441L464.472 211M464.472 211L451.161 205.265M464.472 211H393.681M451.161 205.265L437.117 199.215M451.161 205.265H378.471M393.681 211L378.471 205.265M684.059 216.441L690.917 221.612M684.059 216.441H753.044M684.059 216.441L676.841 211M690.917 221.612H758.188M437.117 199.215L422.276 192.821M422.276 192.821L406.568 186.052M406.568 186.052L389.913 178.877M406.568 186.052H327.505M389.913 178.877L372.225 171.257M389.913 178.877H308.473M327.505 186.052L308.473 178.877M652.729 192.821L661.209 199.215M652.729 192.821H729.547M652.729 192.821L643.753 186.052M661.209 199.215L669.236 205.265M661.209 199.215H735.908M372.225 171.257L353.405 163.149M613.375 163.149L624.129 171.257M613.375 163.149H700.031M624.129 171.257L634.236 178.877M624.129 171.257H708.097M288.944 135.377L264.301 124.76M264.301 124.76H164.915M562.459 124.761L576.54 135.377M562.459 124.761L661.844 124.76M576.54 135.377H672.405M209.155 101.003H101.891M101.891 101.003L66.4773 87.6533M101.891 101.003H0.517333M65.5307 124.763H0.516M289.856 87.6533L261.009 73.1533M289.856 87.6533H178.165M289.856 87.6533H401.547M178.165 87.6533L144.511 73.1533M178.165 87.6533H66.476M66.476 87.6533L28.0133 73.152M66.476 87.6533L0.516 87.652M28.0133 73.152H144.512M28.0133 73.152H0.514667M28.0133 73.152L0.516 62.7867M0.516 87.652L0.514667 73.152M494.007 73.152L513.239 87.652M494.007 73.152H610.505M0.514667 73.152L0.516 62.7867M0.516 62.7867V57.3467V40.0533V21.0533V11.1147V0.0746667M513.239 87.652H624.928M23.584 21.0533L0.517333 11.1147M23.584 21.0533H0.517333M256.349 0.0746667H115.62H0.516M0.516 0.0746667V0H1919.48V0.0746667M397.08 0.0746667L424.905 21.0533M397.08 0.0746667H537.811M424.905 21.0533H558.679M861.999 276.711H812.999M861.999 276.711H910.999M815.612 279.339L816.568 280.3L818.135 281.875M815.612 279.339L815.291 279.015L814.967 278.691L814.643 278.364L814.316 278.036L812.999 276.711M818.135 281.875H770.847M822.925 286.691H868.617M822.925 286.691L823.213 286.981L823.787 287.557L824.357 288.129L824.639 288.413L825.201 288.979M822.925 286.691H777.233M868.617 286.691H914.308M914.308 286.691H960M777.233 286.691L779.893 288.696L780.269 288.979M825.201 288.979H780.269M910.999 276.711H960M807.475 271.159L806.755 270.435L805.663 269.336L804.555 268.223M807.475 271.159H756.632M960 276.711V279.339M960 276.711H1009M960 279.339H1008.13M960 279.339V281.875M804.555 268.223H856.369M804.555 268.223L801.52 265.172M856.369 268.223H908.185M908.185 268.223H960M801.52 265.172L800.743 264.392L800.352 263.997L799.959 263.603L798.365 262.001M798.365 262.001H744.487M960 265.172V268.223M960 265.172H1012.83M960 265.172V262.001M960 268.223V271.159M960 268.223H1011.81M791.663 255.263H847.776M791.663 255.263L788.099 251.68M847.776 255.263H903.887M903.887 255.263H960M788.099 251.68L784.38 247.943M784.38 247.943L780.497 244.039M784.38 247.943H725.84M780.497 244.039L777.471 240.996L776.439 239.96M780.497 244.039H720.663M725.84 247.943L720.663 244.039M960 251.68V255.263M960 251.68H1017.3M960 251.68V247.943M960 255.263H1016.11M776.439 239.96H837.625M776.439 239.96L772.193 235.691M837.625 239.96L834.796 235.691M837.625 239.96H898.813M834.796 235.691H772.193M834.796 235.691H897.397M898.813 239.96L897.397 235.691M898.813 239.96H960M897.397 235.691H960M960 235.691V239.96M960 235.691H1022.6M960 239.96V244.039M960 239.96H1021.19M758.188 221.612H825.459M758.188 221.612L753.044 216.441M825.459 221.612H892.729M892.729 221.612H960M753.044 216.441L747.631 211M747.631 211L741.927 205.265M747.631 211H676.841M741.927 205.265L735.908 199.215M741.927 205.265H669.236M676.841 211L671.176 206.728L669.236 205.265M960 216.441V221.612M960 216.441H1028.99M960 216.441V211M960 221.612H1027.27M735.908 199.215L729.547 192.821M729.547 192.821L722.815 186.052M722.815 186.052L715.677 178.877M722.815 186.052H643.753M715.677 178.877L708.097 171.257M715.677 178.877H634.236M643.753 186.052L634.236 178.877M960 192.821V199.215M960 192.821H1036.82M960 192.821V186.052M960 199.215V205.265M960 199.215H1034.7M708.097 171.257L700.031 163.149M960 163.149V171.257M960 163.149H1046.66M960 171.257V178.877M960 171.257H1043.97M672.405 135.377L661.844 124.76M960 124.761V135.377M960 124.761L1059.39 124.76M960 135.377H1055.87M624.928 87.652L610.505 73.152M960 73.152V87.6533M960 73.152H1076.5M960 87.6533L1071.69 87.652M558.679 21.0533L537.811 0.0746667M678.54 0.0746667H537.811M678.54 0.0746667H819.269M819.269 0.0746667H960M960 0.0746667V21.0533M960 0.0746667H1100.73M960 21.0533H1093.77M1058 276.711H1009M1058 276.711H1107M1008.13 279.339L1007.29 281.875M1008.13 279.339L1008.24 279.015L1008.34 278.691L1008.45 278.364L1009 276.711M1007.29 281.875H960M1005.69 286.691H1051.38M1005.69 286.691H960M1005.69 286.691L1005.4 287.557L1005.31 287.844L1004.93 288.979M1051.38 286.691H1097.07M1097.07 286.691H1142.77M960 286.691V288.979M1004.93 288.979H960M1107 276.711H1156M1010.84 271.159L1011.81 268.223M1010.84 271.159H960M1156 276.711L1155.12 277.376L1152.52 279.339M1156 276.711H1205M1152.52 279.339H1200.65M1152.52 279.339L1149.15 281.875M1011.81 268.223H1063.63M1011.81 268.223L1012.83 265.172M1063.63 268.223H1115.45M1115.45 268.223H1167.26M1012.83 265.172L1013.88 262.001M1013.88 262.001H960M1171.31 265.172L1167.26 268.223M1171.31 265.172H1224.13M1171.31 265.172L1175.51 262.001M1167.26 268.223L1164.81 270.071L1164.33 270.435L1163.85 270.797L1163.37 271.159M1167.26 268.223H1219.08M1016.11 255.263H1072.22M1016.11 255.263L1016.4 254.381L1017 252.589L1017.3 251.68M1072.22 255.263H1128.34M1128.34 255.263H1184.45M1017.3 251.68L1018.38 248.419L1018.54 247.943M1018.54 247.943L1019.83 244.039M1018.54 247.943H960M1019.83 244.039L1021.19 239.96M1019.83 244.039H960M960 247.943V244.039M1189.2 251.68L1184.45 255.263M1189.2 251.68H1246.5M1189.2 251.68L1194.16 247.943M1184.45 255.263H1240.56M1021.19 239.96H1082.37M1021.19 239.96L1022.6 235.691M1082.37 239.96L1085.2 235.691M1082.37 239.96H1143.56M1085.2 235.691H1022.6M1085.2 235.691H1147.81M1143.56 239.96L1147.81 235.691M1143.56 239.96H1204.75M1147.81 235.691H1210.41M1210.41 235.691L1204.75 239.96M1210.41 235.691H1273.01M1204.75 239.96L1202.01 242.023L1200 243.539L1199.34 244.039M1204.75 239.96H1265.93M1027.27 221.612H1094.54M1027.27 221.612L1028.99 216.441M1094.54 221.612H1161.81M1161.81 221.612H1229.08M1028.99 216.441L1030.79 211M1030.79 211L1032.69 205.265M1030.79 211H960M1032.69 205.265L1034.7 199.215M1032.69 205.265H960M960 211V205.265M1235.94 216.441L1229.08 221.612M1235.94 216.441H1304.93M1235.94 216.441L1243.16 211M1229.08 221.612H1296.35M1034.7 199.215L1036.82 192.821M1036.82 192.821L1039.06 186.052M1039.06 186.052L1041.44 178.877M1039.06 186.052H960M1041.44 178.877L1043.97 171.257M1041.44 178.877H960M960 186.052V178.877M1267.27 192.821L1258.79 199.215M1267.27 192.821H1344.09M1267.27 192.821L1276.25 186.052M1258.79 199.215L1250.76 205.265M1258.79 199.215H1333.49M1043.97 171.257L1046.66 163.149M1306.63 163.149L1295.87 171.257M1306.63 163.149H1393.28M1295.87 171.257L1285.76 178.877M1295.87 171.257H1379.84M1055.87 135.377L1059.39 124.76M1357.55 124.761L1343.47 135.377M1357.55 124.761L1456.93 124.76M1343.47 135.377H1439.32M1071.69 87.652L1183.38 87.6533M1071.69 87.652L1076.5 73.1533M1183.38 87.6533L1193 73.1533M1425.99 73.152L1406.76 87.6533M1425.99 73.152H1542.49M1406.76 87.6533L1518.45 87.652M1093.77 21.0533L1100.73 0.0746667M1241.46 0.0746667H1100.73M1241.46 0.0746667H1382.19M1382.19 0.0746667H1522.92M1522.92 0.0746667L1495.09 21.0533M1522.92 0.0746667H1663.65M1495.09 21.0533H1628.87M1254 276.711H1205M1254 276.711H1303.01M1200.65 279.339L1196.44 281.875M1200.65 279.339L1205 276.711M1196.44 281.875H1149.15M1188.46 286.691H1142.77M1188.46 286.691L1185.6 288.413L1184.67 288.979M1142.77 286.691L1142.38 286.981L1141.62 287.557L1139.73 288.979M1184.67 288.979H1139.73M1303.01 276.711H1352M1214.21 271.159L1214.81 270.797L1215.41 270.435L1217.23 269.336L1217.84 268.967L1219.08 268.223M1214.21 271.159H1163.37M1352 276.711L1345.04 279.339M1352 276.711H1401M1345.04 279.339H1393.16M1345.04 279.339L1338.31 281.875M1219.08 268.223H1270.89M1219.08 268.223L1224.13 265.172M1270.89 268.223H1322.71M1322.71 268.223H1374.52M1224.13 265.172L1229.39 262.001M1229.39 262.001H1175.51M1382.61 265.172L1375.52 267.848L1374.52 268.223M1382.61 265.172H1435.44M1382.61 265.172L1391.03 262.001M1374.52 268.223L1366.73 271.159M1374.52 268.223H1426.33M1240.56 255.263H1296.67M1240.56 255.263L1246.5 251.68M1296.67 255.263H1352.79M1352.79 255.263H1408.89M1246.5 251.68L1252.7 247.943M1252.7 247.943L1259.17 244.039M1252.7 247.943H1194.16M1259.17 244.039L1260.83 243.036L1265.93 239.96M1259.17 244.039H1199.34M1194.16 247.943L1199.34 244.039M1418.4 251.68L1408.89 255.263M1418.4 251.68H1475.71M1418.4 251.68L1428.32 247.943M1408.89 255.263H1465.01M1265.93 239.96H1327.12M1265.93 239.96L1273.01 235.691M1327.12 239.96L1335.61 235.691M1327.12 239.96H1388.31M1335.61 235.691H1273.01M1335.61 235.691H1398.21M1388.31 239.96L1398.21 235.691M1388.31 239.96H1449.49M1398.21 235.691H1460.81M1460.81 235.691L1449.49 239.96M1460.81 235.691H1523.43M1449.49 239.96L1438.67 244.039M1449.49 239.96H1510.68M1296.35 221.612H1363.63M1296.35 221.612L1304.93 216.441M1363.63 221.612H1430.89M1430.89 221.612H1498.16M1304.93 216.441L1313.95 211M1313.95 211L1323.45 205.265M1313.95 211H1243.16M1323.45 205.265L1333.49 199.215M1323.45 205.265H1250.76M1243.16 211L1250.76 205.265M1511.88 216.441L1498.16 221.612M1511.88 216.441H1580.87M1511.88 216.441L1526.32 211M1498.16 221.612H1565.44M1333.49 199.215L1344.09 192.821M1367.2 178.877L1379.84 171.257M1367.2 178.877H1285.76M1276.25 186.052L1285.76 178.877M1574.55 192.821L1557.57 199.215M1574.55 192.821H1651.36M1557.57 199.215L1541.53 205.265M1557.57 199.215H1632.28M1379.84 171.257L1393.28 163.149M1653.25 163.149L1631.75 171.257M1653.25 163.149H1739.91M1631.75 171.257L1611.53 178.877M1631.75 171.257H1715.71M1439.32 135.377L1456.93 124.76M1755.08 124.761L1726.92 135.377M1755.08 124.761L1854.47 124.76M1726.92 135.377H1822.79M1518.45 87.652L1542.49 73.152M1891.99 73.152L1853.52 87.652M1891.99 73.152H1919.48M1891.99 73.152L1919.48 62.7867M1853.52 87.652H1919.48M1628.87 21.0533L1663.65 0.0746667M1804.37 0.0746667H1663.65M1804.37 0.0746667H1919.48M1919.48 0.0746667V11.1147M1919.48 11.1147V21.0533M1393.16 279.339L1401 276.711M1371.23 286.691L1370.36 286.981L1364.4 288.979M1371.23 286.691H1325.53M1325.53 286.691L1323.23 287.557L1319.46 288.979M1364.4 288.979H1319.46M1548.01 276.711L1537.55 279.339M1548.01 276.711H1597.01M1537.55 279.339H1585.68M1426.33 268.223L1435.44 265.172M1593.92 265.172L1581.79 268.223M1593.92 265.172H1646.75M1581.79 268.223H1633.6M1465.01 255.263L1475.71 251.68M1428.32 247.943L1438.67 244.039M1647.6 251.68L1633.35 255.263M1647.6 251.68H1704.91M1633.35 255.263H1689.47M1510.68 239.96L1523.43 235.691M1711.23 235.691L1694.24 239.96M1711.23 235.691H1773.83M1694.24 239.96H1755.43M1565.44 221.612L1580.87 216.441M1526.32 211L1541.53 205.265M1787.83 216.441L1767.24 221.612M1787.83 216.441H1856.81M1767.24 221.612H1834.52M1632.28 199.215L1651.36 192.821M1881.81 192.821L1856.37 199.215M1881.81 192.821H1919.48M1856.37 199.215H1919.48M1715.71 171.257L1739.91 163.149M1913.21 163.149H1919.48M1913.21 163.149L1919.48 161.432M1919.48 163.149V161.432M1919.48 163.149V171.257M1919.48 171.257V178.876V183.353M1822.79 135.377L1854.47 124.76M1919.48 135.377V135.127M1919.48 135.127V124.76M1854.47 124.76L1888.57 113.333M1854.47 124.76H1919.48M1888.57 113.333H1919.48M1888.57 113.333L1919.48 102.976M1919.48 113.333V102.973V101.001M1919.48 113.333V124.76M1919.48 101.001V87.652M1919.48 87.652V73.152M1919.48 73.152V62.7867M1585.68 279.339L1597.01 276.711M1553.99 286.691L1552.73 286.981L1544.13 288.979M1553.99 286.691H1508.29M1508.29 286.691L1507.15 286.981L1499.2 288.979M1544.13 288.979H1499.2M1744.01 276.711L1730.07 279.339M1744.01 276.711H1793.01M1730.07 279.339H1778.2M1633.6 268.223L1646.75 265.172M1805.23 265.172L1789.04 268.223M1805.23 265.172H1858.05M1789.04 268.223H1840.85M1689.47 255.263L1704.91 251.68M1876.81 251.68L1857.8 255.263M1876.81 251.68H1919.48M1857.8 255.263H1913.91M1755.43 239.96L1773.83 235.691M1919.48 239.96V243.636M1834.52 221.612L1856.81 216.441M1919.48 217.801L1919.68 217.759M1919.48 217.801V216.441M1856.81 216.441L1880.27 211M1856.81 216.441H1919.48M1880.27 211L1904.99 205.265M1880.27 211H1919.48M1904.99 205.265H1919.48M1904.99 205.265L1919.48 201.903M1919.48 216.441V210.999V205.264V201.901V199.215M1919.48 199.215V192.821M1919.48 186.053V183.353M1919.48 186.053V192.821M1778.2 279.339L1793.01 276.711M1736.76 286.691H1691.07M1736.76 286.691L1723.85 288.979M1691.07 286.691L1678.93 288.979M1723.85 288.979H1678.93M1919.48 276.711V279.339M1919.48 279.339V279.807M1840.85 268.223L1858.05 265.172M1910.88 265.172H1858.05M1910.88 265.172L1919.48 263.731M1910.88 265.172H1919.48M1919.48 268.223V265.172M1858.05 265.172L1875.93 262.001M1875.93 262.001L1894.53 258.7M1875.93 262.001H1919.48M1894.53 258.7L1913.91 255.263M1894.53 258.7H1919.48M1919.48 262.001V258.7M1919.48 262.001V263.731M1919.48 263.731V265.172M1913.91 255.263L1919.48 254.275M1913.91 255.263H1919.48M1919.48 258.7V255.263M1919.48 254.275V251.68M1919.48 254.275V255.263M1919.48 247.943V244.04M1919.48 247.943V251.68M1919.48 251.68H1919.79M1919.48 244.04V243.636M1919.48 243.636L1920 243.539M1919.48 281.875V279.807M1919.48 281.875V284.324M1873.83 286.691L1858.65 288.979M1873.83 286.691H1919.48M1919.48 284.324V286.691M1858.65 288.979H1903.59M1919.48 286.691H1919.52L1919.48 286.696M1919.48 286.691V286.696M1903.59 288.979L1919.48 286.696M1903.59 288.979H1919.48M1919.48 286.696V288.979M0.516 286.696L0.514667 288.977M0.516 286.696L0.476 286.691H0.516M0.516 286.696V286.691M16.4093 288.977H0.514667" stroke="url(#paint0_radial_39_1494)" stroke-opacity="0.6" stroke-width="2.51867" stroke-miterlimit="10" stroke-linecap="round" stroke-linejoin="round"/>
</g>
<defs>
<radialGradient id="paint0_radial_39_1494" cx="0" cy="0" r="1" gradientUnits="userSpaceOnUse" gradientTransform="translate(960 10.8107) rotate(90) scale(459.175 3005.51)">
<stop stop-color="#3D3D3D"/>
<stop offset="0.489" stop-color="#3D3D3D"/>
</radialGradient>
</defs>
</svg>
