<svg width="1310" height="200" viewBox="0 0 1310 200" fill="none" xmlns="http://www.w3.org/2000/svg">
<mask id="mask0_39_1953" style="mask-type:luminance" maskUnits="userSpaceOnUse" x="0" y="0" width="1310" height="200">
<path d="M0 0H1309.09V200H0V0Z" fill="white"/>
</mask>
<g mask="url(#mask0_39_1953)">
<path d="M1287.4 1.46091L1277.23 0M1287.4 1.46091H1257.26L1247.57 0M1287.4 1.46091L1297.9 2.97M1287.4 1.46091H1308.74V2.96909M1277.23 0H1280.93L1284.59 0.00363636L1288.17 0.0127273L1291.65 0.0309091L1294.97 0.0581818L1298.11 0.100909L1301.02 0.160909L1303.73 0.236364L1306.05 0.340909L1308.15 0.462727L1308.74 0.505455V1.46M1277.23 0H1247.57M1297.9 2.97L1267.26 2.96909M1297.9 2.97L1308.74 4.52546M1297.9 2.97L1308.74 2.96909M1247.57 0H1217.93M1217.93 0H1188.27M1217.93 0L1227.13 1.46091M1188.27 0H1158.62M1188.27 0L1196.99 1.46091M1158.62 0H1128.97M1158.62 0L1166.85 1.46091M1128.97 0H1099.32M1128.97 0L1136.72 1.46091M1099.32 0H1069.66M1099.32 0L1106.58 1.46091M1069.66 0H1040.02M1069.66 0L1076.45 1.46091H1046.31M1040.02 0H1010.36M1040.02 0L1046.31 1.46091M1010.36 0H980.709M1010.36 0L1016.17 1.46091M1046.31 1.46091H1016.17M1046.31 1.46091L1047.92 1.83364L1048.73 2.02L1052.82 2.96909M980.709 0H951.064M980.709 0L986.036 1.46091M1016.17 1.46091H986.036M1016.17 1.46091L1022.18 2.96909M951.064 0H921.409M951.064 0L955.9 1.46091H986.036M986.036 1.46091L987.4 1.83364L988.082 2.02091L991.545 2.96909M921.409 0H891.757M921.409 0L922.482 0.360909L924.118 0.906364L925.764 1.46091M891.757 0H862.106M891.757 0L892.714 0.360909L895.631 1.46091M862.106 0H832.455M862.106 0L865.495 1.46091M895.631 1.46091H865.495M895.631 1.46091L899.635 2.96909M832.455 0H802.803M832.455 0L833.533 0.541818L834.625 1.09091L834.992 1.27545L835.36 1.46091M865.495 1.46091L865.927 1.64727L866.36 1.83455L866.795 2.02091L868.998 2.96909M802.803 0H773.152M802.803 0L803.702 0.541818L804.004 0.723636L804.307 0.907273L805.225 1.46091M773.152 0H743.5M773.152 0L775.089 1.46091M743.5 0L743.679 0.18L743.858 0.360909L744.768 1.27545L744.953 1.46091M743.5 0H713.849M775.089 1.46091H744.953M775.089 1.46091L775.335 1.64727L775.583 1.83455L775.832 2.02091L777.089 2.96909M744.953 1.46091L746.454 2.96909M713.849 0H684.196M713.849 0L714.817 1.46091M684.196 0H654.545M684.196 0L684.376 0.541818L684.681 1.46M654.545 0H624.895M654.545 0V1.46091M684.681 1.46H714.817M684.681 1.46H654.545M684.681 1.46L685.182 2.96909M624.895 0H595.242M624.895 0L624.715 0.541818L624.41 1.46H594.274M654.545 1.46091H624.41L623.909 2.97091M654.545 1.46091V2.96909M595.242 0H565.591M595.242 0L594.274 1.46091M565.591 0L565.412 0.18L565.233 0.360909L564.323 1.27545L564.138 1.46091M565.591 0H535.94M535.94 0H506.287M535.94 0L534.248 1.27545L534.002 1.46091M506.287 0H476.636M506.287 0L505.389 0.541818L505.087 0.723636L504.479 1.09091L504.174 1.27545L503.866 1.46091M534.002 1.46091H503.866M534.002 1.46091L533.755 1.64727L533.508 1.83455L533.259 2.02091L532.001 2.96909M476.636 0H446.985M476.636 0L475.558 0.541818L474.466 1.09091L474.099 1.27545L473.731 1.46091M503.866 1.46091L503.249 1.83364L501.998 2.58818L501.365 2.96909M446.985 0H417.334M446.985 0L443.595 1.46091L443.164 1.64636L440.093 2.96909M417.334 0H387.682M417.334 0L416.377 0.360909L413.46 1.46091M387.682 0H358.03M387.682 0L383.324 1.46091M413.46 1.46091H383.324M413.46 1.46091L412.966 1.64727L409.457 2.96909M358.03 0H328.379M358.03 0L353.188 1.46091M383.324 1.46091H353.188M383.324 1.46091L382.212 1.83364L381.652 2.02091L378.821 2.96909M328.379 0H298.727M328.379 0L323.052 1.46091M353.188 1.46091H323.052M298.727 0H269.075M298.727 0L292.916 1.46091M323.052 1.46091H292.916M323.052 1.46091L321.694 1.83364L321.009 2.02L317.548 2.96909M269.075 0H239.425M269.075 0L262.781 1.46091M292.916 1.46091H262.781M292.916 1.46091L292.176 1.64727L286.912 2.96909M239.425 0H209.774M239.425 0L232.645 1.46091M262.781 1.46091H232.645M262.781 1.46091L261.175 1.83364L260.366 2.02091L256.276 2.96909M209.774 0H180.121M209.774 0L202.509 1.46091M232.645 1.46091H202.509M232.645 1.46091L225.64 2.97M180.121 0H150.47M180.121 0L172.373 1.46091M202.509 1.46091H172.373M202.509 1.46091L200.656 1.83364L195.004 2.97M150.47 0H120.818M150.47 0L142.237 1.46091M172.373 1.46091H142.237M172.373 1.46091L170.397 1.83364L169.402 2.02091L164.368 2.97M120.818 0H91.1664M120.818 0L112.102 1.46091M142.237 1.46091H112.102M142.237 1.46091L133.732 2.97M91.1664 0H61.5155M91.1664 0L81.9664 1.46091M112.102 1.46091H81.9664M112.102 1.46091L103.095 2.97M61.5155 0H31.8636M61.5155 0L51.8309 1.46091M81.9664 1.46091H51.8309M81.9664 1.46091L72.4591 2.97M31.8636 0H28.1636L24.5018 0.00363636L20.9155 0.0127273L17.4427 0.0309091L14.12 0.0581818L10.9836 0.100909L8.07 0.160909L5.36545 0.236364L3.04545 0.340909L0.932727 0.463636L0.352727 0.505455V1.46V2.96909M31.8636 0L21.6945 1.46091M51.8309 1.46091H21.6945M21.6945 1.46091L11.1873 2.97M21.6945 1.46091H0.352727M72.4591 2.97L62.6318 4.53M72.4591 2.97H103.095M72.4591 2.97H41.8227L49.3591 1.83273L51.8309 1.46M103.095 2.97L93.7855 4.52909M103.095 2.97H133.732M195.004 2.97L187.245 4.52909M195.004 2.97H225.64M195.004 2.97H164.368M225.64 2.97L218.399 4.52909M225.64 2.97L256.276 2.96909M317.548 2.96909L311.859 4.52909M317.548 2.96909L348.185 2.97M317.548 2.96909H286.912M353.188 1.46L352.571 1.64636L351.953 1.83364L348.185 2.97M348.185 2.97L344.973 3.93818L343.012 4.52909M348.185 2.97L378.821 2.96909M440.093 2.96909L436.472 4.52909M440.093 2.96909H470.729M440.093 2.96909H409.457M473.731 1.46H443.595H413.46M473.731 1.46L472.99 1.83273L472.616 2.02L472.243 2.20909L470.729 2.96909M473.731 1.46H503.866M470.729 2.96909L468.802 3.93818L467.625 4.52909M470.729 2.96909H501.365M564.138 1.46H594.274M564.138 1.46H534.002M564.138 1.46L562.637 2.96909M594.274 1.46L594.151 1.64636L594.027 1.83364L593.903 2.02L593.526 2.58727L593.274 2.96909M562.637 2.96909L562.254 3.35455L561.674 3.93818L561.282 4.33091L561.085 4.52909M562.637 2.96909H593.274M562.637 2.96909H532.001M593.274 2.96909L592.889 3.54818L592.37 4.33091L592.239 4.52909M593.274 2.96909L623.909 2.97091M714.817 1.46L714.94 1.64636L715.064 1.83364L715.188 2.02L715.817 2.96909M714.817 1.46H744.953M685.182 2.96909L685.245 3.16273L685.309 3.35545L685.374 3.54909L685.438 3.74364L685.504 3.93909L685.699 4.52909M685.182 2.96909H715.817M685.182 2.96909H654.545M715.817 2.96909L716.202 3.54818L716.721 4.33091L716.852 4.52909M715.817 2.96909H746.454M805.225 1.46H835.36M805.225 1.46H775.089M805.225 1.46L805.842 1.83273L807.093 2.58727L807.408 2.77818L807.726 2.96909M835.36 1.46L836.101 1.83273L836.475 2.02L836.849 2.20909L838.362 2.96909M835.36 1.46H865.495M807.726 2.96909L808.365 3.35455L810.313 4.52909M807.726 2.96909H838.362M807.726 2.96909H777.089M838.362 2.96909L840.289 3.93818L841.465 4.52909M838.362 2.96909H868.998M925.764 1.46H955.9L956.518 1.64636L957.136 1.83364L960.909 2.97M925.764 1.46H895.631M925.764 1.46L926.882 1.83273L927.436 2.02L930.273 2.96909M930.273 2.96909L934.336 4.33091L934.927 4.52909M930.273 2.96909L960.909 2.97M930.273 2.96909H899.635M960.909 2.97L964.118 3.93818L966.082 4.52909M960.909 2.97L991.545 2.96909M1052.82 2.96909L1059.54 4.52909M1052.82 2.96909H1083.45M1052.82 2.96909H1022.18M1083.45 2.96909L1076.45 1.46H1106.58M1083.45 2.96909L1090.69 4.52909M1083.45 2.96909H1114.09M1106.58 1.46L1108.44 1.83273L1114.09 2.96909M1106.58 1.46H1136.72M1166.85 1.46H1196.99M1166.85 1.46H1136.72M1166.85 1.46L1175.35 2.96909M1196.99 1.46L1206 2.96909M1196.99 1.46H1227.13M1136.72 1.46L1138.69 1.83273L1139.69 2.02L1144.73 2.96909M1175.35 2.96909L1184.15 4.52909M1175.35 2.96909H1144.73M1175.35 2.96909H1206M1206 2.96909L1215.31 4.52909M1206 2.96909H1236.63M1227.13 1.46L1236.63 2.96909M1227.13 1.46H1257.26L1259.73 1.83273L1267.26 2.96909M0.246364 15.12H0.352727M30.5791 15.12L42.0845 13.1927M30.5791 15.12L18.6318 17.1218M30.5791 15.12H65.2427L99.9082 15.1191M30.5791 15.12H0.351818M42.0845 13.1927H8.05909L19.7636 11.3345M42.0845 13.1927L53.1736 11.3345L63.8682 9.54182M42.0845 13.1927H76.1091M0.352727 13.1918H8.05909L0.352727 14.4145M0.352727 13.1918V14.4136V15.1182V17.1209V19.2M0.352727 13.1918V11.3327V9.54091V9.22182V7.81273M41.9455 7.81273H74.1882M41.9455 7.81273L52.4664 6.14273M41.9455 7.81273H9.70545M41.9455 7.81273L31.0527 9.54182M74.1882 7.81273L84.1545 6.14273M74.1882 7.81273L63.8682 9.54182M74.1882 7.81273H106.431M52.4664 6.14273H84.1545M52.4664 6.14273L62.6309 4.52909M52.4664 6.14273H20.7791M9.70545 7.81273L20.7791 6.14273M9.70545 7.81273H0.352727M9.70545 7.81273L0.352727 9.22273M31.0527 9.54182H63.8682M31.0527 9.54182L19.7645 11.3336M31.0527 9.54182H0.352727M84.1545 6.14273H115.844M84.1545 6.14273L93.7855 4.52909M63.8682 9.54182L96.6836 9.54273M20.7791 6.14273L31.4791 4.52909M20.7791 6.14273H0.351818M115.844 6.14273L106.431 7.81364M115.844 6.14273H147.532M115.844 6.14273L124.939 4.53M93.7855 4.52909L124.939 4.53M93.7855 4.52909L62.6318 4.53M0.02 45.5455H0.352727M0.352727 45.5455H27.9909M0.352727 45.5455V42.3491M0.352727 45.5455V48.9018V51.5M27.9909 45.5455L42.8273 42.3491M27.9909 45.5455L12.4182 48.9M27.9909 45.5455H72.7455M42.8273 42.3491L56.9782 39.3018M42.8273 42.3491H86.5218M42.8273 42.3491H0.352727M12.4182 48.9H58.2836M12.4182 48.9H0.352727M12.4182 48.9L0.352727 51.5M72.7455 45.5455L86.5218 42.3491M72.7455 45.5455L58.2836 48.9M72.7455 45.5455H117.499M56.9782 39.3018H14.2945M56.9782 39.3018L70.4882 36.3918M56.9782 39.3018L99.6618 39.3009M86.5218 42.3491L99.6618 39.3009M86.5218 42.3491H130.216M0.352727 42.3491V42.1045M14.2945 39.3018L28.77 36.3909M14.2945 39.3018H0.352727M14.2945 39.3018L0.352727 42.1045M28.77 36.3909L42.6045 33.61M28.77 36.3909L70.4882 36.3918M0.352727 39.3018V42.1045M0.352727 39.3018V36.3909V33.8845M42.6045 33.61H83.4009M42.6045 33.61L55.8409 30.9482M42.6045 33.61H1.80909M83.4009 33.61L95.7555 30.9482M83.4009 33.61L70.4882 36.3918M83.4009 33.61H124.197M55.8409 30.9482H95.7555M55.8409 30.9482H15.9273M55.8409 30.9482L68.5182 28.4M1.80909 33.61L15.9273 30.9482M1.80909 33.61L0.352727 33.6091M1.80909 33.61L0.352727 33.8845M95.7555 30.9482L107.586 28.4M95.7555 30.9482H135.669M70.4882 36.3918H112.206M124.197 33.61L135.669 30.9482M124.197 33.61L112.206 36.3918M124.197 33.61H164.993M15.9273 30.9482L29.45 28.4M15.9273 30.9482H0.352727M68.5182 28.4H107.586M68.5182 28.4H29.45M68.5182 28.4L80.6682 25.9573M107.586 28.4L118.927 25.9573M107.586 28.4H146.655M135.669 30.9482L146.655 28.4M135.669 30.9482H175.583M92.3255 23.6136H129.806M92.3255 23.6136L103.518 21.3627M92.3255 23.6136H54.8436M92.3255 23.6136L80.6682 25.9573M129.806 23.6136L140.253 21.3627M129.806 23.6136L118.927 25.9573M129.806 23.6136H167.288M103.518 21.3627H140.253M103.518 21.3627H66.7827M103.518 21.3627L114.274 19.2009M54.8436 23.6136H17.3636M54.8436 23.6136L66.7827 21.3627M54.8436 23.6136L42.41 25.9573M80.6682 25.9573H118.927M80.6682 25.9573H42.41M140.253 21.3627L150.292 19.2009M140.253 21.3627H176.988M118.927 25.9573H157.185M167.288 23.6136L176.988 21.3627M167.288 23.6136L157.185 25.9573M167.288 23.6136H204.769M66.7827 21.3627H30.0491M114.274 19.2009H150.292M114.274 19.2009H78.2555M114.274 19.2009L124.617 17.1209M150.292 19.2009L159.946 17.1209M150.292 19.2009H186.31M176.988 21.3627L186.31 19.2009M176.988 21.3627H213.724M134.573 15.1191H169.238M134.573 15.1191L144.161 13.1918M134.573 15.1191H99.9082M134.573 15.1191L124.617 17.1209M169.238 15.1191L178.186 13.1918M169.238 15.1191L159.946 17.1209M169.238 15.1191H203.903M144.161 13.1918H178.186M144.161 13.1918H110.135M144.161 13.1918L153.402 11.3336M99.9082 15.1191L110.135 13.1918M99.9082 15.1191L89.29 17.1209H124.617M124.617 17.1209H159.946M178.186 13.1918L186.812 11.3336M178.186 13.1918H212.212M159.946 17.1209H195.275M203.903 15.1191L212.212 13.1918M203.903 15.1191L195.275 17.1209M203.903 15.1191H238.567M110.135 13.1918H76.11M110.135 13.1918L119.993 11.3336M153.402 11.3336H186.812M153.402 11.3336H119.993M153.402 11.3336L162.315 9.54182M186.812 11.3336L195.129 9.54182M186.812 11.3336H220.221M212.212 13.1918L220.221 11.3336M212.212 13.1918H246.238M170.915 7.81273H203.157M170.915 7.81273L179.22 6.14273M170.915 7.81273H138.674M170.915 7.81273L162.315 9.54182M203.157 7.81273L210.908 6.14273M203.157 7.81273L195.129 9.54182M203.157 7.81273H235.399M179.22 6.14273H210.908M179.22 6.14273L187.245 4.52909M179.22 6.14273H147.532M162.315 9.54182H195.129M162.315 9.54182H129.499M210.908 6.14273H242.597M210.908 6.14273L218.399 4.52909M195.129 9.54182H227.945M235.399 7.81273L242.597 6.14273M235.399 7.81273L227.945 9.54182M235.399 7.81273H267.641M187.245 4.52909H218.399M187.245 4.52909L156.092 4.53M147.532 6.14273L138.674 7.81364M147.532 6.14273L156.092 4.53M242.597 6.14273H274.285M242.597 6.14273L249.552 4.52909M218.399 4.52909H249.552M23.2809 100.955L44.1627 94.6573M23.2809 100.955L0.92 107.698M23.2809 100.955H86.4082M23.2809 100.955H0.352727M44.1627 94.6573L63.7073 88.7627M44.1627 94.6573H105.2M44.1627 94.6573H0.352727M0.92 107.698L66.2827 107.697M0.92 107.698L0.352727 107.697M0.92 107.698L0.352727 107.868M0.352727 100.955V107.697M0.352727 100.955V94.6573M63.7073 88.7627L82.0382 83.2336L99.2664 78.0373M63.7073 88.7627H122.791M63.7073 88.7627H4.62273M105.2 94.6573L122.791 88.7627M105.2 94.6573L86.4073 100.955M105.2 94.6573L166.239 94.6564M0.352727 94.6573V89.9327M43.7382 78.0391H99.2664M43.7382 78.0391L61.5818 73.1455M43.7382 78.0391L24.7873 83.2336H0.352727M43.7382 78.0373H0.352727M99.2664 78.0373L115.487 73.1464M99.2664 78.0373H154.795M115.487 73.1464L61.5818 73.1473M115.487 73.1464L130.789 68.5318M115.487 73.1464H169.394M154.795 78.0373L169.394 73.1464M154.795 78.0373L139.288 83.2346M154.795 78.0373L210.323 78.0382M61.5818 73.1473H7.67636L26.0373 68.5318M61.5818 73.1473L78.4136 68.5318H130.789M130.789 68.5318L145.245 64.1727M130.789 68.5318L183.165 68.5309M169.394 73.1464L183.165 68.5309M169.394 73.1464H223.299M109.362 60.0464H158.925M109.362 60.0464L123.623 56.1373M109.362 60.0464H59.8M109.362 60.0464L94.3146 64.1727M158.925 60.0464L171.888 56.1382M158.925 60.0464L145.245 64.1727M158.925 60.0464L208.486 60.0473L258.048 60.0455M123.623 56.1373L171.888 56.1382M123.623 56.1373L75.3573 56.1382L59.8 60.0464M123.623 56.1373L137.155 52.4273M59.8 60.0464L10.2373 60.0455M59.8 60.0464L43.3845 64.1727M94.3146 64.1727H145.245M94.3146 64.1727H43.3845M171.888 56.1382L184.192 52.4273M171.888 56.1382L220.154 56.1373M145.245 64.1727L196.175 64.1718M137.155 52.4273H184.192M137.155 52.4273L90.1209 52.4264M137.155 52.4273L150.016 48.9M184.192 52.4273L195.883 48.9M184.192 52.4273L231.226 52.4264M220.154 56.1373L231.226 52.4264M220.154 56.1373L208.486 60.0455L196.175 64.1718M220.154 56.1373H268.42M162.253 45.5455H207.007M162.253 45.5455L173.91 42.3491M162.253 45.5455H117.499M162.253 45.5455L150.016 48.9M207.007 45.5455L217.605 42.3491M207.007 45.5455L195.883 48.9M207.007 45.5455H251.761M173.91 42.3491H217.605M173.91 42.3491H130.216M173.91 42.3491L185.028 39.3018M117.499 45.5455L130.216 42.3491M117.499 45.5455L104.15 48.9H150.016M150.016 48.9H195.883M217.605 42.3491L227.712 39.3018M217.605 42.3491H261.298M195.883 48.9H241.749M251.761 45.5455L261.298 42.3491M251.761 45.5455L241.749 48.9M251.761 45.5455H296.515M130.216 42.3491L142.345 39.3018M185.028 39.3018H227.712M185.028 39.3018H142.345M185.028 39.3018L195.644 36.3918M227.712 39.3018L237.362 36.3918M227.712 39.3018L270.395 39.3009M261.298 42.3491L270.395 39.3009M261.298 42.3491H304.993M205.789 33.6091H246.585M205.789 33.6091L215.496 30.9482M205.789 33.6091L164.993 33.61M205.789 33.6091L195.644 36.3918M246.585 33.6091L255.41 30.9482M246.585 33.6091L237.362 36.3918M246.585 33.6091L287.381 33.61M215.496 30.9482H255.41M215.496 30.9482H175.583M215.496 30.9482L224.792 28.4M164.993 33.61L175.583 30.9482M164.993 33.61L153.925 36.3909M195.644 36.3918H237.362M195.644 36.3918L153.925 36.3909M255.41 30.9482L263.861 28.4M255.41 30.9482H295.324M237.362 36.3918H279.08M287.381 33.61L295.324 30.9482M287.381 33.61L279.08 36.3918M287.381 33.61H328.177M175.583 30.9482L185.724 28.4M224.792 28.4H263.861M224.792 28.4H185.724M224.792 28.4L233.703 25.9573M263.861 28.4L271.961 25.9573M263.861 28.4H302.929M295.324 30.9482L302.929 28.4M295.324 30.9482H335.236M242.251 23.6136H279.732M242.251 23.6136L250.458 21.3627M242.251 23.6136H204.769M242.251 23.6136L233.703 25.9573M279.732 23.6136L280.682 23.3273L287.194 21.3636M279.732 23.6136L271.961 25.9573M279.732 23.6136H317.214M250.458 21.3627L287.194 21.3636M250.458 21.3627H213.724M250.458 21.3627L258.346 19.2009M204.769 23.6136L213.724 21.3627M204.769 23.6136L195.444 25.9573M233.703 25.9573H271.961M233.703 25.9573H195.444M287.194 21.3636L294.365 19.2009M287.194 21.3636L323.929 21.3627M271.961 25.9573H310.219M317.214 23.6136L323.929 21.3627M317.214 23.6136L310.219 25.9573M317.214 23.6136H354.695M213.724 21.3627L222.328 19.2009M258.346 19.2009H294.365M258.346 19.2009H222.328M258.346 19.2009L265.932 17.1209M294.365 19.2009L300.413 17.3764L301.26 17.1209M294.365 19.2009H330.383M323.929 21.3627L330.383 19.2009M323.929 21.3627H360.665M273.232 15.1191H307.897M273.232 15.1191L280.264 13.1918M273.232 15.1191H238.567M273.232 15.1191L265.932 17.1209M307.897 15.1191L314.289 13.1918M307.897 15.1191L305.438 15.8609L301.26 17.1209M307.897 15.1191H342.562M280.264 13.1918H314.289M280.264 13.1918H246.238M280.264 13.1918L287.04 11.3336M238.567 15.1191L245.295 13.4282L246.238 13.1918M238.567 15.1191L230.603 17.1209M265.932 17.1209H301.26M265.932 17.1209H230.603M314.289 13.1918L320.45 11.3336M314.289 13.1918H348.315M301.26 17.1209H336.588M342.562 15.1191L348.315 13.1918M342.562 15.1191L341.089 15.6127L336.588 17.1209M342.562 15.1191H377.227M246.238 13.1918L253.631 11.3336M287.04 11.3336H320.45M287.04 11.3336H253.631M287.04 11.3336L293.576 9.54182M320.45 11.3336L326.391 9.54182M320.45 11.3336H353.859M348.315 13.1918L353.859 11.3336M348.315 13.1918H382.341M299.883 7.81273H332.125M299.883 7.81273L305.974 6.14273M299.883 7.81273H267.641M299.883 7.81273L293.576 9.54182M332.125 7.81273L336.296 6.55455L336.98 6.34818L337.663 6.14273M332.125 7.81273L326.391 9.54182M332.125 7.81273H364.367M305.974 6.14273H337.663M305.974 6.14273L311.859 4.52909M305.974 6.14273H274.285M267.641 7.81273L274.285 6.14273M267.641 7.81273L260.761 9.54182M293.576 9.54182H326.391M293.576 9.54182H260.761M337.663 6.14273H369.351M337.663 6.14273L343.012 4.52909M326.391 9.54182H359.206M364.367 7.81273L369.351 6.14273M364.367 7.81273L359.206 9.54182M364.367 7.81273H396.609M311.859 4.52909H343.012M311.859 4.52909H280.705M274.285 6.14273L280.705 4.52909M369.351 6.14273H401.039M369.351 6.14273L374.165 4.52909M343.012 4.52909H374.165M46.1527 172.689H133.066M46.1527 172.689L73.52 160.899M46.1527 172.689L16.08 185.645M46.1527 172.689H0.352727M133.066 172.689L156.524 160.899M133.066 172.689L107.29 185.645M133.066 172.689H219.979M73.52 160.899H156.524M73.52 160.899L98.5309 150.124M73.52 160.899H0.352727M16.08 185.645H107.29M16.08 185.645L0.352727 192.422M16.08 185.645H0.352727M0.352727 172.689V185.645M0.352727 172.689V160.899M156.524 160.899L177.962 150.124M156.524 160.899H239.527M107.29 185.645L78.8327 199.949M107.29 185.645H198.499M219.979 172.689L239.527 160.899M219.979 172.689L198.499 185.645M219.979 172.689H306.893M98.5309 150.124H177.962M98.5309 150.124H19.1M98.5309 150.124L121.477 140.237M0.352727 160.899V157.191M177.962 150.124L197.63 140.237M177.962 150.124H257.393M239.527 160.899L257.393 150.124M239.527 160.899H322.531M142.605 131.135H215.74M142.605 131.135L162.122 122.726M142.605 131.135H69.4709M142.605 131.135L121.477 140.237M215.74 131.135L232.468 122.726M215.74 131.135L197.63 140.237M215.74 131.135H288.874M162.122 122.726H232.468M162.122 122.726H91.7755M162.122 122.726L180.205 114.936M69.4709 131.135L91.7755 122.726M69.4709 131.135L45.3255 140.237M69.4709 131.135H0.352727M121.477 140.237H197.63M121.477 140.237H45.3255M232.468 122.726L247.968 114.936M232.468 122.726H302.815M197.63 140.237H273.783M288.874 131.135L302.815 122.726M288.874 131.135L273.783 140.237M288.874 131.135H362.008M91.7755 122.726H21.43M91.7755 122.726L112.443 114.936M180.205 114.936H247.968M180.205 114.936H112.443M180.205 114.936L197.007 107.697M247.968 114.936L262.37 107.697M247.968 114.936H315.731M302.815 122.726L315.731 114.936M302.815 122.726H373.161M212.661 100.954H275.786M212.661 100.954L227.277 94.6564M212.661 100.954H149.534M212.661 100.954L197.007 107.697M275.786 100.954L288.315 94.6564M275.786 100.954L262.37 107.697M275.786 100.954H338.913M227.277 94.6564H288.315M227.277 94.6564H166.239M227.277 94.6564L240.958 88.7618M149.534 100.954L86.4073 100.955M149.534 100.954L166.239 94.6564M149.534 100.954L131.645 107.697M197.007 107.697H262.37M197.007 107.697H131.645M288.315 94.6564L300.043 88.7618M288.315 94.6564H349.355M262.37 107.697H327.733M338.913 100.954L349.355 94.6564M338.913 100.954L327.733 107.697M338.913 100.954H402.04M166.239 94.6564L181.875 88.7627M240.958 88.7618H300.043M240.958 88.7618L181.875 88.7627M240.958 88.7618L253.79 83.2355H311.041L368.292 83.2346M300.043 88.7618L311.041 83.2336L321.378 78.0382M300.043 88.7618L359.126 88.7627M349.355 94.6564L359.126 88.7627M349.355 94.6564H410.393M265.85 78.0382H321.378M265.85 78.0382L277.205 73.1455M265.85 78.0382H210.323M265.85 78.0382L253.79 83.2336H196.539L210.323 78.0382M321.378 78.0382L331.111 73.1464M321.378 78.0382L376.906 78.0373M277.205 73.1455L331.111 73.1464M277.205 73.1455L223.299 73.1464M277.205 73.1455L287.915 68.5309M210.323 78.0382L223.299 73.1464M331.111 73.1464L340.292 68.5309M331.111 73.1464L385.016 73.1455M376.906 78.0373L385.016 73.1455M376.906 78.0373L368.292 83.2346M376.906 78.0373L432.434 78.0382M287.915 68.5309H340.292M287.915 68.5309H235.54M287.915 68.5309L298.035 64.1718M340.292 68.5309L348.965 64.1718M340.292 68.5309H392.667M385.016 73.1455L392.667 68.5309M385.016 73.1455L438.923 73.1464M307.611 60.0455H357.173M307.611 60.0455L316.685 56.1364M307.611 60.0455H258.048M307.611 60.0455L298.035 64.1718M357.173 60.0455L364.951 56.1373M357.173 60.0455L348.965 64.1718M357.173 60.0455L406.735 60.0464M316.685 56.1364L364.951 56.1373M316.685 56.1364L268.42 56.1373M316.685 56.1364L325.297 52.4264M258.048 60.0455L268.42 56.1373M258.048 60.0455L247.105 64.1727M298.035 64.1718H348.965M298.035 64.1718L247.105 64.1727M364.951 56.1373L372.333 52.4264M364.951 56.1373L413.217 56.1364M348.965 64.1718H399.895M406.735 60.0464L413.217 56.1364M406.735 60.0464L399.895 64.1718M406.735 60.0464L456.297 60.0455M268.42 56.1373L278.263 52.4264M325.297 52.4264H372.333M325.297 52.4264H278.263M325.297 52.4264L333.482 48.9M372.333 52.4264L379.347 48.9M372.333 52.4264H419.368M413.217 56.1364L419.368 52.4264M413.217 56.1364L461.483 56.1373M341.269 45.5455H386.023M341.269 45.5455L348.687 42.3491M341.269 45.5455H296.515M341.269 45.5455L333.482 48.9M386.023 45.5455L392.381 42.3491M386.023 45.5455L379.347 48.9M386.023 45.5455H430.776M348.687 42.3491H392.381M348.687 42.3491H304.993M348.687 42.3491L355.762 39.3018M296.515 45.5455L304.993 42.3491M296.515 45.5455L287.615 48.9M333.482 48.9H379.347M333.482 48.9H287.615M392.381 42.3491L398.445 39.3018M392.381 42.3491H436.075M379.347 48.9H425.214M430.776 45.5455L436.075 42.3491M430.776 45.5455L425.214 48.9M430.776 45.5455H475.53M304.993 42.3491L313.078 39.3009M355.762 39.3018H398.445M355.762 39.3018L313.078 39.3009M355.762 39.3018L362.517 36.39H404.235M398.445 39.3018L404.235 36.39M398.445 39.3018L441.128 39.3009M436.075 42.3491L439.262 40.4273L441.128 39.3009M436.075 42.3491H479.769M368.973 33.6091H409.77M368.973 33.6091L375.151 30.9482M368.973 33.6091L328.177 33.61M368.973 33.6091L362.517 36.3918L320.798 36.3909M409.77 33.6091L415.064 30.9482M409.77 33.6091L404.235 36.3918M409.77 33.6091L450.565 33.61M375.151 30.9482H415.064M375.151 30.9482H335.236M375.151 30.9482L381.066 28.4M328.177 33.61L335.236 30.9482M328.177 33.61L320.798 36.3909M415.064 30.9482L420.135 28.4M415.064 30.9482H454.978M450.565 33.61L454.978 30.9482M450.565 33.61L449.432 34.2927L445.954 36.39M335.236 30.9482L341.997 28.3991M381.066 28.4H420.135M381.066 28.4L341.997 28.3991M381.066 28.4L386.735 25.9573M420.135 28.4L422.59 27.1645L424.995 25.9573M420.135 28.4L459.203 28.3991M454.978 30.9482L459.203 28.3991M454.978 30.9482H494.891M392.175 23.6136H429.658M392.175 23.6136L397.399 21.3627M392.175 23.6136H354.695M392.175 23.6136L386.735 25.9573M429.658 23.6136L429.085 23.9009L424.995 25.9573M429.658 23.6136L434.135 21.3627M429.658 23.6136H467.139M397.399 21.3627H434.135M397.399 21.3627H360.665M397.399 21.3627L402.419 19.2009M354.695 23.6136L360.665 21.3627M354.695 23.6136L348.478 25.9564M386.735 25.9573H424.995M386.735 25.9573L348.478 25.9564M424.995 25.9573L463.254 25.9564M434.135 21.3627L438.437 19.2009M434.135 21.3627H470.87M467.139 23.6136L470.87 21.3618M467.139 23.6136L463.254 25.9564M467.139 23.6136H504.62M360.665 21.3627L366.401 19.2009M402.419 19.2009H438.437M402.419 19.2009H366.401M402.419 19.2009L407.246 17.1209M438.437 19.2009L442.575 17.1209M438.437 19.2009L474.455 19.2M411.892 15.1191H446.556M411.892 15.1191L416.366 13.1918M411.892 15.1191H377.227M411.892 15.1191L407.246 17.1209M446.556 15.1191L450.392 13.1918M446.556 15.1191L445.081 15.8609L444.085 16.3609L442.575 17.1209M446.556 15.1191H481.221M416.366 13.1918H450.392M416.366 13.1918H382.341M416.366 13.1918L420.678 11.3336M377.227 15.1191L382.341 13.1918M377.227 15.1191L371.917 17.12M407.246 17.1209H442.575M407.246 17.1209L371.917 17.12M450.392 13.1918L451.794 12.4873L452.718 12.0227L454.088 11.3336M450.392 13.1918H484.417M442.575 17.1209H477.903M481.221 15.1191L482.032 14.63L484.417 13.1918M481.221 15.1191L480.814 15.3645L480.404 15.6127L479.163 16.3609L478.744 16.6127L477.903 17.1209M481.221 15.1191H515.885M382.341 13.1918L387.269 11.3336M420.678 11.3336H454.088M420.678 11.3336H387.269M420.678 11.3336L423.812 9.98364L424.838 9.54182M454.088 11.3336L455.886 10.43L457.653 9.54182M454.088 11.3336H487.498M484.417 13.1918L484.809 12.9555L485.198 12.7209L486.738 11.7918L487.498 11.3336M484.417 13.1918H518.444M428.852 7.81273H461.093M428.852 7.81273L431.771 6.55455L432.727 6.14273M428.852 7.81273H396.609M428.852 7.81273L425.347 9.32182L424.838 9.54182M461.093 7.81273L463.596 6.55455L464.006 6.34818L464.415 6.14273M461.093 7.81273L459.388 8.66909L457.653 9.54182M461.093 7.81273H493.335M432.727 6.14273H464.415M432.727 6.14273L436.472 4.52909M432.727 6.14273H401.039M396.609 7.81273L401.039 6.14273M396.609 7.81273L392.022 9.54182M424.838 9.54182H457.653M424.838 9.54182H392.022M464.415 6.14273H496.104M464.415 6.14273L467.625 4.52909M457.653 9.54182H490.468M493.335 7.81273L496.104 6.14273M493.335 7.81273L490.468 9.54182M493.335 7.81273H525.577M436.472 4.52909H467.625M436.472 4.52909H405.319M401.039 6.14273L404.263 4.92727L405.319 4.52909M496.104 6.14273H527.792M496.104 6.14273L498.118 4.92727L498.779 4.52909M467.625 4.52909H498.779M393.805 172.689H480.719M393.805 172.689L405.535 160.899M393.805 172.689H306.893M393.805 172.689L380.917 185.645M480.719 172.689L488.538 160.899M480.719 172.689L472.127 185.645M480.719 172.689H567.633M405.535 160.899H488.538M405.535 160.899H322.531M405.535 160.899L416.254 150.124M306.893 172.689L322.531 160.899M306.893 172.689L289.708 185.645M380.917 185.645H472.127M380.917 185.645L366.689 199.949M380.917 185.645H289.708M488.538 160.899L495.685 150.124M488.538 160.899H571.542M472.127 185.645L462.641 199.949M472.127 185.645H563.336M567.633 172.689L571.542 160.899M567.633 172.689L563.336 185.645M567.633 172.689H654.545M322.531 160.899L336.823 150.124M416.254 150.124H495.685M416.254 150.124H336.823M416.254 150.124L426.087 140.237M495.685 150.124L502.241 140.237M495.685 150.124H575.115M571.542 160.899L575.115 150.124M571.542 160.899H654.545M435.143 131.135H508.276M435.143 131.135L443.507 122.726M435.143 131.135H362.008M435.143 131.135L426.087 140.237M508.276 131.135L513.853 122.726M508.276 131.135L502.241 140.237M508.276 131.135H581.412M443.507 122.726H513.853M443.507 122.726H373.161M443.507 122.726L451.257 114.936M362.008 131.135L373.161 122.726M362.008 131.135L349.935 140.237M426.087 140.237H502.241M426.087 140.237H349.935M513.853 122.726L519.02 114.936M513.853 122.726H584.199M502.241 140.237H578.393M581.412 131.135L584.199 122.726M581.412 131.135L578.393 140.237M581.412 131.135H654.545M373.161 122.726L383.495 114.936M451.257 114.936H519.02M451.257 114.936H383.495M451.257 114.936L458.458 107.697M519.02 114.936L523.821 107.697M519.02 114.936H586.783M584.199 122.726L586.783 114.936M584.199 122.726H654.545M465.166 100.954H528.293M465.166 100.954L471.431 94.6564M465.166 100.954H402.04M465.166 100.954L458.458 107.697M528.293 100.954L532.469 94.6564M528.293 100.954L523.821 107.697M528.293 100.954H591.419M471.431 94.6564H532.469M471.431 94.6564H410.393M471.431 94.6564L477.294 88.7618M402.04 100.954L410.393 94.6564M402.04 100.954L393.095 107.697M458.458 107.697H523.821M458.458 107.697H393.095M532.469 94.6564L536.378 88.7618M532.469 94.6564H593.507M523.821 107.697H589.183M591.419 100.954L593.507 94.6564M591.419 100.954L589.183 107.697M591.419 100.954H654.545M410.393 94.6564L418.21 88.7627M477.294 88.7618H536.378M477.294 88.7618L418.21 88.7627M477.294 88.7618L482.794 83.2355H540.044L597.295 83.2346M536.378 88.7618L540.044 83.2336L543.489 78.0382M536.378 88.7618L595.462 88.7627M593.507 94.6564L595.462 88.7627M593.507 94.6564H654.545M487.962 78.0382H543.489M487.962 78.0382L492.828 73.1455M487.962 78.0382H432.434M487.962 78.0382L482.794 83.2336H425.543L432.434 78.0382M543.489 78.0382L546.734 73.1464M543.489 78.0382L599.017 78.0373M492.828 73.1455L546.734 73.1464M492.828 73.1455L438.923 73.1464M492.828 73.1455L497.418 68.5309M432.434 78.0382L438.923 73.1464M546.734 73.1464L549.795 68.5309M546.734 73.1464L600.64 73.1455M599.017 78.0373L600.64 73.1455M599.017 78.0373L597.295 83.2346M599.017 78.0373L654.545 78.0382M438.923 73.1464L445.043 68.5309M497.418 68.5309H549.795M497.418 68.5309H445.043M497.418 68.5309L501.755 64.1718M549.795 68.5309L552.685 64.1718M549.795 68.5309H602.17M600.64 73.1455L602.17 68.5309M600.64 73.1455L654.545 73.1464M505.859 60.0455H555.422M505.859 60.0455L509.748 56.1364M505.859 60.0455H456.297M505.859 60.0455L501.755 64.1718M555.422 60.0455L558.014 56.1373M555.422 60.0455L552.685 64.1718M555.422 60.0455L604.984 60.0464M509.748 56.1364L558.014 56.1373M509.748 56.1364L461.483 56.1373M509.748 56.1364L513.439 52.4264M456.297 60.0455L461.483 56.1373M456.297 60.0455L450.825 64.1727M501.755 64.1718H552.685M501.755 64.1718L450.825 64.1727M558.014 56.1373L560.475 52.4264M558.014 56.1373L606.28 56.1364M552.685 64.1718H603.615M604.984 60.0464L606.28 56.1364M604.984 60.0464L603.615 64.1718M604.984 60.0464L654.545 60.0455M461.483 56.1373L466.404 52.4264M513.439 52.4264H560.475M513.439 52.4264H466.404M513.439 52.4264L516.947 48.9M560.475 52.4264L562.813 48.9M560.475 52.4264H607.51M606.28 56.1364L607.51 52.4264M606.28 56.1364L654.545 56.1373M520.284 45.5455H565.037M520.284 45.5455L523.463 42.3491M520.284 45.5455H475.53M520.284 45.5455L516.947 48.9M565.037 45.5455L567.157 42.3491M565.037 45.5455L562.813 48.9M565.037 45.5455H609.792M523.463 42.3491H567.157M523.463 42.3491H479.769M523.463 42.3491L524.617 41.19L526.495 39.3018M475.53 45.5455L479.769 42.3491M475.53 45.5455L471.08 48.9M516.947 48.9H562.813M516.947 48.9H471.08M567.157 42.3491L569.179 39.3018M567.157 42.3491H610.852M562.813 48.9H608.679M609.792 45.5455L610.852 42.3491M609.792 45.5455L608.679 48.9M609.792 45.5455H654.545M479.769 42.3491L483.812 39.3018M526.495 39.3018H569.179M526.495 39.3018H483.812M526.495 39.3018L529.39 36.3909M569.179 39.3018L571.108 36.3918M569.179 39.3018L611.862 39.3009M610.852 42.3491L611.862 39.3009M610.852 42.3491H654.545M532.157 33.6091H572.954M532.157 33.6091L534.805 30.9482M532.157 33.6091L491.361 33.61M532.157 33.6091L530.095 35.6845L529.39 36.3909M572.954 33.6091L573.625 32.5982L574.718 30.9482M572.954 33.6091L571.108 36.3918M572.954 33.6091L613.75 33.61M534.805 30.9482L535.127 30.6236L537.34 28.4M534.805 30.9482H574.718M534.805 30.9482H494.891M491.361 33.61L494.891 30.9482M491.361 33.61L490.909 33.95L489.537 34.9836L487.672 36.3909M529.39 36.3909L571.108 36.3918M529.39 36.3909H487.672M574.718 30.9482L575.361 29.98L575.572 29.66L575.784 29.3427L576.408 28.4M574.718 30.9482H614.632M571.108 36.3918H612.827M613.75 33.61L614.632 30.9482M613.75 33.61L612.827 36.3918M613.75 33.61H654.545M537.34 28.4H576.408M537.34 28.4L498.272 28.3991M537.34 28.4L539.77 25.9573M494.891 30.9482L498.272 28.3991M576.408 28.4L615.477 28.3991M614.632 30.9482L614.739 30.6227L615.477 28.3991M614.632 30.9482H654.545M542.101 23.6136H579.583M542.101 23.6136L543.232 22.4773L543.511 22.1955L543.788 21.9173L544.065 21.6391L544.34 21.3627M542.101 23.6136H504.62M542.101 23.6136L539.77 25.9573M579.583 23.6136L580.707 21.9173L580.892 21.6391L581.075 21.3627M579.583 23.6136L578.029 25.9573M579.583 23.6136H617.065M544.34 21.3627H581.075M544.34 21.3627H507.605M544.34 21.3627L545.695 20.0018L545.961 19.7327L546.491 19.2009M504.62 23.6136L506.87 21.9164L507.605 21.3618M504.62 23.6136L503.469 24.48L502.3 25.3609L501.511 25.9573M539.77 25.9573H578.029M539.77 25.9573H501.511M581.075 21.3627L581.978 20.0018L582.156 19.7327L582.333 19.4664L582.509 19.2M581.075 21.3627L617.811 21.3636M578.029 25.9573L577.226 27.1645L577.025 27.4709L576.408 28.3982M578.029 25.9573L616.286 25.9564M617.065 23.6136L617.811 21.3636M617.065 23.6136L616.776 24.48L616.485 25.3609L616.286 25.9564M617.065 23.6136H654.545M546.491 19.2009L582.509 19.2M546.491 19.2009H510.473M546.491 19.2009L548.56 17.1209M582.509 19.2L583.888 17.1209M582.509 19.2L618.527 19.2009M617.811 21.3636L618.527 19.2009M617.811 21.3636L654.545 21.3627H691.281M550.551 15.1191H585.216M550.551 15.1191L552.469 13.1918M550.551 15.1191H515.885M550.551 15.1191L550.06 15.6127L549.315 16.3609L548.56 17.1209M585.216 15.1191L585.053 15.3645L584.057 16.8664L583.888 17.1209M585.216 15.1191L586.495 13.1918M585.216 15.1191H619.881M552.469 13.1918H586.495M552.469 13.1918H518.444M552.469 13.1918L554.317 11.3336M515.885 15.1191L518.128 13.4282L518.444 13.1918M515.885 15.1191L515.56 15.3645L515.232 15.6127L514.903 15.8609L513.232 17.12M548.56 17.1209H583.888M548.56 17.1209L513.232 17.12M583.888 17.1209H619.217M586.495 13.1918L586.962 12.4873L587.115 12.2536L587.27 12.0227L587.726 11.3336M586.495 13.1918H620.52M619.881 15.1191L620.363 13.6664L620.441 13.4282L620.52 13.1918M619.881 15.1191L619.217 17.1209M619.881 15.1191H654.545M518.444 13.1918L520.907 11.3336M554.317 11.3336H587.726M554.317 11.3336H520.907M554.317 11.3336L554.768 10.8791L554.993 10.6545L555.215 10.43L555.439 10.2064L555.659 9.98364L555.88 9.76273L556.099 9.54182M587.726 11.3336L587.877 11.1064L588.027 10.8791L588.326 10.43L588.474 10.2064L588.622 9.98364L588.768 9.76182L588.915 9.54182M587.726 11.3336H621.136M620.52 13.1918L621.136 11.3336M620.52 13.1918H654.545M557.82 7.81273H590.061M557.82 7.81273L559.071 6.55455L559.48 6.14273M557.82 7.81273H525.577M557.82 7.81273L557.181 8.45364L556.967 8.66909L556.751 8.88636L556.099 9.54182M590.061 7.81273L590.202 7.60091L590.481 7.17909L590.758 6.76182L591.168 6.14273M590.061 7.81273L589.493 8.66909L589.35 8.88636L589.06 9.32273L588.915 9.54182M590.061 7.81273H622.304M559.48 6.14273H591.168M559.48 6.14273L560.887 4.72818L561.085 4.52909M559.48 6.14273H527.792M525.577 7.81273L527.792 6.14273M525.577 7.81273L523.284 9.54182M556.099 9.54182H588.915M556.099 9.54182H523.284M591.168 6.14273L591.305 5.93818L591.44 5.73455L591.575 5.53091L591.708 5.32909L592.107 4.72818L592.239 4.52909M591.168 6.14273H622.857M588.915 9.54182H621.73M622.304 7.81273L622.857 6.14273M622.304 7.81273L621.73 9.54182M622.304 7.81273H654.545M561.085 4.52909H592.239M561.085 4.52909H529.932M527.792 6.14273L528.872 5.32909L529.669 4.72818L529.932 4.52909M592.239 4.52909H623.393M622.857 6.14273L622.925 5.93818L622.993 5.73455L623.06 5.53091L623.393 4.52909M622.857 6.14273H654.545M741.458 172.689H828.372M741.458 172.689L737.549 160.899M741.458 172.689H654.545M741.458 172.689L745.755 185.645M828.372 172.689L820.553 160.899M828.372 172.689L836.964 185.645M828.372 172.689H915.282M737.549 160.899H820.553M737.549 160.899H654.545M737.549 160.899L733.976 150.124M654.545 172.689V160.899M654.545 172.689V185.645M745.755 185.645H836.964M745.755 185.645L750.498 199.949M745.755 185.645H654.545M820.553 160.899L813.406 150.124M820.553 160.899H903.556M836.964 185.645L846.45 199.949M836.964 185.645H928.173M915.282 172.689L903.556 160.899M915.282 172.689L928.173 185.645M915.282 172.689H1002.2M654.545 160.899V150.124M733.976 150.124H813.406M733.976 150.124H654.545M733.976 150.124L730.698 140.237M813.406 150.124L806.851 140.237M813.406 150.124H892.837M903.556 160.899L892.837 150.124M903.556 160.899H986.564M727.679 131.135H800.815M727.679 131.135L724.892 122.726M727.679 131.135H654.545M727.679 131.135L730.698 140.237M800.815 131.135L795.238 122.726M800.815 131.135L806.851 140.237M800.815 131.135H873.948M724.892 122.726H795.238M724.892 122.726H654.545M724.892 122.726L722.308 114.936M654.545 131.135V122.726M654.545 131.135V140.237M730.698 140.237H806.851M730.698 140.237H654.545M795.238 122.726L790.071 114.936M795.238 122.726H865.584M806.851 140.237H883.004M873.948 131.135L865.584 122.726M873.948 131.135L883.004 140.237M873.948 131.135H947.082M654.545 122.726V114.936M722.308 114.936H790.071M722.308 114.936H654.545M722.308 114.936L719.908 107.697M790.071 114.936L785.27 107.697M790.071 114.936H857.834M865.584 122.726L857.834 114.936M865.584 122.726H935.927M717.672 100.954H780.798M717.672 100.954L715.584 94.6564M717.672 100.954H654.545M717.672 100.954L719.908 107.697M780.798 100.954L776.622 94.6564M780.798 100.954L785.27 107.697M780.798 100.954H843.925M715.584 94.6564H776.622M715.584 94.6564H654.545M715.584 94.6564L713.629 88.7618M654.545 100.954V94.6564M654.545 100.954V107.697M719.908 107.697H785.27M719.908 107.697H654.545M776.622 94.6564L772.714 88.7618M776.622 94.6564H837.66M785.27 107.697H850.633M843.925 100.954L837.66 94.6564M843.925 100.954L850.633 107.697M843.925 100.954H907.051M654.545 94.6564V88.7609M713.629 88.7618H772.714M713.629 88.7618L654.545 88.7627M713.629 88.7618L711.796 83.2355H769.047L826.297 83.2346M772.714 88.7618L769.047 83.2336L765.602 78.0382M772.714 88.7618L831.797 88.7627M837.66 94.6564L831.797 88.7627M837.66 94.6564H898.698M710.074 78.0382H765.602M710.074 78.0382L708.451 73.1455M710.074 78.0382H654.545M710.074 78.0382L711.796 83.2336H654.545V78.0382M765.602 78.0382L762.357 73.1464M765.602 78.0382L821.129 78.0373M708.451 73.1455L762.357 73.1464M708.451 73.1455L654.545 73.1464M708.451 73.1455L706.921 68.5309M654.545 78.0382V73.1464M762.357 73.1464L759.296 68.5309M762.357 73.1464L816.263 73.1455M821.129 78.0373L816.263 73.1455M821.129 78.0373L826.297 83.2346M821.129 78.0373L876.657 78.0382M654.545 73.1464V68.5309M706.921 68.5309H759.296M706.921 68.5309H654.545M706.921 68.5309L705.475 64.1718M759.296 68.5309L756.405 64.1718M759.296 68.5309H811.673M816.263 73.1455L811.673 68.5309M816.263 73.1455L870.168 73.1464M704.107 60.0455H753.669M704.107 60.0455L702.811 56.1364M704.107 60.0455H654.545M704.107 60.0455L705.475 64.1718M753.669 60.0455L751.077 56.1373M753.669 60.0455L756.405 64.1718M753.669 60.0455L803.232 60.0464M702.811 56.1364L751.077 56.1373M702.811 56.1364L654.545 56.1373M702.811 56.1364L701.581 52.4264M654.545 60.0455V56.1373M654.545 60.0455V64.1727M705.475 64.1718H756.405M705.475 64.1718L654.545 64.1727M751.077 56.1373L748.616 52.4264M751.077 56.1373L799.343 56.1364M756.405 64.1718H807.335M803.232 60.0464L799.343 56.1364M803.232 60.0464L807.335 64.1718M803.232 60.0464L852.794 60.0455M654.545 56.1373V52.4264M701.581 52.4264H748.616M701.581 52.4264H654.545M701.581 52.4264L700.555 49.3318L700.412 48.9M748.616 52.4264L746.278 48.9M748.616 52.4264H795.652M799.343 56.1364L795.652 52.4264M799.343 56.1364L847.608 56.1373M699.299 45.5455H744.054M699.299 45.5455L698.239 42.3491M699.299 45.5455H654.545M699.299 45.5455L700.412 48.9M744.054 45.5455L741.934 42.3491M744.054 45.5455L746.278 48.9M744.054 45.5455H788.807M698.239 42.3491H741.934M698.239 42.3491H654.545M698.239 42.3491L697.229 39.3018M654.545 45.5455V42.3491M654.545 45.5455V48.9M700.412 48.9H746.278M700.412 48.9H654.545M741.934 42.3491L739.912 39.3018M741.934 42.3491H785.628M746.278 48.9H792.145M788.807 45.5455L785.628 42.3491M788.807 45.5455L792.145 48.9M788.807 45.5455H833.561M654.545 42.3491V39.3009M697.229 39.3018H739.912M697.229 39.3018L654.545 39.3009M697.229 39.3018L696.264 36.39H737.983M739.912 39.3018L737.983 36.39M739.912 39.3018L782.595 39.3009M785.628 42.3491L784.856 41.5736L782.595 39.3009M785.628 42.3491H829.322M695.341 33.6091H736.137M695.341 33.6091L694.459 30.9482M695.341 33.6091L654.545 33.61M695.341 33.6091L696.264 36.3918L654.545 36.3909M736.137 33.6091L734.589 31.2745L734.373 30.9482M736.137 33.6091L737.983 36.3918M736.137 33.6091L776.934 33.61M694.459 30.9482L694.352 30.6236L693.614 28.4M694.459 30.9482H734.373M694.459 30.9482H654.545M654.545 33.61V30.9482M654.545 33.61V36.3909M734.373 30.9482L733.73 29.98L733.519 29.66L733.307 29.3427L732.683 28.4M734.373 30.9482H774.286M776.934 33.61L774.286 30.9482M776.934 33.61L778.997 35.6836L779.701 36.39M693.614 28.4H732.683M693.614 28.4L654.545 28.3991M693.614 28.4L693.408 27.7782L693.004 26.5573L692.805 25.9573M654.545 30.9482V28.3991M732.683 28.4L771.751 28.3991M774.286 30.9482L771.751 28.3991M774.286 30.9482H814.2M692.026 23.6136H729.508M692.026 23.6136L691.281 21.3627M692.026 23.6136H654.545M692.026 23.6136L692.315 24.4809L692.412 24.7727L692.508 25.0664L692.705 25.6582L692.805 25.9573M729.508 23.6136L728.384 21.9173L728.015 21.3627M729.508 23.6136L731.062 25.9573M729.508 23.6136H766.99M691.281 21.3627H728.015M691.281 21.3627L690.564 19.2009M654.545 23.6136V21.3618V19.2009M654.545 23.6136V25.9564M692.805 25.9573H731.062M692.805 25.9573L654.545 25.9564M728.015 21.3627L727.114 20.0018L726.935 19.7327L726.758 19.4664L726.582 19.2M728.015 21.3627L764.751 21.3636M731.062 25.9573L731.865 27.1645L732.066 27.4709L732.683 28.3982M731.062 25.9573L769.321 25.9564M766.99 23.6136L765.58 22.1964L765.303 21.9173L765.025 21.6391L764.751 21.3636M766.99 23.6136L769.025 25.6582L769.321 25.9564M766.99 23.6136H804.471M690.564 19.2009L726.582 19.2M690.564 19.2009H654.545M690.564 19.2009L689.874 17.1209M726.582 19.2L725.203 17.1209M726.582 19.2L762.6 19.2009M764.751 21.3636L763.665 20.2718L763.396 20.0018L763.13 19.7327L762.6 19.2009M764.751 21.3636L801.486 21.3627H838.221M689.21 15.1191H723.875M689.21 15.1191L688.571 13.1918M689.21 15.1191H654.545M689.21 15.1191L689.874 17.1209M723.875 15.1191L724.038 15.3645L725.034 16.8664L725.203 17.1209M723.875 15.1191L722.596 13.1918M723.875 15.1191H758.54M688.571 13.1918H722.596M688.571 13.1918H654.545M688.571 13.1918L687.955 11.3336M654.545 15.1191V13.1918M654.545 15.1191V17.12M689.874 17.1209H725.203M689.874 17.1209L654.545 17.12M725.203 17.1209H760.531M722.596 13.1918L722.129 12.4873L721.975 12.2536L721.821 12.0227L721.365 11.3336M722.596 13.1918H756.622M758.54 15.1191L756.622 13.1918M758.54 15.1191L759.031 15.6127L759.775 16.3609L760.531 17.1209M758.54 15.1191H793.205M654.545 13.1918V11.3336M687.955 11.3336H721.365M687.955 11.3336H654.545M687.955 11.3336L687.361 9.54182M721.365 11.3336L721.214 11.1064L720.765 10.43L720.617 10.2064L720.469 9.98364L720.323 9.76182L720.176 9.54182M721.365 11.3336H754.774M756.622 13.1918L754.774 11.3336M756.622 13.1918H790.647M686.788 7.81273H719.03M686.788 7.81273L686.234 6.14273M686.788 7.81273H654.545M686.788 7.81273L687.361 9.54182M719.03 7.81273L718.889 7.60091L718.609 7.17909L718.471 6.97L718.195 6.55455L718.059 6.34818L717.922 6.14273M719.03 7.81273L719.598 8.66909L719.741 8.88636L720.031 9.32273L720.176 9.54182M719.03 7.81273H751.272M686.234 6.14273L686.166 5.93818L686.098 5.73455L686.031 5.53091L685.699 4.52909M686.234 6.14273H717.922M686.234 6.14273H654.545M654.545 7.81273V6.14273M654.545 7.81273V9.54182M687.361 9.54182H720.176M687.361 9.54182H654.545M717.922 6.14273H749.611M717.922 6.14273L717.651 5.73364L717.516 5.53091L717.383 5.32909L716.985 4.72818L716.852 4.52909M720.176 9.54182H752.992M751.272 7.81273L750.02 6.55455L749.611 6.14273M751.272 7.81273L752.34 8.88546L752.992 9.54182M751.272 7.81273H783.514M685.699 4.52909H716.852M685.699 4.52909L654.545 4.53M654.545 6.14273V4.53M749.611 6.14273H781.299M749.611 6.14273L748.402 4.92727L748.006 4.52909M716.852 4.52909H748.006M1089.11 172.689H1176.03M1089.11 172.689L1069.56 160.899M1089.11 172.689H1002.2M1089.11 172.689L1110.59 185.645M1176.03 172.689L1152.56 160.899M1176.03 172.689L1201.8 185.645M1176.03 172.689H1262.94M1069.56 160.899H1152.56M1069.56 160.899H986.564M1069.56 160.899L1051.7 150.124M1002.2 172.689L986.564 160.899M1002.2 172.689L1019.38 185.645M1110.59 185.645H1201.8M1110.59 185.645L1134.31 199.949M1110.59 185.645H1019.38M1152.56 160.899L1131.13 150.124M1152.56 160.899H1235.57M1201.8 185.645L1230.25 199.949M1201.8 185.645H1293.01M1262.94 172.689L1235.57 160.899M1262.94 172.689L1293.01 185.645M1262.94 172.689H1308.74M986.564 160.899L972.264 150.124M1051.7 150.124H1131.13M1051.7 150.124H972.264M1051.7 150.124L1035.31 140.237M1131.13 150.124L1111.46 140.237M1131.13 150.124H1210.56M1235.57 160.899L1210.56 150.124M1235.57 160.899H1308.74M1020.22 131.135H1093.35M1020.22 131.135L1006.27 122.726M1020.22 131.135H947.082M1020.22 131.135L1035.31 140.237M1093.35 131.135L1076.63 122.726M1093.35 131.135L1111.46 140.237M1093.35 131.135H1166.48M1006.27 122.726H1076.63M1006.27 122.726H935.927M1006.27 122.726L993.364 114.936M947.082 131.135L935.927 122.726M947.082 131.135L959.155 140.237M1035.31 140.237H1111.46M1035.31 140.237H959.155M1076.63 122.726L1061.12 114.936M1076.63 122.726H1146.97M1111.46 140.237H1187.61M1166.48 131.135L1146.97 122.726M1166.48 131.135L1187.61 140.237M1166.48 131.135H1239.62M935.927 122.726L925.6 114.936M993.364 114.936H1061.12M993.364 114.936H925.6M993.364 114.936L981.355 107.697M1061.12 114.936L1046.72 107.697M1061.12 114.936H1128.88M1146.97 122.726L1128.88 114.936M1146.97 122.726H1217.32M970.182 100.954H1033.3M970.182 100.954L959.736 94.6564M970.182 100.954H907.051M970.182 100.954L981.355 107.697M1033.3 100.954L1020.77 94.6564M1033.3 100.954L1046.72 107.697M1033.3 100.954H1096.43M959.736 94.6564H1020.77M959.736 94.6564H898.698M959.736 94.6564L949.964 88.7618M907.051 100.954L898.698 94.6564M907.051 100.954L916 107.697M981.355 107.697H1046.72M981.355 107.697H916M1020.77 94.6564L1009.05 88.7618M1020.77 94.6564H1081.81M1046.72 107.697H1112.08M1096.43 100.954L1081.81 94.6564M1096.43 100.954L1112.08 107.697M1096.43 100.954L1159.55 100.955M898.698 94.6564L890.881 88.7618M949.964 88.7618H1009.05M949.964 88.7618H890.881M949.964 88.7618L940.8 83.2336M1009.05 88.7618L998.055 83.2336M1009.05 88.7618H1068.14M1081.81 94.6564L1068.14 88.7618M1081.81 94.6564L1142.85 94.6573M932.182 78.0382H987.709M932.182 78.0382L924.073 73.1455M932.182 78.0382H876.657M932.182 78.0382L940.8 83.2336M987.709 78.0382L977.982 73.1464M987.709 78.0382L998.055 83.2336M987.709 78.0382L1043.25 78.0373M924.073 73.1455L977.982 73.1464M924.073 73.1455L870.168 73.1464M924.073 73.1455L916.427 68.5309M876.657 78.0382L870.168 73.1464M876.657 78.0382L883.548 83.2336H940.8M940.8 83.2336H998.055M977.982 73.1464L968.8 68.5309M977.982 73.1464L1031.88 73.1455M998.055 83.2336H1055.3M1043.25 78.0373L1031.88 73.1455M1043.25 78.0373L1055.3 83.2336M1043.25 78.0373H1098.77M870.168 73.1464L864.048 68.5309M916.427 68.5309H968.8M916.427 68.5309H864.048M916.427 68.5309L909.2 64.1718M968.8 68.5309L960.127 64.1718M968.8 68.5309H1021.17M1031.88 73.1455L1021.17 68.5309M1031.88 73.1455H1085.79L1073.55 68.5309M902.355 60.0455H951.918M902.355 60.0455L895.874 56.1364M902.355 60.0455H852.794M902.355 60.0455L909.2 64.1718M951.918 60.0455L944.136 56.1373M951.918 60.0455L960.127 64.1718M951.918 60.0455L1001.48 60.0464M895.874 56.1364L944.136 56.1373M895.874 56.1364L847.608 56.1373M895.874 56.1364L889.723 52.4264M852.794 60.0455L851.471 59.0491L847.608 56.1373M852.794 60.0455L858.266 64.1718M909.2 64.1718H960.127M909.2 64.1718H858.266M944.136 56.1373L936.755 52.4264M944.136 56.1373L992.409 56.1364M960.127 64.1718H1011.05M1001.48 60.0464L992.409 56.1364M1001.48 60.0464L1011.05 64.1718M1001.48 60.0464H1051.05M847.608 56.1373L842.687 52.4264M889.723 52.4264H936.755M889.723 52.4264H842.687M889.723 52.4264L883.877 48.9M936.755 52.4264L929.745 48.9M936.755 52.4264H983.791M992.409 56.1364L983.791 52.4264M992.409 56.1364H1040.67L1030.83 52.4264M878.315 45.5455H923.073M878.315 45.5455L873.016 42.3491M878.315 45.5455H833.561M878.315 45.5455L883.877 48.9M923.073 45.5455L916.709 42.3491M923.073 45.5455L929.745 48.9M923.073 45.5455H967.818M873.016 42.3491H916.709M873.016 42.3491H829.322M873.016 42.3491L867.963 39.3018M833.561 45.5455L829.322 42.3491M833.561 45.5455L838.011 48.9M883.877 48.9H929.745M883.877 48.9H838.011M916.709 42.3491L910.646 39.3018M916.709 42.3491H960.4M929.745 48.9H975.609M967.818 45.5455L960.4 42.3491M967.818 45.5455L975.609 48.9M967.818 45.5455H1012.57M829.322 42.3491L825.279 39.3018M867.963 39.3018H910.646M867.963 39.3018H825.279M867.963 39.3018L863.137 36.3909M910.646 39.3018L904.855 36.3918M910.646 39.3018L953.327 39.3009M960.4 42.3491L953.327 39.3009M960.4 42.3491H1004.1M858.525 33.6091L859.091 33.9509L859.66 34.2936L863.137 36.3909M858.525 33.6091H899.322M858.525 33.6091L854.114 30.9482M858.525 33.6091L817.73 33.61M863.137 36.3909L904.855 36.3918M863.137 36.3909H821.419M899.322 33.6091L894.027 30.9482M899.322 33.6091L904.855 36.3918M899.322 33.6091L940.118 33.61M854.114 30.9482H894.027M854.114 30.9482H814.2M854.114 30.9482L849.888 28.4M817.73 33.61L814.2 30.9482M817.73 33.61L819.554 34.9836L821.419 36.3909M894.027 30.9482L888.956 28.4M894.027 30.9482H933.936M904.855 36.3918H946.573M940.118 33.61L933.936 30.9482M940.118 33.61L946.573 36.3918M940.118 33.61H980.909M814.2 30.9482L810.819 28.4M849.888 28.4H888.956M849.888 28.4H810.819M849.888 28.4L848.859 27.7791L845.837 25.9573M888.956 28.4L887.11 27.4718L886.501 27.1655L884.096 25.9573M888.956 28.4H928.027M933.936 30.9482L928.027 28.4M933.936 30.9482H973.855M841.952 23.6136H879.434M841.952 23.6136L838.221 21.3627M841.952 23.6136H804.471M841.952 23.6136L845.837 25.9573M879.434 23.6136L876.614 22.1955L874.956 21.3627M879.434 23.6136L884.096 25.9573M879.434 23.6136H916.918M838.221 21.3627H874.956M838.221 21.3627L835.077 19.4664L834.636 19.2M804.471 23.6136L802.222 21.9164L801.486 21.3618L798.618 19.2009M804.471 23.6136L805.622 24.48L807.58 25.9573M845.837 25.9573H884.096M845.837 25.9573H807.58M874.956 21.3627L870.655 19.2M874.956 21.3627L911.691 21.3636M884.096 25.9573H922.355M916.918 23.6136L911.691 21.3636M916.918 23.6136L922.355 25.9573M916.918 23.6136H954.4M834.636 19.2H870.655M834.636 19.2L798.618 19.2009M834.636 19.2L831.188 17.1209M870.655 19.2L866.516 17.1209M870.655 19.2L906.672 19.2009M911.691 21.3636L908.531 20.0018L907.909 19.7327L906.672 19.2009M911.691 21.3636L948.427 21.3627M827.87 15.1191H862.535M827.87 15.1191L827.06 14.63L824.674 13.1918M827.87 15.1191H793.205M827.87 15.1191L828.687 15.6127L830.347 16.6127L831.188 17.1209M862.535 15.1191L858.699 13.1918M862.535 15.1191L864.01 15.8609L865.005 16.3609L866.516 17.1209M862.535 15.1191H897.199M824.674 13.1918H858.699M824.674 13.1918H790.647M824.674 13.1918L822.353 11.7918L821.593 11.3336M793.205 15.1191L790.963 13.4282L790.647 13.1918M793.205 15.1191L793.531 15.3645L793.859 15.6127L794.188 15.8609L795.859 17.1209M831.188 17.1209H866.516M831.188 17.1209H795.859M858.699 13.1918L857.297 12.4873L856.373 12.0227L855.003 11.3336M858.699 13.1918H892.725M866.516 17.1209H901.845M897.199 15.1191L892.725 13.1918M897.199 15.1191L900.082 16.3609L900.667 16.6127L901.845 17.1209M897.199 15.1191H931.864M790.647 13.1918L788.184 11.3336M821.593 11.3336H855.003M821.593 11.3336H788.184M821.593 11.3336L818.623 9.54182M855.003 11.3336L853.205 10.43L852.76 10.2055L851.438 9.54182M855.003 11.3336H888.413M892.725 13.1918L888.413 11.3336M892.725 13.1918H926.755M815.755 7.81273H847.998M815.755 7.81273L814.014 6.76182L812.987 6.14273M815.755 7.81273H783.514M815.755 7.81273L818.623 9.54182M847.998 7.81273L845.495 6.55455L845.085 6.34818L844.675 6.14273M847.998 7.81273L849.703 8.66909L851.438 9.54182M847.998 7.81273H880.239M812.987 6.14273H844.675M812.987 6.14273L811.638 5.32909L810.973 4.92727L810.642 4.72727L810.313 4.52909M812.987 6.14273H781.299M783.514 7.81273L781.846 6.55455L781.299 6.14273M783.514 7.81273L785.807 9.54182M818.623 9.54182H851.438M818.623 9.54182H785.807M844.675 6.14273H876.364M844.675 6.14273L841.465 4.52909M851.438 9.54182H884.254M880.239 7.81273L877.32 6.55455L876.364 6.14273M880.239 7.81273L883.745 9.32182L884.254 9.54182M880.239 7.81273H912.482M810.313 4.52909H841.465M810.313 4.52909H779.159M781.299 6.14273L780.219 5.32909L779.422 4.72818L779.159 4.52909M876.364 6.14273H908.052M876.364 6.14273L872.619 4.52909M841.465 4.52909H872.619M1287.66 122.727H1217.32M1287.66 122.727L1264.41 114.937M1287.66 122.727H1308.74M1287.66 122.727L1308.74 129.79M1264.41 114.937L1242.81 107.698M1264.41 114.937L1196.65 114.936M1264.41 114.937L1308.74 114.936M1308.74 129.79V122.726V114.936M1308.74 129.79V131.135M1222.68 100.955H1285.81M1222.68 100.955L1203.89 94.6573M1222.68 100.955H1159.55M1222.68 100.955L1242.81 107.698M1285.81 100.955L1264.93 94.6573M1285.81 100.955L1308.17 107.698M1285.81 100.955H1308.74M1203.89 94.6573H1264.93M1203.89 94.6573H1142.85M1203.89 94.6573L1186.3 88.7627M1159.55 100.955L1142.85 94.6573M1159.55 100.955L1177.45 107.697M1242.81 107.698H1308.17M1242.81 107.698L1177.45 107.697M1264.93 94.6573L1245.38 88.7627M1264.93 94.6573H1308.74M1308.17 107.698L1308.74 107.697M1308.17 107.698L1308.74 107.868M1308.74 100.955V94.6573M1308.74 100.955V107.697M1142.85 94.6573L1127.22 88.7618M1186.3 88.7627H1245.38M1186.3 88.7627L1127.22 88.7618M1186.3 88.7627L1169.8 83.2346M1245.38 88.7627L1227.05 83.2346M1245.38 88.7627L1304.46 88.7618M1308.74 94.6573V89.9327M1154.3 78.0391H1209.83M1154.3 78.0391L1139.7 73.1464M1154.3 78.0391H1098.77M1154.3 78.0391L1169.8 83.2346M1209.83 78.0391L1193.6 73.1473M1209.83 78.0391L1227.05 83.2346M1209.83 78.0391L1265.35 78.0382M1139.7 73.1464L1193.6 73.1473M1139.7 73.1464L1085.79 73.1473L1098.77 78.0373M1139.7 73.1464L1125.93 68.5318M1169.8 83.2346H1227.05M1169.8 83.2346H1112.55M1193.6 73.1473L1178.3 68.5318M1193.6 73.1473L1247.51 73.1464M1227.05 83.2346L1284.3 83.2336M1265.35 78.0382L1247.51 73.1464M1265.35 78.0382L1284.3 83.2336M1265.35 78.0382L1308.74 78.0373M1125.93 68.5318H1178.3M1125.93 68.5318L1073.55 68.5309M1125.93 68.5318L1112.92 64.1727M1178.3 68.5318L1163.85 64.1727M1178.3 68.5318L1230.68 68.5309M1247.51 73.1464L1230.68 68.5309M1247.51 73.1464L1301.42 73.1455M1100.6 60.0464H1150.16M1100.6 60.0464L1088.94 56.1373M1100.6 60.0464H1051.05M1100.6 60.0464L1112.92 64.1727M1150.16 60.0464L1137.2 56.1382M1150.16 60.0464L1163.85 64.1727M1150.16 60.0464L1199.73 60.0473M1088.94 56.1373L1137.2 56.1382M1088.94 56.1373L1040.67 56.1382L1051.05 60.0464M1088.94 56.1373L1077.86 52.4273M1051.05 60.0464L1061.98 64.1718M1112.92 64.1727H1163.85M1112.92 64.1727L1061.98 64.1718M1137.2 56.1382L1124.9 52.4273M1137.2 56.1382L1185.47 56.1373M1163.85 64.1727L1214.77 64.1718M1199.73 60.0473L1214.77 64.1718M1199.73 60.0473L1249.29 60.0464M1077.86 52.4273H1124.9M1077.86 52.4273L1030.83 52.4264M1077.86 52.4273L1067.35 48.9M1124.9 52.4273L1113.21 48.9M1124.9 52.4273L1171.94 52.4264M1185.47 56.1373L1171.94 52.4264M1185.47 56.1373L1199.73 60.0455M1185.47 56.1373H1233.74M1057.33 45.5455H1102.08M1057.33 45.5455L1047.79 42.3491M1057.33 45.5455H1012.57M1057.33 45.5455L1067.35 48.9M1102.08 45.5455L1091.49 42.3491M1102.08 45.5455L1113.21 48.9M1102.08 45.5455H1146.84M1047.79 42.3491H1091.49M1047.79 42.3491H1004.1M1047.79 42.3491L1038.7 39.3018M1012.57 45.5455L1004.1 42.3491M1012.57 45.5455L1021.47 48.9009M1067.35 48.9H1113.21M1067.35 48.9L1021.47 48.9009M1091.49 42.3491L1081.38 39.3018M1091.49 42.3491H1135.18M1113.21 48.9H1159.07M1146.84 45.5455L1135.18 42.3491M1146.84 45.5455L1159.07 48.9M1146.84 45.5455H1191.59M1004.1 42.3491L996.009 39.3018M1038.7 39.3018H1081.38M1038.7 39.3018H996.009M1038.7 39.3018L1030.01 36.3918M1081.38 39.3018L1071.73 36.3918M1081.38 39.3018L1124.06 39.3009M1135.18 42.3491L1124.06 39.3009M1135.18 42.3491H1178.87M1021.71 33.6091H1062.51M1021.71 33.6091L1013.76 30.9482M1021.71 33.6091L980.909 33.61M1021.71 33.6091L1030.01 36.3918M1062.51 33.6091L1053.68 30.9482M1062.51 33.6091L1071.73 36.3918M1062.51 33.6091L1103.3 33.61M1013.76 30.9482H1053.68M1013.76 30.9482H973.855M1013.76 30.9482L1006.16 28.4M980.909 33.61L973.855 30.9482M980.909 33.61L988.291 36.3909M1030.01 36.3918H1071.73M1030.01 36.3918L988.291 36.3909M1053.68 30.9482L1045.23 28.4M1053.68 30.9482H1093.59M1071.73 36.3918H1113.45M1103.3 33.61L1093.59 30.9482M1103.3 33.61L1113.45 36.3918M1103.3 33.61H1144.1M973.855 30.9482L967.091 28.4M1006.16 28.4H1045.23M1006.16 28.4H967.091M1006.16 28.4L998.873 25.9573M1045.23 28.4L1037.13 25.9573M1045.23 28.4H1084.3M1093.59 30.9482L1084.3 28.4M1093.59 30.9482H1133.51M991.882 23.6136H1029.35M991.882 23.6136L985.164 21.3627M991.882 23.6136H954.4M991.882 23.6136L998.873 25.9573M1029.35 23.6136L1021.9 21.3627M1029.35 23.6136L1037.13 25.9573M1029.35 23.6136H1066.84M985.164 21.3627H1021.9M985.164 21.3627H948.427M985.164 21.3627L978.709 19.2009M954.4 23.6136L948.427 21.3627M954.4 23.6136L960.609 25.9573M998.873 25.9573H1037.13M998.873 25.9573H960.609M1021.9 21.3627L1014.73 19.2009M1021.9 21.3627H1058.64M1037.13 25.9573H1075.39M1066.84 23.6136L1058.64 21.3627M1066.84 23.6136L1075.39 25.9573M1066.84 23.6136H1104.32M948.427 21.3627L942.691 19.2009M978.709 19.2009H1014.73M978.709 19.2009H942.691M978.709 19.2009L972.5 17.1209M1014.73 19.2009L1008.68 17.3764L1007.83 17.1209M1014.73 19.2009H1050.75M1058.64 21.3627L1050.75 19.2009M1058.64 21.3627H1095.36M966.527 15.1191H1001.19M966.527 15.1191L960.773 13.1918M966.527 15.1191H931.864M966.527 15.1191L968 15.6127L968.745 15.8609L972.5 17.1209M1001.19 15.1191L994.8 13.1918M1001.19 15.1191L1007.83 17.1209M1001.19 15.1191H1035.85M960.773 13.1918H994.8M960.773 13.1918H926.755M960.773 13.1918L955.227 11.3336M931.864 15.1191L926.755 13.1918M931.864 15.1191L937.173 17.1209M972.5 17.1209H1007.83M972.5 17.1209H937.173M994.8 13.1918L988.645 11.3336M994.8 13.1918H1028.83M1007.83 17.1209H1043.16M1035.85 15.1191L1028.83 13.1918M1035.85 15.1191L1043.16 17.1209M1035.85 15.1191H1070.53M926.755 13.1918L921.818 11.3336M955.227 11.3336H988.645M955.227 11.3336H921.818M955.227 11.3336L949.882 9.54182M988.645 11.3336L982.7 9.54182M988.645 11.3336H1022.05M1028.83 13.1918L1022.05 11.3336M1028.83 13.1918H1062.85M944.727 7.81273H976.964M944.727 7.81273L939.736 6.14273M944.727 7.81273H912.482M944.727 7.81273L949.882 9.54182M976.964 7.81273L972.791 6.55455L972.109 6.34818L971.427 6.14273M976.964 7.81273L982.7 9.54182M976.964 7.81273H1009.21M939.736 6.14273H971.427M939.736 6.14273L935.518 4.72818L934.927 4.52909M939.736 6.14273H908.052M912.482 7.81273L908.052 6.14273M912.482 7.81273L917.073 9.54182M949.882 9.54182H982.7M949.882 9.54182H917.073M971.427 6.14273H1003.12M971.427 6.14273L966.082 4.52909M982.7 9.54182H1015.52M1009.21 7.81273L1003.12 6.14273M1009.21 7.81273L1015.52 9.54182M1009.21 7.81273H1041.45M934.927 4.52909H966.082M934.927 4.52909H903.772M908.052 6.14273L904.828 4.92727L903.772 4.52909M1003.12 6.14273H1034.81M1003.12 6.14273L997.236 4.52909M966.082 4.52909H997.236M1298.85 60.0464L1282 56.1373M1298.85 60.0464H1249.29M1298.85 60.0464L1308.74 62.3391M1298.85 60.0464H1308.74M1282 56.1373H1233.74M1282 56.1373L1266.01 52.4264M1282 56.1373L1308.74 56.1364M1249.29 60.0464L1233.74 56.1373M1249.29 60.0464L1265.71 64.1718M1308.74 62.3391V60.0464M1308.74 62.3391V64.1718M1308.74 60.0464V56.1364M1233.74 56.1373L1218.97 52.4264M1266.01 52.4264L1250.81 48.9M1266.01 52.4264H1218.97M1266.01 52.4264H1308.74M1308.74 56.1364V52.4264M1236.35 45.5455H1281.1M1236.35 45.5455L1222.57 42.3491M1236.35 45.5455H1191.59M1236.35 45.5455L1250.81 48.9M1281.1 45.5455L1266.26 42.3491M1281.1 45.5455L1296.67 48.9M1281.1 45.5455H1308.74M1222.57 42.3491H1266.26M1222.57 42.3491H1178.87M1222.57 42.3491L1209.43 39.3018M1191.59 45.5455L1178.87 42.3491M1191.59 45.5455L1204.94 48.9M1250.81 48.9H1296.67M1250.81 48.9H1204.94M1266.26 42.3491L1252.11 39.3018M1266.26 42.3491H1308.74M1296.67 48.9L1308.74 51.5M1296.67 48.9H1308.74M1308.74 45.5455H1309.07M1308.74 45.5455V42.3491M1308.74 45.5455V48.9M1178.87 42.3491L1166.75 39.3018M1209.43 39.3018H1252.11M1209.43 39.3018H1166.75M1209.43 39.3018L1196.88 36.3918M1252.11 39.3018L1238.6 36.3918M1252.11 39.3018H1294.8M1308.74 42.3491V42.1045M1184.89 33.6091H1225.69M1184.89 33.6091L1173.42 30.9482M1184.89 33.6091L1144.1 33.61M1184.89 33.6091L1196.88 36.3918M1225.69 33.6091L1213.34 30.9482M1225.69 33.6091L1238.6 36.3918M1225.69 33.6091L1266.48 33.61M1173.42 30.9482H1213.34M1173.42 30.9482H1133.51M1173.42 30.9482L1162.44 28.4M1144.1 33.61L1133.51 30.9482M1144.1 33.61L1155.16 36.3909M1196.88 36.3918H1238.6M1196.88 36.3918L1155.16 36.3909M1213.34 30.9482L1201.51 28.4M1213.34 30.9482H1253.25M1238.6 36.3918H1280.32M1266.48 33.61L1253.25 30.9482M1266.48 33.61L1280.32 36.3918M1266.48 33.61H1307.28M1133.51 30.9482L1123.36 28.4M1162.44 28.4H1201.51M1162.44 28.4H1123.36M1162.44 28.4L1151.91 25.9573M1201.51 28.4L1190.16 25.9573M1201.51 28.4H1240.57M1253.25 30.9482L1240.57 28.4M1253.25 30.9482H1293.16M1141.8 23.6136H1179.28M1141.8 23.6136L1132.1 21.3627M1141.8 23.6136H1104.32M1141.8 23.6136L1151.91 25.9573M1179.28 23.6136L1168.84 21.3627M1179.28 23.6136L1190.16 25.9573M1179.28 23.6136H1216.76M1132.1 21.3627H1168.84M1132.1 21.3627H1095.36M1132.1 21.3627L1122.78 19.2009M1104.32 23.6136L1095.36 21.3627M1104.32 23.6136L1113.65 25.9573M1151.91 25.9573H1190.16M1151.91 25.9573H1113.65M1168.84 21.3627L1158.8 19.2009M1168.84 21.3627H1205.57M1190.16 25.9573H1228.43M1216.76 23.6136L1205.57 21.3627M1216.76 23.6136L1228.43 25.9573M1216.76 23.6136H1254.25M1095.36 21.3627L1086.76 19.2009M1122.78 19.2009H1158.8M1122.78 19.2009H1086.76M1122.78 19.2009L1113.82 17.1209M1158.8 19.2009L1149.15 17.1209M1158.8 19.2009H1194.82M1205.57 21.3627L1194.82 19.2009M1205.57 21.3627H1242.31M1105.19 15.1191H1139.85M1105.19 15.1191L1096.88 13.1918M1105.19 15.1191H1070.53M1105.19 15.1191L1113.82 17.1209M1139.85 15.1191L1130.9 13.1918M1139.85 15.1191L1149.15 17.1209M1139.85 15.1191H1174.52M1096.88 13.1918H1130.9M1096.88 13.1918H1062.85M1096.88 13.1918L1088.87 11.3336M1070.53 15.1191L1063.8 13.4282L1062.85 13.1918M1070.53 15.1191L1078.49 17.1209M1113.82 17.1209H1149.15M1113.82 17.1209H1078.49M1130.9 13.1918L1122.28 11.3336M1130.9 13.1918H1164.93M1149.15 17.1209H1184.47M1174.52 15.1191L1164.93 13.1918M1174.52 15.1191L1184.47 17.1209M1174.52 15.1191H1209.18M1062.85 13.1918L1055.46 11.3336M1088.87 11.3336H1122.28M1088.87 11.3336H1055.46M1088.87 11.3336L1081.15 9.54182M1122.28 11.3336L1113.96 9.54182M1122.28 11.3336H1155.69M1164.93 13.1918L1155.69 11.3336M1164.93 13.1918H1198.95M1073.69 7.81273H1105.94M1073.69 7.81273L1066.49 6.14273M1073.69 7.81273H1041.45M1073.69 7.81273L1081.15 9.54182M1105.94 7.81273L1098.18 6.14273M1105.94 7.81273L1113.96 9.54182M1105.94 7.81273H1138.17M1066.49 6.14273H1098.18M1066.49 6.14273L1059.54 4.52909M1066.49 6.14273H1034.81M1041.45 7.81273L1034.81 6.14273M1041.45 7.81273L1048.33 9.54182M1081.15 9.54182H1113.96M1081.15 9.54182H1048.33M1098.18 6.14273H1129.87M1098.18 6.14273L1090.69 4.52909M1113.96 9.54182H1146.77M1138.17 7.81273L1129.87 6.14273M1138.17 7.81273L1146.77 9.54182M1138.17 7.81273H1170.42M1059.54 4.52909H1090.69M1059.54 4.52909H1028.38M1034.81 6.14273L1028.38 4.52909M1129.87 6.14273H1161.55M1129.87 6.14273L1121.85 4.52909M1090.69 4.52909H1121.85M1291.73 23.6136L1279.05 21.3627M1291.73 23.6136H1254.25M1291.73 23.6136L1304.94 25.9573M1291.73 23.6136H1308.74M1279.05 21.3627H1242.31M1279.05 21.3627L1266.85 19.2009M1279.05 21.3627H1308.74M1254.25 23.6136L1242.31 21.3627M1254.25 23.6136L1266.68 25.9573M1304.94 25.9573H1266.68M1304.94 25.9573H1308.74M1304.94 25.9573L1308.74 26.63M1308.74 23.6136V21.3627M1308.74 23.6136V25.9582V26.6309V28.4M1242.31 21.3627L1230.84 19.2009M1266.85 19.2009H1302.87M1266.85 19.2009H1230.84M1266.85 19.2009L1255.13 17.1209M1308.74 21.3627V20.1827M1243.85 15.1191H1278.51M1243.85 15.1191L1232.98 13.1918M1243.85 15.1191H1209.18M1243.85 15.1191L1255.13 17.1209M1278.51 15.1191L1267.01 13.1918M1278.51 15.1191L1290.45 17.1209M1278.51 15.1191H1308.74M1232.98 13.1918H1267.01M1232.98 13.1918H1198.95M1232.98 13.1918L1222.51 11.3336M1209.18 15.1191L1198.95 13.1918M1209.18 15.1191L1219.8 17.1209M1255.13 17.1209H1290.45M1255.13 17.1209H1219.8M1267.01 13.1918L1255.92 11.3336M1267.01 13.1918H1301.04M1290.45 17.1209L1302.87 19.2009M1290.45 17.1209H1308.74M1308.74 15.1191H1308.85M1308.74 15.1191V14.4145M1308.74 15.1191V17.1209M1198.95 13.1918L1189.1 11.3336M1222.51 11.3336H1255.92M1222.51 11.3336H1189.1M1222.51 11.3336L1212.41 9.54182M1255.92 11.3336L1245.22 9.54182M1255.92 11.3336H1289.33M1301.04 13.1918L1289.33 11.3336M1301.04 13.1918L1308.74 14.4145M1301.04 13.1918H1308.74M1202.66 7.81273H1234.9M1202.66 7.81273L1193.25 6.14273M1202.66 7.81273H1170.42M1202.66 7.81273L1212.41 9.54182M1234.9 7.81273L1224.94 6.14273M1234.9 7.81273L1245.22 9.54182M1234.9 7.81273H1267.15M1193.25 6.14273H1224.94M1193.25 6.14273L1184.15 4.52909M1193.25 6.14273H1161.55M1170.42 7.81273L1161.55 6.14273M1170.42 7.81273L1179.59 9.54182M1212.41 9.54182H1245.22M1212.41 9.54182H1179.59M1224.94 6.14273H1256.63M1224.94 6.14273L1215.31 4.52909M1245.22 9.54182H1278.04M1267.15 7.81273L1256.63 6.14273M1267.15 7.81273L1278.04 9.54182M1267.15 7.81273H1299.38M1184.15 4.52909H1215.31M1184.15 4.52909H1153M1161.55 6.14273L1153 4.52909M1256.63 6.14273H1288.31M1256.63 6.14273L1246.45 4.52909M1215.31 4.52909H1246.45M1278.04 9.54182L1289.33 11.3336M1278.04 9.54182H1308.74M1299.38 7.81273L1288.31 6.14273M1299.38 7.81273L1308.74 9.22273M1299.38 7.81273H1308.74M1288.31 6.14273L1277.61 4.52909M1288.31 6.14273H1308.74M1246.45 4.52909H1277.61M1246.45 4.52909L1236.63 2.96909M1289.33 11.3336H1308.74M1308.74 9.54182V9.22273M1308.74 9.54182V11.3336M1308.74 9.22273V7.81273M1308.74 7.81273V6.14273M1277.61 4.52909L1267.26 2.96909M1277.61 4.52909H1308.74M1308.74 6.14273V4.52909M1236.63 2.96909H1267.26M1308.74 4.52909H1308.76L1308.74 4.52546M1308.74 4.52909V4.52546M1308.74 14.4145V13.1918M1308.74 13.1918V11.3336M1189.1 11.3336L1179.59 9.54182M1189.1 11.3336H1155.69M1179.59 9.54182H1146.77M1302.87 19.2009L1308.74 20.1827M1302.87 19.2009H1308.74M1308.74 17.1209V19.2009M1308.74 20.1827V19.2009M1230.84 19.2009L1219.8 17.1209M1230.84 19.2009H1194.82M1219.8 17.1209H1184.47M1146.77 9.54182L1155.69 11.3336M1121.85 4.52909H1153M1121.85 4.52909L1114.09 2.96909M1153 4.52909L1144.73 2.96909M1114.09 2.96909H1144.73M1055.46 11.3336L1048.33 9.54182M1055.46 11.3336H1022.05M1048.33 9.54182H1015.52M1184.47 17.1209L1194.82 19.2009M1086.76 19.2009L1078.49 17.1209M1086.76 19.2009H1050.75M1078.49 17.1209H1043.16M1228.43 25.9573L1240.57 28.4M1228.43 25.9573H1266.68M1266.68 25.9573L1279.65 28.4M1240.57 28.4H1279.65M1279.65 28.4L1293.16 30.9482M1279.65 28.4H1308.74M1293.16 30.9482L1307.28 33.61M1293.16 30.9482H1308.74M1123.36 28.4L1113.65 25.9573M1123.36 28.4H1084.3M1308.74 28.4H1308.95M1308.74 28.4V30.9482M1113.65 25.9573H1075.39M1280.32 36.3918L1294.8 39.3018M1280.32 36.3918L1308.74 36.3909M1307.28 33.61L1308.74 33.8845M1307.28 33.61L1308.74 33.6091M1308.74 30.9482V33.6109V33.8845M1308.74 33.8845L1309.09 33.9509M1308.74 33.8845V36.3909M1294.8 39.3018H1308.74M1294.8 39.3018L1308.74 42.1045M1308.74 36.3909V39.3018M1308.74 39.3018V42.1045M1166.75 39.3018L1155.16 36.3909M1166.75 39.3018L1124.06 39.3009M1155.16 36.3909L1113.45 36.3918M1308.74 51.5V48.9M1308.74 51.5V52.4264M1204.94 48.9H1159.07M1204.94 48.9L1218.97 52.4264M1308.87 51.5282L1308.74 51.4991M1015.52 9.54182L1022.05 11.3336M997.236 4.52909H1028.38M997.236 4.52909L991.545 2.96909M1028.38 4.52909L1027.6 4.33091L1026.04 3.93818L1022.18 2.96909M991.545 2.96909H1022.18M921.818 11.3336L917.073 9.54182M921.818 11.3336H888.413M917.073 9.54182H884.254M1043.16 17.1209L1050.75 19.2009M942.691 19.2009L937.173 17.1209M942.691 19.2009H906.672M937.173 17.1209H901.845M1075.39 25.9573L1084.3 28.4M967.091 28.4L960.609 25.9573M967.091 28.4H928.027M960.609 25.9573H922.355M1113.45 36.3918L1124.06 39.3009M996.009 39.3018L988.291 36.3909M996.009 39.3018L953.327 39.3009M988.291 36.3909L946.573 36.3918M1159.07 48.9L1171.94 52.4264M1171.94 52.4264H1218.97M1030.83 52.4264L1021.47 48.9009M1030.83 52.4264H983.791M1021.47 48.9009L975.609 48.9M1214.77 64.1718L1230.68 68.5309M1214.77 64.1718H1265.71M1265.71 64.1718L1283.05 68.5309M1265.71 64.1718H1308.74M1230.68 68.5309H1283.05M1283.05 68.5309L1301.42 73.1455M1283.05 68.5309H1308.74M1308.74 64.1718V68.5309M1301.42 73.1455L1308.74 73.1464M1301.42 73.1455L1308.74 74.9864M1073.55 68.5309L1061.98 64.1718M1073.55 68.5309H1021.17M1308.74 68.5309V73.1464M1061.98 64.1718H1011.05M1284.3 83.2336L1304.46 88.7618M1284.3 83.2336L1308.74 83.2346M1308.74 78.0373V74.9864M1308.74 78.0373V83.2346M1308.74 73.1464V74.9864M1304.46 88.7618L1308.74 89.9327M1304.46 88.7618H1308.74M1308.74 83.2346V88.7618M1308.74 89.9327V88.7618M1127.22 88.7618L1112.55 83.2346M1127.22 88.7618H1068.14M1112.55 83.2346L1098.77 78.0373M1112.55 83.2346L1055.3 83.2336M1308.74 107.697V107.868M1308.74 107.868V114.936M1177.45 107.697H1112.08M1177.45 107.697L1196.65 114.936M884.254 9.54182L885.279 9.98364L888.413 11.3336M872.619 4.52909H903.772M872.619 4.52909L868.998 2.96909M903.772 4.52909L902.204 3.93818L899.635 2.96909M868.998 2.96909H899.635M788.184 11.3336L787.582 10.8791L785.807 9.54182M788.184 11.3336H754.774M785.807 9.54182H752.992M901.845 17.1209L906.672 19.2009M798.618 19.2009L798.267 18.9364L797.918 18.6727L795.859 17.1209M798.618 19.2009H762.6M795.859 17.1209H760.531M922.355 25.9573L928.027 28.4M810.819 28.4L807.58 25.9573M810.819 28.4L771.751 28.3991M807.58 25.9573L769.321 25.9564M946.573 36.3918L953.327 39.3009M825.279 39.3018L821.419 36.3909M825.279 39.3018L782.595 39.3009M821.419 36.3909L779.701 36.39M975.609 48.9L983.791 52.4264M842.687 52.4264L838.011 48.9M842.687 52.4264H795.652M838.011 48.9H792.145M1011.05 64.1718L1021.17 68.5309M864.048 68.5309L858.266 64.1718M864.048 68.5309H811.673M858.266 64.1718H807.335M1055.3 83.2336L1068.14 88.7618M890.881 88.7618L883.548 83.2355L826.297 83.2346M890.881 88.7618L831.797 88.7627M1112.08 107.697L1128.88 114.936M1128.88 114.936H1196.65M1196.65 114.936L1217.32 122.726M1217.32 122.726L1239.62 131.135M925.6 114.936L916 107.697M925.6 114.936H857.834M916 107.697H850.633M1187.61 140.237L1210.56 150.124M1187.61 140.237H1263.76M1239.62 131.135L1263.76 140.237M1239.62 131.135H1308.74M1263.76 140.237L1289.99 150.124M1263.76 140.237H1308.74M1308.74 131.135V140.237M1210.56 150.124H1289.99M1289.99 150.124H1308.74M1289.99 150.124L1308.74 157.191M1308.74 140.237V150.124M1308.74 160.899V157.191M1308.74 160.899V172.689M972.264 150.124L959.155 140.237M972.264 150.124H892.837M1308.74 150.124V157.191M959.155 140.237H883.004M1293.01 185.645L1308.74 192.422M1293.01 185.645H1308.74M1308.74 172.689V185.645M1230.25 199.949H1134.31M1230.25 199.949H1308.74M1308.74 192.422V185.645M1308.74 192.422V199.949M1134.31 199.949H1038.35M1308.74 199.949V200H0.352727V199.949M1038.35 199.949L1019.38 185.645M1038.35 199.949H942.4M1019.38 185.645H928.173M752.992 9.54182L753.211 9.76182L753.432 9.98364L753.653 10.2064L753.875 10.43L754.774 11.3336M748.006 4.52909L747.809 4.33091L747.418 3.93818L747.029 3.54818L746.837 3.35455L746.454 2.96909M748.006 4.52909H779.159M779.159 4.52909L777.345 3.16182L777.089 2.96909M746.454 2.96909H777.089M654.545 11.3336H621.136M654.545 9.54182H621.73M654.545 9.54182V11.3345M760.531 17.1209L762.6 19.2009M654.545 19.2009V17.12M654.545 19.2009H618.527M654.545 17.12L619.217 17.1209M769.321 25.9564L771.751 28.3991M654.545 28.3991V25.9564M654.545 28.3991H615.477M654.545 25.9564H616.286M779.701 36.39H737.983M779.701 36.39L782.595 39.3009M776.934 33.6082H817.73M654.545 39.3009V36.3909M654.545 39.3009H611.862M654.545 36.3909L612.827 36.3918M792.145 48.9L795.652 52.4264M654.545 52.4264V48.9M654.545 52.4264H607.51M654.545 48.9H608.679M807.335 64.1718L811.673 68.5309M654.545 68.5309V64.1727M654.545 68.5309H602.17M654.545 64.1727L603.615 64.1718M826.297 83.2346L831.797 88.7627M654.545 88.7627V83.2355L597.295 83.2346M654.545 88.7627H595.462M850.633 107.697L857.834 114.936M654.545 114.936V107.697M654.545 114.936H586.783M654.545 107.697H589.183M883.004 140.237L892.837 150.124M654.545 150.124V140.237M654.545 150.124H575.115M654.545 140.237H578.393M928.173 185.645L942.4 199.949M846.45 199.949H942.4M846.45 199.949H750.498M750.498 199.949H654.545M654.545 199.949V185.645M654.545 199.949H558.593M654.545 185.645H563.336M621.73 9.54182L621.656 9.76182L621.584 9.98364L621.509 10.2064L621.136 11.3336M623.393 4.52909L654.545 4.53M623.393 4.52909L623.588 3.93909L623.654 3.74364L623.909 2.97091M654.545 4.53V2.96909M623.909 2.97091L654.545 2.96909M520.907 11.3336L521.509 10.8791L523.284 9.54182M520.907 11.3336H487.498M523.284 9.54182H490.468M619.217 17.1209L618.527 19.2009M510.473 19.2009L513.232 17.12M510.473 19.2009L474.455 19.2M510.473 19.2009L507.605 21.3618M513.232 17.12L477.903 17.1209M616.286 25.9564L616.088 26.5564L615.683 27.7782L615.477 28.3991M498.272 28.3991L501.511 25.9573M498.272 28.3991H459.203M501.511 25.9573L463.254 25.9564M612.827 36.3918L611.862 39.3009M483.812 39.3018L487.672 36.3909M483.812 39.3018L441.128 39.3009M487.672 36.3909L445.954 36.39M608.679 48.9L607.51 52.4264M466.404 52.4264L471.08 48.9M466.404 52.4264H419.368M471.08 48.9H425.214M603.615 64.1718L602.17 68.5309M445.043 68.5309L450.825 64.1727M445.043 68.5309H392.667M450.825 64.1727L399.895 64.1718M597.295 83.2346L595.462 88.7627M418.21 88.7627L425.543 83.2355L368.292 83.2346M418.21 88.7627H359.126M589.183 107.697L586.783 114.936M383.495 114.936L393.095 107.697M383.495 114.936H315.731M393.095 107.697H327.733M578.393 140.237L575.115 150.124M336.823 150.124L349.935 140.237M336.823 150.124H257.393M349.935 140.237H273.783M563.336 185.645L558.593 199.949M462.641 199.949H558.593M462.641 199.949H366.689M366.689 199.949H270.736M270.736 199.949L289.708 185.645M270.736 199.949H174.785M289.708 185.645H198.499M490.468 9.54182L487.498 11.3336M498.779 4.52909H529.932M498.779 4.52909L500.726 3.35455L501.365 2.96909M529.932 4.52909L530.195 4.33091L530.716 3.93818L532.001 2.96909M501.365 2.96909H532.001M387.269 11.3336L392.022 9.54182M387.269 11.3336H353.859M392.022 9.54182H359.206M477.903 17.1209L474.455 19.2M474.455 19.2L470.87 21.3618M470.87 21.3618H507.605M366.401 19.2009L371.24 17.3764L371.917 17.12M366.401 19.2009H330.383M371.917 17.12L336.588 17.1209M463.254 25.9564L459.203 28.3991M341.997 28.3991L348.478 25.9564M341.997 28.3991L302.929 28.4M348.478 25.9564L310.219 25.9573M445.954 36.39H404.235M445.954 36.39L441.128 39.3009M450.565 33.6082H491.361M313.078 39.3009L320.798 36.3909M313.078 39.3009H270.395M320.798 36.3909L279.08 36.3918M425.214 48.9L419.368 52.4264M278.263 52.4264L287.615 48.9M278.263 52.4264H231.226M287.615 48.9H241.749M399.895 64.1718L392.667 68.5309M235.54 68.5309L247.105 64.1727M235.54 68.5309H183.165M247.105 64.1727L196.175 64.1718M368.292 83.2346L359.126 88.7627M181.875 88.7627L196.539 83.2355L139.288 83.2346M181.875 88.7627H122.791M327.733 107.697L315.731 114.936M112.443 114.936L131.645 107.697M112.443 114.936H44.6791M131.645 107.697H66.2827M273.783 140.237L257.393 150.124M19.1 150.124L45.3255 140.237M19.1 150.124H0.352727M19.1 150.124L0.352727 157.191M45.3255 140.237H0.352727M198.499 185.645L174.785 199.949M78.8327 199.949H174.785M78.8327 199.949H0.352727M0.352727 199.949V192.422M0.352727 192.422V185.645M359.206 9.54182L353.859 11.3336M374.165 4.52909L374.756 4.33091L378.821 2.96909M374.165 4.52909H405.319M405.319 4.52909L406.887 3.93818L409.457 2.96909M378.821 2.96909H409.457M253.631 11.3336L260.761 9.54182M253.631 11.3336H220.221M260.761 9.54182H227.945M336.588 17.1209L330.383 19.2009M222.328 19.2009L230.603 17.1209M222.328 19.2009H186.31M230.603 17.1209H195.275M310.219 25.9573L302.929 28.4M185.724 28.4L195.444 25.9573M185.724 28.4H146.655M195.444 25.9573H157.185M279.08 36.3918L270.395 39.3009M142.345 39.3018L153.925 36.3909M142.345 39.3018L99.6618 39.3009M153.925 36.3909L112.206 36.3918M241.749 48.9L231.226 52.4264M90.1209 52.4264L104.15 48.9018H58.2845M90.1209 52.4264L43.0845 52.4273M90.1209 52.4264L75.3573 56.1364H27.0909M196.175 64.1718L183.165 68.5309M78.4127 68.5309H26.0382M78.4145 68.5309L94.3155 64.1718M235.541 68.5309L223.3 73.1455M43.3845 64.1727L26.0373 68.5318M43.3845 64.1727H0.352727M139.288 83.2346L82.0382 83.2355H24.7873M139.288 83.2346L122.791 88.7627M4.62273 88.7627L24.7864 83.2355M4.62273 88.7627H0.352727M4.62273 88.7627L0.352727 89.9327M86.4073 100.955L66.2827 107.697M0.352727 88.7627V89.9327M0.352727 88.7627V83.2336M0.352727 83.2336V78.0364V74.9855V73.1455M66.2827 107.697L44.6791 114.936M0.352727 107.697V107.868M0.352727 107.868V114.936V122.726M44.6791 114.936L21.43 122.726M44.6791 114.936H0.351818M21.43 122.726H0.352727M21.43 122.726L0.352727 129.789M0.352727 122.726V129.789M0.352727 129.789V131.135M0.352727 131.135V140.237M0.352727 140.237V150.124M0.352727 150.124V157.191M227.945 9.54182L220.221 11.3336M249.552 4.52909L250.405 4.33091L256.276 2.96909M249.552 4.52909H280.705M280.705 4.52909L281.493 4.33091L286.912 2.96909M256.276 2.96909H286.912M119.993 11.3336H86.5827M129.499 9.54182L96.6836 9.54273M129.499 9.54182L138.674 7.81364M129.499 9.54182L119.993 11.3345M195.275 17.1209L186.31 19.2009M78.2555 19.2009L89.2891 17.12L53.9609 17.1209L65.2436 15.1191L76.11 13.1918M78.2555 19.2009L42.2382 19.2M78.2555 19.2009L66.7827 21.3618M157.185 25.9573L146.655 28.4M29.45 28.4L42.41 25.9573M29.45 28.4H0.352727M42.41 25.9573H4.15182M112.206 36.3918L99.6618 39.3009M28.7709 36.3909H0.351818M58.2836 48.9L43.0845 52.4273M0.352727 51.5V52.4264M43.0845 52.4273L27.0909 56.1364M43.0845 52.4273L0.352727 52.4264M27.0909 56.1364L10.2382 60.0455M27.0909 56.1364H0.352727M10.2382 60.0455H0.352727M10.2382 60.0455L0.352727 62.34M0.352727 52.4264V56.1382V60.0473V62.34M0.218182 51.5273L0.351818 51.5M0.352727 62.34V64.1727M26.0373 68.5318L0.352727 68.5327M0.352727 64.1727V68.5309V73.1455M0.352727 73.1455H7.67636L0.352727 74.9873M96.6836 9.54273L106.431 7.81364M96.6836 9.54273L86.5836 11.3345M106.431 7.81364H138.674M124.939 4.53H156.092M124.939 4.53L133.732 2.97M62.6318 4.53L31.4791 4.52909M156.092 4.53L164.368 2.97M133.732 2.97H164.368M86.5827 11.3336H53.1736H19.7645M86.5827 11.3336L76.11 13.1918M19.7645 11.3336H0.353636M18.6336 17.1209L6.22 19.2M6.22 19.2H42.2382M6.22 19.2L0.352727 20.1818M6.22 19.2H0.352727M0.351818 17.12H18.6327H53.96L42.2382 19.2M42.2382 19.2L30.0482 21.3618M30.0473 21.3618L17.3636 23.6136M17.3636 23.6136L4.15182 25.9573M17.3636 23.6136H0.352727M30.0473 21.3627H0.352727M0.352727 21.3627V23.6136M0.352727 21.3627V20.1836V19.2M4.15182 25.9573L0.350909 26.63M4.15182 25.9573H0.351818M0.352727 23.6136V25.9573V26.6309V28.4M0.352727 30.9482V33.6091M0.352727 30.9482V28.4M0.352727 28.4H0.148182M0.352727 33.6091V33.8845M0.352727 33.8845L0 33.9509M0.352727 7.81273V6.14273L0.353636 4.52909M31.4791 4.52909L41.8236 2.96909L11.1873 2.97M31.4791 4.52909H0.353636M0.353636 4.52909H0.325455L0.352727 4.52546M0.353636 4.52909L0.352727 4.52546M11.1873 2.97L0.352727 4.52546M11.1873 2.97L0.352727 2.96909M0.352727 4.52546V2.96909M1308.74 4.52546V2.96909" stroke="url(#paint0_radial_39_1953)" stroke-opacity="0.6" stroke-width="1.71727" stroke-miterlimit="10" stroke-linecap="round" stroke-linejoin="round"/>
</g>
<defs>
<radialGradient id="paint0_radial_39_1953" cx="0" cy="0" r="1" gradientUnits="userSpaceOnUse" gradientTransform="translate(654.546 192.628) rotate(-90) scale(313.074 2049.21)">
<stop stop-color="#3D3D3D"/>
<stop offset="0.489" stop-color="#3D3D3D"/>
</radialGradient>
</defs>
</svg>
