<svg width="22" height="22" viewBox="0 0 22 22" fill="none" xmlns="http://www.w3.org/2000/svg">
<mask id="mask0_39_1768" style="mask-type:luminance" maskUnits="userSpaceOnUse" x="0" y="0" width="22" height="22">
<path d="M0.294118 0.294118H21.7059V21.7059H0.294118V0.294118Z" fill="white"/>
</mask>
<g mask="url(#mask0_39_1768)">
<path d="M15.1259 21.7059V6.87412H0.294118V0.294118H15.06C18.8211 0.294118 21.7059 3.17976 21.7059 6.93012V21.7059H15.1259Z" fill="#DBFB36"/>
<path d="M13.3306 15.1259C13.3357 15.4317 13.2784 15.7354 13.1622 16.0183C13.0459 16.3012 12.8732 16.5574 12.6545 16.7713C11.2825 18.1433 9.91953 19.5252 8.53682 20.8881C7.54118 21.8656 6.17823 21.8376 5.19165 20.8601C3.83636 19.5142 2.48577 18.1636 1.13988 16.8084C0.191176 15.8498 0.172235 14.4498 1.12176 13.4904C2.47201 12.1213 3.83169 10.7617 5.20071 9.41141C6.18729 8.43388 7.56918 8.43388 8.55659 9.41141C9.90059 10.7455 11.2355 12.0904 12.5696 13.4253C13.0489 13.8947 13.3306 14.4498 13.3306 15.1259Z" fill="#DBFB36"/>
</g>
</svg>
