<svg width="21" height="24" viewBox="0 0 21 24" fill="none" xmlns="http://www.w3.org/2000/svg">
<mask id="mask0_39_1763" style="mask-type:luminance" maskUnits="userSpaceOnUse" x="0" y="0" width="21" height="24">
<path d="M0.294118 0.470588H20.8824V23.5294H0.294118V0.470588Z" fill="white"/>
</mask>
<g mask="url(#mask0_39_1763)">
<path d="M5.02941 11.3H1.42235V6.67588H14.3295V17.2887H9.53741V13.4766C9.37765 13.6125 9.30188 13.6759 9.236 13.7393C8.17282 14.9499 7.11788 16.1596 6.05388 17.3604C5.78129 17.6675 5.62153 17.9838 5.81918 18.3898C6.01682 18.7875 6.37424 18.8781 6.79835 18.8781H13.9993C15.214 18.8781 16.0235 18.0744 16.0235 16.9V7.14529C16.0235 5.86306 15.2239 5.09471 13.8865 5.09471H1.43306V0.462353H14.0199C17.888 0.462353 20.8824 3.32577 20.8914 7.03824C20.9013 10.3348 20.9013 13.6314 20.8914 16.928C20.8824 20.6668 17.8888 23.5212 13.9911 23.5212C11.1952 23.5212 8.40835 23.5393 5.61247 23.5129C3.41941 23.494 1.77153 22.5371 0.840118 20.6306C-0.0921177 18.7258 0.199412 16.9099 1.59282 15.2752C2.6 14.0827 3.63518 12.9174 4.66212 11.734C4.756 11.6352 4.84988 11.5182 5.02859 11.3008L5.02941 11.3Z" fill="#DBFB36"/>
</g>
</svg>
