<svg width="22" height="26" viewBox="0 0 22 26" fill="none" xmlns="http://www.w3.org/2000/svg">
<mask id="mask0_39_1931" style="mask-type:luminance" maskUnits="userSpaceOnUse" x="0" y="0" width="22" height="26">
<path d="M0.294118 0.647059H21.1039V25.3529H0.294118V0.647059Z" fill="white"/>
</mask>
<g mask="url(#mask0_39_1931)">
<path d="M21.08 0.647059C21.08 2.35753 21.1278 3.90165 21.0331 5.42188C21.0084 5.73071 20.3907 6.13424 19.9872 6.25365C15.5928 7.53588 11.1976 8.79506 6.75553 9.95953C5.63882 10.2445 5.37776 10.7196 5.37776 11.8125C5.44941 15.8033 5.40165 19.7941 5.40165 23.7849V25.3052H0.365765C0.341059 24.9494 0.294118 24.5928 0.294118 24.2601V12.2876C0.318 8.43847 2.28953 5.89706 6.01929 4.85118C10.4614 3.59282 14.9035 2.35753 19.3695 1.09835C19.8447 0.955882 20.3438 0.837294 21.08 0.647059Z" fill="#DBFB36"/>
<path d="M7.70588 25.3529V13.1186C7.70588 12.2638 8.22882 11.8125 9.012 11.9788C12.861 12.8609 16.7016 13.7795 20.5332 14.7344C20.7473 14.7813 21.0331 15.1626 21.0569 15.3989C21.1039 16.92 21.08 18.4641 21.08 20.126C18.3006 19.4614 15.6875 18.8438 12.8851 18.1792V25.3291C11.0791 25.3538 9.46412 25.3529 7.70588 25.3529Z" fill="#DBFB36"/>
</g>
</svg>
