<svg width="24" height="23" viewBox="0 0 24 23" fill="none" xmlns="http://www.w3.org/2000/svg">
<mask id="mask0_39_1864" style="mask-type:luminance" maskUnits="userSpaceOnUse" x="0" y="0" width="24" height="23">
<path d="M0.962963 0.555555H23.1637V22.7778H0.962963V0.555555Z" fill="white"/>
</mask>
<g mask="url(#mask0_39_1864)">
<path d="M8.09926 5.26444C9.79037 5.99259 11.5585 6.56148 13.2837 6.99407C15.4541 7.53333 18.4119 8.04296 20.9333 7.59407C21.3481 7.43482 21.7681 7.26815 22.1837 7.10518C21.4752 5.53534 20.4129 4.15081 19.08 3.06C16.7852 4.25037 14.1741 4.58815 11.5926 4.87926C10.4281 5.01259 9.25926 5.18296 8.09926 5.26444Z" fill="#7F7F7F"/>
<path d="M19.4993 17.8163C17.243 18.4496 15.2311 19.597 12.9022 19.9867C10.4963 20.3889 8.00519 20.7015 5.53481 20.663C7.42864 22.0387 9.70961 22.779 12.0504 22.7778C16.1904 22.7778 19.7985 20.5133 21.7081 17.157C20.9674 17.3963 20.2267 17.6111 19.4948 17.8163H19.4993Z" fill="#666666"/>
<path d="M11.6652 10.4785C13.0415 10.1779 14.4043 9.8181 15.7496 9.4C15.1616 9.3175 14.5761 9.21746 13.9941 9.1C10.3467 8.38518 6.40889 6.94667 3.28296 4.84518C1.90277 6.61371 1.09358 8.76045 0.962963 11C4.28889 11.9674 8.56148 11.1504 11.6652 10.4822V10.4785Z" fill="#999999"/>
<path d="M12.9667 18.0474C14.5252 17.7474 15.937 17.0548 17.4059 16.4978C15.9422 16.4909 14.4801 16.4009 13.0267 16.2281C8.97259 15.7319 4.89333 14.5415 1.03111 13.0644C1.28547 15.0992 2.10108 17.0231 3.38667 18.6207C6.56222 19.0104 9.88445 18.643 12.9667 18.0474Z" fill="#7F7F7F"/>
<path d="M22.8252 14.4C23.0518 13.5059 23.1655 12.5869 23.1637 11.6644C23.1637 10.7185 23.057 9.90148 22.8556 9.06593C22.386 9.22573 21.9051 9.35028 21.417 9.43852C17.7785 10.8341 14.0881 12.0459 10.2185 12.6963C9.25926 12.8593 8.2363 13.0133 7.19185 13.1289C8.79704 13.5733 10.4111 13.9378 12.0119 14.1815C14.3533 14.537 16.7341 14.7 19.097 14.6015C20.2867 14.5541 21.597 14.6015 22.8252 14.4ZM11.5926 2.97037C13.5148 2.75185 15.4237 2.5037 17.1874 1.81481C15.6024 0.984909 13.8395 0.552748 12.0504 0.555556C9.28518 0.555556 6.75926 1.57037 4.81185 3.24C6.98222 3.77926 9.43037 3.21778 11.5881 2.96963H11.5926V2.97037Z" fill="#666666"/>
</g>
</svg>
