<svg width="34" height="34" viewBox="0 0 34 34" fill="none" xmlns="http://www.w3.org/2000/svg">
<mask id="mask0_39_1665" style="mask-type:luminance" maskUnits="userSpaceOnUse" x="0" y="0" width="34" height="34">
<path d="M0 0H34V34H0V0Z" fill="white"/>
</mask>
<g mask="url(#mask0_39_1665)">
<mask id="mask1_39_1665" style="mask-type:luminance" maskUnits="userSpaceOnUse" x="-1" y="5" width="35" height="24">
<path d="M-0.425 5.1H33.575V28.05H-0.425V5.1Z" fill="white"/>
</mask>
<g mask="url(#mask1_39_1665)">
<path d="M14.66 10.473C14.8217 10.4789 14.979 10.5274 15.116 10.6137C15.2529 10.7 15.3646 10.8209 15.4397 10.9643C15.5149 11.1076 15.5508 11.2683 15.5438 11.43C15.5368 11.5917 15.4872 11.7487 15.4 11.885L11.694 17.695C11.5863 17.8635 11.5364 18.0625 11.5519 18.2619C11.5674 18.4613 11.6475 18.6502 11.78 18.8L18.621 26.522C19.146 27.114 18.727 28.049 17.938 28.049H8.384C8.24024 28.0491 8.09849 28.0153 7.97026 27.9503C7.84203 27.8853 7.73093 27.791 7.646 27.675L2.631 20.825C2.54617 20.7092 2.43523 20.6149 2.30719 20.5499C2.17914 20.485 2.03759 20.4511 1.894 20.451H1.372C1.20286 20.4506 1.03713 20.4034 0.893094 20.3147C0.749061 20.2261 0.632328 20.0993 0.555776 19.9485C0.479225 19.7977 0.445832 19.6286 0.459282 19.46C0.472733 19.2914 0.532504 19.1298 0.632 18.993L6.708 10.611C6.79563 10.4898 6.91165 10.392 7.0459 10.3261C7.18015 10.2602 7.32852 10.2282 7.478 10.233L14.66 10.473Z" fill="#DBFB36"/>
<path d="M18.49 22.676C18.3283 22.6701 18.171 22.6216 18.034 22.5353C17.8971 22.449 17.7854 22.3281 17.7103 22.1847C17.6351 22.0414 17.5992 21.8807 17.6062 21.719C17.6132 21.5573 17.6628 21.4003 17.75 21.264L21.456 15.454C21.5633 15.2855 21.6129 15.0866 21.5972 14.8874C21.5815 14.6883 21.5014 14.4996 21.369 14.35L14.529 6.628C14.004 6.035 14.423 5.1 15.212 5.1H24.766C25.058 5.1 25.331 5.239 25.504 5.474L30.519 12.324C30.6038 12.4398 30.7148 12.5341 30.8428 12.5991C30.9709 12.664 31.1124 12.6979 31.256 12.698H31.778C32.526 12.698 32.958 13.549 32.518 14.156L26.442 22.539C26.3543 22.66 26.2382 22.7577 26.1039 22.8234C25.9697 22.8891 25.8214 22.9209 25.672 22.916L18.49 22.676Z" fill="#DBFB36"/>
</g>
</g>
</svg>
