<svg width="27" height="23" viewBox="0 0 27 23" fill="none" xmlns="http://www.w3.org/2000/svg">
<mask id="mask0_39_1885" style="mask-type:luminance" maskUnits="userSpaceOnUse" x="0" y="0" width="27" height="23">
<path d="M0.50963 0.555555H26.1689V22.7778H0.50963V0.555555Z" fill="white"/>
</mask>
<g mask="url(#mask0_39_1885)">
<path d="M19.7541 0.555555H6.92444L0.50963 11.6667L6.92444 22.7778H19.7541L26.1689 11.6667L19.7541 0.555555ZM19.1881 21.6274L19.1393 21.7111H7.53926L1.74074 11.6667L7.54074 1.62074H7.63704L8.95111 3.89778L10.3511 1.47185H10.5363L9.0437 4.05704L9.74741 5.27852L11.9452 1.47185H12.1911L9.87111 5.49111L10.5304 6.63111L13.5081 1.47111H13.8778L10.7148 6.95037L11.3119 7.9837L15.0719 1.47111H15.5644L11.557 8.41037L12.1007 9.35111L16.6504 1.47185H17.2652L12.4074 9.88444L12.8815 10.7052L18.2119 1.47185H18.9504L13.2504 11.3437L13.7059 12.1348L19.4185 2.24296L19.9104 3.09481L14.1993 12.9867L19.1881 21.6274Z" fill="#666666"/>
</g>
</svg>
