<svg width="35" height="35" viewBox="0 0 35 35" fill="none" xmlns="http://www.w3.org/2000/svg">
<mask id="mask0_39_2153" style="mask-type:luminance" maskUnits="userSpaceOnUse" x="0" y="0" width="35" height="35">
<path d="M29.6154 0H5.38462C2.41077 0 0 2.41077 0 5.38462V29.6154C0 32.5892 2.41077 35 5.38462 35H29.6154C32.5892 35 35 32.5892 35 29.6154V5.38462C35 2.41077 32.5892 0 29.6154 0Z" fill="white"/>
</mask>
<g mask="url(#mask0_39_2153)">
<path d="M29.6154 0H5.38462C2.41077 0 0 2.41077 0 5.38462V29.6154C0 32.5892 2.41077 35 5.38462 35H29.6154C32.5892 35 35 32.5892 35 29.6154V5.38462C35 2.41077 32.5892 0 29.6154 0Z" fill="#141414"/>
<path d="M3.87019 37.0421V-2.01923M9.25481 37.0421V-2.01923M14.6394 37.0421V-2.01923M20.024 37.0421V-2.01923M25.4087 37.0421V-2.01923M30.7933 37.0421V-2.01923M-1.85096 3.71337H37.2111M-1.85096 9.09798H37.2111M-1.85096 14.4826H37.2111M-1.85096 19.8672H37.2111M-1.85096 25.2518H37.2111M-1.85096 30.6364H37.2111" stroke="#DCFC36" stroke-opacity="0.2" stroke-width="0.673077"/>
<mask id="mask1_39_2153" style="mask-type:luminance" maskUnits="userSpaceOnUse" x="9" y="9" width="17" height="17">
<path d="M9.42308 9.42308H25.5769V25.5769H9.42308V9.42308Z" fill="white"/>
</mask>
<g mask="url(#mask1_39_2153)">
<g filter="url(#filter0_d_39_2153)">
<path d="M25.5769 17.5C25.5769 13.0388 21.9612 9.42308 17.5 9.42308C13.0388 9.42308 9.42308 13.0388 9.42308 17.5C9.42308 21.2881 12.0306 24.4663 15.5487 25.3393V19.9682H13.8836V17.5H15.5481V16.4365C15.5481 13.687 16.7926 12.4129 19.491 12.4129C20.0025 12.4129 20.8863 12.5138 21.2477 12.6141V14.8514C21.0565 14.8313 20.7254 14.8212 20.3141 14.8212C18.9895 14.8212 18.478 15.3226 18.478 16.627V17.5H21.1164L20.6628 19.9682H18.478V25.5177C22.4781 25.0351 25.5769 21.6293 25.5769 17.5Z" fill="#DBFB36"/>
</g>
</g>
</g>
<defs>
<filter id="filter0_d_39_2153" x="1.34615" y="1.34615" width="32.3077" height="32.2485" filterUnits="userSpaceOnUse" color-interpolation-filters="sRGB">
<feFlood flood-opacity="0" result="BackgroundImageFix"/>
<feColorMatrix in="SourceAlpha" type="matrix" values="0 0 0 0 0 0 0 0 0 0 0 0 0 0 0 0 0 0 127 0" result="hardAlpha"/>
<feOffset/>
<feGaussianBlur stdDeviation="4.03846"/>
<feComposite in2="hardAlpha" operator="out"/>
<feColorMatrix type="matrix" values="0 0 0 0 0.862745 0 0 0 0 0.988235 0 0 0 0 0.211765 0 0 0 0.3 0"/>
<feBlend mode="normal" in2="BackgroundImageFix" result="effect1_dropShadow_39_2153"/>
<feBlend mode="normal" in="SourceGraphic" in2="effect1_dropShadow_39_2153" result="shape"/>
</filter>
</defs>
</svg>
