<svg width="24" height="16" viewBox="0 0 24 16" fill="none" xmlns="http://www.w3.org/2000/svg">
<mask id="mask0_39_1909" style="mask-type:luminance" maskUnits="userSpaceOnUse" x="0" y="0" width="24" height="16">
<path d="M0.470588 0.588235H23.5294V15.4118H0.470588V0.588235Z" fill="white"/>
</mask>
<g mask="url(#mask0_39_1909)">
<path d="M2.97082 10.4994C4.84682 10.4994 6.57623 10.3396 8.26282 10.5431C10.0952 10.7605 11.0109 10.0629 11.7381 8.42082C12.7996 5.99388 14.1511 3.68306 15.3584 1.31376C15.5766 0.864117 15.8236 0.689529 16.3466 0.689529C18.6879 0.718353 21.0432 0.704353 23.5294 0.704353C23.3976 1.00906 23.3112 1.24212 23.1942 1.45953C20.8686 5.86294 18.5273 10.2672 16.2156 14.6854C15.9249 15.2372 15.6194 15.4266 14.9944 15.4266C11.9655 15.3999 8.93647 15.3949 5.90753 15.4118C5.45706 15.4118 5.21 15.28 5.02059 14.8592C4.38153 13.4345 3.71282 12.0542 2.97082 10.4994Z" fill="#DBFB36"/>
<path d="M0.470588 0.689529H5.76259C5.98082 0.689529 6.19906 0.718353 6.41729 0.689529C8.48188 0.282706 9.84812 1.15482 10.9533 2.86941C11.5051 3.71271 11.7093 4.26447 11.1279 5.13659C10.5465 6.02353 10.1536 7.02577 9.62988 7.95635C9.51459 8.17377 9.16459 8.392 8.93235 8.392C7.55126 8.42837 6.16945 8.42837 4.78835 8.392C4.58494 8.392 4.29424 8.26106 4.20694 8.10129C2.97165 5.68835 1.76435 3.26224 0.470588 0.689529Z" fill="#DBFB36"/>
</g>
</svg>
