<svg width="26" height="26" viewBox="0 0 26 26" fill="none" xmlns="http://www.w3.org/2000/svg">
<path d="M7.99067 5.26413C9.37733 3.9208 11.0465 3.25 13 3.25C14.9535 3.25 16.6157 3.91387 17.9859 5.2416C19.3561 6.56847 20.0417 8.17873 20.0417 10.0707C20.0417 11.0162 19.7973 12.0995 19.3093 13.3207C18.8319 14.52 18.2383 15.6698 17.537 16.7535C16.8786 17.7712 16.1931 18.7711 15.4813 19.7522C14.8035 20.6821 14.2289 21.4223 13.7566 21.9717L13 22.75C12.8111 22.5359 12.5589 22.2543 12.2434 21.9033C11.9288 21.5523 11.362 20.8503 10.5421 19.7973C9.77187 18.814 9.05441 17.7904 8.3928 16.731C7.77747 15.7387 7.21847 14.6172 6.71407 13.3657C6.21053 12.1151 5.95833 11.0171 5.95833 10.0707C5.95833 8.17873 6.63607 6.57627 7.99067 5.26413Z" stroke="#DBFB36" stroke-width="1.73333" stroke-linecap="round" stroke-linejoin="round"/>
<path d="M14.0833 10.2917C14.0833 10.579 13.9692 10.8545 13.766 11.0577C13.5629 11.2609 13.2873 11.375 13 11.375C12.7127 11.375 12.4371 11.2609 12.234 11.0577C12.0308 10.8545 11.9167 10.579 11.9167 10.2917C11.9167 10.0043 12.0308 9.7288 12.234 9.52563C12.4371 9.32247 12.7127 9.20833 13 9.20833C13.2873 9.20833 13.5629 9.32247 13.766 9.52563C13.9692 9.7288 14.0833 10.0043 14.0833 10.2917Z" stroke="#DBFB36" stroke-width="1.73333" stroke-linecap="round" stroke-linejoin="round"/>
</svg>
