<svg width="26" height="26" viewBox="0 0 26 26" fill="none" xmlns="http://www.w3.org/2000/svg">
<path d="M4.39747 5.75293C5.13413 13.8909 12.1091 20.8659 20.2471 21.6025C21.0704 21.6771 21.7837 21.0834 21.9457 20.2731L22.49 17.5483C22.5646 17.1755 22.5146 16.7885 22.3476 16.447C22.1807 16.1054 21.9061 15.8282 21.5661 15.6581L19.7106 14.7307C19.3477 14.5492 18.9325 14.5008 18.5375 14.5939C18.1426 14.6871 17.7928 14.9158 17.5491 15.2403L17.3117 15.5567C16.9841 15.9935 16.4606 16.2621 15.951 16.0689C13.8797 15.2837 10.7163 12.1212 9.93113 10.0499C9.73787 9.53853 10.0065 9.01593 10.4433 8.68833L10.7597 8.45087C11.0843 8.20735 11.3133 7.85762 11.4066 7.46263C11.4998 7.06764 11.4516 6.65245 11.2701 6.2894L10.3428 4.43473C10.1727 4.09427 9.89529 3.81925 9.55336 3.65212C9.21143 3.485 8.824 3.43505 8.45087 3.51L5.72607 4.05427C4.91573 4.21633 4.32293 4.9296 4.39747 5.75293Z" stroke="#DBFB36" stroke-width="1.73333" stroke-linecap="round" stroke-linejoin="round"/>
</svg>
