<svg width="28" height="28" viewBox="0 0 28 28" fill="none" xmlns="http://www.w3.org/2000/svg">
<path d="M20.175 2.675C19.833 3.017 19.833 3.567 19.833 4.667V19.833C19.833 20.933 19.833 21.483 20.175 21.825C20.517 22.167 21.067 22.167 22.167 22.167C23.267 22.167 23.817 22.167 24.158 21.825C24.5 21.483 24.5 20.933 24.5 19.834V4.667C24.5 3.567 24.5 3.017 24.158 2.675C23.817 2.334 23.267 2.334 22.167 2.334C21.067 2.334 20.517 2.334 20.175 2.675ZM11.667 8.167C11.667 7.067 11.667 6.517 12.008 6.175C12.35 5.834 12.9 5.834 14 5.834C15.1 5.834 15.65 5.834 15.992 6.175C16.333 6.517 16.333 7.067 16.333 8.167V19.834C16.333 20.934 16.333 21.484 15.992 21.825C15.65 22.167 15.1 22.167 14 22.167C12.9 22.167 12.35 22.167 12.008 21.825C11.667 21.483 11.667 20.933 11.667 19.834V8.167ZM3.842 10.842C3.5 11.184 3.5 11.734 3.5 12.834V19.834C3.5 20.934 3.5 21.484 3.842 21.825C4.183 22.167 4.733 22.167 5.833 22.167C6.933 22.167 7.483 22.167 7.825 21.825C8.167 21.483 8.167 20.933 8.167 19.834V12.834C8.167 11.734 8.167 11.184 7.825 10.842C7.483 10.5 6.933 10.5 5.833 10.5C4.733 10.5 4.183 10.5 3.842 10.842ZM3.5 24.792C3.26794 24.792 3.04538 24.8842 2.88128 25.0483C2.71719 25.2124 2.625 25.4349 2.625 25.667C2.625 25.8991 2.71719 26.1216 2.88128 26.2857C3.04538 26.4498 3.26794 26.542 3.5 26.542H24.5C24.7321 26.542 24.9546 26.4498 25.1187 26.2857C25.2828 26.1216 25.375 25.8991 25.375 25.667C25.375 25.4349 25.2828 25.2124 25.1187 25.0483C24.9546 24.8842 24.7321 24.792 24.5 24.792H3.5Z" fill="#DBFB36"/>
</svg>
