<svg width="26" height="24" viewBox="0 0 26 24" fill="none" xmlns="http://www.w3.org/2000/svg">
<path d="M17.408 19.2L13.469 15.262L12.267 16.464C11.035 17.696 10.42 18.311 9.758 18.166C9.096 18.02 8.796 17.203 8.194 15.57L6.186 10.12C4.986 6.861 4.385 5.231 5.225 4.391C6.065 3.551 7.695 4.151 10.954 5.353L16.403 7.36C18.037 7.962 18.853 8.263 18.999 8.925C19.144 9.587 18.529 10.202 17.298 11.433L16.095 12.636L20.033 16.574C20.441 16.982 20.645 17.186 20.739 17.414C20.865 17.717 20.865 18.057 20.739 18.361C20.645 18.588 20.441 18.792 20.033 19.2C19.625 19.608 19.422 19.812 19.194 19.906C18.8908 20.0315 18.5502 20.0315 18.247 19.906C18.019 19.812 17.815 19.608 17.407 19.2H17.408Z" fill="#DBFB36"/>
</svg>
