<svg width="26" height="26" viewBox="0 0 26 26" fill="none" xmlns="http://www.w3.org/2000/svg">
<path d="M2.97917 2.16667C2.97917 1.95118 2.89356 1.74452 2.74119 1.59214C2.58882 1.43977 2.38215 1.35417 2.16667 1.35417C1.95118 1.35417 1.74452 1.43977 1.59214 1.59214C1.43977 1.74452 1.35417 1.95118 1.35417 2.16667V13.0617C1.35417 15.5632 1.35417 17.5229 1.56 19.0526C1.77017 20.6169 2.21 21.8519 3.1785 22.8215C4.14808 23.7911 5.38308 24.2298 6.9485 24.44C8.47708 24.6458 10.4368 24.6458 12.9382 24.6458H23.8333C24.0488 24.6458 24.2555 24.5602 24.4079 24.4079C24.5602 24.2555 24.6458 24.0488 24.6458 23.8333C24.6458 23.6178 24.5602 23.4112 24.4079 23.2588C24.2555 23.1064 24.0488 23.0208 23.8333 23.0208H13C10.4238 23.0208 8.5735 23.0187 7.16517 22.8302C5.77958 22.6438 4.94433 22.2885 4.32683 21.6721C3.71042 21.0546 3.35617 20.2204 3.16983 18.8348C2.98133 17.4265 2.97917 15.5762 2.97917 13V2.16667Z" fill="#DBFB36"/>
<path d="M21.2193 8.08817C21.2903 8.00519 21.3439 7.90874 21.3768 7.80458C21.4097 7.70042 21.4213 7.59069 21.4109 7.48196C21.4004 7.37322 21.3681 7.26771 21.316 7.17173C21.2638 7.07575 21.1928 6.99128 21.1073 6.92336C21.0217 6.85544 20.9233 6.80547 20.818 6.77643C20.7127 6.7474 20.6026 6.7399 20.4944 6.75438C20.3861 6.76887 20.2818 6.80504 20.1879 6.86072C20.0939 6.91641 20.0121 6.99048 19.9474 7.0785L16.5696 11.3317C16.3042 11.6664 16.1297 11.8842 15.9857 12.0423C15.8448 12.1973 15.7798 12.2406 15.7495 12.2568C15.6369 12.3169 15.5117 12.3495 15.3841 12.3522C15.2565 12.3548 15.13 12.3273 15.015 12.272C14.9847 12.2579 14.9175 12.2178 14.7691 12.0694C14.6196 11.9177 14.4354 11.7065 14.1559 11.3837L14.1375 11.3642C13.8808 11.0673 13.6608 10.8138 13.4658 10.6188C13.2666 10.4058 13.032 10.2288 12.7725 10.0956C12.4271 9.92971 12.0475 9.84758 11.6645 9.85587C11.2815 9.86415 10.9058 9.96261 10.5679 10.1432C10.3138 10.2873 10.0866 10.4742 9.89625 10.6958C9.71208 10.8994 9.503 11.1616 9.25817 11.4703L5.86408 15.7452C5.79303 15.8281 5.73945 15.9246 5.70653 16.0288C5.6736 16.1329 5.66202 16.2426 5.67248 16.3514C5.68293 16.4601 5.7152 16.5656 5.76737 16.6616C5.81953 16.7576 5.89051 16.8421 5.97607 16.91C6.06162 16.9779 6.16 17.0279 6.26531 17.0569C6.37061 17.0859 6.4807 17.0934 6.58897 17.0789C6.69724 17.0645 6.80148 17.0283 6.89546 16.9726C6.98944 16.9169 7.07122 16.8429 7.13592 16.7548L10.5148 12.5017C10.7803 12.1669 10.9547 11.9492 11.0977 11.791C11.2385 11.6361 11.3035 11.5927 11.3338 11.5765C11.4465 11.5165 11.5717 11.4838 11.6993 11.4812C11.8269 11.4785 11.9533 11.506 12.0683 11.5613C12.0998 11.5754 12.1669 11.6155 12.3142 11.7639C12.4648 11.9156 12.6479 12.1268 12.9285 12.4497L12.9458 12.4692C13.2037 12.766 13.4225 13.0195 13.6175 13.2145C13.8179 13.4171 14.0389 13.6067 14.3108 13.7377C14.6562 13.9036 15.0358 13.9857 15.4188 13.9775C15.8019 13.9692 16.1776 13.8707 16.5154 13.6901C16.7692 13.5456 16.9964 13.3588 17.1871 13.1376C17.3713 12.9339 17.5803 12.6717 17.8263 12.363L21.2193 8.08817Z" fill="#DBFB36"/>
</svg>
