<svg width="26" height="26" viewBox="0 0 26 26" fill="none" xmlns="http://www.w3.org/2000/svg">
<path d="M2.16667 7.04167C2.16667 5.74874 2.68028 4.50876 3.59452 3.59452C4.50876 2.68028 5.74874 2.16667 7.04167 2.16667C8.3346 2.16667 9.57457 2.68028 10.4888 3.59452C11.4031 4.50876 11.9167 5.74874 11.9167 7.04167V10.2917C11.9167 10.6698 11.9167 10.8583 11.8755 11.0132C11.8202 11.22 11.7113 11.4086 11.5599 11.5599C11.4086 11.7113 11.22 11.8202 11.0132 11.8755C10.8582 11.9167 10.6708 11.9167 10.2917 11.9167H7.04167C5.74874 11.9167 4.50876 11.4031 3.59452 10.4888C2.68028 9.57457 2.16667 8.3346 2.16667 7.04167ZM14.0833 15.7083C14.0833 15.3303 14.0833 15.1418 14.1245 14.9868C14.2372 14.5665 14.5665 14.2372 14.9868 14.1245C15.1417 14.0833 15.3302 14.0833 15.7083 14.0833H18.9583C19.9225 14.0833 20.865 14.3692 21.6667 14.9049C22.4684 15.4406 23.0933 16.202 23.4622 17.0928C23.8312 17.9835 23.9278 18.9637 23.7397 19.9094C23.5516 20.8551 23.0873 21.7237 22.4055 22.4055C21.7237 23.0873 20.8551 23.5516 19.9094 23.7397C18.9637 23.9278 17.9835 23.8312 17.0928 23.4622C16.202 23.0933 15.4406 22.4684 14.9049 21.6667C14.3692 20.8651 14.0833 19.9225 14.0833 18.9583V15.7083ZM2.16667 18.9583C2.16667 17.6654 2.68028 16.4254 3.59452 15.5112C4.50876 14.5969 5.74874 14.0833 7.04167 14.0833H9.96667C10.6492 14.0833 10.9904 14.0833 11.2515 14.2166C11.4801 14.3325 11.6675 14.5199 11.7834 14.7485C11.9167 15.0085 11.9167 15.3508 11.9167 16.0333V18.9583C11.9167 19.5985 11.7906 20.2325 11.5456 20.8239C11.3006 21.4154 10.9415 21.9528 10.4888 22.4055C10.0361 22.8582 9.49871 23.2173 8.90725 23.4622C8.31579 23.7072 7.68186 23.8333 7.04167 23.8333C6.40147 23.8333 5.76755 23.7072 5.17608 23.4622C4.58462 23.2173 4.04721 22.8582 3.59452 22.4055C3.14184 21.9528 2.78275 21.4154 2.53775 20.8239C2.29276 20.2325 2.16667 19.5985 2.16667 18.9583ZM14.0833 7.04167C14.0833 6.07748 14.3692 5.13495 14.9049 4.33326C15.4406 3.53157 16.202 2.90673 17.0928 2.53775C17.9835 2.16878 18.9637 2.07224 19.9094 2.26034C20.8551 2.44844 21.7237 2.91274 22.4055 3.59452C23.0873 4.2763 23.5516 5.14494 23.7397 6.0906C23.9278 7.03626 23.8312 8.01646 23.4622 8.90725C23.0933 9.79804 22.4684 10.5594 21.6667 11.0951C20.865 11.6308 19.9225 11.9167 18.9583 11.9167H15.4765C15.314 11.9167 15.2338 11.9167 15.1656 11.9091C14.8912 11.8782 14.6355 11.755 14.4402 11.5598C14.245 11.3645 14.1218 11.1088 14.0909 10.8344C14.0833 10.7662 14.0833 10.686 14.0833 10.5235V7.04167Z" fill="#DBFB36"/>
</svg>
