<svg width="28" height="28" viewBox="0 0 28 28" fill="none" xmlns="http://www.w3.org/2000/svg">
<path fill-rule="evenodd" clip-rule="evenodd" d="M10.69 4.404C10.7596 4.62532 10.7384 4.86522 10.6311 5.07093C10.5239 5.27664 10.3393 5.43134 10.118 5.501C8.11391 6.13184 6.36326 7.38544 5.12056 9.07955C3.87785 10.7737 3.20786 12.82 3.208 14.921C3.208 20.371 7.628 24.791 13.079 24.791C17.498 24.791 21.241 21.887 22.499 17.881C22.5335 17.7713 22.5892 17.6696 22.663 17.5814C22.7368 17.4933 22.8273 17.4206 22.9292 17.3675C23.0311 17.3143 23.1425 17.2817 23.257 17.2716C23.3715 17.2615 23.4868 17.274 23.5965 17.3085C23.7062 17.343 23.8079 17.3987 23.8961 17.4725C23.9842 17.5463 24.0569 17.6368 24.1101 17.7387C24.1632 17.8406 24.1958 17.952 24.2059 18.0665C24.216 18.181 24.2035 18.2963 24.169 18.406C22.688 23.12 18.284 26.541 13.079 26.541C6.661 26.541 1.459 21.338 1.459 14.921C1.459 9.715 4.879 5.312 9.593 3.831C9.70265 3.79657 9.81801 3.78409 9.93249 3.79426C10.047 3.80442 10.1583 3.83704 10.2602 3.89025C10.3621 3.94346 10.4525 4.01622 10.5262 4.10437C10.6 4.19252 10.6556 4.29434 10.69 4.404Z" fill="#DBFB36"/>
<path d="M25.565 11.605C24.951 9.41854 23.785 7.4267 22.1792 5.82083C20.5733 4.21496 18.5815 3.04902 16.395 2.435C14.477 1.899 12.833 3.563 12.833 5.554V13.364C12.833 14.359 13.64 15.166 14.636 15.166H22.446C24.436 15.166 26.1 13.522 25.565 11.605Z" fill="#DBFB36"/>
</svg>
