<svg width="26" height="26" viewBox="0 0 26 26" fill="none" xmlns="http://www.w3.org/2000/svg">
<path d="M19.5 8.66667C19.5 10.3906 18.8152 12.0439 17.5962 13.2629C16.3772 14.4818 14.7239 15.1667 13 15.1667C11.2761 15.1667 9.62279 14.4818 8.40381 13.2629C7.18482 12.0439 6.5 10.3906 6.5 8.66667C6.5 6.94276 7.18482 5.28946 8.40381 4.07047C9.62279 2.85149 11.2761 2.16667 13 2.16667C14.7239 2.16667 16.3772 2.85149 17.5962 4.07047C18.8152 5.28946 19.5 6.94276 19.5 8.66667Z" fill="#DBFB36"/>
<path d="M5.45242 11.6827C4.42906 12.2651 3.58312 13.1145 3.00495 14.1402C2.42677 15.166 2.13809 16.3295 2.16972 17.5065C2.20135 18.6836 2.55212 19.8299 3.18455 20.8231C3.81698 21.8163 4.70733 22.6191 5.76049 23.1457C6.81365 23.6723 7.99006 23.9029 9.16409 23.8129C10.3381 23.7229 11.4657 23.3157 12.4263 22.6348C13.3869 21.9539 14.1445 21.0248 14.6182 19.9468C15.0919 18.8689 15.2639 17.6825 15.1158 16.5143C13.1928 17.0329 11.1464 16.8274 9.365 15.9367C7.58362 15.046 6.19131 13.5322 5.45242 11.6827ZM16.6693 15.9185C16.7494 16.3778 16.7917 16.8502 16.7917 17.3333C16.7917 19.5975 15.8654 21.6472 14.3704 23.1205C15.8853 23.9182 17.6538 24.0861 19.2917 23.5875C20.9296 23.089 22.3047 21.9644 23.1183 20.4579C23.9318 18.9515 24.1182 17.1849 23.6369 15.5418C23.1556 13.8988 22.0454 12.512 20.5476 11.6827C19.8112 13.5182 18.4329 15.0235 16.6693 15.9185Z" fill="#DBFB36"/>
</svg>
