<svg width="28" height="28" viewBox="0 0 28 28" fill="none" xmlns="http://www.w3.org/2000/svg">
<path fill-rule="evenodd" clip-rule="evenodd" d="M2.333 1.458C2.21809 1.458 2.10431 1.48063 1.99815 1.52461C1.89199 1.56858 1.79553 1.63303 1.71428 1.71428C1.63303 1.79553 1.56858 1.89199 1.52461 1.99815C1.48063 2.10431 1.458 2.21809 1.458 2.333C1.458 2.44791 1.48063 2.56169 1.52461 2.66785C1.56858 2.77401 1.63303 2.87047 1.71428 2.95172C1.79553 3.03297 1.89199 3.09742 1.99815 3.14139C2.10431 3.18537 2.21809 3.208 2.333 3.208H4.667V12.25C4.667 15.825 4.667 17.612 5.838 18.723C7.01 19.833 8.895 19.833 12.667 19.833H13.125V23.959L11.275 24.884C11.0673 24.9878 10.9094 25.1699 10.836 25.3902C10.7626 25.6104 10.7797 25.8508 10.8835 26.0585C10.9873 26.2662 11.1694 26.4241 11.3897 26.4975C11.6099 26.5709 11.8503 26.5538 12.058 26.45L14 25.477L15.942 26.448C16.1493 26.5497 16.3884 26.5653 16.6071 26.4915C16.8259 26.4177 17.0066 26.2604 17.1099 26.054C17.2132 25.8475 17.2307 25.6085 17.1586 25.3892C17.0865 25.1699 16.9307 24.9879 16.725 24.883L14.875 23.958V19.833H15.333C19.105 19.833 20.99 19.833 22.162 18.722C23.333 17.612 23.333 15.824 23.333 12.249V3.21H25.667C25.8991 3.21 26.1216 3.11781 26.2857 2.95372C26.4498 2.78962 26.542 2.56706 26.542 2.335C26.542 2.10294 26.4498 1.88038 26.2857 1.71628C26.1216 1.55219 25.8991 1.46 25.667 1.46H2.333V1.458ZM18.119 9.298C18.2003 9.37926 18.2649 9.47576 18.3089 9.58197C18.3529 9.68818 18.3756 9.80203 18.3756 9.917C18.3756 10.032 18.3529 10.1458 18.3089 10.252C18.2649 10.3582 18.2003 10.4547 18.119 10.536L16.582 12.072C16.412 12.242 16.23 12.425 16.055 12.558C15.8038 12.7629 15.4911 12.8773 15.167 12.883C14.8429 12.8777 14.53 12.7632 14.279 12.558C14.104 12.425 13.921 12.242 13.751 12.072L13.04 11.361C12.958 11.279 12.892 11.212 12.833 11.156C12.775 11.212 12.709 11.279 12.627 11.36L11.12 12.87C10.9556 13.0344 10.7325 13.1268 10.5 13.1268C10.2675 13.1268 10.0444 13.0344 9.88 12.87C9.71557 12.7056 9.62319 12.4825 9.62319 12.25C9.62319 12.0175 9.71557 11.7944 9.88 11.63L11.417 10.094C11.587 9.924 11.769 9.741 11.944 9.608C12.15 9.451 12.444 9.282 12.832 9.282C13.222 9.282 13.515 9.451 13.72 9.608C13.895 9.741 14.078 9.924 14.247 10.094L14.959 10.805C15.041 10.887 15.107 10.953 15.166 11.01L15.372 10.806L16.88 9.297C16.9613 9.21566 17.0578 9.15114 17.164 9.10712C17.2702 9.0631 17.384 9.04044 17.499 9.04044C17.614 9.04044 17.7278 9.0631 17.834 9.10712C17.9402 9.15114 18.0367 9.21566 18.118 9.297L18.119 9.298Z" fill="#DBFB36"/>
</svg>
