<svg width="26" height="26" viewBox="0 0 26 26" fill="none" xmlns="http://www.w3.org/2000/svg">
<path d="M12.1875 2.25658C11.9213 2.31561 11.6623 2.40352 11.4151 2.51875C7.09908 4.537 4.33333 10.1779 4.33333 15.0118C4.33333 19.6051 7.78158 23.3783 12.1875 23.7954V2.25658ZM13.8125 23.7954C18.2184 23.3783 21.6667 19.6051 21.6667 15.0118C21.6667 14.5719 21.6439 14.1245 21.5984 13.6749L13.8125 21.4619V23.7954ZM19.7817 7.77833C19.3659 6.99912 18.88 6.2594 18.33 5.56833L13.8125 10.0858V13.7475L19.7817 7.77833ZM17.2337 4.36583C16.4576 3.6095 15.5629 2.98553 14.5849 2.51875C14.3377 2.40352 14.0787 2.31561 13.8125 2.25658V7.78808L17.2337 4.36583ZM20.514 9.34267L13.8125 16.0453V19.1631L21.125 11.8506L21.268 11.7076C21.0772 10.9012 20.8252 10.1106 20.514 9.34267Z" fill="#DBFB36"/>
</svg>
