<svg width="26" height="26" viewBox="0 0 26 26" fill="none" xmlns="http://www.w3.org/2000/svg">
<path d="M3.25 8.66667L11.7975 14.365C12.1535 14.6026 12.572 14.7293 13 14.7293C13.428 14.7293 13.8465 14.6026 14.2025 14.365L22.75 8.66667M5.41667 20.5833H20.5833C21.158 20.5833 21.7091 20.3551 22.1154 19.9487C22.5217 19.5424 22.75 18.9913 22.75 18.4167V7.58333C22.75 7.0087 22.5217 6.4576 22.1154 6.05127C21.7091 5.64494 21.158 5.41667 20.5833 5.41667H5.41667C4.84203 5.41667 4.29093 5.64494 3.8846 6.05127C3.47827 6.4576 3.25 7.0087 3.25 7.58333V18.4167C3.25 18.9913 3.47827 19.5424 3.8846 19.9487C4.29093 20.3551 4.84203 20.5833 5.41667 20.5833Z" stroke="#DBFB36" stroke-width="2.16667" stroke-linecap="round" stroke-linejoin="round"/>
</svg>
