<svg width="26" height="26" viewBox="0 0 26 26" fill="none" xmlns="http://www.w3.org/2000/svg">
<path fill-rule="evenodd" clip-rule="evenodd" d="M18.9583 2.97917C19.1738 2.97917 19.3805 3.06477 19.5329 3.21714C19.6852 3.36952 19.7708 3.57618 19.7708 3.79167V6.22917H22.2083C22.4238 6.22917 22.6305 6.31477 22.7829 6.46714C22.9352 6.61952 23.0208 6.82618 23.0208 7.04167C23.0208 7.25716 22.9352 7.46382 22.7829 7.61619C22.6305 7.76856 22.4238 7.85417 22.2083 7.85417H19.7708V10.2917C19.7708 10.5072 19.6852 10.7138 19.5329 10.8662C19.3805 11.0186 19.1738 11.1042 18.9583 11.1042C18.7428 11.1042 18.5362 11.0186 18.3838 10.8662C18.2314 10.7138 18.1458 10.5072 18.1458 10.2917V7.85417H15.7083C15.4928 7.85417 15.2862 7.76856 15.1338 7.61619C14.9814 7.46382 14.8958 7.25716 14.8958 7.04167C14.8958 6.82618 14.9814 6.61952 15.1338 6.46714C15.2862 6.31477 15.4928 6.22917 15.7083 6.22917H18.1458V3.79167C18.1458 3.57618 18.2314 3.36952 18.3838 3.21714C18.5362 3.06477 18.7428 2.97917 18.9583 2.97917Z" fill="#DBFB36"/>
<path d="M2.16667 7.04167C2.16667 4.74392 2.16667 3.5945 2.88058 2.88058C3.5945 2.16667 4.74392 2.16667 7.04167 2.16667C9.33942 2.16667 10.4888 2.16667 11.2027 2.88058C11.9167 3.5945 11.9167 4.74392 11.9167 7.04167C11.9167 9.33942 11.9167 10.4888 11.2027 11.2027C10.4888 11.9167 9.33942 11.9167 7.04167 11.9167C4.74392 11.9167 3.5945 11.9167 2.88058 11.2027C2.16667 10.4888 2.16667 9.33942 2.16667 7.04167ZM14.0833 18.9583C14.0833 16.6606 14.0833 15.5112 14.7972 14.7972C15.5112 14.0833 16.6606 14.0833 18.9583 14.0833C21.2561 14.0833 22.4055 14.0833 23.1194 14.7972C23.8333 15.5112 23.8333 16.6606 23.8333 18.9583C23.8333 21.2561 23.8333 22.4055 23.1194 23.1194C22.4055 23.8333 21.2561 23.8333 18.9583 23.8333C16.6606 23.8333 15.5112 23.8333 14.7972 23.1194C14.0833 22.4055 14.0833 21.2561 14.0833 18.9583ZM2.16667 18.9583C2.16667 16.6606 2.16667 15.5112 2.88058 14.7972C3.5945 14.0833 4.74392 14.0833 7.04167 14.0833C9.33942 14.0833 10.4888 14.0833 11.2027 14.7972C11.9167 15.5112 11.9167 16.6606 11.9167 18.9583C11.9167 21.2561 11.9167 22.4055 11.2027 23.1194C10.4888 23.8333 9.33942 23.8333 7.04167 23.8333C4.74392 23.8333 3.5945 23.8333 2.88058 23.1194C2.16667 22.4055 2.16667 21.2561 2.16667 18.9583Z" fill="#DBFB36"/>
</svg>
