<svg width="28" height="28" viewBox="0 0 28 28" fill="none" xmlns="http://www.w3.org/2000/svg">
<path fill-rule="evenodd" clip-rule="evenodd" d="M15.564 24.208C15.564 23.725 15.956 23.333 16.439 23.333H17.499C18.009 23.333 18.474 23.333 18.903 23.329C19.1351 23.327 19.3584 23.4173 19.5239 23.58C19.6894 23.7427 19.7835 23.9644 19.7855 24.1965C19.7875 24.4286 19.6972 24.6519 19.5345 24.8174C19.3718 24.9829 19.1501 25.077 18.918 25.079C18.48 25.083 18.008 25.083 17.502 25.083H16.44C16.2079 25.083 15.9854 24.9908 15.8213 24.8267C15.6572 24.6626 15.564 24.4401 15.564 24.208ZM15.564 3.208C15.564 2.725 15.956 2.333 16.439 2.333H17.503C18.009 2.333 18.481 2.333 18.918 2.337C19.0329 2.33798 19.1465 2.36159 19.2523 2.40648C19.3581 2.45136 19.454 2.51664 19.5345 2.59858C19.6151 2.68053 19.6787 2.77754 19.7218 2.88408C19.7648 2.99062 19.7865 3.10459 19.7855 3.2195C19.7845 3.33441 19.7609 3.44799 19.716 3.55378C19.6711 3.65956 19.6059 3.75547 19.5239 3.83602C19.442 3.91658 19.345 3.9802 19.2384 4.02326C19.1319 4.06633 19.0179 4.08798 18.903 4.087C18.473 4.083 18.009 4.083 17.5 4.083H16.44C16.325 4.08313 16.2111 4.0606 16.1048 4.01668C15.9986 3.97277 15.902 3.90834 15.8206 3.82707C15.7393 3.74581 15.6747 3.6493 15.6307 3.54308C15.5867 3.43685 15.564 3.32299 15.564 3.208ZM21.433 24.144C21.3642 23.9224 21.3862 23.6826 21.4943 23.4772C21.6023 23.2719 21.7874 23.1179 22.009 23.049C22.384 22.933 22.644 22.776 22.856 22.564C23.068 22.352 23.224 22.092 23.341 21.717C23.41 21.4954 23.5641 21.3103 23.7696 21.2024C23.975 21.0944 24.2149 21.0725 24.4365 21.1415C24.6581 21.2105 24.8432 21.3646 24.9511 21.5701C25.0591 21.7755 25.081 22.0154 25.012 22.237C24.825 22.837 24.536 23.359 24.093 23.802C23.651 24.244 23.13 24.533 22.528 24.72C22.3064 24.7888 22.0666 24.7668 21.8612 24.6587C21.6559 24.5507 21.5019 24.3656 21.433 24.144ZM21.433 3.272C21.5019 3.05043 21.6559 2.86528 21.8612 2.75727C22.0666 2.64925 22.3064 2.62721 22.528 2.696C23.13 2.883 23.651 3.172 24.094 3.614C24.536 4.057 24.825 4.578 25.012 5.18C25.081 5.40159 25.0591 5.64149 24.9511 5.84694C24.8432 6.05239 24.6581 6.20654 24.4365 6.2755C24.2149 6.34446 23.975 6.32256 23.7696 6.21464C23.5641 6.10671 23.41 5.92159 23.341 5.7C23.224 5.324 23.068 5.064 22.856 4.852C22.644 4.64 22.384 4.483 22.009 4.367C21.7874 4.29815 21.6023 4.14411 21.4943 3.93877C21.3862 3.73343 21.3642 3.49359 21.433 3.272ZM24.489 19.493C24.3741 19.4921 24.2605 19.4685 24.1547 19.4237C24.0489 19.3789 23.9529 19.3137 23.8723 19.2318C23.7917 19.1499 23.728 19.0529 23.6849 18.9464C23.6418 18.8399 23.6201 18.7259 23.621 18.611C23.625 18.181 23.625 17.717 23.625 17.208V15.618C23.625 15.3859 23.7172 15.1634 23.8813 14.9993C24.0454 14.8352 24.2679 14.743 24.5 14.743C24.7321 14.743 24.9546 14.8352 25.1187 14.9993C25.2828 15.1634 25.375 15.3859 25.375 15.618V17.211C25.375 17.717 25.375 18.189 25.371 18.626C25.3689 18.8579 25.2748 19.0795 25.1094 19.242C24.944 19.4046 24.7209 19.4949 24.489 19.493ZM24.489 7.923C24.7209 7.92114 24.944 8.0114 25.1094 8.17397C25.2748 8.33654 25.3689 8.55811 25.371 8.79C25.375 9.227 25.375 9.7 25.375 10.205V11.8C25.375 12.0321 25.2828 12.2546 25.1187 12.4187C24.9546 12.5828 24.7321 12.675 24.5 12.675C24.2679 12.675 24.0454 12.5828 23.8813 12.4187C23.7172 12.2546 23.625 12.0321 23.625 11.8V10.209C23.625 9.7 23.625 9.235 23.621 8.806C23.6201 8.69109 23.6418 8.57713 23.6849 8.47061C23.728 8.3641 23.7917 8.26713 23.8723 8.18522C23.9529 8.10332 24.0489 8.0381 24.1547 7.99328C24.2605 7.94846 24.3741 7.92392 24.489 7.923Z" fill="#DBFB36"/>
<path d="M3.5 12.541V14.875C3.5 19.275 3.5 21.475 4.867 22.841C6.142 24.116 9.156 24.202 13.125 24.208C13.125 24.4401 13.2172 24.6626 13.3813 24.8267C13.5454 24.9908 13.7679 25.083 14 25.083C14.2321 25.083 14.4546 24.9908 14.6187 24.8267C14.7828 24.6626 14.875 24.4401 14.875 24.208V3.208C14.875 2.97594 14.7828 2.75338 14.6187 2.58928C14.4546 2.42519 14.2321 2.333 14 2.333C13.7679 2.333 13.5454 2.42519 13.3813 2.58928C13.2172 2.75338 13.125 2.97594 13.125 3.208C9.155 3.214 6.142 3.3 4.867 4.575C3.5 5.942 3.5 8.142 3.5 12.54V12.541Z" fill="#DBFB36"/>
</svg>
