<svg width="26" height="26" viewBox="0 0 26 26" fill="none" xmlns="http://www.w3.org/2000/svg">
<path fill-rule="evenodd" clip-rule="evenodd" d="M15.4689 2.33133C15.0681 2.16667 14.5589 2.16667 13.5417 2.16667C12.5244 2.16667 12.0152 2.16667 11.6144 2.33133C11.0808 2.5504 10.6561 2.97241 10.4336 3.50458C10.3317 3.74617 10.2927 4.02892 10.2765 4.4395C10.2693 4.73699 10.1863 5.02772 10.0354 5.2842C9.88451 5.54068 9.67069 5.75443 9.41417 5.90525C9.15281 6.05053 8.85901 6.12749 8.55999 6.12901C8.26097 6.13052 7.9664 6.05654 7.70358 5.91392C7.33742 5.72108 7.072 5.61492 6.80983 5.58025C6.23627 5.50494 5.65616 5.65912 5.19567 6.00925C4.85117 6.27142 4.59658 6.70908 4.0885 7.58333C3.57933 8.45758 3.32583 8.89417 3.26842 9.32208C3.19258 9.89192 3.34858 10.4682 3.70175 10.9243C3.86208 11.1323 4.0885 11.3067 4.43842 11.5256C4.95517 11.8473 5.28667 12.3955 5.28667 13C5.28667 13.6045 4.95517 14.1527 4.4395 14.4733C4.0885 14.6932 3.86208 14.8677 3.70067 15.0757C3.52634 15.3009 3.39838 15.5585 3.32419 15.8335C3.25 16.1085 3.23104 16.3955 3.26842 16.6779C3.32583 17.1047 3.57933 17.5424 4.0885 18.4167C4.59767 19.2909 4.85117 19.7275 5.19567 19.9907C5.655 20.3407 6.23567 20.4945 6.80983 20.4197C7.072 20.3851 7.33742 20.2789 7.70358 20.0861C7.96654 19.9433 8.2613 19.8692 8.56053 19.8707C8.85976 19.8722 9.15376 19.9493 9.41525 20.0947C9.94175 20.3981 10.2537 20.956 10.2765 21.5605C10.2927 21.9722 10.3317 22.2538 10.4336 22.4954C10.6546 23.0262 11.0792 23.4487 11.6144 23.6687C12.0152 23.8333 12.5244 23.8333 13.5417 23.8333C14.5589 23.8333 15.0681 23.8333 15.4689 23.6687C16.0025 23.4496 16.4273 23.0276 16.6497 22.4954C16.7516 22.2538 16.7906 21.9722 16.8068 21.5605C16.8285 20.956 17.1416 20.397 17.6692 20.0947C17.9305 19.9495 18.2243 19.8725 18.5233 19.871C18.8224 19.8695 19.1169 19.9435 19.3797 20.0861C19.7459 20.2789 20.0113 20.3851 20.2735 20.4197C20.8477 20.4956 21.4283 20.3407 21.8877 19.9907C22.2322 19.7286 22.4867 19.2909 22.9948 18.4167C23.504 17.5424 23.7575 17.1058 23.8149 16.6779C23.8521 16.3955 23.833 16.1084 23.7586 15.8334C23.6842 15.5584 23.5561 15.3009 23.3816 15.0757C23.2212 14.8677 22.9948 14.6932 22.6449 14.4744C22.1282 14.1527 21.7967 13.6045 21.7967 13C21.7967 12.3955 22.1282 11.8473 22.6438 11.5267C22.9948 11.3067 23.2212 11.1323 23.3827 10.9243C23.557 10.6991 23.6849 10.4415 23.7591 10.1665C23.8333 9.89145 23.8523 9.60446 23.8149 9.32208C23.7575 8.89525 23.504 8.45758 22.9948 7.58333C22.4857 6.70908 22.2322 6.2725 21.8877 6.00925C21.4272 5.65912 20.8471 5.50494 20.2735 5.58025C20.0113 5.61492 19.7459 5.72108 19.3797 5.91392C19.1168 6.05673 18.822 6.13082 18.5228 6.1293C18.2236 6.12779 17.9296 6.05072 17.6681 5.90525C17.4118 5.7543 17.1982 5.54049 17.0475 5.28401C16.8968 5.02754 16.8139 4.73688 16.8068 4.4395C16.7906 4.02783 16.7516 3.74617 16.6497 3.50458C16.5396 3.24105 16.3787 3.00179 16.1761 2.80048C15.9734 2.59917 15.7332 2.43975 15.4689 2.33133ZM13.5417 16.25C15.3508 16.25 16.8166 14.7951 16.8166 13C16.8166 11.2049 15.3497 9.75 13.5417 9.75C11.7325 9.75 10.2667 11.2049 10.2667 13C10.2667 14.7951 11.7336 16.25 13.5417 16.25Z" fill="#DBFB36"/>
</svg>
