<svg width="26" height="24" viewBox="0 0 26 24" fill="none" xmlns="http://www.w3.org/2000/svg">
<path d="M16.418 10.689C15.432 9.509 14.938 8.919 14.371 9.009C13.804 9.1 13.539 9.812 13.008 11.236L12.871 11.604C12.721 12.009 12.645 12.211 12.498 12.36C12.352 12.509 12.15 12.588 11.748 12.746L11.381 12.889C9.963 13.444 9.255 13.722 9.174 14.289C9.094 14.856 9.694 15.338 10.894 16.3L11.206 16.55C11.546 16.823 11.717 16.96 11.816 17.147C11.915 17.334 11.931 17.551 11.962 17.984L11.991 18.378C12.101 19.901 12.157 20.663 12.674 20.923C13.191 21.183 13.828 20.768 15.101 19.94L15.43 19.725C15.791 19.49 15.972 19.372 16.18 19.338C16.388 19.305 16.599 19.36 17.021 19.47L17.405 19.57C18.891 19.956 19.634 20.15 20.035 19.743C20.435 19.336 20.228 18.599 19.813 17.123L19.706 16.743C19.588 16.323 19.529 16.113 19.559 15.906C19.589 15.698 19.703 15.516 19.933 15.15L20.142 14.818C20.949 13.533 21.353 12.891 21.084 12.38C20.814 11.869 20.049 11.827 18.52 11.745L18.125 11.723C17.69 11.7 17.473 11.688 17.284 11.593C17.094 11.498 16.954 11.33 16.674 10.994L16.418 10.689Z" fill="#DBFB36"/>
<path d="M16.045 5.167L16.228 5.689C16.428 6.262 16.529 6.549 16.725 6.759C16.92 6.971 17.189 7.083 17.725 7.306L18.215 7.51C20.105 8.296 21.049 8.69 21.157 9.493C21.202 9.827 21.089 10.141 20.827 10.491C20.743 10.4684 20.6583 10.4483 20.573 10.431C20.047 10.324 19.378 10.288 18.696 10.251L18.206 10.225L17.976 10.212L17.825 10.032L17.509 9.655C17.069 9.127 16.638 8.612 16.237 8.254C15.81 7.872 15.095 7.374 14.134 7.528C13.162 7.684 12.644 8.391 12.364 8.895C12.105 9.363 11.872 9.989 11.636 10.622L11.466 11.08L11.393 11.273C11.3288 11.2986 11.2644 11.324 11.2 11.349L10.745 11.527C10.115 11.774 9.492 12.017 9.028 12.284C8.529 12.571 7.828 13.101 7.689 14.077C7.551 15.044 8.066 15.75 8.456 16.169C8.746 16.48 9.136 16.809 9.554 17.147C7.985 17.572 7.151 17.731 6.676 17.219C6.143 16.643 6.419 15.599 6.971 13.509L7.114 12.969C7.271 12.374 7.35 12.078 7.31 11.783C7.27 11.489 7.118 11.23 6.812 10.713L6.533 10.243C5.457 8.423 4.918 7.513 5.278 6.788C5.638 6.064 6.657 6.005 8.695 5.888L9.223 5.858C9.803 5.824 10.092 5.808 10.344 5.673C10.597 5.538 10.784 5.301 11.158 4.825L11.498 4.393C12.814 2.72 13.471 1.884 14.228 2.013C14.983 2.142 15.338 3.15 16.045 5.167Z" fill="#DBFB36"/>
</svg>
