<svg width="24" height="24" viewBox="0 0 24 24" fill="none" xmlns="http://www.w3.org/2000/svg">
<path fill-rule="evenodd" clip-rule="evenodd" d="M12 8.035C9.303 8.035 7.116 10.186 7.116 12.841C7.11588 13.4741 7.24232 14.1009 7.48789 14.6844C7.73347 15.2679 8.09322 15.7965 8.546 16.239C8.61052 16.3022 8.66178 16.3777 8.69678 16.461C8.73177 16.5442 8.7498 16.6337 8.7498 16.724C8.7498 16.8143 8.73177 16.9038 8.69678 16.987C8.66178 17.0703 8.61052 17.1458 8.546 17.209C8.41414 17.3376 8.23722 17.4096 8.053 17.4096C7.86878 17.4096 7.69186 17.3376 7.56 17.209C6.97796 16.6401 6.51539 15.9607 6.19943 15.2106C5.88347 14.4605 5.72047 13.6549 5.72 12.841C5.72 9.428 8.532 6.661 12 6.661C15.468 6.661 18.28 9.428 18.28 12.841C18.2797 13.6551 18.1167 14.4609 17.8008 15.2111C17.4848 15.9614 17.0222 16.641 16.44 17.21C16.3081 17.3389 16.131 17.4111 15.9465 17.4111C15.762 17.4111 15.5849 17.3389 15.453 17.21C15.3883 17.1468 15.3369 17.0712 15.3018 16.9879C15.2668 16.9045 15.2487 16.815 15.2487 16.7245C15.2487 16.634 15.2668 16.5445 15.3018 16.4611C15.3369 16.3778 15.3883 16.3022 15.453 16.239C15.9058 15.7965 16.2655 15.2679 16.5111 14.6844C16.7567 14.1009 16.8831 13.4741 16.883 12.841C16.883 10.186 14.697 8.035 12 8.035Z" fill="#DBFB36"/>
<path fill-rule="evenodd" clip-rule="evenodd" d="M12 4.373C7.248 4.373 3.395 8.164 3.395 12.841C3.395 15.179 4.358 17.295 5.915 18.828C5.97952 18.8912 6.03078 18.9667 6.06578 19.05C6.10077 19.1332 6.1188 19.2227 6.1188 19.313C6.1188 19.4033 6.10077 19.4928 6.06578 19.576C6.03078 19.6593 5.97952 19.7348 5.915 19.798C5.78314 19.9266 5.60622 19.9986 5.422 19.9986C5.23778 19.9986 5.06086 19.9266 4.929 19.798C4.00228 18.8919 3.26584 17.8099 2.76287 16.6154C2.25991 15.421 2.00054 14.1381 2 12.842C2 7.406 6.477 3 12 3C17.523 3 22 7.406 22 12.84C21.9999 14.1366 21.7407 15.42 21.2377 16.6151C20.7347 17.8101 19.9981 18.8926 19.071 19.799C18.9391 19.9279 18.762 20.0001 18.5775 20.0001C18.393 20.0001 18.2159 19.9279 18.084 19.799C18.0193 19.7358 17.9679 19.6602 17.9328 19.5769C17.8978 19.4935 17.8797 19.404 17.8797 19.3135C17.8797 19.223 17.8978 19.1335 17.9328 19.0501C17.9679 18.9668 18.0193 18.8912 18.084 18.828C18.8817 18.0483 19.5156 17.117 19.9483 16.0889C20.3811 15.0607 20.604 13.9565 20.604 12.841C20.604 8.164 16.752 4.373 12 4.373Z" fill="#DBFB36"/>
<path d="M10.31 17.344C11.077 16.468 11.461 16.03 11.935 16.002C11.9783 15.999 12.0217 15.999 12.065 16.002C12.539 16.03 12.923 16.468 13.69 17.344C15.36 19.25 16.195 20.202 15.961 21.024C15.941 21.095 15.916 21.164 15.887 21.23C15.543 22 14.362 22 12 22C9.638 22 8.457 22 8.113 21.23C8.08344 21.1632 8.05871 21.0943 8.039 21.024C7.805 20.202 8.639 19.25 10.309 17.344H10.31ZM14.5 12.5C14.5 13.163 14.2366 13.7989 13.7678 14.2678C13.2989 14.7366 12.663 15 12 15C11.337 15 10.7011 14.7366 10.2322 14.2678C9.76339 13.7989 9.5 13.163 9.5 12.5C9.5 11.837 9.76339 11.2011 10.2322 10.7322C10.7011 10.2634 11.337 10 12 10C12.663 10 13.2989 10.2634 13.7678 10.7322C14.2366 11.2011 14.5 11.837 14.5 12.5Z" fill="#DBFB36"/>
</svg>
