<svg width="26" height="26" viewBox="0 0 26 26" fill="none" xmlns="http://www.w3.org/2000/svg">
<path d="M17.3333 8.66667H20.5833C21.2261 8.66667 21.8545 8.47606 22.3889 8.11894C22.9234 7.76183 23.34 7.25425 23.5859 6.66039C23.8319 6.06653 23.8963 5.41306 23.7709 4.78262C23.6455 4.15218 23.336 3.57309 22.8814 3.11857C22.4269 2.66405 21.8478 2.35452 21.2174 2.22911C20.5869 2.10371 19.9335 2.16807 19.3396 2.41406C18.7458 2.66004 18.2382 3.0766 17.8811 3.61106C17.5239 4.14552 17.3333 4.77388 17.3333 5.41667V8.66667H8.66667V5.41667C8.66667 4.77388 8.47606 4.14552 8.11894 3.61106C7.76183 3.0766 7.25425 2.66004 6.66039 2.41406C6.06653 2.16807 5.41306 2.10371 4.78262 2.22911C4.15218 2.35452 3.57309 2.66405 3.11857 3.11857C2.66405 3.57309 2.35452 4.15218 2.22911 4.78262C2.10371 5.41306 2.16807 6.06653 2.41406 6.66039C2.66004 7.25425 3.0766 7.76183 3.61106 8.11894C4.14552 8.47606 4.77388 8.66667 5.41667 8.66667H8.66667V17.3333H17.3333V8.66667ZM17.3333 17.3333H20.5833C21.2261 17.3333 21.8544 17.5239 22.3888 17.881C22.9233 18.238 23.3398 18.7456 23.5858 19.3394C23.8319 19.9332 23.8963 20.5866 23.771 21.217C23.6457 21.8474 23.3362 22.4265 22.8818 22.881C22.4274 23.3356 21.8484 23.6452 21.218 23.7708C20.5877 23.8963 19.9342 23.8321 19.3404 23.5863C18.7465 23.3404 18.2388 22.924 17.8816 22.3897C17.5243 21.8554 17.3335 21.2272 17.3333 20.5844V17.3333ZM5.41667 17.3333H8.66667V20.5844C8.66667 21.2272 8.47606 21.8556 8.11894 22.39C7.76183 22.9245 7.25425 23.341 6.66039 23.587C6.06653 23.833 5.41306 23.8974 4.78262 23.772C4.15218 23.6466 3.57309 23.337 3.11857 22.8825C2.66405 22.428 2.35452 21.8489 2.22911 21.2185C2.10371 20.588 2.16807 19.9346 2.41406 19.3407C2.66004 18.7468 3.0766 18.2393 3.61106 17.8821C4.14552 17.525 4.77388 17.3333 5.41667 17.3333Z" fill="#DBFB36"/>
</svg>
