<svg width="26" height="26" viewBox="0 0 26 26" fill="none" xmlns="http://www.w3.org/2000/svg">
<path d="M4.16542 4.16542C3.57975 4.75113 3.25073 5.5455 3.25073 6.37379C3.25073 7.20208 3.57975 7.99645 4.16542 8.58217L5.88467 10.3025C5.89786 10.2876 5.91159 10.2731 5.92583 10.2592L10.2592 5.92583C10.2731 5.9116 10.2876 5.89786 10.3025 5.88467L8.58217 4.16542C7.99645 3.57975 7.20208 3.25073 6.37379 3.25073C5.5455 3.25073 4.75113 3.57975 4.16542 4.16542ZM11.4487 7.03083C11.4355 7.04578 11.4217 7.06023 11.4075 7.07417L7.07417 11.4075C7.06023 11.4218 7.04578 11.4355 7.03083 11.4487L17.4178 21.8357C18.007 22.4051 18.7964 22.7203 19.6157 22.7133C20.4351 22.7064 21.2189 22.3778 21.7983 21.7984C22.3778 21.2189 22.7064 20.4351 22.7133 19.6157C22.7203 18.7964 22.4051 18.007 21.8357 17.4178L11.4487 7.03083ZM17.4417 2.49925C17.4799 2.40109 17.547 2.31678 17.6339 2.25734C17.7209 2.19789 17.8238 2.16609 17.9292 2.16609C18.0345 2.16609 18.1374 2.19789 18.2244 2.25734C18.3114 2.31678 18.3784 2.40109 18.4167 2.49925L18.8825 3.6855C18.9085 3.75261 18.9481 3.81363 18.9988 3.86471C19.0495 3.91579 19.1102 3.95584 19.1772 3.98233L20.3591 4.45033C20.457 4.48932 20.5409 4.55677 20.6 4.64397C20.6591 4.73117 20.6908 4.8341 20.6908 4.93946C20.6908 5.04481 20.6591 5.14775 20.6 5.23494C20.5409 5.32214 20.457 5.3896 20.3591 5.42858L19.1782 5.89658C19.1113 5.923 19.0506 5.96289 18.9997 6.01376C18.9488 6.06464 18.9089 6.12541 18.8825 6.19233L18.4167 7.3775C18.3784 7.47566 18.3114 7.55997 18.2244 7.61941C18.1374 7.67886 18.0345 7.71066 17.9292 7.71066C17.8238 7.71066 17.7209 7.67886 17.6339 7.61941C17.547 7.55997 17.4799 7.47566 17.4417 7.3775L16.9758 6.19125C16.9494 6.12433 16.9095 6.06355 16.8587 6.01268C16.8078 5.96181 16.747 5.92192 16.6801 5.8955L15.4992 5.4275C15.4014 5.38851 15.3174 5.32106 15.2583 5.23386C15.1992 5.14666 15.1676 5.04373 15.1676 4.93837C15.1676 4.83302 15.1992 4.73009 15.2583 4.64289C15.3174 4.55569 15.4014 4.48824 15.4992 4.44925L16.6801 3.98125C16.7471 3.95471 16.8079 3.91466 16.8588 3.86359C16.9097 3.81253 16.9495 3.75154 16.9758 3.68442L17.4417 2.49925ZM21.6309 9.89083C21.6692 9.79268 21.7362 9.70836 21.8232 9.64892C21.9102 9.58948 22.0131 9.55767 22.1184 9.55767C22.2238 9.55767 22.3267 9.58948 22.4136 9.64892C22.5006 9.70836 22.5676 9.79268 22.6059 9.89083L22.7749 10.3231C22.8291 10.4585 22.9352 10.5658 23.0707 10.6188L23.5018 10.79C23.5994 10.8292 23.683 10.8966 23.7418 10.9837C23.8007 11.0708 23.8321 11.1735 23.8321 11.2786C23.8321 11.3837 23.8007 11.4864 23.7418 11.5735C23.683 11.6605 23.5994 11.728 23.5018 11.7672L23.0707 11.9383C23.0037 11.9648 22.943 12.0046 22.8921 12.0555C22.8412 12.1064 22.8013 12.1672 22.7749 12.2341L22.6059 12.6674C22.5676 12.7656 22.5006 12.8499 22.4136 12.9093C22.3267 12.9688 22.2238 13.0006 22.1184 13.0006C22.0131 13.0006 21.9102 12.9688 21.8232 12.9093C21.7362 12.8499 21.6692 12.7656 21.6309 12.6674L21.4608 12.2341C21.4345 12.1673 21.3948 12.1066 21.3441 12.0557C21.2935 12.0048 21.2329 11.9649 21.1662 11.9383L20.735 11.7672C20.6375 11.728 20.5539 11.6605 20.495 11.5735C20.4361 11.4864 20.4047 11.3837 20.4047 11.2786C20.4047 11.1735 20.4361 11.0708 20.495 10.9837C20.5539 10.8966 20.6375 10.8292 20.735 10.79L21.1662 10.6188C21.2329 10.5923 21.2935 10.5523 21.3441 10.5015C21.3948 10.4506 21.4345 10.3899 21.4608 10.3231L21.6309 9.88975V9.89083ZM5.56075 16.5826C5.59902 16.4844 5.66604 16.4001 5.75302 16.3407C5.84 16.2812 5.9429 16.2494 6.04825 16.2494C6.1536 16.2494 6.2565 16.2812 6.34348 16.3407C6.43046 16.4001 6.49748 16.4844 6.53575 16.5826L6.70583 17.0159C6.73185 17.0829 6.77147 17.1438 6.82218 17.1947C6.8729 17.2456 6.93361 17.2854 7.0005 17.3117L7.43167 17.4817C7.52954 17.5207 7.61347 17.5882 7.6726 17.6754C7.73173 17.7626 7.76334 17.8655 7.76334 17.9709C7.76334 18.0762 7.73173 18.1792 7.6726 18.2664C7.61347 18.3536 7.52954 18.421 7.43167 18.46L7.0005 18.6312C6.93375 18.6577 6.87315 18.6976 6.82246 18.7485C6.77177 18.7993 6.73208 18.8601 6.70583 18.9269L6.53575 19.3603C6.49748 19.4584 6.43046 19.5427 6.34348 19.6022C6.2565 19.6616 6.1536 19.6934 6.04825 19.6934C5.9429 19.6934 5.84 19.6616 5.75302 19.6022C5.66604 19.5427 5.59902 19.4584 5.56075 19.3603L5.39067 18.9269C5.36442 18.8601 5.32473 18.7993 5.27404 18.7485C5.22335 18.6976 5.16275 18.6577 5.096 18.6312L4.66483 18.46C4.56696 18.421 4.48303 18.3536 4.4239 18.2664C4.36477 18.1792 4.33316 18.0762 4.33316 17.9709C4.33316 17.8655 4.36477 17.7626 4.4239 17.6754C4.48303 17.5882 4.56696 17.5207 4.66483 17.4817L5.096 17.3117C5.16286 17.2851 5.22352 17.245 5.27421 17.1939C5.32491 17.1428 5.36455 17.0819 5.39067 17.0148L5.56075 16.5826Z" fill="#DBFB36"/>
</svg>
