<svg width="74" height="74" viewBox="0 0 74 74" fill="none" xmlns="http://www.w3.org/2000/svg">
<g filter="url(#filter0_i_39_1662)">
<path d="M74 37C74 16.5655 57.4345 0 37 0C16.5655 0 0 16.5655 0 37C0 57.4345 16.5655 74 37 74C57.4345 74 74 57.4345 74 37Z" fill="url(#paint0_linear_39_1662)" fill-opacity="0.2"/>
<path d="M73.5 37C73.5 16.8416 57.1584 0.5 37 0.5C16.8416 0.5 0.5 16.8416 0.5 37C0.5 57.1584 16.8416 73.5 37 73.5C57.1584 73.5 73.5 57.1584 73.5 37Z" stroke="url(#paint1_linear_39_1662)" stroke-opacity="0.2"/>
</g>
<defs>
<filter id="filter0_i_39_1662" x="0" y="0" width="74" height="78" filterUnits="userSpaceOnUse" color-interpolation-filters="sRGB">
<feFlood flood-opacity="0" result="BackgroundImageFix"/>
<feBlend mode="normal" in="SourceGraphic" in2="BackgroundImageFix" result="shape"/>
<feColorMatrix in="SourceAlpha" type="matrix" values="0 0 0 0 0 0 0 0 0 0 0 0 0 0 0 0 0 0 127 0" result="hardAlpha"/>
<feOffset dy="4"/>
<feGaussianBlur stdDeviation="2"/>
<feComposite in2="hardAlpha" operator="arithmetic" k2="-1" k3="1"/>
<feColorMatrix type="matrix" values="0 0 0 0 0.862745 0 0 0 0 0.988235 0 0 0 0 0.211765 0 0 0 0.2 0"/>
<feBlend mode="normal" in2="shape" result="effect1_innerShadow_39_1662"/>
</filter>
<linearGradient id="paint0_linear_39_1662" x1="37" y1="-40.469" x2="37" y2="93.173" gradientUnits="userSpaceOnUse">
<stop stop-color="#DBFB36"/>
<stop offset="0.87" stop-color="#DBFB36"/>
</linearGradient>
<linearGradient id="paint1_linear_39_1662" x1="37" y1="-8.02468e-09" x2="37" y2="74" gradientUnits="userSpaceOnUse">
<stop stop-color="#F6FECD"/>
<stop offset="1" stop-color="#F6FECD"/>
</linearGradient>
</defs>
</svg>
