<svg width="26" height="27" viewBox="0 0 26 27" fill="none" xmlns="http://www.w3.org/2000/svg">
<path d="M2.97917 2.31055C2.97917 2.09506 2.89356 1.8884 2.74119 1.73602C2.58882 1.58365 2.38215 1.49805 2.16667 1.49805C1.95118 1.49805 1.74452 1.58365 1.59214 1.73602C1.43977 1.8884 1.35417 2.09506 1.35417 2.31055V13.2056C1.35417 15.707 1.35417 17.6668 1.56 19.1965C1.77017 20.7608 2.21 21.9958 3.1785 22.9654C4.14808 23.935 5.38308 24.3737 6.9485 24.5839C8.47708 24.7897 10.4368 24.7897 12.9382 24.7897H23.8333C24.0488 24.7897 24.2555 24.7041 24.4079 24.5517C24.5602 24.3994 24.6458 24.1927 24.6458 23.9772C24.6458 23.7617 24.5602 23.5551 24.4079 23.4027C24.2555 23.2503 24.0488 23.1647 23.8333 23.1647H13C10.4238 23.1647 8.5735 23.1625 7.16517 22.974C5.77958 22.7877 4.94433 22.4324 4.32683 21.816C3.71042 21.1985 3.35617 20.3643 3.16983 18.9787C2.98133 17.5704 2.97917 15.72 2.97917 13.1439V2.31055Z" fill="#DBFB36"/>
<path d="M21.2192 8.23158C21.2903 8.1486 21.3439 8.05215 21.3768 7.94799C21.4097 7.84383 21.4213 7.73411 21.4109 7.62537C21.4004 7.51663 21.3681 7.41112 21.316 7.31514C21.2638 7.21916 21.1928 7.13469 21.1073 7.06677C21.0217 6.99885 20.9233 6.94888 20.818 6.91985C20.7127 6.89081 20.6026 6.88331 20.4944 6.8978C20.3861 6.91228 20.2818 6.94845 20.1879 7.00414C20.0939 7.05983 20.0121 7.13389 19.9474 7.22191L16.5696 11.4751C16.3042 11.8098 16.1297 12.0276 15.9857 12.1857C15.8448 12.3407 15.7798 12.384 15.7495 12.4002C15.6369 12.4603 15.5117 12.493 15.3841 12.4956C15.2565 12.4982 15.13 12.4708 15.015 12.4154C14.9847 12.4013 14.9175 12.3612 14.7691 12.2128C14.6196 12.0612 14.4354 11.8499 14.1559 11.5271L14.1375 11.5076C13.8807 11.2107 13.6608 10.9572 13.4658 10.7622C13.2666 10.5492 13.032 10.3722 12.7725 10.239C12.4271 10.0731 12.0475 9.991 11.6645 9.99928C11.2815 10.0076 10.9058 10.106 10.5679 10.2867C10.3138 10.4307 10.0866 10.6176 9.89625 10.8392C9.71208 11.0428 9.503 11.305 9.25816 11.6137L5.86408 15.8886C5.79303 15.9716 5.73945 16.068 5.70652 16.1722C5.6736 16.2763 5.66202 16.3861 5.67248 16.4948C5.68293 16.6035 5.7152 16.709 5.76737 16.805C5.81953 16.901 5.89051 16.9855 5.97607 17.0534C6.06162 17.1213 6.15999 17.1713 6.2653 17.2003C6.37061 17.2293 6.48069 17.2368 6.58897 17.2224C6.69724 17.2079 6.80148 17.1717 6.89546 17.116C6.98944 17.0603 7.07122 16.9863 7.13592 16.8982L10.5148 12.6451C10.7802 12.3103 10.9547 12.0926 11.0977 11.9344C11.2385 11.7795 11.3035 11.7362 11.3338 11.7199C11.4465 11.6599 11.5717 11.6272 11.6993 11.6246C11.8269 11.6219 11.9533 11.6494 12.0683 11.7047C12.0997 11.7188 12.1669 11.7589 12.3142 11.9073C12.4648 12.059 12.6479 12.2702 12.9285 12.5931L12.9458 12.6126C13.2037 12.9094 13.4225 13.1629 13.6175 13.3579C13.8179 13.5605 14.0389 13.7501 14.3108 13.8812C14.6562 14.047 15.0358 14.1292 15.4188 14.1209C15.8019 14.1126 16.1775 14.0141 16.5154 13.8335C16.7692 13.689 16.9964 13.5022 17.1871 13.281C17.3712 13.0773 17.5803 12.8152 17.8262 12.5064L21.2192 8.23158Z" fill="#DBFB36"/>
</svg>
