<svg width="26" height="27" viewBox="0 0 26 27" fill="none" xmlns="http://www.w3.org/2000/svg">
<path d="M17.3333 9.44434H20.5833C21.2261 9.44434 21.8545 9.25373 22.3889 8.89661C22.9234 8.5395 23.34 8.03192 23.5859 7.43806C23.8319 6.8442 23.8963 6.19073 23.7709 5.56029C23.6455 4.92986 23.336 4.35076 22.8814 3.89624C22.4269 3.44172 21.8478 3.13219 21.2174 3.00679C20.5869 2.88138 19.9335 2.94574 19.3396 3.19173C18.7458 3.43771 18.2382 3.85427 17.8811 4.38873C17.5239 4.92319 17.3333 5.55155 17.3333 6.19434V9.44434H8.66667V6.19434C8.66667 5.55155 8.47606 4.92319 8.11894 4.38873C7.76183 3.85427 7.25425 3.43771 6.66039 3.19173C6.06653 2.94574 5.41306 2.88138 4.78262 3.00679C4.15218 3.13219 3.57309 3.44172 3.11857 3.89624C2.66405 4.35076 2.35452 4.92986 2.22911 5.56029C2.10371 6.19073 2.16807 6.8442 2.41406 7.43806C2.66004 8.03192 3.0766 8.5395 3.61106 8.89661C4.14552 9.25373 4.77388 9.44434 5.41667 9.44434H8.66667V18.111H17.3333V9.44434ZM17.3333 18.111H20.5833C21.2261 18.111 21.8544 18.3016 22.3888 18.6587C22.9233 19.0157 23.3398 19.5232 23.5858 20.117C23.8319 20.7108 23.8963 21.3642 23.771 21.9947C23.6457 22.6251 23.3362 23.2042 22.8818 23.6587C22.4274 24.1133 21.8484 24.4229 21.218 24.5484C20.5877 24.6739 19.9342 24.6097 19.3404 24.3639C18.7465 24.1181 18.2388 23.7017 17.8816 23.1674C17.5243 22.6331 17.3335 22.0048 17.3333 21.3621V18.111ZM5.41667 18.111H8.66667V21.3621C8.66667 22.0049 8.47606 22.6332 8.11894 23.1677C7.76183 23.7022 7.25425 24.1187 6.66039 24.3647C6.06653 24.6107 5.41306 24.675 4.78262 24.5496C4.15218 24.4242 3.57309 24.1147 3.11857 23.6602C2.66405 23.2057 2.35452 22.6266 2.22911 21.9961C2.10371 21.3657 2.16807 20.7122 2.41406 20.1184C2.66004 19.5245 3.0766 19.0169 3.61106 18.6598C4.14552 18.3027 4.77388 18.111 5.41667 18.111Z" fill="#DBFB36"/>
</svg>
