<svg width="28" height="29" viewBox="0 0 28 29" fill="none" xmlns="http://www.w3.org/2000/svg">
<path fill-rule="evenodd" clip-rule="evenodd" d="M15.564 24.6743C15.564 24.1913 15.956 23.7993 16.439 23.7993H17.499C18.009 23.7993 18.474 23.7993 18.903 23.7953C19.1351 23.7933 19.3584 23.8836 19.5239 24.0463C19.6894 24.209 19.7835 24.4308 19.7855 24.6628C19.7875 24.8949 19.6972 25.1182 19.5345 25.2837C19.3718 25.4492 19.1501 25.5433 18.918 25.5453C18.48 25.5493 18.008 25.5493 17.502 25.5493H16.44C16.2079 25.5493 15.9854 25.4571 15.8213 25.293C15.6572 25.1289 15.564 24.9064 15.564 24.6743ZM15.564 3.67432C15.564 3.19132 15.956 2.79932 16.439 2.79932H17.503C18.009 2.79932 18.481 2.79932 18.918 2.80332C19.0329 2.8043 19.1465 2.82791 19.2523 2.87279C19.3581 2.91767 19.454 2.98295 19.5345 3.0649C19.6151 3.14685 19.6787 3.24386 19.7218 3.3504C19.7648 3.45693 19.7865 3.57091 19.7855 3.68582C19.7845 3.80072 19.7609 3.91431 19.716 4.02009C19.6711 4.12588 19.6059 4.22178 19.5239 4.30234C19.442 4.38289 19.345 4.44652 19.2384 4.48958C19.1319 4.53264 19.0179 4.5543 18.903 4.55332C18.473 4.54932 18.009 4.54932 17.5 4.54932H16.44C16.325 4.54945 16.2111 4.52691 16.1048 4.483C15.9986 4.43908 15.902 4.37465 15.8206 4.29339C15.7393 4.21212 15.6747 4.11562 15.6307 4.0094C15.5867 3.90317 15.564 3.78931 15.564 3.67432ZM21.433 24.6103C21.3642 24.3887 21.3862 24.1489 21.4943 23.9435C21.6023 23.7382 21.7874 23.5842 22.009 23.5153C22.384 23.3993 22.644 23.2423 22.856 23.0303C23.068 22.8183 23.224 22.5583 23.341 22.1833C23.41 21.9617 23.5641 21.7766 23.7696 21.6687C23.975 21.5608 24.2149 21.5389 24.4365 21.6078C24.6581 21.6768 24.8432 21.8309 24.9511 22.0364C25.0591 22.2418 25.081 22.4817 25.012 22.7033C24.825 23.3033 24.536 23.8253 24.093 24.2683C23.651 24.7103 23.13 24.9993 22.528 25.1863C22.3064 25.2551 22.0666 25.2331 21.8612 25.1251C21.6559 25.017 21.5019 24.8319 21.433 24.6103ZM21.433 3.73832C21.5019 3.51675 21.6559 3.3316 21.8612 3.22358C22.0666 3.11557 22.3064 3.09353 22.528 3.16232C23.13 3.34932 23.651 3.63832 24.094 4.08032C24.536 4.52332 24.825 5.04432 25.012 5.64632C25.081 5.8679 25.0591 6.10781 24.9511 6.31326C24.8432 6.5187 24.6581 6.67286 24.4365 6.74182C24.2149 6.81077 23.975 6.78888 23.7696 6.68095C23.5641 6.57302 23.41 6.3879 23.341 6.16632C23.224 5.79032 23.068 5.53032 22.856 5.31832C22.644 5.10632 22.384 4.94932 22.009 4.83332C21.7874 4.76446 21.6023 4.61043 21.4943 4.40509C21.3862 4.19974 21.3642 3.95991 21.433 3.73832ZM24.489 19.9593C24.3741 19.9584 24.2605 19.9349 24.1547 19.89C24.0489 19.8452 23.9529 19.78 23.8723 19.6981C23.7917 19.6162 23.728 19.5192 23.6849 19.4127C23.6418 19.3062 23.6201 19.1922 23.621 19.0773C23.625 18.6473 23.625 18.1833 23.625 17.6743V16.0843C23.625 15.8523 23.7172 15.6297 23.8813 15.4656C24.0454 15.3015 24.2679 15.2093 24.5 15.2093C24.7321 15.2093 24.9546 15.3015 25.1187 15.4656C25.2828 15.6297 25.375 15.8523 25.375 16.0843V17.6773C25.375 18.1833 25.375 18.6553 25.371 19.0923C25.3689 19.3242 25.2748 19.5458 25.1094 19.7083C24.944 19.8709 24.7209 19.9612 24.489 19.9593ZM24.489 8.38932C24.7209 8.38745 24.944 8.47772 25.1094 8.64029C25.2748 8.80285 25.3689 9.02442 25.371 9.25632C25.375 9.69332 25.375 10.1663 25.375 10.6713V12.2663C25.375 12.4984 25.2828 12.7209 25.1187 12.885C24.9546 13.0491 24.7321 13.1413 24.5 13.1413C24.2679 13.1413 24.0454 13.0491 23.8813 12.885C23.7172 12.7209 23.625 12.4984 23.625 12.2663V10.6753C23.625 10.1663 23.625 9.70132 23.621 9.27232C23.6201 9.15741 23.6418 9.04344 23.6849 8.93693C23.728 8.83042 23.7917 8.73344 23.8723 8.65154C23.9529 8.56964 24.0489 8.50441 24.1547 8.45959C24.2605 8.41477 24.3741 8.39023 24.489 8.38932Z" fill="#DBFB36"/>
<path d="M3.5 13.0073V15.3413C3.5 19.7413 3.5 21.9413 4.867 23.3073C6.142 24.5823 9.156 24.6683 13.125 24.6743C13.125 24.9064 13.2172 25.1289 13.3813 25.293C13.5454 25.4571 13.7679 25.5493 14 25.5493C14.2321 25.5493 14.4546 25.4571 14.6187 25.293C14.7828 25.1289 14.875 24.9064 14.875 24.6743V3.67432C14.875 3.44225 14.7828 3.21969 14.6187 3.0556C14.4546 2.8915 14.2321 2.79932 14 2.79932C13.7679 2.79932 13.5454 2.8915 13.3813 3.0556C13.2172 3.21969 13.125 3.44225 13.125 3.67432C9.155 3.68032 6.142 3.76632 4.867 5.04132C3.5 6.40832 3.5 8.60832 3.5 13.0063V13.0073Z" fill="#DBFB36"/>
</svg>
