<svg width="26" height="27" viewBox="0 0 26 27" fill="none" xmlns="http://www.w3.org/2000/svg">
<path fill-rule="evenodd" clip-rule="evenodd" d="M18.9583 3.91211C19.1738 3.91211 19.3805 3.99771 19.5329 4.15009C19.6852 4.30246 19.7708 4.50912 19.7708 4.72461V7.16211H22.2083C22.4238 7.16211 22.6305 7.24771 22.7829 7.40009C22.9352 7.55246 23.0208 7.75912 23.0208 7.97461C23.0208 8.1901 22.9352 8.39676 22.7829 8.54913C22.6305 8.70151 22.4238 8.78711 22.2083 8.78711H19.7708V11.2246C19.7708 11.4401 19.6852 11.6468 19.5329 11.7991C19.3805 11.9515 19.1738 12.0371 18.9583 12.0371C18.7428 12.0371 18.5362 11.9515 18.3838 11.7991C18.2314 11.6468 18.1458 11.4401 18.1458 11.2246V8.78711H15.7083C15.4928 8.78711 15.2862 8.70151 15.1338 8.54913C14.9814 8.39676 14.8958 8.1901 14.8958 7.97461C14.8958 7.75912 14.9814 7.55246 15.1338 7.40009C15.2862 7.24771 15.4928 7.16211 15.7083 7.16211H18.1458V4.72461C18.1458 4.50912 18.2314 4.30246 18.3838 4.15009C18.5362 3.99771 18.7428 3.91211 18.9583 3.91211Z" fill="#DBFB36"/>
<path d="M2.16667 7.97461C2.16667 5.67686 2.16667 4.52744 2.88058 3.81353C3.5945 3.09961 4.74392 3.09961 7.04167 3.09961C9.33942 3.09961 10.4888 3.09961 11.2028 3.81353C11.9167 4.52744 11.9167 5.67686 11.9167 7.97461C11.9167 10.2724 11.9167 11.4218 11.2028 12.1357C10.4888 12.8496 9.33942 12.8496 7.04167 12.8496C4.74392 12.8496 3.5945 12.8496 2.88058 12.1357C2.16667 11.4218 2.16667 10.2724 2.16667 7.97461ZM14.0833 19.8913C14.0833 17.5935 14.0833 16.4441 14.7973 15.7302C15.5112 15.0163 16.6606 15.0163 18.9583 15.0163C21.2561 15.0163 22.4055 15.0163 23.1194 15.7302C23.8333 16.4441 23.8333 17.5935 23.8333 19.8913C23.8333 22.189 23.8333 23.3384 23.1194 24.0524C22.4055 24.7663 21.2561 24.7663 18.9583 24.7663C16.6606 24.7663 15.5112 24.7663 14.7973 24.0524C14.0833 23.3384 14.0833 22.189 14.0833 19.8913ZM2.16667 19.8913C2.16667 17.5935 2.16667 16.4441 2.88058 15.7302C3.5945 15.0163 4.74392 15.0163 7.04167 15.0163C9.33942 15.0163 10.4888 15.0163 11.2028 15.7302C11.9167 16.4441 11.9167 17.5935 11.9167 19.8913C11.9167 22.189 11.9167 23.3384 11.2028 24.0524C10.4888 24.7663 9.33942 24.7663 7.04167 24.7663C4.74392 24.7663 3.5945 24.7663 2.88058 24.0524C2.16667 23.3384 2.16667 22.189 2.16667 19.8913Z" fill="#DBFB36"/>
</svg>
