<svg width="24" height="25" viewBox="0 0 24 25" fill="none" xmlns="http://www.w3.org/2000/svg">
<path fill-rule="evenodd" clip-rule="evenodd" d="M12 9.02341C9.303 9.02341 7.116 11.1744 7.116 13.8294C7.11588 14.4625 7.24232 15.0893 7.48789 15.6728C7.73347 16.2563 8.09322 16.7849 8.546 17.2274C8.61053 17.2906 8.66179 17.3661 8.69678 17.4494C8.73178 17.5327 8.7498 17.6221 8.7498 17.7124C8.7498 17.8027 8.73178 17.8922 8.69678 17.9755C8.66179 18.0587 8.61053 18.1342 8.546 18.1974C8.41414 18.3261 8.23722 18.3981 8.053 18.3981C7.86879 18.3981 7.69186 18.3261 7.56 18.1974C6.97796 17.6285 6.5154 16.9491 6.19943 16.199C5.88347 15.4489 5.72047 14.6433 5.72 13.8294C5.72 10.4164 8.532 7.64941 12 7.64941C15.468 7.64941 18.28 10.4164 18.28 13.8294C18.2797 14.6435 18.1167 15.4493 17.8008 16.1995C17.4848 16.9498 17.0222 17.6294 16.44 18.1984C16.3081 18.3274 16.131 18.3995 15.9465 18.3995C15.762 18.3995 15.5849 18.3274 15.453 18.1984C15.3883 18.1352 15.3369 18.0597 15.3018 17.9763C15.2668 17.8929 15.2487 17.8034 15.2487 17.7129C15.2487 17.6225 15.2668 17.5329 15.3018 17.4495C15.3369 17.3662 15.3883 17.2907 15.453 17.2274C15.9058 16.7849 16.2655 16.2563 16.5111 15.6728C16.7567 15.0893 16.8831 14.4625 16.883 13.8294C16.883 11.1744 14.697 9.02341 12 9.02341Z" fill="#DBFB36"/>
<path fill-rule="evenodd" clip-rule="evenodd" d="M12 5.36128C7.248 5.36128 3.395 9.15228 3.395 13.8293C3.395 16.1673 4.358 18.2833 5.915 19.8163C5.97952 19.8795 6.03078 19.955 6.06578 20.0382C6.10077 20.1215 6.1188 20.2109 6.1188 20.3013C6.1188 20.3916 6.10077 20.481 6.06578 20.5643C6.03078 20.6476 5.97952 20.7231 5.915 20.7863C5.78314 20.9149 5.60622 20.9869 5.422 20.9869C5.23778 20.9869 5.06086 20.9149 4.929 20.7863C4.00228 19.8802 3.26584 18.7982 2.76287 17.6037C2.25991 16.4092 2.00054 15.1263 2 13.8303C2 8.39428 6.477 3.98828 12 3.98828C17.523 3.98828 22 8.39428 22 13.8283C21.9999 15.1248 21.7407 16.4083 21.2377 17.6033C20.7347 18.7984 19.9981 19.8809 19.071 20.7873C18.9391 20.9162 18.762 20.9884 18.5775 20.9884C18.393 20.9884 18.2159 20.9162 18.084 20.7873C18.0193 20.724 17.9679 20.6485 17.9328 20.5651C17.8978 20.4818 17.8797 20.3922 17.8797 20.3018C17.8797 20.2113 17.8978 20.1218 17.9328 20.0384C17.9679 19.955 18.0193 19.8795 18.084 19.8163C18.8817 19.0366 19.5156 18.1053 19.9483 17.0771C20.3811 16.049 20.604 14.9448 20.604 13.8293C20.604 9.15228 16.752 5.36128 12 5.36128Z" fill="#DBFB36"/>
<path d="M10.31 18.3323C11.077 17.4563 11.461 17.0183 11.935 16.9903C11.9783 16.9873 12.0217 16.9873 12.065 16.9903C12.539 17.0183 12.923 17.4563 13.69 18.3323C15.36 20.2383 16.195 21.1903 15.961 22.0123C15.941 22.0833 15.916 22.1523 15.887 22.2183C15.543 22.9883 14.362 22.9883 12 22.9883C9.638 22.9883 8.457 22.9883 8.113 22.2183C8.08344 22.1515 8.05871 22.0826 8.039 22.0123C7.805 21.1903 8.639 20.2383 10.309 18.3323H10.31ZM14.5 13.4883C14.5 14.1513 14.2366 14.7872 13.7678 15.256C13.2989 15.7249 12.663 15.9883 12 15.9883C11.337 15.9883 10.7011 15.7249 10.2322 15.256C9.76339 14.7872 9.5 14.1513 9.5 13.4883C9.5 12.8252 9.76339 12.1894 10.2322 11.7205C10.7011 11.2517 11.337 10.9883 12 10.9883C12.663 10.9883 13.2989 11.2517 13.7678 11.7205C14.2366 12.1894 14.5 12.8252 14.5 13.4883Z" fill="#DBFB36"/>
</svg>
