<svg width="92" height="12" viewBox="0 0 92 12" fill="none" xmlns="http://www.w3.org/2000/svg">
<g clip-path="url(#clip0_39_2166)">
<path d="M0 1.18897H2.393L4.92 7.48597H5.028L7.555 1.18897H9.941V10.562H8.066V4.46297H7.988L5.614 10.517H4.332L1.958 4.43997H1.882V10.562H0V1.18897ZM13.279 10.694C12.874 10.703 12.472 10.623 12.1 10.459C11.769 10.311 11.487 10.068 11.289 9.75997C11.08 9.41197 10.977 9.00797 10.991 8.59997C10.981 8.25897 11.053 7.92097 11.202 7.61497C11.337 7.35597 11.535 7.13597 11.776 6.97497C12.03 6.80697 12.309 6.68297 12.602 6.60897C12.922 6.52397 13.248 6.46697 13.578 6.43697C13.977 6.39397 14.3 6.35197 14.545 6.31397C14.732 6.29597 14.913 6.23697 15.077 6.14197C15.19 6.06697 15.254 5.93497 15.246 5.79797V5.77097C15.26 5.51697 15.163 5.26997 14.979 5.09797C14.764 4.92697 14.495 4.84197 14.223 4.85997C13.933 4.84497 13.646 4.92597 13.404 5.09097C13.21 5.23197 13.067 5.43597 13 5.66897L11.235 5.52297C11.317 5.11297 11.499 4.73097 11.765 4.41297C12.038 4.08997 12.385 3.84197 12.776 3.68997C13.239 3.51297 13.73 3.42697 14.225 3.43697C14.599 3.43697 14.971 3.48497 15.333 3.57997C15.668 3.66397 15.984 3.80797 16.268 4.00697C16.54 4.19497 16.763 4.44897 16.917 4.74497C17.083 5.07697 17.165 5.44497 17.156 5.81697V10.562H15.345V9.58797H15.291C15.181 9.80797 15.031 10.004 14.848 10.166C14.65 10.339 14.421 10.472 14.174 10.555C13.886 10.652 13.583 10.699 13.279 10.694ZM13.827 9.34997C14.085 9.35497 14.34 9.29597 14.57 9.17797C14.776 9.07197 14.951 8.91197 15.076 8.71297C15.199 8.51697 15.263 8.28797 15.261 8.05397V7.30397C15.184 7.35097 15.102 7.38697 15.017 7.41197C14.914 7.44297 14.798 7.47297 14.669 7.49797C14.541 7.52397 14.412 7.54697 14.284 7.56697L13.935 7.62097C13.733 7.64697 13.535 7.70097 13.347 7.78097C13.194 7.84197 13.06 7.94397 12.958 8.07497C12.862 8.20797 12.814 8.36997 12.819 8.53397C12.806 8.77297 12.913 9.00197 13.102 9.14197C13.317 9.28697 13.57 9.35997 13.827 9.34997ZM20.986 10.677C20.484 10.684 19.991 10.539 19.568 10.262C19.122 9.96397 18.771 9.53897 18.557 9.03997C18.297 8.41397 18.175 7.73597 18.198 7.05597C18.175 6.36497 18.305 5.67797 18.579 5.04597C18.795 4.55297 19.146 4.13497 19.59 3.84097C20.007 3.57597 20.49 3.43797 20.981 3.44197C21.314 3.42997 21.645 3.49797 21.947 3.63997C22.189 3.75697 22.405 3.92597 22.579 4.13397C22.725 4.30997 22.848 4.50497 22.944 4.71397H23.003V1.18897H24.907V10.562H23.02V9.43097H22.939C22.84 9.64097 22.713 9.83697 22.562 10.011C22.385 10.211 22.17 10.372 21.93 10.484C21.633 10.619 21.311 10.685 20.986 10.677ZM21.591 9.12797C21.873 9.13697 22.149 9.04497 22.373 8.86997C22.599 8.67897 22.769 8.42797 22.865 8.14597C22.985 7.79397 23.042 7.42297 23.034 7.05097C23.043 6.67997 22.985 6.31097 22.865 5.96197C22.771 5.68097 22.6 5.43297 22.373 5.24697C22.147 5.07597 21.871 4.98797 21.59 4.99597C21.303 4.98597 21.023 5.07897 20.796 5.25797C20.57 5.44697 20.401 5.69797 20.307 5.98097C20.191 6.32497 20.134 6.68697 20.139 7.05097C20.132 7.41897 20.189 7.78597 20.307 8.13397C20.4 8.41897 20.569 8.67297 20.794 8.86697C21.022 9.04497 21.304 9.13597 21.591 9.12497V9.12797ZM29.413 10.7C28.777 10.718 28.148 10.565 27.588 10.257C27.082 9.96897 26.671 9.53297 26.409 9.00397C26.121 8.40697 25.979 7.74597 25.996 7.07997C25.981 6.42097 26.123 5.76697 26.409 5.17497C26.669 4.64497 27.073 4.20197 27.571 3.89797C28.107 3.58397 28.717 3.42597 29.334 3.44197C29.767 3.43897 30.197 3.51297 30.604 3.66197C30.99 3.80697 31.342 4.03397 31.636 4.32797C31.941 4.64497 32.176 5.02497 32.323 5.44397C32.496 5.94697 32.579 6.47797 32.569 7.01097V7.54697H26.761V6.33297H30.776C30.781 6.07297 30.719 5.81497 30.596 5.58597C30.48 5.37197 30.31 5.19297 30.102 5.06997C29.878 4.94297 29.625 4.87897 29.369 4.88397C29.1 4.87897 28.834 4.94997 28.601 5.08897C28.383 5.21997 28.202 5.40797 28.079 5.63297C27.952 5.86397 27.885 6.12497 27.885 6.38997V7.53997C27.877 7.85097 27.942 8.15997 28.075 8.43997C28.195 8.68497 28.383 8.88897 28.616 9.02697C28.87 9.16897 29.156 9.23997 29.445 9.23097C29.643 9.23397 29.84 9.20297 30.028 9.13997C30.197 9.08397 30.351 8.99097 30.48 8.86697C30.607 8.74097 30.705 8.58797 30.766 8.41697L32.532 8.53597C32.449 8.95597 32.261 9.34697 31.984 9.66897C31.692 10.003 31.326 10.261 30.916 10.421C30.437 10.611 29.927 10.705 29.413 10.7ZM37.324 2.62597C37.053 2.63197 36.791 2.52697 36.596 2.33497C36.404 2.15997 36.295 1.90997 36.295 1.64697C36.295 1.38397 36.404 1.13397 36.596 0.958969C37.007 0.570969 37.641 0.570969 38.052 0.958969C38.245 1.13297 38.355 1.38397 38.355 1.64697C38.358 1.91297 38.247 2.16797 38.052 2.34397C37.856 2.53397 37.594 2.63497 37.324 2.62597ZM36.365 10.562V3.53297H38.274V10.562H36.365ZM41.516 6.50497V10.562H39.609V3.53297H41.427V4.77197H41.508C41.655 4.37297 41.923 4.03197 42.275 3.79997C42.665 3.55197 43.119 3.42797 43.579 3.44197C44.016 3.43097 44.448 3.54197 44.829 3.76197C45.186 3.97797 45.474 4.29497 45.658 4.67397C45.864 5.11397 45.965 5.59797 45.953 6.08597V10.56H44.045V6.42997C44.068 6.06297 43.952 5.70097 43.722 5.41997C43.487 5.16997 43.158 5.03797 42.82 5.05597C42.585 5.05297 42.353 5.11297 42.146 5.22797C41.949 5.34197 41.79 5.51397 41.688 5.72097C41.572 5.96497 41.513 6.23397 41.516 6.50497ZM50.044 10.562V1.18897H56.11V2.82297H51.978V5.05997H55.711V6.69297H51.978V10.565L50.044 10.562ZM57.077 10.562V3.53297H58.931V4.75897H59.001C59.099 4.36697 59.321 4.01897 59.633 3.76897C59.927 3.54197 60.287 3.42097 60.656 3.42497C60.759 3.42597 60.862 3.43197 60.964 3.44397C61.062 3.45397 61.16 3.47097 61.256 3.49397V5.22997C61.134 5.19597 61.009 5.17197 60.883 5.15797C60.739 5.13697 60.594 5.12597 60.449 5.12497C60.187 5.11997 59.929 5.18397 59.699 5.31097C59.482 5.43097 59.302 5.60997 59.178 5.82697C59.049 6.05797 58.983 6.31997 58.988 6.58597V10.562H57.077ZM63.814 10.694C63.408 10.703 63.006 10.623 62.634 10.459C62.302 10.312 62.019 10.069 61.82 9.75997C61.611 9.41197 61.507 9.00797 61.522 8.59997C61.512 8.25897 61.584 7.92097 61.733 7.61497C61.868 7.35597 62.066 7.13597 62.307 6.97497C62.561 6.80697 62.84 6.68297 63.133 6.60897C63.453 6.52497 63.779 6.46697 64.108 6.43697C64.508 6.39397 64.831 6.35197 65.076 6.31397C65.263 6.29497 65.445 6.23697 65.61 6.14197C65.722 6.06697 65.787 5.93497 65.778 5.79797V5.77097C65.794 5.51697 65.696 5.26897 65.512 5.09797C65.298 4.92697 65.03 4.84197 64.759 4.85997C64.468 4.84397 64.18 4.92497 63.938 5.09097C63.744 5.23197 63.601 5.43497 63.534 5.66897L61.77 5.52297C61.851 5.11297 62.032 4.73097 62.297 4.41297C62.574 4.08997 62.925 3.84197 63.318 3.68997C63.781 3.51297 64.273 3.42697 64.767 3.43697C65.138 3.43497 65.508 3.48097 65.868 3.57297C66.202 3.65697 66.519 3.80197 66.804 3.99997C67.075 4.18897 67.297 4.44197 67.452 4.73797C67.617 5.07097 67.698 5.44197 67.687 5.81497V10.562H65.883V9.58797H65.829C65.717 9.80897 65.563 10.005 65.377 10.166C65.18 10.339 64.951 10.472 64.703 10.555C64.416 10.651 64.116 10.698 63.814 10.694ZM64.366 9.34997C64.624 9.35497 64.879 9.29597 65.109 9.17797C65.316 9.07197 65.49 8.91197 65.615 8.71297C65.736 8.51597 65.799 8.28697 65.795 8.05397V7.30397C65.719 7.35097 65.637 7.38697 65.551 7.41197C65.446 7.44297 65.332 7.47297 65.204 7.49797C65.076 7.52397 64.946 7.54697 64.818 7.56697L64.467 7.62097C64.266 7.64797 64.069 7.70097 63.881 7.78097C63.728 7.84197 63.594 7.94297 63.492 8.07497C63.396 8.20797 63.347 8.36997 63.352 8.53397C63.339 8.77297 63.446 9.00297 63.637 9.14197C63.852 9.28897 64.108 9.36097 64.366 9.34997ZM68.985 10.562V3.53297H70.803V4.77197H70.884C71.015 4.37797 71.266 4.03597 71.602 3.79797C72.336 3.32197 73.273 3.32197 74.008 3.79797C74.335 4.03197 74.57 4.37597 74.672 4.77097H74.742C74.882 4.36897 75.151 4.02797 75.506 3.80297C75.898 3.55397 76.354 3.42797 76.817 3.43997C77.401 3.41697 77.968 3.64297 78.384 4.06297C78.785 4.48097 78.985 5.07097 78.985 5.83297V10.562H77.081V6.21997C77.106 5.89597 76.995 5.57597 76.776 5.33997C76.57 5.14397 76.296 5.03897 76.015 5.04797C75.709 5.02997 75.412 5.15297 75.204 5.38297C75.001 5.63097 74.897 5.94697 74.913 6.26997V10.562H73.059V6.17797C73.075 5.87497 72.971 5.57797 72.771 5.35397C72.571 5.14697 72.295 5.03597 72.011 5.04797C71.81 5.04397 71.612 5.10097 71.442 5.20997C71.269 5.32097 71.13 5.47797 71.039 5.66397C70.935 5.87797 70.884 6.11397 70.891 6.35197V10.562H68.985ZM83.439 10.7C82.802 10.718 82.173 10.565 81.612 10.257C81.106 9.96797 80.695 9.53197 80.433 9.00397C80.146 8.40597 80.005 7.74597 80.021 7.07997C80.007 6.42097 80.148 5.76697 80.433 5.17497C80.693 4.64497 81.097 4.20197 81.595 3.89797C82.131 3.58397 82.742 3.42697 83.359 3.44197C83.792 3.43897 84.222 3.51297 84.63 3.66197C85.016 3.80697 85.368 4.03397 85.661 4.32797C85.967 4.64397 86.201 5.02497 86.347 5.44397C86.521 5.94697 86.605 6.47797 86.595 7.01097V7.54697H80.786V6.33297H84.802C84.806 6.07297 84.744 5.81497 84.621 5.58597C84.506 5.37097 84.334 5.19297 84.126 5.06997C83.902 4.94297 83.649 4.87797 83.393 4.88397C83.124 4.87897 82.859 4.94997 82.626 5.08897C82.408 5.21897 82.227 5.40697 82.104 5.63297C81.977 5.86397 81.91 6.12497 81.91 6.38997V7.53997C81.903 7.85097 81.968 8.15997 82.101 8.43997C82.22 8.68597 82.409 8.88997 82.642 9.02697C82.895 9.16897 83.181 9.23997 83.471 9.23097C83.668 9.23397 83.865 9.20397 84.052 9.13997C84.221 9.08397 84.376 8.99097 84.505 8.86697C84.633 8.74097 84.73 8.58697 84.792 8.41697L86.558 8.53597C86.474 8.95597 86.285 9.34697 86.008 9.66897C85.716 10.003 85.351 10.26 84.942 10.421C84.463 10.611 83.952 10.705 83.439 10.7ZM87.654 10.562V3.53297H89.508V4.75897H89.58C89.677 4.36697 89.899 4.01797 90.211 3.76897C90.505 3.54197 90.865 3.42097 91.233 3.42497C91.336 3.42597 91.439 3.43197 91.542 3.44397C91.64 3.45397 91.737 3.47097 91.833 3.49397V5.22997C91.711 5.19597 91.587 5.17197 91.461 5.15797C91.317 5.13697 91.173 5.12597 91.028 5.12497C90.766 5.11997 90.507 5.18397 90.276 5.31097C90.06 5.43197 89.88 5.60997 89.756 5.82697C89.626 6.05797 89.56 6.31997 89.565 6.58597V10.562H87.654Z" fill="#222222"/>
</g>
<defs>
<clipPath id="clip0_39_2166">
<rect width="92" height="11" fill="white" transform="translate(0 0.230469)"/>
</clipPath>
</defs>
</svg>
