<svg width="26" height="27" viewBox="0 0 26 27" fill="none" xmlns="http://www.w3.org/2000/svg">
<path d="M4.39747 6.40774C5.13413 14.5457 12.1091 21.5207 20.2471 22.2573C21.0704 22.3319 21.7837 21.7382 21.9457 20.9279L22.49 18.2031C22.5646 17.8303 22.5146 17.4433 22.3476 17.1018C22.1807 16.7602 21.9061 16.483 21.5661 16.3129L19.7106 15.3855C19.3477 15.204 18.9325 15.1556 18.5375 15.2487C18.1426 15.3419 17.7928 15.5706 17.5491 15.8951L17.3117 16.2115C16.9841 16.6483 16.4606 16.9169 15.951 16.7237C13.8797 15.9385 10.7163 12.776 9.93113 10.7047C9.73787 10.1933 10.0065 9.67074 10.4433 9.34314L10.7597 9.10567C11.0843 8.86215 11.3133 8.51242 11.4066 8.11743C11.4998 7.72244 11.4516 7.30725 11.2701 6.9442L10.3428 5.08954C10.1727 4.74907 9.89529 4.47405 9.55336 4.30693C9.21143 4.1398 8.824 4.08986 8.45087 4.1648L5.72607 4.70907C4.91573 4.87114 4.32293 5.5844 4.39747 6.40774Z" stroke="#DBFB36" stroke-width="1.73333" stroke-linecap="round" stroke-linejoin="round"/>
</svg>
