<svg width="26" height="27" viewBox="0 0 26 27" fill="none" xmlns="http://www.w3.org/2000/svg">
<path d="M12.1875 2.82227C11.9213 2.8813 11.6623 2.96921 11.4151 3.08443C7.09908 5.10268 4.33333 10.7436 4.33333 15.5774C4.33333 20.1708 7.78158 23.944 12.1875 24.3611V2.82227ZM13.8125 24.3611C18.2184 23.944 21.6667 20.1708 21.6667 15.5774C21.6667 15.1376 21.6439 14.6902 21.5984 14.2406L13.8125 22.0276V24.3611ZM19.7817 8.34402C19.3659 7.56481 18.88 6.82508 18.33 6.13402L13.8125 10.6515V14.3132L19.7817 8.34402ZM17.2337 4.93152C16.4576 4.17518 15.5629 3.55121 14.5849 3.08443C14.3377 2.96921 14.0787 2.8813 13.8125 2.82227V8.35377L17.2337 4.93152ZM20.514 9.90835L13.8125 16.6109V19.7288L21.125 12.4163L21.268 12.2733C21.0772 11.4669 20.8252 10.6763 20.514 9.90835Z" fill="#DBFB36"/>
</svg>
