<svg width="28" height="29" viewBox="0 0 28 29" fill="none" xmlns="http://www.w3.org/2000/svg">
<path d="M20.175 2.71893C19.833 3.06093 19.833 3.61093 19.833 4.71093V19.8769C19.833 20.9769 19.833 21.5269 20.175 21.8689C20.517 22.2109 21.067 22.2109 22.167 22.2109C23.267 22.2109 23.817 22.2109 24.158 21.8689C24.5 21.5269 24.5 20.9769 24.5 19.8779V4.71093C24.5 3.61093 24.5 3.06093 24.158 2.71893C23.817 2.37793 23.267 2.37793 22.167 2.37793C21.067 2.37793 20.517 2.37793 20.175 2.71893ZM11.667 8.21093C11.667 7.11093 11.667 6.56093 12.008 6.21893C12.35 5.87793 12.9 5.87793 14 5.87793C15.1 5.87793 15.65 5.87793 15.992 6.21893C16.333 6.56093 16.333 7.11093 16.333 8.21093V19.8779C16.333 20.9779 16.333 21.5279 15.992 21.8689C15.65 22.2109 15.1 22.2109 14 22.2109C12.9 22.2109 12.35 22.2109 12.008 21.8689C11.667 21.5269 11.667 20.9769 11.667 19.8779V8.21093ZM3.842 10.8859C3.5 11.2279 3.5 11.7779 3.5 12.8779V19.8779C3.5 20.9779 3.5 21.5279 3.842 21.8689C4.183 22.2109 4.733 22.2109 5.833 22.2109C6.933 22.2109 7.483 22.2109 7.825 21.8689C8.167 21.5269 8.167 20.9769 8.167 19.8779V12.8779C8.167 11.7779 8.167 11.2279 7.825 10.8859C7.483 10.5439 6.933 10.5439 5.833 10.5439C4.733 10.5439 4.183 10.5439 3.842 10.8859ZM3.5 24.8359C3.26794 24.8359 3.04538 24.9281 2.88128 25.0922C2.71719 25.2563 2.625 25.4789 2.625 25.7109C2.625 25.943 2.71719 26.1656 2.88128 26.3296C3.04538 26.4937 3.26794 26.5859 3.5 26.5859H24.5C24.7321 26.5859 24.9546 26.4937 25.1187 26.3296C25.2828 26.1656 25.375 25.943 25.375 25.7109C25.375 25.4789 25.2828 25.2563 25.1187 25.0922C24.9546 24.9281 24.7321 24.8359 24.5 24.8359H3.5Z" fill="#DBFB36"/>
</svg>
