<svg width="26" height="27" viewBox="0 0 26 27" fill="none" xmlns="http://www.w3.org/2000/svg">
<path fill-rule="evenodd" clip-rule="evenodd" d="M15.4689 3.21984C15.0681 3.05518 14.5589 3.05518 13.5417 3.05518C12.5244 3.05518 12.0152 3.05518 11.6144 3.21984C11.0808 3.4389 10.6561 3.86092 10.4336 4.39309C10.3317 4.63468 10.2927 4.91743 10.2765 5.32801C10.2693 5.6255 10.1863 5.91622 10.0354 6.1727C9.88451 6.42919 9.67069 6.64294 9.41416 6.79376C9.1528 6.93904 8.859 7.016 8.55998 7.01751C8.26097 7.01903 7.9664 6.94505 7.70358 6.80243C7.33742 6.60959 7.072 6.50343 6.80983 6.46876C6.23627 6.39345 5.65616 6.54762 5.19567 6.89776C4.85117 7.15993 4.59658 7.59759 4.0885 8.47184C3.57933 9.34609 3.32583 9.78267 3.26842 10.2106C3.19258 10.7804 3.34858 11.3568 3.70175 11.8128C3.86208 12.0208 4.0885 12.1953 4.43842 12.4141C4.95517 12.7358 5.28667 13.284 5.28667 13.8885C5.28667 14.493 4.95517 15.0412 4.4395 15.3618C4.0885 15.5818 3.86208 15.7562 3.70067 15.9642C3.52634 16.1894 3.39838 16.447 3.32419 16.722C3.25 16.9971 3.23104 17.284 3.26842 17.5664C3.32583 17.9933 3.57933 18.4309 4.0885 19.3052C4.59767 20.1794 4.85117 20.616 5.19567 20.8793C5.655 21.2292 6.23566 21.383 6.80983 21.3083C7.072 21.2736 7.33742 21.1674 7.70358 20.9746C7.96653 20.8318 8.2613 20.7577 8.56053 20.7592C8.85976 20.7607 9.15376 20.8378 9.41525 20.9833C9.94175 21.2866 10.2537 21.8445 10.2765 22.449C10.2927 22.8607 10.3317 23.1423 10.4336 23.3839C10.6546 23.9148 11.0792 24.3373 11.6144 24.5572C12.0152 24.7218 12.5244 24.7218 13.5417 24.7218C14.5589 24.7218 15.0681 24.7218 15.4689 24.5572C16.0025 24.3381 16.4273 23.9161 16.6497 23.3839C16.7516 23.1423 16.7906 22.8607 16.8068 22.449C16.8285 21.8445 17.1416 21.2855 17.6692 20.9833C17.9305 20.838 18.2243 20.761 18.5233 20.7595C18.8224 20.758 19.1169 20.832 19.3797 20.9746C19.7459 21.1674 20.0113 21.2736 20.2735 21.3083C20.8477 21.3841 21.4283 21.2292 21.8877 20.8793C22.2322 20.6171 22.4867 20.1794 22.9948 19.3052C23.504 18.4309 23.7575 17.9943 23.8149 17.5664C23.8521 17.284 23.833 16.9969 23.7586 16.7219C23.6842 16.4469 23.5561 16.1894 23.3816 15.9642C23.2212 15.7562 22.9948 15.5818 22.6449 15.3629C22.1282 15.0412 21.7967 14.493 21.7967 13.8885C21.7967 13.284 22.1282 12.7358 22.6438 12.4152C22.9948 12.1953 23.2212 12.0208 23.3827 11.8128C23.557 11.5876 23.6849 11.33 23.7591 11.055C23.8333 10.78 23.8523 10.493 23.8149 10.2106C23.7575 9.78376 23.504 9.34609 22.9948 8.47184C22.4857 7.59759 22.2322 7.16101 21.8877 6.89776C21.4272 6.54762 20.8471 6.39345 20.2735 6.46876C20.0113 6.50343 19.7459 6.60959 19.3797 6.80243C19.1168 6.94524 18.822 7.01933 18.5228 7.01781C18.2236 7.0163 17.9296 6.93923 17.6681 6.79376C17.4118 6.64281 17.1982 6.42899 17.0475 6.17252C16.8968 5.91605 16.8139 5.62539 16.8068 5.32801C16.7906 4.91634 16.7516 4.63468 16.6497 4.39309C16.5396 4.12956 16.3787 3.8903 16.1761 3.68899C15.9734 3.48768 15.7332 3.32826 15.4689 3.21984ZM13.5417 17.1385C15.3508 17.1385 16.8166 15.6836 16.8166 13.8885C16.8166 12.0934 15.3497 10.6385 13.5417 10.6385C11.7325 10.6385 10.2667 12.0934 10.2667 13.8885C10.2667 15.6836 11.7336 17.1385 13.5417 17.1385Z" fill="#DBFB36"/>
</svg>
