<svg width="28" height="29" viewBox="0 0 28 29" fill="none" xmlns="http://www.w3.org/2000/svg">
<path fill-rule="evenodd" clip-rule="evenodd" d="M10.69 4.65907C10.7596 4.8804 10.7384 5.12029 10.6311 5.326C10.5239 5.53172 10.3393 5.68641 10.118 5.75607C8.11391 6.38691 6.36326 7.64051 5.12056 9.33462C3.87785 11.0287 3.20786 13.075 3.208 15.1761C3.208 20.6261 7.628 25.0461 13.079 25.0461C17.498 25.0461 21.241 22.1421 22.499 18.1361C22.5335 18.0264 22.5892 17.9246 22.663 17.8365C22.7368 17.7484 22.8273 17.6757 22.9292 17.6225C23.0311 17.5694 23.1425 17.5368 23.257 17.5267C23.3715 17.5166 23.4868 17.5291 23.5965 17.5636C23.7062 17.598 23.8079 17.6538 23.8961 17.7276C23.9842 17.8014 24.0569 17.8918 24.1101 17.9938C24.1632 18.0957 24.1958 18.2071 24.2059 18.3216C24.216 18.436 24.2035 18.5514 24.169 18.6611C22.688 23.3751 18.284 26.7961 13.079 26.7961C6.661 26.7961 1.459 21.5931 1.459 15.1761C1.459 9.97007 4.879 5.56707 9.593 4.08607C9.70265 4.05165 9.81801 4.03916 9.93249 4.04933C10.047 4.0595 10.1583 4.09212 10.2602 4.14533C10.3621 4.19854 10.4525 4.27129 10.5262 4.35944C10.6 4.44759 10.6556 4.54941 10.69 4.65907Z" fill="#DBFB36"/>
<path d="M25.565 11.86C24.951 9.67354 23.785 7.6817 22.1792 6.07583C20.5733 4.46996 18.5815 3.30402 16.395 2.69C14.477 2.154 12.833 3.818 12.833 5.809V13.619C12.833 14.614 13.64 15.421 14.636 15.421H22.446C24.436 15.421 26.1 13.777 25.565 11.86Z" fill="#DBFB36"/>
</svg>
