<svg width="26" height="27" viewBox="0 0 26 27" fill="none" xmlns="http://www.w3.org/2000/svg">
<path d="M4.16542 4.26495C3.57975 4.85067 3.25073 5.64504 3.25073 6.47333C3.25073 7.30162 3.57975 8.09599 4.16542 8.6817L5.88467 10.402C5.89786 10.3871 5.91159 10.3726 5.92583 10.3587L10.2592 6.02537C10.2731 6.01113 10.2876 5.9974 10.3025 5.9842L8.58216 4.26495C7.99645 3.67929 7.20208 3.35027 6.37379 3.35027C5.5455 3.35027 4.75113 3.67929 4.16542 4.26495ZM11.4487 7.13037C11.4355 7.14531 11.4217 7.15977 11.4075 7.1737L7.07416 11.507C7.06023 11.5213 7.04578 11.535 7.03083 11.5482L17.4178 21.9352C18.007 22.5047 18.7963 22.8198 19.6157 22.8129C20.4351 22.8059 21.2189 22.4773 21.7983 21.8979C22.3778 21.3185 22.7064 20.5346 22.7133 19.7153C22.7203 18.8959 22.4051 18.1066 21.8357 17.5174L11.4487 7.13037ZM17.4417 2.59878C17.4799 2.50063 17.547 2.41631 17.6339 2.35687C17.7209 2.29743 17.8238 2.26562 17.9292 2.26562C18.0345 2.26562 18.1374 2.29743 18.2244 2.35687C18.3114 2.41631 18.3784 2.50063 18.4167 2.59878L18.8825 3.78503C18.9085 3.85215 18.9481 3.91316 18.9988 3.96424C19.0495 4.01532 19.1102 4.05537 19.1772 4.08187L20.3591 4.54987C20.457 4.58885 20.5409 4.65631 20.6 4.74351C20.6591 4.83071 20.6907 4.93364 20.6907 5.03899C20.6907 5.14435 20.6591 5.24728 20.6 5.33448C20.5409 5.42168 20.457 5.48913 20.3591 5.52812L19.1782 5.99612C19.1113 6.02254 19.0505 6.06242 18.9997 6.1133C18.9488 6.16417 18.9089 6.22495 18.8825 6.29187L18.4167 7.47703C18.3784 7.57519 18.3114 7.65951 18.2244 7.71895C18.1374 7.77839 18.0345 7.81019 17.9292 7.81019C17.8238 7.81019 17.7209 7.77839 17.6339 7.71895C17.547 7.65951 17.4799 7.57519 17.4417 7.47703L16.9758 6.29079C16.9494 6.22387 16.9095 6.16309 16.8587 6.11221C16.8078 6.06134 16.747 6.02146 16.6801 5.99503L15.4992 5.52704C15.4014 5.48805 15.3174 5.42059 15.2583 5.3334C15.1992 5.2462 15.1676 5.14326 15.1676 5.03791C15.1676 4.93255 15.1992 4.82962 15.2583 4.74242C15.3174 4.65523 15.4014 4.58777 15.4992 4.54878L16.6801 4.08078C16.7471 4.05424 16.8079 4.01419 16.8588 3.96313C16.9097 3.91206 16.9495 3.85107 16.9758 3.78395L17.4417 2.59878ZM21.6309 9.99037C21.6692 9.89221 21.7362 9.8079 21.8232 9.74845C21.9102 9.68901 22.0131 9.65721 22.1184 9.65721C22.2238 9.65721 22.3267 9.68901 22.4136 9.74845C22.5006 9.8079 22.5676 9.89221 22.6059 9.99037L22.7749 10.4226C22.8291 10.558 22.9352 10.6653 23.0707 10.7184L23.5018 10.8895C23.5994 10.9287 23.683 10.9962 23.7418 11.0832C23.8007 11.1703 23.8321 11.273 23.8321 11.3781C23.8321 11.4832 23.8007 11.5859 23.7418 11.673C23.683 11.7601 23.5994 11.8275 23.5018 11.8667L23.0707 12.0379C23.0037 12.0643 22.943 12.1042 22.8921 12.155C22.8412 12.2059 22.8013 12.2667 22.7749 12.3336L22.6059 12.767C22.5676 12.8651 22.5006 12.9494 22.4136 13.0089C22.3267 13.0683 22.2238 13.1001 22.1184 13.1001C22.0131 13.1001 21.9102 13.0683 21.8232 13.0089C21.7362 12.9494 21.6692 12.8651 21.6309 12.767L21.4608 12.3336C21.4345 12.2668 21.3948 12.2061 21.3441 12.1552C21.2935 12.1044 21.2329 12.0644 21.1662 12.0379L20.735 11.8667C20.6375 11.8275 20.5539 11.7601 20.495 11.673C20.4361 11.5859 20.4047 11.4832 20.4047 11.3781C20.4047 11.273 20.4361 11.1703 20.495 11.0832C20.5539 10.9962 20.6375 10.9287 20.735 10.8895L21.1662 10.7184C21.2329 10.6918 21.2935 10.6519 21.3441 10.601C21.3948 10.5501 21.4345 10.4894 21.4608 10.4226L21.6309 9.98928V9.99037ZM5.56075 16.6821C5.59902 16.584 5.66603 16.4996 5.75301 16.4402C5.84 16.3808 5.9429 16.349 6.04825 16.349C6.1536 16.349 6.2565 16.3808 6.34348 16.4402C6.43046 16.4996 6.49747 16.584 6.53575 16.6821L6.70583 17.1155C6.73185 17.1824 6.77146 17.2433 6.82218 17.2942C6.8729 17.3451 6.93361 17.3849 7.0005 17.4112L7.43166 17.5813C7.52954 17.6203 7.61347 17.6877 7.6726 17.7749C7.73173 17.8621 7.76333 17.9651 7.76333 18.0704C7.76333 18.1758 7.73173 18.2787 7.6726 18.3659C7.61347 18.4531 7.52954 18.5205 7.43166 18.5595L7.0005 18.7307C6.93375 18.7572 6.87315 18.7971 6.82246 18.848C6.77177 18.8989 6.73208 18.9596 6.70583 19.0265L6.53575 19.4598C6.49747 19.5579 6.43046 19.6423 6.34348 19.7017C6.2565 19.7611 6.1536 19.7929 6.04825 19.7929C5.9429 19.7929 5.84 19.7611 5.75301 19.7017C5.66603 19.6423 5.59902 19.5579 5.56075 19.4598L5.39066 19.0265C5.36442 18.9596 5.32472 18.8989 5.27404 18.848C5.22335 18.7971 5.16275 18.7572 5.096 18.7307L4.66483 18.5595C4.56696 18.5205 4.48303 18.4531 4.4239 18.3659C4.36477 18.2787 4.33316 18.1758 4.33316 18.0704C4.33316 17.9651 4.36477 17.8621 4.4239 17.7749C4.48303 17.6877 4.56696 17.6203 4.66483 17.5813L5.096 17.4112C5.16285 17.3846 5.22352 17.3445 5.27421 17.2934C5.3249 17.2424 5.36455 17.1814 5.39066 17.1144L5.56075 16.6821Z" fill="#DBFB36"/>
</svg>
