<svg width="24" height="25" viewBox="0 0 24 25" fill="none" xmlns="http://www.w3.org/2000/svg">
<path d="M5.75 1.41016C5.94891 1.41016 6.13968 1.48917 6.28033 1.62983C6.42098 1.77048 6.5 1.96124 6.5 2.16016V4.01016L8.22 3.66616C9.87075 3.33587 11.5819 3.49292 13.145 4.11816L13.349 4.19916C14.9099 4.82371 16.6279 4.94058 18.259 4.53316C18.4359 4.48894 18.6205 4.48562 18.7989 4.52344C18.9773 4.56126 19.1447 4.63924 19.2884 4.75145C19.4322 4.86366 19.5484 5.00714 19.6284 5.17101C19.7084 5.33488 19.75 5.51481 19.75 5.69716V13.0642C19.75 13.7082 19.311 14.2702 18.686 14.4262L18.472 14.4792C16.7025 14.9217 14.8386 14.7954 13.145 14.1182C11.5823 13.4931 9.87143 13.336 8.221 13.6662L6.5 14.0102V22.1602C6.5 22.3591 6.42098 22.5498 6.28033 22.6905C6.13968 22.8311 5.94891 22.9102 5.75 22.9102C5.55109 22.9102 5.36032 22.8311 5.21967 22.6905C5.07902 22.5498 5 22.3591 5 22.1602V2.16016C5 1.96124 5.07902 1.77048 5.21967 1.62983C5.36032 1.48917 5.55109 1.41016 5.75 1.41016Z" fill="#DBFB36"/>
</svg>
