<svg width="26" height="27" viewBox="0 0 26 27" fill="none" xmlns="http://www.w3.org/2000/svg">
<path d="M7.99067 5.70749C9.37733 4.36416 11.0465 3.69336 13 3.69336C14.9535 3.69336 16.6157 4.35723 17.9859 5.68496C19.3561 7.01183 20.0417 8.62209 20.0417 10.514C20.0417 11.4596 19.7973 12.5429 19.3093 13.764C18.8319 14.9634 18.2383 16.1131 17.537 17.1969C16.8785 18.2146 16.1931 19.2145 15.4813 20.1956C14.8035 21.1255 14.2289 21.8656 13.7566 22.4151L13 23.1934C12.8111 22.9793 12.5589 22.6976 12.2434 22.3466C11.9288 21.9956 11.362 21.2936 10.5421 20.2406C9.77187 19.2573 9.05441 18.2338 8.3928 17.1744C7.77747 16.182 7.21847 15.0606 6.71407 13.8091C6.21053 12.5585 5.95833 11.4604 5.95833 10.514C5.95833 8.62209 6.63607 7.01963 7.99067 5.70749Z" stroke="#DBFB36" stroke-width="1.73333" stroke-linecap="round" stroke-linejoin="round"/>
<path d="M14.0833 10.7357C14.0833 11.023 13.9692 11.2985 13.766 11.5017C13.5629 11.7049 13.2873 11.819 13 11.819C12.7127 11.819 12.4371 11.7049 12.234 11.5017C12.0308 11.2985 11.9167 11.023 11.9167 10.7357C11.9167 10.4484 12.0308 10.1728 12.234 9.96964C12.4371 9.76648 12.7127 9.65234 13 9.65234C13.2873 9.65234 13.5629 9.76648 13.766 9.96964C13.9692 10.1728 14.0833 10.4484 14.0833 10.7357Z" stroke="#DBFB36" stroke-width="1.73333" stroke-linecap="round" stroke-linejoin="round"/>
</svg>
