<svg width="25" height="25" viewBox="0 0 25 25" fill="none" xmlns="http://www.w3.org/2000/svg">
<path d="M15.918 11.3105C14.932 10.1305 14.438 9.54054 13.871 9.63054C13.304 9.72154 13.039 10.4335 12.508 11.8575L12.371 12.2255C12.221 12.6305 12.145 12.8325 11.998 12.9815C11.852 13.1305 11.65 13.2095 11.248 13.3675L10.881 13.5105C9.463 14.0655 8.755 14.3435 8.674 14.9105C8.594 15.4775 9.194 15.9595 10.394 16.9215L10.706 17.1715C11.046 17.4445 11.217 17.5815 11.316 17.7685C11.415 17.9555 11.431 18.1725 11.462 18.6055L11.491 18.9995C11.601 20.5225 11.657 21.2845 12.174 21.5445C12.691 21.8045 13.328 21.3895 14.601 20.5615L14.93 20.3465C15.291 20.1115 15.472 19.9935 15.68 19.9595C15.888 19.9265 16.099 19.9815 16.521 20.0915L16.905 20.1915C18.391 20.5775 19.134 20.7715 19.535 20.3645C19.935 19.9575 19.728 19.2205 19.313 17.7445L19.206 17.3645C19.088 16.9445 19.029 16.7345 19.059 16.5275C19.089 16.3195 19.203 16.1375 19.433 15.7715L19.642 15.4395C20.449 14.1545 20.853 13.5125 20.584 13.0015C20.314 12.4905 19.549 12.4485 18.02 12.3665L17.625 12.3445C17.19 12.3215 16.973 12.3095 16.784 12.2145C16.594 12.1195 16.454 11.9515 16.174 11.6155L15.918 11.3105Z" fill="#DBFB36"/>
<path d="M15.545 5.78855L15.728 6.31055C15.928 6.88355 16.029 7.17055 16.225 7.38055C16.42 7.59255 16.689 7.70455 17.225 7.92755L17.715 8.13155C19.605 8.91755 20.549 9.31155 20.657 10.1146C20.702 10.4486 20.589 10.7626 20.327 11.1126C20.243 11.0899 20.1583 11.0699 20.073 11.0526C19.547 10.9456 18.878 10.9096 18.196 10.8726L17.706 10.8466L17.476 10.8336L17.325 10.6536L17.009 10.2766C16.569 9.74855 16.138 9.23355 15.737 8.87555C15.31 8.49355 14.595 7.99555 13.634 8.14955C12.662 8.30555 12.144 9.01255 11.864 9.51655C11.605 9.98455 11.372 10.6106 11.136 11.2436L10.966 11.7016L10.893 11.8946C10.8288 11.9202 10.7644 11.9455 10.7 11.9706L10.245 12.1486C9.615 12.3956 8.992 12.6386 8.528 12.9056C8.029 13.1926 7.328 13.7226 7.189 14.6986C7.051 15.6656 7.566 16.3716 7.956 16.7906C8.246 17.1016 8.636 17.4306 9.054 17.7686C7.485 18.1936 6.651 18.3526 6.176 17.8406C5.643 17.2646 5.919 16.2206 6.471 14.1306L6.614 13.5906C6.771 12.9956 6.85 12.6996 6.81 12.4046C6.77 12.1106 6.618 11.8516 6.312 11.3346L6.033 10.8646C4.957 9.04455 4.418 8.13455 4.778 7.40955C5.138 6.68555 6.157 6.62655 8.195 6.50955L8.723 6.47955C9.303 6.44555 9.592 6.42955 9.844 6.29455C10.097 6.15955 10.284 5.92255 10.658 5.44655L10.998 5.01455C12.314 3.34155 12.971 2.50555 13.728 2.63455C14.483 2.76355 14.838 3.77155 15.545 5.78855Z" fill="#DBFB36"/>
</svg>
