<svg width="28" height="29" viewBox="0 0 28 29" fill="none" xmlns="http://www.w3.org/2000/svg">
<path fill-rule="evenodd" clip-rule="evenodd" d="M2.333 2.29053C2.21809 2.29053 2.10431 2.31316 1.99815 2.35713C1.89199 2.40111 1.79553 2.46556 1.71428 2.54681C1.63303 2.62806 1.56858 2.72452 1.52461 2.83068C1.48063 2.93684 1.458 3.05062 1.458 3.16553C1.458 3.28043 1.48063 3.39422 1.52461 3.50038C1.56858 3.60654 1.63303 3.70299 1.71428 3.78425C1.79553 3.8655 1.89199 3.92995 1.99815 3.97392C2.10431 4.01789 2.21809 4.04053 2.333 4.04053H4.667V13.0825C4.667 16.6575 4.667 18.4445 5.838 19.5555C7.01 20.6655 8.895 20.6655 12.667 20.6655H13.125V24.7915L11.275 25.7165C11.0673 25.8204 10.9094 26.0024 10.836 26.2227C10.7626 26.443 10.7797 26.6834 10.8835 26.891C10.9873 27.0987 11.1694 27.2566 11.3897 27.33C11.6099 27.4034 11.8503 27.3864 12.058 27.2825L14 26.3095L15.942 27.2805C16.1493 27.3822 16.3884 27.3979 16.6071 27.3241C16.8259 27.2503 17.0066 27.093 17.1099 26.8865C17.2132 26.68 17.2307 26.4411 17.1586 26.2217C17.0865 26.0024 16.9307 25.8204 16.725 25.7155L14.875 24.7905V20.6655H15.333C19.105 20.6655 20.99 20.6655 22.162 19.5545C23.333 18.4445 23.333 16.6565 23.333 13.0815V4.04253H25.667C25.8991 4.04253 26.1216 3.95034 26.2857 3.78625C26.4498 3.62215 26.542 3.39959 26.542 3.16753C26.542 2.93546 26.4498 2.7129 26.2857 2.54881C26.1216 2.38471 25.8991 2.29253 25.667 2.29253H2.333V2.29053ZM18.119 10.1305C18.2003 10.2118 18.2649 10.3083 18.3089 10.4145C18.3529 10.5207 18.3756 10.6346 18.3756 10.7495C18.3756 10.8645 18.3529 10.9783 18.3089 11.0846C18.2649 11.1908 18.2003 11.2873 18.119 11.3685L16.582 12.9045C16.412 13.0745 16.23 13.2575 16.055 13.3905C15.8038 13.5954 15.4911 13.7099 15.167 13.7155C14.8429 13.7102 14.53 13.5957 14.279 13.3905C14.104 13.2575 13.921 13.0745 13.751 12.9045L13.04 12.1935C12.958 12.1115 12.892 12.0445 12.833 11.9885C12.775 12.0445 12.709 12.1115 12.627 12.1925L11.12 13.7025C10.9556 13.867 10.7325 13.9593 10.5 13.9593C10.2675 13.9593 10.0444 13.867 9.88 13.7025C9.71557 13.5381 9.62319 13.3151 9.62319 13.0825C9.62319 12.85 9.71557 12.627 9.88 12.4625L11.417 10.9265C11.587 10.7565 11.769 10.5735 11.944 10.4405C12.15 10.2835 12.444 10.1145 12.832 10.1145C13.222 10.1145 13.515 10.2835 13.72 10.4405C13.895 10.5735 14.078 10.7565 14.247 10.9265L14.959 11.6375C15.041 11.7195 15.107 11.7855 15.166 11.8425L15.372 11.6385L16.88 10.1295C16.9613 10.0482 17.0578 9.98367 17.164 9.93965C17.2702 9.89562 17.384 9.87296 17.499 9.87296C17.614 9.87296 17.7278 9.89562 17.834 9.93965C17.9402 9.98367 18.0367 10.0482 18.118 10.1295L18.119 10.1305Z" fill="#DBFB36"/>
</svg>
