<svg width="26" height="27" viewBox="0 0 26 27" fill="none" xmlns="http://www.w3.org/2000/svg">
<path d="M2.16667 7.71875C2.16667 6.42582 2.68028 5.18585 3.59452 4.27161C4.50876 3.35737 5.74874 2.84375 7.04167 2.84375C8.3346 2.84375 9.57457 3.35737 10.4888 4.27161C11.4031 5.18585 11.9167 6.42582 11.9167 7.71875V10.9688C11.9167 11.3468 11.9167 11.5353 11.8755 11.6903C11.8202 11.8971 11.7113 12.0857 11.5599 12.237C11.4086 12.3884 11.22 12.4973 11.0132 12.5526C10.8583 12.5938 10.6708 12.5938 10.2917 12.5938H7.04167C5.74874 12.5938 4.50876 12.0801 3.59452 11.1659C2.68028 10.2517 2.16667 9.01168 2.16667 7.71875ZM14.0833 16.3854C14.0833 16.0073 14.0833 15.8188 14.1245 15.6639C14.2372 15.2436 14.5665 14.9143 14.9868 14.8016C15.1417 14.7604 15.3303 14.7604 15.7083 14.7604H18.9583C19.9225 14.7604 20.865 15.0463 21.6667 15.582C22.4684 16.1177 23.0933 16.879 23.4622 17.7698C23.8312 18.6606 23.9278 19.6408 23.7397 20.5865C23.5516 21.5321 23.0873 22.4008 22.4055 23.0826C21.7237 23.7643 20.8551 24.2286 19.9094 24.4167C18.9637 24.6049 17.9835 24.5083 17.0928 24.1393C16.202 23.7704 15.4406 23.1455 14.9049 22.3438C14.3692 21.5421 14.0833 20.5996 14.0833 19.6354V16.3854ZM2.16667 19.6354C2.16667 18.3425 2.68028 17.1025 3.59452 16.1883C4.50876 15.274 5.74874 14.7604 7.04167 14.7604H9.96667C10.6492 14.7604 10.9904 14.7604 11.2515 14.8937C11.4801 15.0096 11.6675 15.197 11.7834 15.4256C11.9167 15.6856 11.9167 16.0279 11.9167 16.7104V19.6354C11.9167 20.2756 11.7906 20.9095 11.5456 21.501C11.3006 22.0925 10.9415 22.6299 10.4888 23.0826C10.0361 23.5353 9.49871 23.8943 8.90725 24.1393C8.31579 24.3843 7.68186 24.5104 7.04167 24.5104C6.40147 24.5104 5.76755 24.3843 5.17609 24.1393C4.58462 23.8943 4.04721 23.5353 3.59452 23.0826C3.14184 22.6299 2.78275 22.0925 2.53776 21.501C2.29276 20.9095 2.16667 20.2756 2.16667 19.6354ZM14.0833 7.71875C14.0833 6.75457 14.3692 5.81204 14.9049 5.01035C15.4406 4.20866 16.202 3.58382 17.0928 3.21484C17.9835 2.84586 18.9637 2.74932 19.9094 2.93742C20.8551 3.12553 21.7237 3.58983 22.4055 4.27161C23.0873 4.95339 23.5516 5.82203 23.7397 6.76769C23.9278 7.71334 23.8312 8.69354 23.4622 9.58433C23.0933 10.4751 22.4684 11.2365 21.6667 11.7722C20.865 12.3078 19.9225 12.5938 18.9583 12.5938H15.4765C15.314 12.5938 15.2338 12.5938 15.1656 12.5862C14.8912 12.5553 14.6355 12.4321 14.4402 12.2369C14.245 12.0416 14.1218 11.7859 14.0909 11.5115C14.0833 11.4433 14.0833 11.3631 14.0833 11.2006V7.71875Z" fill="#DBFB36"/>
</svg>
