<svg width="26" height="27" viewBox="0 0 26 27" fill="none" xmlns="http://www.w3.org/2000/svg">
<path d="M3.25 9.53125L11.7975 15.2296C12.1535 15.4671 12.572 15.5939 13 15.5939C13.428 15.5939 13.8465 15.4671 14.2025 15.2296L22.75 9.53125M5.41667 21.4479H20.5833C21.158 21.4479 21.7091 21.2196 22.1154 20.8133C22.5217 20.407 22.75 19.8559 22.75 19.2813V8.44792C22.75 7.87328 22.5217 7.32218 22.1154 6.91585C21.7091 6.50952 21.158 6.28125 20.5833 6.28125H5.41667C4.84203 6.28125 4.29093 6.50952 3.8846 6.91585C3.47827 7.32218 3.25 7.87328 3.25 8.44792V19.2813C3.25 19.8559 3.47827 20.407 3.8846 20.8133C4.29093 21.2196 4.84203 21.4479 5.41667 21.4479Z" stroke="#DBFB36" stroke-width="2.16667" stroke-linecap="round" stroke-linejoin="round"/>
</svg>
