<svg width="25" height="25" viewBox="0 0 25 25" fill="none" xmlns="http://www.w3.org/2000/svg">
<path d="M16.908 19.3987L12.969 15.4607L11.767 16.6627C10.535 17.8947 9.92 18.5097 9.258 18.3647C8.596 18.2187 8.296 17.4017 7.694 15.7687L5.686 10.3187C4.486 7.05975 3.885 5.42974 4.725 4.58975C5.565 3.74975 7.195 4.34975 10.454 5.55175L15.903 7.55875C17.537 8.16075 18.353 8.46175 18.499 9.12375C18.644 9.78575 18.029 10.4007 16.798 11.6317L15.595 12.8347L19.533 16.7727C19.941 17.1807 20.145 17.3847 20.239 17.6127C20.365 17.9157 20.365 18.2557 20.239 18.5597C20.145 18.7867 19.941 18.9907 19.533 19.3987C19.125 19.8067 18.922 20.0107 18.694 20.1047C18.3908 20.2302 18.0502 20.2302 17.747 20.1047C17.519 20.0107 17.315 19.8067 16.907 19.3987H16.908Z" fill="#DBFB36"/>
</svg>
