<svg width="26" height="27" viewBox="0 0 26 27" fill="none" xmlns="http://www.w3.org/2000/svg">
<path d="M19.5 9.02148C19.5 10.7454 18.8152 12.3987 17.5962 13.6177C16.3772 14.8367 14.7239 15.5215 13 15.5215C11.2761 15.5215 9.62279 14.8367 8.40381 13.6177C7.18482 12.3987 6.5 10.7454 6.5 9.02148C6.5 7.29758 7.18482 5.64428 8.40381 4.42529C9.62279 3.2063 11.2761 2.52148 13 2.52148C14.7239 2.52148 16.3772 3.2063 17.5962 4.42529C18.8152 5.64428 19.5 7.29758 19.5 9.02148Z" fill="#DBFB36"/>
<path d="M5.45242 12.0371C4.42906 12.6195 3.58312 13.4689 3.00495 14.4947C2.42677 15.5204 2.13809 16.6839 2.16972 17.861C2.20135 19.038 2.55212 20.1844 3.18455 21.1776C3.81698 22.1708 4.70733 22.9736 5.76049 23.5001C6.81365 24.0267 7.99006 24.2573 9.16409 24.1674C10.3381 24.0774 11.4657 23.6702 12.4263 22.9893C13.3869 22.3083 14.1445 21.3793 14.6182 20.3013C15.0919 19.2233 15.2639 18.0369 15.1158 16.8688C13.1928 17.3874 11.1464 17.1818 9.365 16.2911C7.58362 15.4004 6.19131 13.8866 5.45242 12.0371ZM16.6693 16.2729C16.7494 16.7323 16.7917 17.2046 16.7917 17.6878C16.7917 19.9519 15.8654 22.0016 14.3704 23.4749C15.8853 24.2727 17.6538 24.4405 19.2917 23.942C20.9296 23.4435 22.3047 22.3188 23.1183 20.8124C23.9318 19.3059 24.1182 17.5393 23.6369 15.8963C23.1556 14.2532 22.0454 12.8664 20.5476 12.0371C19.8112 13.8726 18.4329 15.378 16.6693 16.2729Z" fill="#DBFB36"/>
</svg>
