<svg width="14" height="12" viewBox="0 0 14 12" fill="none" xmlns="http://www.w3.org/2000/svg">
<path fill-rule="evenodd" clip-rule="evenodd" d="M7 2.035C4.303 2.035 2.116 4.186 2.116 6.841C2.11588 7.47411 2.24232 8.10085 2.48789 8.68439C2.73347 9.26793 3.09322 9.79649 3.546 10.239C3.61052 10.3022 3.66178 10.3777 3.69678 10.461C3.73177 10.5442 3.7498 10.6337 3.7498 10.724C3.7498 10.8143 3.73177 10.9038 3.69678 10.987C3.66178 11.0703 3.61052 11.1458 3.546 11.209C3.41414 11.3376 3.23722 11.4096 3.053 11.4096C2.86878 11.4096 2.69186 11.3376 2.56 11.209C1.97796 10.6401 1.51539 9.96066 1.19943 9.21059C0.883467 8.46052 0.720469 7.6549 0.72 6.841C0.72 3.428 3.532 0.661 7 0.661C10.468 0.661 13.28 3.428 13.28 6.841C13.2797 7.65507 13.1167 8.46088 12.8008 9.21113C12.4848 9.96138 12.0222 10.641 11.44 11.21C11.3081 11.3389 11.131 11.4111 10.9465 11.4111C10.762 11.4111 10.5849 11.3389 10.453 11.21C10.3883 11.1468 10.3369 11.0712 10.3018 10.9879C10.2668 10.9045 10.2487 10.815 10.2487 10.7245C10.2487 10.634 10.2668 10.5445 10.3018 10.4611C10.3369 10.3778 10.3883 10.3022 10.453 10.239C10.9058 9.79649 11.2655 9.26793 11.5111 8.68439C11.7567 8.10085 11.8831 7.47411 11.883 6.841C11.883 4.186 9.697 2.035 7 2.035Z" fill="#DBFB36"/>
</svg>
