<svg width="16" height="22" viewBox="0 0 16 22" fill="none" xmlns="http://www.w3.org/2000/svg">
<path d="M2.99067 3.26413C4.37733 1.9208 6.04653 1.25 8 1.25C9.95347 1.25 11.6157 1.91387 12.9859 3.2416C14.3561 4.56847 15.0417 6.17873 15.0417 8.07067C15.0417 9.0162 14.7973 10.0995 14.3093 11.3207C13.8319 12.52 13.2383 13.6698 12.537 14.7535C11.8786 15.7712 11.1931 16.7711 10.4813 17.7522C9.80353 18.6821 9.22893 19.4223 8.7566 19.9717L8 20.75C7.81107 20.5359 7.55887 20.2543 7.2434 19.9033C6.9288 19.5523 6.362 18.8503 5.54213 17.7973C4.77187 16.814 4.05441 15.7904 3.3928 14.731C2.77747 13.7387 2.21847 12.6172 1.71407 11.3657C1.21053 10.1151 0.958333 9.01707 0.958333 8.07067C0.958333 6.17873 1.63607 4.57627 2.99067 3.26413Z" stroke="#DBFB36" stroke-width="1.73333" stroke-linecap="round" stroke-linejoin="round"/>
</svg>
