<svg width="17" height="16" viewBox="0 0 17 16" fill="none" xmlns="http://www.w3.org/2000/svg">
<path d="M11.545 3.167L11.728 3.689C11.928 4.262 12.029 4.549 12.225 4.759C12.42 4.971 12.689 5.083 13.225 5.306L13.715 5.51C15.605 6.296 16.549 6.69 16.657 7.493C16.702 7.827 16.589 8.141 16.327 8.491C16.243 8.46836 16.1583 8.44835 16.073 8.431C15.547 8.324 14.878 8.288 14.196 8.251L13.706 8.225L13.476 8.212L13.325 8.032L13.009 7.655C12.569 7.127 12.138 6.612 11.737 6.254C11.31 5.872 10.595 5.374 9.634 5.528C8.662 5.684 8.144 6.391 7.864 6.895C7.605 7.363 7.372 7.989 7.136 8.622L6.966 9.08L6.893 9.273C6.82878 9.29862 6.76445 9.32395 6.7 9.349L6.245 9.527C5.615 9.774 4.992 10.017 4.528 10.284C4.029 10.571 3.328 11.101 3.189 12.077C3.051 13.044 3.566 13.75 3.956 14.169C4.246 14.48 4.636 14.809 5.054 15.147C3.485 15.572 2.651 15.731 2.176 15.219C1.643 14.643 1.919 13.599 2.471 11.509L2.614 10.969C2.771 10.374 2.85 10.078 2.81 9.783C2.77 9.489 2.618 9.23 2.312 8.713L2.033 8.243C0.957 6.423 0.418 5.513 0.778 4.788C1.138 4.064 2.157 4.005 4.195 3.888L4.723 3.858C5.303 3.824 5.592 3.808 5.844 3.673C6.097 3.538 6.284 3.301 6.658 2.825L6.998 2.393C8.314 0.72 8.971 -0.116 9.728 0.013C10.483 0.142 10.838 1.15 11.545 3.167Z" fill="#DBFB36"/>
</svg>
