<svg width="49" height="12" viewBox="0 0 49 12" fill="none" xmlns="http://www.w3.org/2000/svg">
<path d="M46.5022 11.4185V7.40445C46.5022 7.14222 46.4844 6.85185 46.4489 6.53259C46.4129 6.21491 46.3269 5.90491 46.1941 5.61408C46.0692 5.32062 45.8663 5.06699 45.6074 4.88074C45.3496 4.69037 45 4.59556 44.5578 4.59556C44.3207 4.59556 44.0867 4.63407 43.8556 4.71111C43.6158 4.79329 43.3988 4.93084 43.2222 5.11259C43.037 5.29778 42.8881 5.55482 42.7748 5.88445C42.6615 6.20815 42.6052 6.62519 42.6052 7.13482L41.5015 6.6637C41.5015 5.95333 41.6378 5.31037 41.9104 4.73407C42.1779 4.16967 42.6009 3.69327 43.1296 3.36074C43.6652 3.01556 44.3237 2.8437 45.1059 2.8437C45.723 2.8437 46.2326 2.94593 46.6341 3.15185C47.0348 3.35778 47.3541 3.62 47.5911 3.93926C47.8274 4.25778 48.0022 4.59852 48.1156 4.95778C48.2289 5.31852 48.3007 5.66074 48.3319 5.98445C48.3674 6.30296 48.3859 6.5637 48.3859 6.76445V11.4185H46.5022ZM40.7215 11.4185V3.08296H42.3807V5.66815H42.6052V11.4185H40.7215ZM34.8763 11.6496C34.043 11.6496 33.3148 11.4622 32.6926 11.0867C32.0733 10.715 31.5704 10.1775 31.2407 9.53482C30.9015 8.87111 30.7319 8.10963 30.7319 7.25037C30.7319 6.3763 30.9067 5.60889 31.257 4.95037C31.5897 4.30985 32.0949 3.77514 32.7156 3.40667C33.3378 3.0363 34.0585 2.85111 34.8763 2.85111C35.7156 2.85111 36.4459 3.03852 37.0689 3.41407C37.6891 3.78742 38.1917 4.32777 38.5193 4.97333C38.8644 5.63259 39.037 6.39111 39.037 7.25037C39.037 8.11482 38.8615 8.87926 38.5119 9.54296C38.1825 10.1854 37.6798 10.7227 37.0607 11.0941C36.4385 11.4644 35.7104 11.6496 34.8763 11.6496ZM34.8763 9.90519C35.6178 9.90519 36.1681 9.65852 36.5281 9.16444C36.8881 8.67037 37.0689 8.03259 37.0689 7.25037C37.0689 6.44296 36.8859 5.79926 36.5207 5.32074C36.1556 4.83704 35.6074 4.59481 34.8763 4.59481C34.3778 4.59481 33.9652 4.70889 33.6415 4.93556C33.323 5.1563 33.0859 5.46741 32.9319 5.86889C32.777 6.26519 32.7 6.72593 32.7 7.25037C32.7 8.05778 32.883 8.7037 33.2482 9.18741C33.6185 9.66593 34.1615 9.90519 34.8763 9.90519ZM27.023 1.81704V0.111112H28.883V1.81704H27.0237H27.023ZM27.023 11.4185V3.08296H28.883V11.4185H27.0237H27.023ZM21.7356 11.6496C20.7067 11.6496 19.8711 11.4185 19.2274 10.9548C18.5844 10.4919 18.1933 9.84148 18.0541 9.00222L19.9533 8.70889C20.0511 9.12074 20.2667 9.44519 20.6015 9.68148C20.9356 9.91852 21.3578 10.037 21.8674 10.037C22.3148 10.037 22.66 9.94889 22.9015 9.77407C23.1481 9.59407 23.2719 9.34963 23.2719 9.04074C23.2719 8.85037 23.2252 8.69852 23.1326 8.58593C23.0452 8.46741 22.8496 8.35407 22.5467 8.24593C22.243 8.13778 21.777 8.00148 21.1496 7.83704C20.4496 7.65185 19.8941 7.45333 19.4822 7.24296C19.0704 7.02667 18.7748 6.77185 18.5948 6.47852C18.4148 6.18519 18.3244 5.83037 18.3244 5.41333C18.3244 4.89408 18.4607 4.44074 18.7333 4.05481C19.0059 3.66963 19.3874 3.37333 19.8756 3.16741C20.3644 2.9563 20.9407 2.85111 21.6044 2.85111C22.2533 2.85111 22.8267 2.95111 23.3259 3.15185C23.8296 3.35259 24.237 3.63852 24.5452 4.00889C24.8541 4.37926 25.0444 4.81407 25.1163 5.31259L23.2178 5.65333C23.2002 5.48687 23.1479 5.32595 23.0642 5.181C22.9805 5.03604 22.8672 4.91028 22.7318 4.81185C22.4593 4.60593 22.0933 4.48963 21.6356 4.4637C21.1985 4.43852 20.8459 4.50519 20.5785 4.66444C20.3104 4.81926 20.177 5.03778 20.177 5.32074C20.177 5.48 20.2311 5.61704 20.3393 5.72963C20.4467 5.84296 20.663 5.9563 20.9874 6.06963C21.3163 6.18296 21.8052 6.32148 22.4541 6.48667C23.1178 6.6563 23.6474 6.85185 24.0437 7.07259C24.4452 7.28889 24.7326 7.54889 24.9081 7.85259C25.0881 8.1563 25.1785 8.5237 25.1785 8.9563C25.1785 9.79481 24.8719 10.4533 24.26 10.9319C23.6526 11.4104 22.8111 11.6504 21.7363 11.6504L21.7356 11.6496ZM11.9807 11.657C11.363 11.657 10.8533 11.5548 10.4526 11.3489C10.0511 11.143 9.73185 10.8807 9.49556 10.5615C9.25852 10.243 9.08371 9.90222 8.97037 9.54296C8.86339 9.21114 8.78848 8.86983 8.74667 8.5237C8.71917 8.26208 8.7036 7.99934 8.7 7.7363V3.08296H10.5837V7.0963C10.5837 7.35333 10.6015 7.64444 10.6378 7.96815C10.6733 8.28667 10.7563 8.59556 10.8844 8.89407C11.0178 9.18741 11.2141 9.42963 11.4711 9.62C11.7333 9.81037 12.0859 9.90519 12.5289 9.90519C12.7659 9.90519 12.9993 9.86667 13.2311 9.78963C13.4622 9.71259 13.6711 9.58148 13.8563 9.3963C14.0467 9.20593 14.1985 8.94593 14.3111 8.6163C14.4244 8.28741 14.4815 7.87037 14.4815 7.36593L15.5852 7.83704C15.5852 8.54667 15.4459 9.19037 15.1681 9.76667C14.904 10.3332 14.4836 10.8125 13.9563 11.1481C13.4215 11.4874 12.763 11.657 11.9807 11.657ZM14.7052 11.4185V8.83259H14.4815V3.08296H16.3489V11.4185H14.7052ZM0.774815 11.4185V0.303704H7.46667V2.16444H2.63482V4.93481H6.54V6.78667H2.63482V11.4185H0.774815Z" fill="#666666"/>
</svg>
