<svg width="17" height="16" viewBox="0 0 17 16" fill="none" xmlns="http://www.w3.org/2000/svg">
<path d="M12.908 15.2L8.969 11.262L7.767 12.464C6.535 13.696 5.92 14.311 5.258 14.166C4.596 14.02 4.296 13.203 3.694 11.57L1.686 6.12C0.486 2.861 -0.115 1.231 0.725 0.391C1.565 -0.449 3.195 0.151 6.454 1.353L11.903 3.36C13.537 3.962 14.353 4.263 14.499 4.925C14.644 5.587 14.029 6.202 12.798 7.433L11.595 8.636L15.533 12.574C15.941 12.982 16.145 13.186 16.239 13.414C16.365 13.717 16.365 14.057 16.239 14.361C16.145 14.588 15.941 14.792 15.533 15.2C15.125 15.608 14.922 15.812 14.694 15.906C14.3908 16.0315 14.0502 16.0315 13.747 15.906C13.519 15.812 13.315 15.608 12.907 15.2H12.908Z" fill="#DBFB36"/>
</svg>
