<svg width="17" height="12" viewBox="0 0 17 12" fill="none" xmlns="http://www.w3.org/2000/svg">
<path d="M16.2193 2.08817C16.2903 2.00519 16.3439 1.90874 16.3768 1.80458C16.4097 1.70042 16.4213 1.59069 16.4109 1.48196C16.4004 1.37322 16.3681 1.26771 16.316 1.17173C16.2638 1.07575 16.1928 0.991278 16.1073 0.923358C16.0217 0.855438 15.9233 0.805467 15.818 0.776434C15.7127 0.747402 15.6026 0.739902 15.4944 0.754385C15.3861 0.768868 15.2818 0.805035 15.1879 0.860725C15.0939 0.916414 15.0121 0.990482 14.9474 1.0785L11.5696 5.33167C11.3042 5.66642 11.1297 5.88417 10.9857 6.04233C10.8448 6.19725 10.7798 6.24058 10.7495 6.25683C10.6369 6.31688 10.5117 6.34954 10.3841 6.35217C10.2565 6.35481 10.13 6.32734 10.015 6.272C9.98467 6.25792 9.9175 6.21783 9.76908 6.06942C9.61958 5.91775 9.43542 5.7065 9.15592 5.38367L9.1375 5.36417C8.88075 5.06733 8.66083 4.81383 8.46583 4.61883C8.26659 4.40578 8.03203 4.22876 7.7725 4.09558C7.42714 3.92971 7.04755 3.84758 6.66451 3.85587C6.28147 3.86415 5.90578 3.96261 5.56792 4.14325C5.31383 4.28729 5.08659 4.47422 4.89625 4.69575C4.71208 4.89942 4.503 5.16158 4.25817 5.47033L0.864083 9.74517C0.793035 9.82814 0.739447 9.92459 0.706525 10.0288C0.673604 10.1329 0.662024 10.2426 0.672477 10.3514C0.682931 10.4601 0.715205 10.5656 0.767367 10.6616C0.81953 10.7576 0.890511 10.8421 0.976067 10.91C1.06162 10.9779 1.16 11.0279 1.26531 11.0569C1.37061 11.0859 1.4807 11.0934 1.58897 11.0789C1.69724 11.0645 1.80148 11.0283 1.89546 10.9726C1.98944 10.9169 2.07122 10.8429 2.13592 10.7548L5.51483 6.50167C5.78025 6.16692 5.95467 5.94917 6.09767 5.791C6.2385 5.63608 6.3035 5.59275 6.33383 5.5765C6.44647 5.51646 6.57166 5.4838 6.69927 5.48116C6.82688 5.47853 6.95332 5.50599 7.06833 5.56133C7.09975 5.57542 7.16692 5.6155 7.31425 5.76392C7.46483 5.91558 7.64792 6.12683 7.9285 6.44967L7.94583 6.46917C8.20367 6.766 8.4225 7.0195 8.6175 7.2145C8.81792 7.41708 9.03892 7.60667 9.31083 7.73775C9.65619 7.90362 10.0358 7.98575 10.4188 7.97747C10.8019 7.96919 11.1776 7.87073 11.5154 7.69008C11.7692 7.54563 11.9964 7.35876 12.1871 7.13758C12.3713 6.93392 12.5803 6.67175 12.8263 6.363L16.2193 2.08817Z" fill="#DBFB36"/>
</svg>
