<svg width="24" height="24" viewBox="0 0 24 24" fill="none" xmlns="http://www.w3.org/2000/svg">
<path fill-rule="evenodd" clip-rule="evenodd" d="M9.69 1.404C9.75957 1.62532 9.73839 1.86522 9.63113 2.07093C9.52386 2.27664 9.33929 2.43134 9.118 2.501C7.11391 3.13184 5.36326 4.38544 4.12056 6.07955C2.87785 7.77366 2.20786 9.81997 2.208 11.921C2.208 17.371 6.628 21.791 12.079 21.791C16.498 21.791 20.241 18.887 21.499 14.881C21.5335 14.7713 21.5892 14.6696 21.663 14.5814C21.7368 14.4933 21.8273 14.4206 21.9292 14.3675C22.0311 14.3143 22.1425 14.2817 22.257 14.2716C22.3715 14.2615 22.4868 14.274 22.5965 14.3085C22.7062 14.343 22.8079 14.3987 22.8961 14.4725C22.9842 14.5463 23.0569 14.6368 23.1101 14.7387C23.1632 14.8406 23.1958 14.952 23.2059 15.0665C23.216 15.181 23.2035 15.2963 23.169 15.406C21.688 20.12 17.284 23.541 12.079 23.541C5.661 23.541 0.459 18.338 0.459 11.921C0.459 6.715 3.879 2.312 8.593 0.831C8.70265 0.796575 8.81801 0.784089 8.93249 0.794255C9.04697 0.804422 9.15833 0.837042 9.2602 0.890253C9.36207 0.943463 9.45246 1.01622 9.52621 1.10437C9.59995 1.19252 9.65561 1.29434 9.69 1.404Z" fill="#DBFB36"/>
</svg>
