<svg width="45" height="12" viewBox="0 0 45 12" fill="none" xmlns="http://www.w3.org/2000/svg">
<path d="M44.6207 11.4548C44.0704 11.5585 43.5296 11.6015 43 11.5867C42.4756 11.5763 42.0044 11.4807 41.5881 11.3007C41.1823 11.1257 40.8476 10.8184 40.6385 10.4289C40.4538 10.0894 40.3508 9.71147 40.3378 9.32518C40.3268 8.90083 40.3216 8.47635 40.3222 8.05185V0.805926H42.1741V7.9437C42.1741 8.27852 42.177 8.57185 42.1822 8.8237C42.1926 9.07556 42.2467 9.28148 42.3437 9.44074C42.5296 9.74963 42.8252 9.92222 43.2319 9.95778C43.6378 9.99481 44.1007 9.97333 44.6207 9.8963V11.4548ZM38.8096 4.57926V3.12074H44.6207V4.58H38.8096V4.57926ZM34.6037 11.6867C33.5748 11.6867 32.7385 11.4548 32.0956 10.9919C31.4526 10.5289 31.0615 9.87852 30.923 9.04L32.8207 8.74667C32.9185 9.15778 33.1348 9.48222 33.4696 9.71926C33.8037 9.95556 34.2252 10.0741 34.7348 10.0741C35.1822 10.0741 35.5274 9.98667 35.7689 9.81185C36.0156 9.63111 36.1393 9.38741 36.1393 9.07852C36.1393 8.88815 36.0933 8.7363 36.0007 8.62296C35.9133 8.50444 35.7178 8.39185 35.4141 8.2837C35.1104 8.17556 34.6452 8.03926 34.017 7.87482C33.3178 7.68963 32.7622 7.49111 32.3504 7.28C31.9385 7.06444 31.643 6.80963 31.463 6.5163C31.283 6.22296 31.1926 5.86815 31.1926 5.45111C31.1926 4.93185 31.3289 4.47926 31.6015 4.09333C31.8748 3.70741 32.2548 3.41185 32.7437 3.20593C33.2326 2.99481 33.8089 2.88889 34.4726 2.88889C35.1207 2.88889 35.6941 2.98963 36.1933 3.19037C36.6978 3.39037 37.1037 3.6763 37.4126 4.04667C37.7215 4.41704 37.9118 4.85185 37.9837 5.35037L36.0852 5.69111C36.0677 5.52461 36.0155 5.36365 35.9317 5.21867C35.848 5.0737 35.7347 4.94796 35.5993 4.84963C35.3267 4.6437 34.9615 4.52815 34.5037 4.50148C34.0659 4.4763 33.7133 4.54296 33.4459 4.70296C33.1785 4.85704 33.0452 5.07556 33.0452 5.35852C33.0452 5.51852 33.0985 5.65481 33.2067 5.76741C33.3148 5.88074 33.5311 5.99407 33.8548 6.10741C34.1844 6.22074 34.6733 6.35926 35.3215 6.5237C35.9852 6.69407 36.5148 6.88963 36.9111 7.11037C37.3126 7.32667 37.6007 7.58667 37.7756 7.88963C37.9556 8.19333 38.0452 8.56148 38.0452 8.99333C38.0452 9.83185 37.7393 10.4904 37.1274 10.9689C36.52 11.4474 35.6793 11.6867 34.6037 11.6867ZM26.1407 11.6867C25.297 11.6867 24.5563 11.5037 23.9185 11.1385C23.2879 10.7806 22.7695 10.254 22.4215 9.61778C22.0659 8.96963 21.8889 8.2237 21.8889 7.38074C21.8889 6.46963 22.0637 5.68 22.4133 5.01111C22.7637 4.33704 23.2496 3.81482 23.8726 3.44444C24.4948 3.07407 25.2148 2.88889 26.0326 2.88889C26.897 2.88889 27.6304 3.09185 28.2326 3.49852C28.84 3.9 29.2896 4.46889 29.583 5.2037C29.8763 5.94 29.9867 6.80667 29.9148 7.80444H28.0704V7.12593C28.0652 6.22 27.9059 5.55926 27.5918 5.14222C27.2778 4.72519 26.7844 4.51704 26.1104 4.51704C25.3489 4.51704 24.783 4.75407 24.4126 5.22741C24.0422 5.69556 23.857 6.38222 23.857 7.28741C23.857 8.13185 24.0422 8.78444 24.4126 9.24741C24.783 9.71111 25.323 9.94222 26.0333 9.94222C26.4911 9.94222 26.8844 9.84222 27.2141 9.64148C27.5539 9.42922 27.8224 9.12018 27.9852 8.75407L29.8222 9.30963C29.5037 10.0607 29.0089 10.6444 28.3407 11.0615C27.6826 11.4767 26.9189 11.6938 26.1407 11.6867ZM23.2704 7.80518V6.4H29.0037V7.80444L23.2704 7.80518ZM15.5652 11.6948C14.9474 11.6948 14.4385 11.5911 14.037 11.3859C13.6356 11.18 13.317 10.9178 13.08 10.5985C12.8493 10.2909 12.672 9.94654 12.5556 9.58C12.4486 9.24842 12.3737 8.90736 12.3319 8.56148C12.3044 8.29986 12.2888 8.03712 12.2852 7.77407V3.12074H14.1681V7.13408C14.1681 7.39111 14.1867 7.68222 14.2222 8.00593C14.2585 8.32445 14.3407 8.63333 14.4696 8.93185C14.603 9.22519 14.7985 9.46667 15.0556 9.65778C15.3178 9.84741 15.6704 9.94296 16.1126 9.94296C16.3496 9.94296 16.5837 9.90444 16.8156 9.82667C17.0517 9.74672 17.2656 9.61222 17.44 9.43407C17.6304 9.24296 17.7822 8.98296 17.8956 8.65408C18.0089 8.32445 18.0659 7.90815 18.0659 7.4037L19.1696 7.87482C19.1696 8.58445 19.0304 9.22741 18.7526 9.8037C18.4885 10.3702 18.068 10.8495 17.5407 11.1852C17.0059 11.5244 16.3474 11.6948 15.5652 11.6948ZM18.2889 11.4556V8.87037H18.0652V3.12074H19.9326V11.4556H18.2889ZM9.57629 11.6867L6.40444 8.53111L7.56963 7.36518L10.7259 10.5215L9.57629 11.6867ZM5.57852 11.6867C4.46741 11.6867 3.51555 11.4452 2.7237 10.9607C1.93111 10.4726 1.32148 9.79333 0.894075 8.9237C0.472593 8.05481 0.261482 7.04593 0.261482 5.89926C0.261482 4.75111 0.472593 3.7437 0.894815 2.87407C1.32148 2.00444 1.93111 1.32815 2.7237 0.844445C3.5163 0.355556 4.46741 0.111112 5.57852 0.111112C6.68963 0.111112 7.64148 0.355556 8.43407 0.844445C9.23111 1.32815 9.84148 2.00444 10.263 2.87407C10.6896 3.74296 10.9037 4.75185 10.9037 5.89926C10.9037 7.04593 10.6904 8.05481 10.263 8.9237C9.84074 9.79333 9.23111 10.4726 8.43333 10.9607C7.64148 11.4452 6.69037 11.6867 5.57852 11.6867ZM5.57852 9.93481C6.32445 9.94 6.94444 9.77556 7.43852 9.44074C7.93777 9.10667 8.31037 8.6363 8.55704 8.02889C8.80963 7.42148 8.93556 6.71185 8.93556 5.89926C8.93556 5.08593 8.80963 4.38074 8.55778 3.78444C8.31037 3.18222 7.93777 2.71407 7.43852 2.38C6.94444 2.04593 6.32445 1.87333 5.57926 1.86296C4.83259 1.85778 4.21259 2.02222 3.71926 2.35704C3.22519 2.69111 2.85259 3.16222 2.6 3.76889C2.35259 4.3763 2.22963 5.08593 2.22963 5.89926C2.22963 6.71185 2.35259 7.41926 2.6 8.02074C2.84667 8.61778 3.21704 9.0837 3.71111 9.41778C4.21037 9.75259 4.83259 9.92444 5.57852 9.93481Z" fill="#666666"/>
</svg>
