<svg width="22" height="18" viewBox="0 0 22 18" fill="none" xmlns="http://www.w3.org/2000/svg">
<path d="M1.25 4.66667L9.7975 10.365C10.1535 10.6026 10.572 10.7293 11 10.7293C11.428 10.7293 11.8465 10.6026 12.2025 10.365L20.75 4.66667M3.41667 16.5833H18.5833C19.158 16.5833 19.7091 16.3551 20.1154 15.9487C20.5217 15.5424 20.75 14.9913 20.75 14.4167V3.58333C20.75 3.0087 20.5217 2.4576 20.1154 2.05127C19.7091 1.64494 19.158 1.41667 18.5833 1.41667H3.41667C2.84203 1.41667 2.29093 1.64494 1.8846 2.05127C1.47827 2.4576 1.25 3.0087 1.25 3.58333V14.4167C1.25 14.9913 1.47827 15.5424 1.8846 15.9487C2.29093 16.3551 2.84203 16.5833 3.41667 16.5833Z" stroke="#DBFB36" stroke-width="2.16667" stroke-linecap="round" stroke-linejoin="round"/>
</svg>
