<svg width="22" height="22" viewBox="0 0 22 22" fill="none" xmlns="http://www.w3.org/2000/svg">
<path d="M15.3333 6.66667H18.5833C19.2261 6.66667 19.8545 6.47606 20.3889 6.11894C20.9234 5.76183 21.34 5.25425 21.5859 4.66039C21.8319 4.06653 21.8963 3.41306 21.7709 2.78262C21.6455 2.15218 21.336 1.57309 20.8814 1.11857C20.4269 0.664049 19.8478 0.354516 19.2174 0.229114C18.5869 0.103712 17.9335 0.168073 17.3396 0.414058C16.7458 0.660043 16.2382 1.0766 15.8811 1.61106C15.5239 2.14552 15.3333 2.77388 15.3333 3.41667V6.66667H6.66667V3.41667C6.66667 2.77388 6.47606 2.14552 6.11894 1.61106C5.76183 1.0766 5.25425 0.660043 4.66039 0.414058C4.06653 0.168073 3.41306 0.103712 2.78262 0.229114C2.15218 0.354516 1.57309 0.664049 1.11857 1.11857C0.664049 1.57309 0.354516 2.15218 0.229114 2.78262C0.103712 3.41306 0.168073 4.06653 0.414058 4.66039C0.660043 5.25425 1.0766 5.76183 1.61106 6.11894C2.14552 6.47606 2.77388 6.66667 3.41667 6.66667H6.66667V15.3333H15.3333V6.66667ZM15.3333 15.3333H18.5833C19.2261 15.3333 19.8544 15.5239 20.3888 15.881C20.9233 16.238 21.3398 16.7456 21.5858 17.3394C21.8319 17.9332 21.8963 18.5866 21.771 19.217C21.6457 19.8474 21.3362 20.4265 20.8818 20.881C20.4274 21.3356 19.8484 21.6452 19.218 21.7708C18.5877 21.8963 17.9342 21.8321 17.3404 21.5863C16.7465 21.3404 16.2388 20.924 15.8816 20.3897C15.5243 19.8554 15.3335 19.2272 15.3333 18.5844V15.3333ZM3.41667 15.3333H6.66667V18.5844C6.66667 19.2272 6.47606 19.8556 6.11894 20.39C5.76183 20.9245 5.25425 21.341 4.66039 21.587C4.06653 21.833 3.41306 21.8974 2.78262 21.772C2.15218 21.6466 1.57309 21.337 1.11857 20.8825C0.664049 20.428 0.354516 19.8489 0.229114 19.2185C0.103712 18.588 0.168073 17.9346 0.414058 17.3407C0.660043 16.7468 1.0766 16.2393 1.61106 15.8821C2.14552 15.525 2.77388 15.3333 3.41667 15.3333Z" fill="#DBFB36"/>
</svg>
