<svg width="13" height="12" viewBox="0 0 13 12" fill="none" xmlns="http://www.w3.org/2000/svg">
<path d="M7.918 1.689C6.932 0.509001 6.438 -0.0809999 5.871 0.00900013C5.304 0.1 5.039 0.812 4.508 2.236L4.371 2.604C4.221 3.009 4.145 3.211 3.998 3.36C3.852 3.509 3.65 3.588 3.248 3.746L2.881 3.889C1.463 4.444 0.755 4.722 0.674 5.289C0.594 5.856 1.194 6.338 2.394 7.3L2.706 7.55C3.046 7.823 3.217 7.96 3.316 8.147C3.415 8.334 3.431 8.551 3.462 8.984L3.491 9.378C3.601 10.901 3.657 11.663 4.174 11.923C4.691 12.183 5.328 11.768 6.601 10.94L6.93 10.725C7.291 10.49 7.472 10.372 7.68 10.338C7.888 10.305 8.099 10.36 8.521 10.47L8.905 10.57C10.391 10.956 11.134 11.15 11.535 10.743C11.935 10.336 11.728 9.599 11.313 8.123L11.206 7.743C11.088 7.323 11.029 7.113 11.059 6.906C11.089 6.698 11.203 6.516 11.433 6.15L11.642 5.818C12.449 4.533 12.853 3.891 12.584 3.38C12.314 2.869 11.549 2.827 10.02 2.745L9.625 2.723C9.19 2.7 8.973 2.688 8.784 2.593C8.594 2.498 8.454 2.33 8.174 1.994L7.918 1.689Z" fill="#DBFB36"/>
</svg>
