<svg width="21" height="22" viewBox="0 0 21 22" fill="none" xmlns="http://www.w3.org/2000/svg">
<path fill-rule="evenodd" clip-rule="evenodd" d="M12.4689 0.331333C12.0681 0.166667 11.5589 0.166667 10.5417 0.166667C9.52442 0.166667 9.01525 0.166667 8.61442 0.331333C8.08082 0.550395 7.65608 0.972412 7.43358 1.50458C7.33175 1.74617 7.29275 2.02892 7.2765 2.4395C7.26928 2.73699 7.18629 3.02772 7.0354 3.2842C6.88451 3.54068 6.67069 3.75443 6.41417 3.90525C6.15281 4.05053 5.85901 4.12749 5.55999 4.12901C5.26097 4.13052 4.9664 4.05654 4.70358 3.91392C4.33742 3.72108 4.072 3.61492 3.80983 3.58025C3.23627 3.50494 2.65616 3.65912 2.19567 4.00925C1.85117 4.27142 1.59658 4.70908 1.0885 5.58333C0.579333 6.45758 0.325833 6.89417 0.268417 7.32208C0.192583 7.89192 0.348583 8.46825 0.70175 8.92433C0.862083 9.13233 1.0885 9.30675 1.43842 9.52558C1.95517 9.84733 2.28667 10.3955 2.28667 11C2.28667 11.6045 1.95517 12.1527 1.4395 12.4733C1.0885 12.6932 0.862083 12.8677 0.700666 13.0757C0.52634 13.3009 0.398383 13.5585 0.324191 13.8335C0.249999 14.1085 0.231042 14.3955 0.268417 14.6779C0.325833 15.1047 0.579333 15.5424 1.0885 16.4167C1.59767 17.2909 1.85117 17.7275 2.19567 17.9907C2.655 18.3407 3.23567 18.4945 3.80983 18.4197C4.072 18.3851 4.33742 18.2789 4.70358 18.0861C4.96654 17.9433 5.2613 17.8692 5.56053 17.8707C5.85976 17.8722 6.15376 17.9493 6.41525 18.0947C6.94175 18.3981 7.25375 18.956 7.2765 19.5605C7.29275 19.9722 7.33175 20.2538 7.43358 20.4954C7.65458 21.0262 8.07925 21.4487 8.61442 21.6687C9.01525 21.8333 9.52442 21.8333 10.5417 21.8333C11.5589 21.8333 12.0681 21.8333 12.4689 21.6687C13.0025 21.4496 13.4273 21.0276 13.6497 20.4954C13.7516 20.2538 13.7906 19.9722 13.8068 19.5605C13.8285 18.956 14.1416 18.397 14.6692 18.0947C14.9305 17.9495 15.2243 17.8725 15.5233 17.871C15.8224 17.8695 16.1169 17.9435 16.3797 18.0861C16.7459 18.2789 17.0113 18.3851 17.2735 18.4197C17.8477 18.4956 18.4283 18.3407 18.8877 17.9907C19.2322 17.7286 19.4867 17.2909 19.9948 16.4167C20.504 15.5424 20.7575 15.1058 20.8149 14.6779C20.8521 14.3955 20.833 14.1084 20.7586 13.8334C20.6842 13.5584 20.5561 13.3009 20.3816 13.0757C20.2212 12.8677 19.9948 12.6932 19.6449 12.4744C19.1282 12.1527 18.7967 11.6045 18.7967 11C18.7967 10.3955 19.1282 9.84733 19.6438 9.52667C19.9948 9.30675 20.2212 9.13233 20.3827 8.92433C20.557 8.69906 20.6849 8.44148 20.7591 8.16647C20.8333 7.89145 20.8523 7.60446 20.8149 7.32208C20.7575 6.89525 20.504 6.45758 19.9948 5.58333C19.4857 4.70908 19.2322 4.2725 18.8877 4.00925C18.4272 3.65912 17.8471 3.50494 17.2735 3.58025C17.0113 3.61492 16.7459 3.72108 16.3797 3.91392C16.1168 4.05673 15.822 4.13082 15.5228 4.1293C15.2236 4.12779 14.9296 4.05072 14.6681 3.90525C14.4118 3.7543 14.1982 3.54049 14.0475 3.28401C13.8968 3.02754 13.8139 2.73688 13.8068 2.4395C13.7906 2.02783 13.7516 1.74617 13.6497 1.50458C13.5396 1.24105 13.3787 1.00179 13.1761 0.800479C12.9734 0.599169 12.7332 0.439751 12.4689 0.331333ZM10.5417 14.25C12.3508 14.25 13.8166 12.7951 13.8166 11C13.8166 9.20492 12.3497 7.75 10.5417 7.75C8.7325 7.75 7.26675 9.20492 7.26675 11C7.26675 12.7951 8.73358 14.25 10.5417 14.25Z" fill="#DBFB36"/>
</svg>
