<svg width="12" height="24" viewBox="0 0 12 24" fill="none" xmlns="http://www.w3.org/2000/svg">
<path d="M0.5 10.541V12.875C0.5 17.275 0.5 19.475 1.867 20.841C3.142 22.116 6.156 22.202 10.125 22.208C10.125 22.4401 10.2172 22.6626 10.3813 22.8267C10.5454 22.9908 10.7679 23.083 11 23.083C11.2321 23.083 11.4546 22.9908 11.6187 22.8267C11.7828 22.6626 11.875 22.4401 11.875 22.208V1.208C11.875 0.975936 11.7828 0.753376 11.6187 0.589282C11.4546 0.425187 11.2321 0.333 11 0.333C10.7679 0.333 10.5454 0.425187 10.3813 0.589282C10.2172 0.753376 10.125 0.975936 10.125 1.208C6.155 1.214 3.142 1.3 1.867 2.575C0.5 3.942 0.5 6.142 0.5 10.54V10.541Z" fill="#DBFB36"/>
</svg>
