<svg width="20" height="17" viewBox="0 0 20 17" fill="none" xmlns="http://www.w3.org/2000/svg">
<path fill-rule="evenodd" clip-rule="evenodd" d="M10 1.373C5.248 1.373 1.395 5.164 1.395 9.841C1.395 12.179 2.358 14.295 3.915 15.828C3.97952 15.8912 4.03078 15.9667 4.06578 16.05C4.10077 16.1332 4.1188 16.2227 4.1188 16.313C4.1188 16.4033 4.10077 16.4928 4.06578 16.576C4.03078 16.6593 3.97952 16.7348 3.915 16.798C3.78314 16.9266 3.60622 16.9986 3.422 16.9986C3.23778 16.9986 3.06086 16.9266 2.929 16.798C2.00228 15.8919 1.26584 14.8099 0.762873 13.6154C0.259906 12.421 0.000543519 11.1381 0 9.842C0 4.406 4.477 0 10 0C15.523 0 20 4.406 20 9.84C19.9999 11.1366 19.7407 12.42 19.2377 13.6151C18.7347 14.8101 17.9981 15.8926 17.071 16.799C16.9391 16.9279 16.762 17.0001 16.5775 17.0001C16.393 17.0001 16.2159 16.9279 16.084 16.799C16.0193 16.7358 15.9679 16.6602 15.9328 16.5769C15.8978 16.4935 15.8797 16.404 15.8797 16.3135C15.8797 16.223 15.8978 16.1335 15.9328 16.0501C15.9679 15.9668 16.0193 15.8912 16.084 15.828C16.8817 15.0483 17.5156 14.117 17.9483 13.0889C18.3811 12.0607 18.604 10.9565 18.604 9.841C18.604 5.164 14.752 1.373 10 1.373Z" fill="#DBFB36"/>
</svg>
