<svg width="22" height="13" viewBox="0 0 22 13" fill="none" xmlns="http://www.w3.org/2000/svg">
<path d="M3.45242 0.682667C2.42906 1.26505 1.58312 2.11448 1.00495 3.14022C0.426774 4.16597 0.138087 5.3295 0.16972 6.50654C0.201353 7.68359 0.552118 8.82993 1.18455 9.82314C1.81698 10.8163 2.70733 11.6191 3.76049 12.1457C4.81365 12.6723 5.99006 12.9029 7.16409 12.8129C8.33812 12.7229 9.46565 12.3157 10.4263 11.6348C11.3869 10.9539 12.1445 10.0248 12.6182 8.94684C13.0919 7.86886 13.2639 6.68245 13.1158 5.51433C11.1928 6.03292 9.14638 5.82736 7.365 4.93667C5.58362 4.04598 4.19131 2.53217 3.45242 0.682667ZM14.6693 4.9185C14.7494 5.37783 14.7917 5.85017 14.7917 6.33333C14.7917 8.5975 13.8654 10.6472 12.3704 12.1205C13.8853 12.9182 15.6538 13.0861 17.2917 12.5875C18.9296 12.089 20.3047 10.9644 21.1183 9.45795C21.9318 7.9515 22.1182 6.1849 21.6369 4.54185C21.1556 2.89879 20.0454 1.512 18.5476 0.682667C17.8112 2.51816 16.4329 4.02352 14.6693 4.9185Z" fill="#DBFB36"/>
</svg>
