<svg width="8" height="12" viewBox="0 0 8 12" fill="none" xmlns="http://www.w3.org/2000/svg">
<path d="M2.31 7.344C3.077 6.468 3.461 6.03 3.935 6.002C3.97828 5.999 4.02172 5.999 4.065 6.002C4.539 6.03 4.923 6.468 5.69 7.344C7.36 9.25 8.195 10.202 7.961 11.024C7.941 11.095 7.916 11.164 7.887 11.23C7.543 12 6.362 12 4 12C1.638 12 0.457 12 0.113 11.23C0.0834369 11.1632 0.0587064 11.0943 0.0389993 11.024C-0.195001 10.202 0.639 9.25 2.309 7.344H2.31ZM6.5 2.5C6.5 3.16304 6.23661 3.79893 5.76777 4.26777C5.29893 4.73661 4.66304 5 4 5C3.33696 5 2.70107 4.73661 2.23223 4.26777C1.76339 3.79893 1.5 3.16304 1.5 2.5C1.5 1.83696 1.76339 1.20107 2.23223 0.732233C2.70107 0.263392 3.33696 0 4 0C4.66304 0 5.29893 0.263392 5.76777 0.732233C6.23661 1.20107 6.5 1.83696 6.5 2.5Z" fill="#DBFB36"/>
</svg>
