<svg width="64" height="16" viewBox="0 0 64 16" fill="none" xmlns="http://www.w3.org/2000/svg">
<path d="M56.5733 15.6244L58.2141 11.1207L58.2452 12.4459L54.5304 3.32H56.5104L59.1444 10.0719H58.64L61.2037 3.32H63.1044L58.3563 15.6244H56.5733ZM49.3133 15.8615C48.8495 15.8628 48.3885 15.788 47.9489 15.64C47.5254 15.497 47.1303 15.2809 46.7815 15.0015C46.4353 14.729 46.1459 14.3913 45.9296 14.0074L47.6807 13.14C47.8437 13.4504 48.0726 13.6785 48.3667 13.8259C48.6667 13.9785 48.9852 14.0548 49.3215 14.0548C49.7156 14.0548 50.0681 13.9837 50.3785 13.8422C50.6889 13.7052 50.9281 13.5 51.0963 13.2267C51.2696 12.9585 51.3511 12.6222 51.3407 12.217V9.79481H51.577V3.32H53.2415V12.2481C53.2415 12.4644 53.2311 12.6696 53.2104 12.8637C53.1947 13.0601 53.1655 13.2551 53.123 13.4474C52.997 13.9993 52.7548 14.4519 52.3978 14.8044C52.04 15.1615 51.5956 15.4267 51.0644 15.6007C50.5385 15.7741 49.9548 15.8615 49.3133 15.8615ZM49.1482 12.0748C48.3644 12.0748 47.6807 11.8778 47.097 11.4837C46.5133 11.0889 46.0615 10.5526 45.7407 9.87407C45.42 9.1963 45.2593 8.43111 45.2593 7.57926C45.2593 6.71704 45.42 5.94963 45.7407 5.27555C46.0667 4.59778 46.5259 4.0637 47.1207 3.67481C47.7148 3.28 48.4141 3.08296 49.2185 3.08296C50.0289 3.08296 50.7067 3.28 51.2541 3.67481C51.8059 4.0637 52.2237 4.59778 52.5081 5.2763C52.7919 5.95407 52.9341 6.72222 52.9341 7.57926C52.9341 8.42593 52.7919 9.19111 52.5081 9.87407C52.2237 10.5526 51.8007 11.0889 51.2378 11.4837C50.6756 11.8778 49.9785 12.0748 49.1482 12.0748ZM49.44 10.3711C49.9496 10.3711 50.36 10.2556 50.6704 10.0244C50.9859 9.78741 51.2141 9.45926 51.3563 9.03852C51.5037 8.61778 51.577 8.13111 51.577 7.57926C51.577 7.02148 51.5037 6.53481 51.3563 6.12C51.2141 5.69926 50.9911 5.37333 50.6859 5.14222C50.3807 4.90518 49.9867 4.78667 49.503 4.78667C48.9926 4.78667 48.5719 4.91259 48.2407 5.16518C47.9096 5.41259 47.6652 5.74889 47.5074 6.17481C47.3496 6.59556 47.2704 7.0637 47.2704 7.57926C47.2704 8.1 47.3467 8.57259 47.4993 8.99852C47.657 9.41926 47.8963 9.75407 48.217 10.0007C48.5378 10.2474 48.9452 10.3711 49.44 10.3711ZM39.74 11.8385V3.32H41.42V5.39407L41.2148 5.12593C41.32 4.84222 41.4593 4.58444 41.6326 4.35333C41.8119 4.1163 42.0252 3.92222 42.2719 3.76963C42.4822 3.62741 42.7133 3.51704 42.9659 3.43778C43.2214 3.35414 43.4865 3.30385 43.7548 3.28815C44.0154 3.26698 44.2776 3.27768 44.5356 3.32V5.09481C44.283 5.02074 43.9911 4.99704 43.66 5.0237C43.3341 5.04963 43.0393 5.14222 42.7763 5.3C42.5242 5.43272 42.3037 5.61815 42.1296 5.8437C41.9631 6.0716 41.8401 6.32823 41.7667 6.60074C41.6881 6.88 41.6482 7.18222 41.6482 7.50815V11.8385H39.74ZM34.123 12.0748C33.2607 12.0748 32.503 11.8881 31.8511 11.5148C31.2065 11.1491 30.6766 10.6109 30.3207 9.96074C29.9578 9.29852 29.777 8.5363 29.777 7.67333C29.777 6.74296 29.9556 5.93555 30.3133 5.25259C30.6711 4.5637 31.1674 4.02963 31.8037 3.65111C32.4407 3.27259 33.1763 3.08296 34.0126 3.08296C34.8956 3.08296 35.6452 3.29037 36.2607 3.70593C36.8807 4.1163 37.3407 4.69778 37.6407 5.44963C37.9407 6.20148 38.0533 7.08741 37.98 8.10741H36.0948V7.41333C36.0896 6.48741 35.9267 5.81259 35.6059 5.38667C35.2852 4.96 34.78 4.74741 34.0911 4.74741C33.3133 4.74741 32.7348 4.98963 32.3563 5.47333C31.9778 5.95185 31.7881 6.65333 31.7881 7.57926C31.7881 8.44148 31.9778 9.10963 32.3563 9.58222C32.7341 10.0563 33.2867 10.2926 34.0126 10.2926C34.4807 10.2926 34.883 10.1896 35.2193 9.98444C35.5668 9.76773 35.8416 9.45196 36.0081 9.07778L37.8852 9.64593C37.5593 10.4133 37.0548 11.0104 36.3711 11.4363C35.6985 11.8605 34.9181 12.0821 34.123 12.0748ZM31.1889 8.10741V6.67185H37.0489V8.10741H31.1889ZM26.4059 11.8385V7.73704C26.4059 7.46889 26.3874 7.17185 26.3504 6.84593C26.3141 6.52103 26.2263 6.20397 26.0904 5.90667C25.9628 5.60678 25.7552 5.34772 25.4904 5.15778C25.2281 4.96296 24.8704 4.86593 24.4185 4.86593C24.1763 4.86593 23.937 4.90518 23.7 4.98444C23.4637 5.06296 23.2481 5.19926 23.0533 5.39407C22.8644 5.5837 22.7119 5.84593 22.5963 6.18296C22.4807 6.51407 22.423 6.94 22.423 7.46074L21.2948 6.97926C21.2948 6.25333 21.4341 5.59704 21.7126 5.00741C21.9861 4.43042 22.4186 3.94346 22.9593 3.6037C23.5059 3.25111 24.1793 3.07556 24.9785 3.07556C25.6089 3.07556 26.1296 3.18074 26.54 3.39111C26.9504 3.60148 27.2763 3.86963 27.5178 4.19555C27.76 4.52148 27.9385 4.86815 28.0541 5.2363C28.1704 5.60444 28.2437 5.95481 28.2756 6.28519C28.3126 6.61111 28.3304 6.87778 28.3304 7.08222V11.8378L26.4059 11.8385ZM20.4978 11.8385V3.32H22.1941V5.96222H22.4222V11.8385H20.4978ZM12.8067 15.6244L14.4474 11.1207L14.4785 12.4459L10.7637 3.32H12.743L15.3778 10.0719H14.8733L17.4363 3.32H19.337L14.5889 15.6244H12.8074H12.8067ZM5.67704 12.0748C4.84592 12.0748 4.09629 11.9304 3.42889 11.6415C2.78878 11.3693 2.22535 10.944 1.78815 10.403C1.36222 9.86148 1.09185 9.22 0.975554 8.47852L2.94741 8.17852C3.11556 8.85185 3.46 9.37185 3.98074 9.74C4.50667 10.1081 5.11111 10.2926 5.79555 10.2926C6.2 10.2926 6.58074 10.2296 6.93852 10.103C7.2963 9.97704 7.58518 9.79259 7.80667 9.55111C8.03259 9.30889 8.14518 9.01185 8.14518 8.66C8.14518 8.50222 8.11926 8.35704 8.06667 8.22593C8.01427 8.08951 7.93347 7.96579 7.82963 7.86296C7.71499 7.7471 7.5818 7.65121 7.43555 7.57926C7.26071 7.48264 7.07561 7.40587 6.8837 7.35037L3.94889 6.48296C3.69704 6.40889 3.42296 6.31185 3.12889 6.19111C2.83051 6.05927 2.55182 5.88677 2.30074 5.67852C2.03383 5.44523 1.81667 5.16055 1.66222 4.84148C1.49926 4.50074 1.41778 4.07926 1.41778 3.58C1.41778 2.84889 1.60148 2.2363 1.96963 1.74296C2.34296 1.24296 2.84222 0.868889 3.46815 0.622222C4.09926 0.374815 4.79852 0.254074 5.56593 0.259259C6.34444 0.264444 7.03852 0.398519 7.64889 0.661482C8.24288 0.907623 8.76791 1.29485 9.17852 1.78963C9.58889 2.2837 9.87778 2.88074 10.0467 3.58L8.0037 3.93555C7.93128 3.5598 7.76286 3.20918 7.51482 2.91778C7.27939 2.63476 6.97899 2.4129 6.63926 2.27111C5.95525 1.97885 5.18602 1.9561 4.48593 2.20741C4.18756 2.30837 3.919 2.48198 3.70444 2.71259C3.51345 2.92425 3.40924 3.20011 3.41259 3.48518C3.41259 3.76444 3.49704 3.99259 3.66518 4.17185C3.83333 4.34518 4.04148 4.48444 4.28815 4.58963C4.54074 4.68963 4.79555 4.77407 5.05333 4.84148L7.08889 5.40963C7.36741 5.4837 7.68 5.5837 8.02741 5.70963C8.37407 5.83555 8.70815 6.01185 9.02889 6.23852C9.35614 6.47176 9.62594 6.77651 9.81778 7.12963C10.0281 7.49778 10.1333 7.96593 10.1333 8.53333C10.1333 9.12222 10.0096 9.64074 9.76296 10.0874C9.52324 10.5262 9.18562 10.9039 8.7763 11.1911C8.34305 11.4941 7.85988 11.7185 7.34889 11.8541C6.80394 12.0031 6.24199 12.0774 5.67704 12.0748Z" fill="#666666"/>
</svg>
