<svg width="57" height="12" viewBox="0 0 57 12" fill="none" xmlns="http://www.w3.org/2000/svg">
<path d="M54.3304 11.4259V7.40963C54.3304 7.14667 54.3126 6.8563 54.2763 6.53704C54.241 6.21898 54.155 5.90863 54.0215 5.61778C53.8966 5.32434 53.6937 5.07072 53.4348 4.88445C53.177 4.69333 52.8267 4.59852 52.3844 4.59852C52.1474 4.59852 51.9133 4.63704 51.6815 4.71408C51.4417 4.79625 51.2248 4.9338 51.0481 5.11556C50.863 5.30074 50.7133 5.55852 50.6 5.88815C50.4867 6.21259 50.4304 6.62889 50.4304 7.13926L49.3259 6.66815C49.3259 5.95704 49.4622 5.31408 49.7348 4.73704C50.0029 4.17233 50.4264 3.6957 50.9556 3.36296C51.4911 3.01778 52.1496 2.84445 52.9326 2.84445C53.5504 2.84445 54.06 2.94815 54.4615 3.15407C54.8637 3.36 55.183 3.62296 55.4193 3.94222C55.6563 4.26074 55.8311 4.60148 55.9444 4.96148C56.0578 5.32148 56.1304 5.66444 56.1607 5.98889C56.197 6.30741 56.2148 6.56815 56.2148 6.76889V11.4259H54.3304ZM48.5459 11.4259V3.08519H50.2059V5.67185H50.4304V11.4259H48.5459ZM42.697 11.657C41.863 11.657 41.1341 11.4696 40.5111 11.0941C39.8918 10.7221 39.3889 10.1843 39.0593 9.54148C38.7193 8.87704 38.5496 8.11482 38.5496 7.25482C38.5496 6.38 38.7244 5.61259 39.0748 4.95333C39.4078 4.31258 39.9132 3.77764 40.5341 3.40889C41.157 3.03852 41.8778 2.85333 42.697 2.85333C43.5363 2.85333 44.2674 3.04074 44.8904 3.4163C45.5111 3.79005 46.0143 4.3309 46.3422 4.97704C46.6874 5.6363 46.8593 6.39556 46.8593 7.25556C46.8593 8.12 46.6844 8.88519 46.3341 9.54889C46.0046 10.1918 45.5016 10.7297 44.8822 11.1015C44.2593 11.4719 43.5311 11.657 42.697 11.657ZM42.697 9.91185C43.4385 9.91185 43.9889 9.66445 44.3496 9.17111C44.7096 8.6763 44.8904 8.03778 44.8904 7.25482C44.8904 6.44741 44.7074 5.80296 44.3415 5.32445C43.9763 4.84 43.4281 4.59852 42.697 4.59852C42.197 4.59852 41.7852 4.71185 41.4607 4.93852C41.1415 5.15926 40.9052 5.47111 40.7504 5.87259C40.5963 6.26889 40.5185 6.73037 40.5185 7.25556C40.5185 8.06296 40.7015 8.70963 41.0674 9.19407C41.4378 9.67259 41.9807 9.91185 42.697 9.91185ZM30.6222 11.4259V11.1711L35.0407 4.71408H31.0704V3.08445H37.937V3.34741L33.5341 9.7963H37.7511V11.4259H30.6222ZM27.22 1.81778V0.111112H29.0815V1.81778H27.22ZM27.22 11.4252V3.08445H29.0815V11.4252H27.22ZM20.8963 11.4259V3.08519H22.5407V5.11556L22.3407 4.85333C22.4397 4.58252 22.5774 4.32752 22.7496 4.0963C22.9252 3.86444 23.1333 3.67407 23.3756 3.52444C23.5815 3.38593 23.8081 3.27778 24.0548 3.2C24.3051 3.11847 24.5647 3.06919 24.8274 3.05333C25.0825 3.03252 25.3393 3.04297 25.5918 3.08445V4.82222C25.3127 4.74737 25.0224 4.72378 24.7348 4.75259C24.4156 4.77852 24.1274 4.86889 23.8696 5.02296C23.6227 5.15321 23.4067 5.33511 23.2363 5.5563C23.0733 5.77926 22.9527 6.03037 22.8807 6.29704C22.8014 6.58658 22.7625 6.88572 22.7652 7.18593V11.4259H20.8963ZM15.0319 11.657C14.1978 11.657 13.4689 11.4696 12.8467 11.0941C12.2274 10.7221 11.7245 10.1843 11.3948 9.54148C11.0541 8.87704 10.8844 8.11482 10.8844 7.25482C10.8844 6.38 11.0593 5.61259 11.4096 4.95333C11.7425 4.31254 12.248 3.77758 12.8689 3.40889C13.4926 3.03852 14.2133 2.85333 15.0319 2.85333C15.8711 2.85333 16.6022 3.04074 17.2252 3.4163C17.846 3.79002 18.3491 4.33087 18.677 4.97704C19.0222 5.6363 19.1948 6.39556 19.1948 7.25556C19.1948 8.12 19.0193 8.88519 18.6689 9.54889C18.3392 10.1917 17.8363 10.7295 17.217 11.1015C16.5948 11.4719 15.8659 11.657 15.0319 11.657ZM15.0319 9.91185C15.7726 9.91185 16.3244 9.66445 16.6844 9.17111C17.0452 8.6763 17.2252 8.03778 17.2252 7.25482C17.2252 6.44741 17.0422 5.80296 16.677 5.32445C16.3111 4.84 15.763 4.59852 15.0319 4.59852C14.5326 4.59852 14.1207 4.71185 13.7963 4.93852C13.477 5.15926 13.2407 5.47111 13.0852 5.87259C12.9311 6.26889 12.8541 6.73037 12.8541 7.25556C12.8541 8.06296 13.0363 8.70963 13.4022 9.19407C13.7726 9.67259 14.3163 9.91185 15.0319 9.91185ZM0.199997 11.4259V0.303704H2.06148V4.9837H7.32889V0.303704H9.18222V11.4252H7.32889V6.72889H2.06222V11.4252L0.199997 11.4259Z" fill="#666666"/>
</svg>
