<svg width="24" height="25" viewBox="0 0 24 25" fill="none" xmlns="http://www.w3.org/2000/svg">
<path d="M18.175 0.675C17.833 1.017 17.833 1.567 17.833 2.667V17.833C17.833 18.933 17.833 19.483 18.175 19.825C18.517 20.167 19.067 20.167 20.167 20.167C21.267 20.167 21.817 20.167 22.158 19.825C22.5 19.483 22.5 18.933 22.5 17.834V2.667C22.5 1.567 22.5 1.017 22.158 0.675C21.817 0.334 21.267 0.334 20.167 0.334C19.067 0.334 18.517 0.334 18.175 0.675ZM9.667 6.167C9.667 5.067 9.667 4.517 10.008 4.175C10.35 3.834 10.9 3.834 12 3.834C13.1 3.834 13.65 3.834 13.992 4.175C14.333 4.517 14.333 5.067 14.333 6.167V17.834C14.333 18.934 14.333 19.484 13.992 19.825C13.65 20.167 13.1 20.167 12 20.167C10.9 20.167 10.35 20.167 10.008 19.825C9.667 19.483 9.667 18.933 9.667 17.834V6.167ZM1.842 8.842C1.5 9.184 1.5 9.734 1.5 10.834V17.834C1.5 18.934 1.5 19.484 1.842 19.825C2.183 20.167 2.733 20.167 3.833 20.167C4.933 20.167 5.483 20.167 5.825 19.825C6.167 19.483 6.167 18.933 6.167 17.834V10.834C6.167 9.734 6.167 9.184 5.825 8.842C5.483 8.5 4.933 8.5 3.833 8.5C2.733 8.5 2.183 8.5 1.842 8.842ZM1.5 22.792C1.26794 22.792 1.04538 22.8842 0.881282 23.0483C0.717187 23.2124 0.625 23.4349 0.625 23.667C0.625 23.8991 0.717187 24.1216 0.881282 24.2857C1.04538 24.4498 1.26794 24.542 1.5 24.542H22.5C22.7321 24.542 22.9546 24.4498 23.1187 24.2857C23.2828 24.1216 23.375 23.8991 23.375 23.667C23.375 23.4349 23.2828 23.2124 23.1187 23.0483C22.9546 22.8842 22.7321 22.792 22.5 22.792H1.5Z" fill="#DBFB36"/>
</svg>
