<svg width="37" height="12" viewBox="0 0 37 12" fill="none" xmlns="http://www.w3.org/2000/svg">
<path d="M31.6859 11.4911C31.0815 11.4911 30.5711 11.377 30.1526 11.1504C29.7348 10.9178 29.417 10.6111 29.2007 10.2289C28.9878 9.84282 28.8784 9.40827 28.883 8.96741C28.883 8.56444 28.9504 8.20296 29.0844 7.8837C29.2185 7.55778 29.4252 7.27926 29.7037 7.04667C29.9822 6.80963 30.3437 6.61704 30.7874 6.46667C31.1736 6.34558 31.5667 6.24738 31.9644 6.17259C32.4523 6.07934 32.9426 5.99931 33.4348 5.93259C33.9899 5.8516 34.5447 5.76889 35.0993 5.68445L34.4341 6.06445C34.4385 5.48667 34.3096 5.06074 34.0467 4.78667C33.7837 4.51333 33.3393 4.3763 32.7148 4.3763C32.3385 4.3763 31.9748 4.46445 31.6237 4.64C31.2726 4.81482 31.0274 5.11704 30.8882 5.54519L29.1852 5.01185C29.3753 4.3282 29.7896 3.72821 30.3615 3.30815C30.9452 2.88 31.7296 2.66593 32.7148 2.66593C33.4585 2.66593 34.1111 2.78667 34.6733 3.02889C35.2266 3.25742 35.676 3.68208 35.9356 4.22148C36.0852 4.51556 36.1756 4.81778 36.2067 5.12741C36.2378 5.43185 36.2526 5.76445 36.2526 6.12593V11.2585H34.6193V9.44741L34.8904 9.74148C34.5141 10.3452 34.0726 10.7889 33.5667 11.0726C33.0659 11.3511 32.4393 11.4911 31.6859 11.4911ZM32.057 10.0044C32.48 10.0044 32.8415 9.92963 33.1407 9.78C33.44 9.63037 33.6778 9.44667 33.8533 9.23037C34.0341 9.01333 34.1548 8.80963 34.217 8.61852C34.3148 8.38148 34.3689 8.11037 34.3793 7.80593C34.3948 7.4963 34.403 7.24593 34.403 7.05482L34.9756 7.22519C34.4133 7.31333 33.9304 7.39037 33.5281 7.45778C33.1252 7.52444 32.78 7.58889 32.4904 7.65111C32.2015 7.70815 31.9459 7.77259 31.7244 7.84445C31.5074 7.92222 31.3244 8.01259 31.1748 8.11556C31.0252 8.21926 30.9089 8.33778 30.8267 8.47111C30.7464 8.61544 30.7063 8.77862 30.7104 8.9437C30.7104 9.15037 30.7615 9.33333 30.8652 9.49333C30.9681 9.64889 31.1178 9.77259 31.3141 9.86519C31.5156 9.95778 31.763 10.0044 32.057 10.0044ZM23.5185 11.2585L20.4844 2.89778H22.3504L24.4556 8.95926L26.5533 2.89778H28.4267L25.3926 11.2593L23.5185 11.2585ZM15.683 11.4911C14.8467 11.4911 14.1163 11.3022 13.4926 10.9259C12.8717 10.5531 12.3675 10.014 12.037 9.36963C11.6963 8.70371 11.5259 7.94 11.5259 7.07852C11.5259 6.20074 11.7015 5.43185 12.0519 4.77111C12.3858 4.12862 12.8928 3.59236 13.5156 3.22296C14.14 2.85111 14.8622 2.66593 15.683 2.66593C16.5244 2.66593 17.257 2.85407 17.8815 3.23111C18.5037 3.60521 19.0081 4.14683 19.337 4.79408C19.6822 5.45556 19.8556 6.2163 19.8556 7.07852C19.8556 7.94519 19.68 8.71185 19.3296 9.37778C18.999 10.0219 18.4948 10.5607 17.8741 10.9333C17.2496 11.3052 16.5185 11.4911 15.683 11.4911ZM15.683 9.74148C16.4259 9.74148 16.9785 9.49333 17.34 8.99778C17.7007 8.50222 17.8815 7.86296 17.8815 7.07852C17.8815 6.26815 17.6985 5.62296 17.3319 5.14296C16.9652 4.65778 16.4156 4.41556 15.683 4.41556C15.1822 4.41556 14.7696 4.52889 14.4444 4.7563C14.1244 4.97778 13.8874 5.28963 13.7319 5.69259C13.577 6.08963 13.5 6.55185 13.5 7.07778C13.5 7.88889 13.683 8.5363 14.0496 9.02148C14.4215 9.50148 14.9659 9.74148 15.683 9.74148ZM0.877781 11.2585V0.111112H2.76667L7.93704 7.96815V0.111112H9.82593V11.2585H7.93704L2.76667 3.40148V11.2585H0.877781Z" fill="#666666"/>
</svg>
