<svg width="26" height="26" viewBox="0 0 26 26" fill="none" xmlns="http://www.w3.org/2000/svg">
<path fill-rule="evenodd" clip-rule="evenodd" d="M1.333 0.458C1.21809 0.458 1.10431 0.480633 0.998152 0.524605C0.891992 0.568578 0.795533 0.63303 0.714282 0.714282C0.63303 0.795533 0.568578 0.891992 0.524605 0.998152C0.480633 1.10431 0.458 1.21809 0.458 1.333C0.458 1.44791 0.480633 1.56169 0.524605 1.66785C0.568578 1.77401 0.63303 1.87047 0.714282 1.95172C0.795533 2.03297 0.891992 2.09742 0.998152 2.14139C1.10431 2.18537 1.21809 2.208 1.333 2.208H3.667V11.25C3.667 14.825 3.667 16.612 4.838 17.723C6.01 18.833 7.895 18.833 11.667 18.833H12.125V22.959L10.275 23.884C10.0673 23.9878 9.90942 24.1699 9.836 24.3902C9.76258 24.6104 9.77967 24.8508 9.8835 25.0585C9.98733 25.2662 10.1694 25.4241 10.3897 25.4975C10.6099 25.5709 10.8503 25.5538 11.058 25.45L13 24.477L14.942 25.448C15.1493 25.5497 15.3884 25.5653 15.6071 25.4915C15.8259 25.4177 16.0066 25.2604 16.1099 25.054C16.2132 24.8475 16.2307 24.6085 16.1586 24.3892C16.0865 24.1699 15.9307 23.9879 15.725 23.883L13.875 22.958V18.833H14.333C18.105 18.833 19.99 18.833 21.162 17.722C22.333 16.612 22.333 14.824 22.333 11.249V2.21H24.667C24.8991 2.21 25.1216 2.11781 25.2857 1.95372C25.4498 1.78962 25.542 1.56706 25.542 1.335C25.542 1.10294 25.4498 0.880376 25.2857 0.716282C25.1216 0.552187 24.8991 0.46 24.667 0.46H1.333V0.458ZM17.119 8.298C17.2003 8.37926 17.2649 8.47576 17.3089 8.58197C17.3529 8.68818 17.3756 8.80203 17.3756 8.917C17.3756 9.03197 17.3529 9.14582 17.3089 9.25203C17.2649 9.35824 17.2003 9.45474 17.119 9.536L15.582 11.072C15.412 11.242 15.23 11.425 15.055 11.558C14.8038 11.7629 14.4911 11.8773 14.167 11.883C13.8429 11.8777 13.53 11.7632 13.279 11.558C13.104 11.425 12.921 11.242 12.751 11.072L12.04 10.361C11.958 10.279 11.892 10.212 11.833 10.156C11.775 10.212 11.709 10.279 11.627 10.36L10.12 11.87C9.95557 12.0344 9.73254 12.1268 9.5 12.1268C9.26745 12.1268 9.04443 12.0344 8.88 11.87C8.71557 11.7056 8.62319 11.4825 8.62319 11.25C8.62319 11.0175 8.71557 10.7944 8.88 10.63L10.417 9.094C10.587 8.924 10.769 8.741 10.944 8.608C11.15 8.451 11.444 8.282 11.832 8.282C12.222 8.282 12.515 8.451 12.72 8.608C12.895 8.741 13.078 8.924 13.247 9.094L13.959 9.805C14.041 9.887 14.107 9.953 14.166 10.01L14.372 9.806L15.88 8.297C15.9613 8.21566 16.0578 8.15114 16.164 8.10712C16.2702 8.0631 16.384 8.04044 16.499 8.04044C16.614 8.04044 16.7278 8.0631 16.834 8.10712C16.9402 8.15114 17.0367 8.21566 17.118 8.297L17.119 8.298Z" fill="#DBFB36"/>
</svg>
