<svg width="22" height="22" viewBox="0 0 22 22" fill="none" xmlns="http://www.w3.org/2000/svg">
<path d="M0.166667 5.04167C0.166667 3.74874 0.680281 2.50876 1.59452 1.59452C2.50876 0.680281 3.74874 0.166667 5.04167 0.166667C6.3346 0.166667 7.57457 0.680281 8.48881 1.59452C9.40305 2.50876 9.91667 3.74874 9.91667 5.04167V8.29167C9.91667 8.66975 9.91667 8.85825 9.8755 9.01317C9.82017 9.21998 9.71133 9.40857 9.55995 9.55995C9.40857 9.71133 9.21998 9.82017 9.01317 9.8755C8.85825 9.91667 8.67083 9.91667 8.29167 9.91667H5.04167C3.74874 9.91667 2.50876 9.40305 1.59452 8.48881C0.680281 7.57457 0.166667 6.3346 0.166667 5.04167ZM12.0833 13.7083C12.0833 13.3303 12.0833 13.1418 12.1245 12.9868C12.2372 12.5665 12.5665 12.2372 12.9868 12.1245C13.1417 12.0833 13.3302 12.0833 13.7083 12.0833H16.9583C17.9225 12.0833 18.865 12.3692 19.6667 12.9049C20.4684 13.4406 21.0933 14.202 21.4622 15.0928C21.8312 15.9835 21.9278 16.9637 21.7397 17.9094C21.5516 18.8551 21.0873 19.7237 20.4055 20.4055C19.7237 21.0873 18.8551 21.5516 17.9094 21.7397C16.9637 21.9278 15.9835 21.8312 15.0928 21.4622C14.202 21.0933 13.4406 20.4684 12.9049 19.6667C12.3692 18.8651 12.0833 17.9225 12.0833 16.9583V13.7083ZM0.166667 16.9583C0.166667 15.6654 0.680281 14.4254 1.59452 13.5112C2.50876 12.5969 3.74874 12.0833 5.04167 12.0833H7.96667C8.64917 12.0833 8.99042 12.0833 9.2515 12.2166C9.48008 12.3325 9.6675 12.5199 9.78342 12.7485C9.91667 13.0085 9.91667 13.3508 9.91667 14.0333V16.9583C9.91667 17.5985 9.79057 18.2325 9.54558 18.8239C9.30059 19.4154 8.9415 19.9528 8.48881 20.4055C8.03613 20.8582 7.49871 21.2173 6.90725 21.4622C6.31579 21.7072 5.68186 21.8333 5.04167 21.8333C4.40147 21.8333 3.76755 21.7072 3.17608 21.4622C2.58462 21.2173 2.04721 20.8582 1.59452 20.4055C1.14184 19.9528 0.782746 19.4154 0.537754 18.8239C0.292762 18.2325 0.166667 17.5985 0.166667 16.9583ZM12.0833 5.04167C12.0833 4.07748 12.3692 3.13495 12.9049 2.33326C13.4406 1.53157 14.202 0.906731 15.0928 0.537754C15.9835 0.168777 16.9637 0.0722356 17.9094 0.260339C18.8551 0.448442 19.7237 0.91274 20.4055 1.59452C21.0873 2.2763 21.5516 3.14494 21.7397 4.0906C21.9278 5.03626 21.8312 6.01646 21.4622 6.90725C21.0933 7.79804 20.4684 8.55941 19.6667 9.09508C18.865 9.63075 17.9225 9.91667 16.9583 9.91667H13.4765C13.314 9.91667 13.2338 9.91667 13.1656 9.90908C12.8912 9.87818 12.6355 9.75502 12.4402 9.55978C12.245 9.36454 12.1218 9.10879 12.0909 8.83442C12.0833 8.76617 12.0833 8.686 12.0833 8.5235V5.04167Z" fill="#DBFB36"/>
</svg>
