<svg width="21" height="21" viewBox="0 0 21 21" fill="none" xmlns="http://www.w3.org/2000/svg">
<path d="M1.16542 2.16542C0.579753 2.75113 0.250734 3.5455 0.250734 4.37379C0.250734 5.20208 0.579753 5.99645 1.16542 6.58217L2.88467 8.3025C2.89786 8.28756 2.91159 8.27311 2.92583 8.25917L7.25917 3.92583C7.27311 3.9116 7.28757 3.89786 7.3025 3.88467L5.58217 2.16542C4.99645 1.57975 4.20208 1.25073 3.37379 1.25073C2.5455 1.25073 1.75113 1.57975 1.16542 2.16542ZM8.44867 5.03083C8.43548 5.04578 8.42175 5.06023 8.4075 5.07417L4.07417 9.4075C4.06023 9.42175 4.04578 9.43548 4.03083 9.44867L14.4178 19.8357C15.007 20.4051 15.7964 20.7203 16.6157 20.7133C17.4351 20.7064 18.2189 20.3778 18.7983 19.7984C19.3778 19.2189 19.7064 18.4351 19.7133 17.6157C19.7203 16.7964 19.4051 16.007 18.8357 15.4178L8.44867 5.03083ZM14.4417 0.49925C14.4799 0.401095 14.547 0.31678 14.6339 0.257336C14.7209 0.197893 14.8238 0.16609 14.9292 0.16609C15.0345 0.16609 15.1374 0.197893 15.2244 0.257336C15.3114 0.31678 15.3784 0.401095 15.4167 0.49925L15.8825 1.6855C15.9085 1.75261 15.9481 1.81363 15.9988 1.86471C16.0495 1.91579 16.1102 1.95584 16.1772 1.98233L17.3591 2.45033C17.457 2.48932 17.5409 2.55677 17.6 2.64397C17.6591 2.73117 17.6908 2.8341 17.6908 2.93946C17.6908 3.04481 17.6591 3.14775 17.6 3.23494C17.5409 3.32214 17.457 3.3896 17.3591 3.42858L16.1782 3.89658C16.1113 3.923 16.0506 3.96289 15.9997 4.01376C15.9488 4.06464 15.9089 4.12541 15.8825 4.19233L15.4167 5.3775C15.3784 5.47566 15.3114 5.55997 15.2244 5.61941C15.1374 5.67886 15.0345 5.71066 14.9292 5.71066C14.8238 5.71066 14.7209 5.67886 14.6339 5.61941C14.547 5.55997 14.4799 5.47566 14.4417 5.3775L13.9758 4.19125C13.9494 4.12433 13.9095 4.06355 13.8587 4.01268C13.8078 3.96181 13.747 3.92192 13.6801 3.8955L12.4992 3.4275C12.4014 3.38851 12.3174 3.32106 12.2583 3.23386C12.1992 3.14666 12.1676 3.04373 12.1676 2.93837C12.1676 2.83302 12.1992 2.73009 12.2583 2.64289C12.3174 2.55569 12.4014 2.48824 12.4992 2.44925L13.6801 1.98125C13.7471 1.95471 13.8079 1.91466 13.8588 1.86359C13.9097 1.81253 13.9495 1.75154 13.9758 1.68442L14.4417 0.49925ZM18.6309 7.89083C18.6692 7.79268 18.7362 7.70836 18.8232 7.64892C18.9102 7.58948 19.0131 7.55767 19.1184 7.55767C19.2238 7.55767 19.3267 7.58948 19.4136 7.64892C19.5006 7.70836 19.5676 7.79268 19.6059 7.89083L19.7749 8.32308C19.8291 8.4585 19.9352 8.56575 20.0707 8.61883L20.5018 8.79C20.5994 8.82917 20.683 8.89663 20.7418 8.9837C20.8007 9.07078 20.8321 9.17348 20.8321 9.27858C20.8321 9.38369 20.8007 9.48639 20.7418 9.57347C20.683 9.66054 20.5994 9.728 20.5018 9.76717L20.0707 9.93833C20.0037 9.96476 19.943 10.0046 19.8921 10.0555C19.8412 10.1064 19.8013 10.1672 19.7749 10.2341L19.6059 10.6674C19.5676 10.7656 19.5006 10.8499 19.4136 10.9093C19.3267 10.9688 19.2238 11.0006 19.1184 11.0006C19.0131 11.0006 18.9102 10.9688 18.8232 10.9093C18.7362 10.8499 18.6692 10.7656 18.6309 10.6674L18.4608 10.2341C18.4345 10.1673 18.3948 10.1066 18.3441 10.0557C18.2935 10.0048 18.2329 9.96488 18.1662 9.93833L17.735 9.76717C17.6375 9.728 17.5539 9.66054 17.495 9.57347C17.4361 9.48639 17.4047 9.38369 17.4047 9.27858C17.4047 9.17348 17.4361 9.07078 17.495 8.9837C17.5539 8.89663 17.6375 8.82917 17.735 8.79L18.1662 8.61883C18.2329 8.59229 18.2935 8.55235 18.3441 8.50148C18.3948 8.45061 18.4345 8.3899 18.4608 8.32308L18.6309 7.88975V7.89083ZM2.56075 14.5826C2.59902 14.4844 2.66604 14.4001 2.75302 14.3407C2.84 14.2812 2.9429 14.2494 3.04825 14.2494C3.1536 14.2494 3.2565 14.2812 3.34348 14.3407C3.43046 14.4001 3.49748 14.4844 3.53575 14.5826L3.70583 15.0159C3.73185 15.0829 3.77147 15.1438 3.82218 15.1947C3.8729 15.2456 3.93361 15.2854 4.0005 15.3117L4.43167 15.4817C4.52954 15.5207 4.61347 15.5882 4.6726 15.6754C4.73173 15.7626 4.76334 15.8655 4.76334 15.9709C4.76334 16.0762 4.73173 16.1792 4.6726 16.2664C4.61347 16.3536 4.52954 16.421 4.43167 16.46L4.0005 16.6312C3.93375 16.6577 3.87315 16.6976 3.82246 16.7485C3.77177 16.7993 3.73208 16.8601 3.70583 16.9269L3.53575 17.3603C3.49748 17.4584 3.43046 17.5427 3.34348 17.6022C3.2565 17.6616 3.1536 17.6934 3.04825 17.6934C2.9429 17.6934 2.84 17.6616 2.75302 17.6022C2.66604 17.5427 2.59902 17.4584 2.56075 17.3603L2.39067 16.9269C2.36442 16.8601 2.32473 16.7993 2.27404 16.7485C2.22335 16.6976 2.16275 16.6577 2.096 16.6312L1.66483 16.46C1.56696 16.421 1.48303 16.3536 1.4239 16.2664C1.36477 16.1792 1.33316 16.0762 1.33316 15.9709C1.33316 15.8655 1.36477 15.7626 1.4239 15.6754C1.48303 15.5882 1.56696 15.5207 1.66483 15.4817L2.096 15.3117C2.16286 15.2851 2.22352 15.245 2.27421 15.1939C2.32491 15.1428 2.36455 15.0819 2.39067 15.0148L2.56075 14.5826Z" fill="#DBFB36"/>
</svg>
