<svg width="37" height="15" viewBox="0 0 37 15" fill="none" xmlns="http://www.w3.org/2000/svg">
<path d="M28.3526 10.8104L31.2667 6.78148L28.4111 2.84074H30.5067L32.3 5.38741L34.0637 2.84148H36.1585L33.3037 6.78222L36.2326 10.8104H34.137L32.3 8.1763L30.4481 10.8104H28.3526ZM24.2719 11.0319C23.4644 11.0319 22.7563 10.857 22.1467 10.5074C21.5436 10.1654 21.0478 9.66216 20.7148 9.05407C20.3756 8.43407 20.2059 7.72074 20.2059 6.91407C20.2059 6.0437 20.3733 5.28889 20.7082 4.64889C21.0422 4.00444 21.5074 3.50519 22.1022 3.15111C22.6978 2.79704 23.3859 2.62 24.1689 2.62C24.9948 2.62 25.6956 2.81407 26.2711 3.20296C26.8518 3.58667 27.2822 4.13037 27.5622 4.83333C27.843 5.53704 27.9489 6.36593 27.88 7.32H26.1163V6.67111C26.1111 5.80445 25.9585 5.17333 25.6585 4.77481C25.3585 4.3763 24.8867 4.17704 24.2422 4.17704C23.5141 4.17704 22.9733 4.40296 22.6193 4.85556C22.2644 5.3037 22.0874 5.96 22.0874 6.82593C22.0874 7.63259 22.2652 8.25704 22.6193 8.7C22.9733 9.14296 23.4896 9.3637 24.1681 9.3637C24.6059 9.3637 24.983 9.26741 25.297 9.0763C25.6222 8.87339 25.8792 8.57772 26.0348 8.22741L27.7911 8.75926C27.4859 9.47778 27.0133 10.0356 26.3748 10.4333C25.7456 10.8307 25.016 11.0385 24.2719 11.0319ZM21.5267 7.32074V5.97704H27.0089V7.32H21.5274L21.5267 7.32074ZM15.3852 11.0319C14.6074 11.0319 13.9556 10.8467 13.4296 10.4778C12.9037 10.1096 12.5074 9.60741 12.2415 8.97259C11.9763 8.33333 11.843 7.61778 11.843 6.82593C11.843 6.0237 11.9763 5.30593 12.2415 4.67111C12.5074 4.03704 12.8956 3.53778 13.4074 3.17333C13.9237 2.80445 14.5607 2.62 15.3185 2.62C16.0711 2.62 16.723 2.80519 17.2741 3.17333C17.8296 3.53778 18.26 4.03704 18.5652 4.67111C18.8704 5.30074 19.0222 6.01926 19.0222 6.82593C19.0222 7.62296 18.8726 8.33852 18.5726 8.97259C18.2726 9.60741 17.8496 10.1096 17.3037 10.4778C16.757 10.8474 16.1185 11.0319 15.3852 11.0319ZM11.5407 14.3519V2.84074H13.1126V8.43407H13.3333V14.3519H11.5407ZM15.1119 9.43778C15.5741 9.43778 15.9556 9.32222 16.2556 9.09111C16.5556 8.86 16.777 8.54741 16.92 8.15407C17.072 7.72803 17.1468 7.27825 17.1407 6.82593C17.1407 6.34445 17.0667 5.90593 16.9193 5.51259C16.7718 5.11407 16.5437 4.79926 16.2333 4.56815C15.9237 4.33185 15.5296 4.21407 15.0526 4.21407C14.6007 4.21407 14.2311 4.32518 13.9459 4.54593C13.6607 4.76222 13.4496 5.06741 13.3119 5.46074C13.1785 5.84963 13.1119 6.30445 13.1119 6.82593C13.1119 7.34222 13.1785 7.79704 13.3119 8.19111C13.4496 8.5837 13.663 8.89185 13.9533 9.11333C14.2489 9.32963 14.6348 9.43778 15.1119 9.43778ZM0.917038 10.8104L4.26667 0.185185H6.87185L10.2215 10.8104H8.39185L5.35185 1.27704H5.75037L2.74741 10.8104H0.917038ZM2.7837 8.50815V6.84815H8.36148V8.50741L2.7837 8.50815Z" fill="#666666"/>
</svg>
