<svg width="18" height="22" viewBox="0 0 18 22" fill="none" xmlns="http://www.w3.org/2000/svg">
<path d="M8.1875 0.256583C7.92126 0.315614 7.66225 0.403523 7.41508 0.51875C3.09908 2.537 0.333333 8.17792 0.333333 13.0118C0.333333 17.6051 3.78158 21.3783 8.1875 21.7954V0.256583ZM9.8125 21.7954C14.2184 21.3783 17.6667 17.6051 17.6667 13.0118C17.6667 12.5719 17.6439 12.1245 17.5984 11.6749L9.8125 19.4619V21.7954ZM15.7817 5.77833C15.3659 4.99912 14.88 4.2594 14.33 3.56833L9.8125 8.08583V11.7475L15.7817 5.77833ZM13.2337 2.36583C12.4576 1.6095 11.5629 0.985526 10.5849 0.51875C10.3377 0.403523 10.0787 0.315614 9.8125 0.256583V5.78808L13.2337 2.36583ZM16.514 7.34267L9.8125 14.0453V17.1631L17.125 9.85058L17.268 9.70758C17.0772 8.90124 16.8252 8.11063 16.514 7.34267Z" fill="#DBFB36"/>
</svg>
