<svg width="21" height="21" viewBox="0 0 21 21" fill="none" xmlns="http://www.w3.org/2000/svg">
<path d="M1.39747 3.75293C2.13413 11.8909 9.10907 18.8659 17.2471 19.6025C18.0704 19.6771 18.7837 19.0834 18.9457 18.2731L19.49 15.5483C19.5646 15.1755 19.5146 14.7885 19.3476 14.447C19.1807 14.1054 18.9061 13.8282 18.5661 13.6581L16.7106 12.7307C16.3477 12.5492 15.9325 12.5008 15.5375 12.5939C15.1426 12.6871 14.7928 12.9158 14.5491 13.2403L14.3117 13.5567C13.9841 13.9935 13.4606 14.2621 12.951 14.0689C10.8797 13.2837 7.71633 10.1212 6.93113 8.04987C6.73787 7.53853 7.00653 7.01593 7.44333 6.68833L7.75967 6.45087C8.08434 6.20735 8.31327 5.85762 8.40655 5.46263C8.49983 5.06764 8.45156 4.65245 8.27013 4.2894L7.3428 2.43473C7.17271 2.09427 6.89529 1.81925 6.55336 1.65212C6.21143 1.485 5.824 1.43505 5.45087 1.51L2.72607 2.05427C1.91573 2.21633 1.32293 2.9296 1.39747 3.75293Z" stroke="#DBFB36" stroke-width="1.73333" stroke-linecap="round" stroke-linejoin="round"/>
</svg>
