<svg width="11" height="24" viewBox="0 0 11 24" fill="none" xmlns="http://www.w3.org/2000/svg">
<path fill-rule="evenodd" clip-rule="evenodd" d="M0.564 22.208C0.564 21.725 0.955999 21.333 1.439 21.333H2.499C3.009 21.333 3.474 21.333 3.903 21.329C4.13506 21.327 4.35841 21.4173 4.52391 21.58C4.68942 21.7427 4.78351 21.9644 4.7855 22.1965C4.78749 22.4286 4.69721 22.6519 4.53452 22.8174C4.37183 22.9829 4.15006 23.077 3.918 23.079C3.48 23.083 3.008 23.083 2.502 23.083H1.44C1.20794 23.083 0.985376 22.9908 0.821281 22.8267C0.657187 22.6626 0.564 22.4401 0.564 22.208ZM0.564 1.208C0.564 0.725 0.955999 0.333 1.439 0.333H2.503C3.009 0.333 3.481 0.333 3.918 0.337C4.03291 0.337985 4.14649 0.361593 4.25228 0.406476C4.35806 0.451358 4.45397 0.516637 4.53452 0.598585C4.61508 0.680533 4.6787 0.777544 4.72177 0.884081C4.76483 0.990618 4.78648 1.10459 4.7855 1.2195C4.78451 1.33441 4.76091 1.44799 4.71602 1.55378C4.67114 1.65956 4.60586 1.75547 4.52391 1.83602C4.44197 1.91658 4.34496 1.9802 4.23842 2.02326C4.13188 2.06633 4.01791 2.08798 3.903 2.087C3.473 2.083 3.009 2.083 2.5 2.083H1.44C1.32501 2.08313 1.21112 2.0606 1.10485 2.01668C0.99857 1.97277 0.901992 1.90834 0.820635 1.82707C0.739278 1.74581 0.674736 1.6493 0.630701 1.54308C0.586666 1.43685 0.564 1.32299 0.564 1.208ZM6.433 22.144C6.36421 21.9224 6.38625 21.6826 6.49426 21.4772C6.60228 21.2719 6.78743 21.1179 7.009 21.049C7.384 20.933 7.644 20.776 7.856 20.564C8.068 20.352 8.224 20.092 8.341 19.717C8.40996 19.4954 8.56411 19.3103 8.76956 19.2024C8.97501 19.0944 9.21491 19.0725 9.4365 19.1415C9.65809 19.2105 9.84321 19.3646 9.95114 19.5701C10.0591 19.7755 10.081 20.0154 10.012 20.237C9.825 20.837 9.536 21.359 9.093 21.802C8.651 22.244 8.13 22.533 7.528 22.72C7.30641 22.7888 7.06657 22.7668 6.86123 22.6587C6.65589 22.5507 6.50185 22.3656 6.433 22.144ZM6.433 1.272C6.50185 1.05043 6.65589 0.865281 6.86123 0.757265C7.06657 0.649249 7.30641 0.627212 7.528 0.696C8.13 0.883 8.651 1.172 9.094 1.614C9.536 2.057 9.825 2.578 10.012 3.18C10.081 3.40159 10.0591 3.64149 9.95114 3.84694C9.84321 4.05239 9.65809 4.20654 9.4365 4.2755C9.21491 4.34446 8.97501 4.32256 8.76956 4.21464C8.56411 4.10671 8.40996 3.92159 8.341 3.7C8.224 3.324 8.068 3.064 7.856 2.852C7.644 2.64 7.384 2.483 7.009 2.367C6.78743 2.29815 6.60228 2.14411 6.49426 1.93877C6.38625 1.73343 6.36421 1.49359 6.433 1.272ZM9.489 17.493C9.37409 17.4921 9.26049 17.4685 9.15468 17.4237C9.04887 17.3789 8.95293 17.3137 8.87232 17.2318C8.79172 17.1499 8.72804 17.0529 8.68492 16.9464C8.6418 16.8399 8.62008 16.7259 8.621 16.611C8.625 16.181 8.625 15.717 8.625 15.208V13.618C8.625 13.3859 8.71719 13.1634 8.88128 12.9993C9.04538 12.8352 9.26794 12.743 9.5 12.743C9.73206 12.743 9.95462 12.8352 10.1187 12.9993C10.2828 13.1634 10.375 13.3859 10.375 13.618V15.211C10.375 15.717 10.375 16.189 10.371 16.626C10.3689 16.8579 10.2748 17.0795 10.1094 17.242C9.94405 17.4046 9.7209 17.4949 9.489 17.493ZM9.489 5.923C9.7209 5.92114 9.94405 6.0114 10.1094 6.17397C10.2748 6.33654 10.3689 6.55811 10.371 6.79C10.375 7.227 10.375 7.7 10.375 8.205V9.8C10.375 10.0321 10.2828 10.2546 10.1187 10.4187C9.95462 10.5828 9.73206 10.675 9.5 10.675C9.26794 10.675 9.04538 10.5828 8.88128 10.4187C8.71719 10.2546 8.625 10.0321 8.625 9.8V8.209C8.625 7.7 8.625 7.235 8.621 6.806C8.62008 6.69109 8.6418 6.57713 8.68492 6.47061C8.72804 6.3641 8.79172 6.26713 8.87232 6.18522C8.95293 6.10332 9.04887 6.0381 9.15468 5.99328C9.26049 5.94846 9.37409 5.92392 9.489 5.923Z" fill="#DBFB36"/>
</svg>
