<svg width="24" height="24" viewBox="0 0 24 24" fill="none" xmlns="http://www.w3.org/2000/svg">
<path d="M1.97917 1.16667C1.97917 0.951178 1.89356 0.744516 1.74119 0.592142C1.58882 0.439769 1.38215 0.354167 1.16667 0.354167C0.951178 0.354167 0.744516 0.439769 0.592142 0.592142C0.439769 0.744516 0.354167 0.951178 0.354167 1.16667V12.0617C0.354167 14.5632 0.354167 16.5229 0.56 18.0526C0.770167 19.6169 1.21 20.8519 2.1785 21.8215C3.14808 22.7911 4.38308 23.2298 5.9485 23.44C7.47708 23.6458 9.43683 23.6458 11.9382 23.6458H22.8333C23.0488 23.6458 23.2555 23.5602 23.4079 23.4079C23.5602 23.2555 23.6458 23.0488 23.6458 22.8333C23.6458 22.6178 23.5602 22.4112 23.4079 22.2588C23.2555 22.1064 23.0488 22.0208 22.8333 22.0208H12C9.42383 22.0208 7.5735 22.0187 6.16517 21.8302C4.77958 21.6438 3.94433 21.2885 3.32683 20.6721C2.71042 20.0546 2.35617 19.2204 2.16983 17.8348C1.98133 16.4265 1.97917 14.5762 1.97917 12V1.16667Z" fill="#DBFB36"/>
</svg>
