<svg width="71" height="13" viewBox="0 0 71 13" fill="none" xmlns="http://www.w3.org/2000/svg">
<path d="M65.9674 12.6111C65.0563 12.6111 64.2563 12.4141 63.5674 12.0193C62.8864 11.6329 62.3264 11.0645 61.9504 10.3778C61.5674 9.67778 61.3755 8.87259 61.3755 7.96148C61.3755 6.97778 61.5644 6.12444 61.9422 5.40296C62.32 4.67481 62.8452 4.11111 63.517 3.71111C64.1896 3.31111 64.9674 3.11111 65.8504 3.11111C66.7837 3.11111 67.5755 3.33037 68.2259 3.76963C68.8815 4.20296 69.3674 4.8163 69.6837 5.61111C70.0007 6.40518 70.12 7.34148 70.0422 8.41926H68.0504V7.68593C68.0452 6.70815 67.8726 5.99407 67.5341 5.54444C67.1948 5.09407 66.6615 4.86963 65.9341 4.86963C65.1118 4.86963 64.5007 5.12519 64.1007 5.6363C63.7007 6.14148 63.5007 6.88296 63.5007 7.86074C63.5007 8.77185 63.7007 9.47778 64.1007 9.97778C64.5007 10.4778 65.0837 10.7281 65.8504 10.7281C66.3452 10.7281 66.7704 10.6193 67.1259 10.4022C67.4867 10.18 67.7644 9.86148 67.9593 9.44444L69.9422 10.0444C69.5978 10.8556 69.0644 11.4859 68.3422 11.9363C67.6318 12.3845 66.8074 12.6188 65.9674 12.6111ZM62.8674 8.41926V6.9037H69.0593V8.42L62.8674 8.41926ZM55.1978 12.6111C54.3696 12.6111 53.6474 12.403 53.0311 11.9859C52.4141 11.5696 51.9363 11.003 51.5978 10.2859C51.2585 9.56963 51.0889 8.76074 51.0889 7.86074C51.0889 6.94963 51.2585 6.13852 51.5978 5.42741C51.9422 4.71111 52.4281 4.14741 53.0556 3.7363C53.6837 3.31926 54.4222 3.11111 55.2726 3.11111C56.1281 3.11111 56.8444 3.31926 57.4222 3.7363C58.0059 4.14741 58.4474 4.71111 58.7474 5.42815C59.0474 6.14444 59.1978 6.95556 59.1978 7.86074C59.1978 8.75556 59.0474 9.56444 58.7474 10.2859C58.4474 11.003 58 11.5696 57.4059 11.9859C56.8111 12.403 56.0756 12.6111 55.1978 12.6111ZM55.5059 10.8111C56.0444 10.8111 56.4778 10.6889 56.8059 10.4444C57.1393 10.1948 57.3807 9.84741 57.5311 9.40296C57.6867 8.95852 57.7644 8.44444 57.7644 7.86074C57.7644 7.27259 57.6867 6.75852 57.5311 6.32C57.3807 5.87556 57.1444 5.53037 56.8222 5.28593C56.5 5.0363 56.0837 4.91111 55.5726 4.91111C55.0333 4.91111 54.5889 5.04445 54.2393 5.31111C53.8889 5.57185 53.6311 5.92741 53.4644 6.37778C53.2978 6.82222 53.2141 7.3163 53.2141 7.86074C53.2141 8.41111 53.2948 8.91111 53.4555 9.36148C53.6222 9.80593 53.8755 10.1585 54.2141 10.4193C54.5533 10.6807 54.9837 10.8111 55.5059 10.8111ZM57.7644 12.3615V6.04444H57.5141V0.360741H59.5393V12.3607L57.7644 12.3615ZM44.503 12.6111C43.8526 12.6111 43.303 12.4889 42.8526 12.2444C42.403 11.9948 42.0615 11.6637 41.8281 11.2526C41.5989 10.8368 41.4811 10.3688 41.4859 9.89407C41.4859 9.46074 41.5585 9.07185 41.703 8.72741C41.8474 8.37778 42.0696 8.07778 42.3696 7.82741C42.6696 7.57185 43.0585 7.3637 43.5363 7.20296C43.897 7.08593 44.32 6.98074 44.803 6.88593C45.3284 6.78543 45.8565 6.69922 46.3867 6.62741C46.984 6.54065 47.5811 6.45176 48.1778 6.36074L47.4615 6.76963C47.4667 6.14741 47.3281 5.68889 47.0444 5.39407C46.7615 5.1 46.2837 4.95259 45.6111 4.95259C45.2059 4.95259 44.8141 5.04741 44.4363 5.2363C44.0585 5.42519 43.7948 5.75037 43.6444 6.21111L41.8111 5.6363C42.0333 4.87481 42.4556 4.2637 43.0778 3.80296C43.7059 3.34148 44.5504 3.11111 45.6111 3.11111C46.4111 3.11111 47.1141 3.24148 47.72 3.50296C48.3151 3.74885 48.7986 4.20568 49.0778 4.78593C49.2393 5.10296 49.3363 5.42741 49.3696 5.76148C49.403 6.08889 49.42 6.44741 49.42 6.83556V12.3615H47.6615V10.4111L47.9533 10.7281C47.5474 11.3778 47.0726 11.8556 46.5281 12.1607C45.9889 12.4607 45.3141 12.6111 44.503 12.6111ZM44.903 11.0111C45.3585 11.0111 45.7474 10.9304 46.0696 10.7696C46.3919 10.6081 46.6474 10.4111 46.8363 10.1778C47.0311 9.94444 47.1615 9.72519 47.2281 9.51926C47.3333 9.2637 47.3918 8.97185 47.403 8.64445C47.42 8.31111 47.4281 8.04148 47.4281 7.8363L48.0444 8.01926C47.4393 8.11407 46.92 8.19704 46.4867 8.26963C46.1128 8.33059 45.7404 8.39999 45.3696 8.47778C45.0585 8.53852 44.7837 8.60815 44.5444 8.68593C44.3354 8.7572 44.1364 8.8553 43.9526 8.97778C43.8023 9.07815 43.6746 9.20885 43.5778 9.36148C43.4919 9.51682 43.449 9.69221 43.4533 9.86963C43.4533 10.0919 43.5089 10.2889 43.6193 10.4615C43.7304 10.6281 43.8918 10.7615 44.103 10.8615C44.32 10.9607 44.5867 11.0111 44.903 11.0111ZM36.4548 12.6111C35.5267 12.6111 34.7348 12.4059 34.08 11.9948C33.427 11.5812 32.904 10.9917 32.5711 10.2941C32.2267 9.57778 32.0518 8.76667 32.0459 7.86074C32.0518 6.93926 32.2326 6.12222 32.5881 5.41111C32.9294 4.71595 33.4612 4.13205 34.1215 3.72741C34.7822 3.3163 35.5681 3.11111 36.4793 3.11111C37.5015 3.11111 38.3659 3.36963 39.0718 3.88593C39.783 4.39704 40.2459 5.09704 40.463 5.98593L38.463 6.52815C38.3074 6.04444 38.0489 5.66889 37.6881 5.40222C37.334 5.13268 36.8999 4.98928 36.4548 4.99482C35.9326 4.99482 35.5022 5.11926 35.163 5.36963C34.8244 5.61408 34.5741 5.95259 34.4126 6.38593C34.2519 6.81926 34.1711 7.31111 34.1711 7.86074C34.1711 8.7163 34.363 9.40889 34.7459 9.9363C35.1296 10.4637 35.6993 10.7281 36.4548 10.7281C36.9881 10.7281 37.4074 10.6059 37.7133 10.3615C38.0244 10.117 38.2578 9.7637 38.4133 9.30222L40.463 9.76148C40.1852 10.6778 39.6993 11.3837 39.0044 11.8778C38.3104 12.3667 37.46 12.6111 36.4548 12.6111ZM27.0044 12.6111C25.8933 12.6111 24.9904 12.3615 24.2963 11.8615C23.6015 11.3615 23.1793 10.6585 23.0296 9.75259L25.0793 9.4363C25.1844 9.88074 25.4185 10.2304 25.7793 10.4859C26.14 10.7415 26.5956 10.8696 27.1459 10.8696C27.6296 10.8696 28.0015 10.7748 28.2622 10.5859C28.5289 10.3919 28.6622 10.1281 28.6622 9.79481C28.6622 9.58889 28.6126 9.42444 28.5126 9.30296C28.4185 9.17482 28.2067 9.05259 27.8793 8.9363C27.5518 8.81926 27.0489 8.67185 26.3711 8.49407C25.6156 8.29407 25.0156 8.08074 24.5711 7.85259C24.1267 7.61926 23.8067 7.34444 23.6126 7.02741C23.4178 6.71111 23.3207 6.32741 23.3207 5.87778C23.3207 5.3163 23.4681 4.82741 23.7622 4.41111C24.057 3.99407 24.4681 3.67481 24.9956 3.45259C25.5237 3.22519 26.1459 3.11111 26.8622 3.11111C27.563 3.11111 28.1822 3.21926 28.7215 3.4363C29.2652 3.65259 29.7044 3.96148 30.0378 4.36074C30.3711 4.76074 30.5763 5.23037 30.6541 5.76963L28.6044 6.1363C28.5854 5.95647 28.5289 5.78264 28.4384 5.62607C28.3479 5.4695 28.2256 5.33368 28.0793 5.22741C27.7852 5.00519 27.3904 4.88074 26.8963 4.85259C26.4237 4.82518 26.043 4.89704 25.7541 5.06963C25.4652 5.2363 25.3207 5.47259 25.3207 5.77778C25.3207 5.95037 25.3793 6.09704 25.4956 6.21926C25.6126 6.34148 25.8459 6.4637 26.1963 6.58593C26.5519 6.70815 27.0793 6.85852 27.7793 7.0363C28.4956 7.21926 29.0681 7.43037 29.4956 7.66963C29.9289 7.90296 30.24 8.1837 30.4289 8.51111C30.6237 8.83852 30.7207 9.2363 30.7207 9.70296C30.7207 10.6081 30.3904 11.3193 29.7296 11.8363C29.0733 12.3526 28.1659 12.6111 27.0044 12.6111ZM16.443 12.6111C15.7933 12.6111 15.243 12.4889 14.7933 12.2444C14.343 11.9948 14.0007 11.6637 13.7681 11.2526C13.5389 10.8368 13.4211 10.3688 13.4259 9.89407C13.4259 9.46074 13.4985 9.07185 13.643 8.72741C13.7874 8.37778 14.0096 8.07778 14.3096 7.82741C14.6096 7.57185 14.9985 7.3637 15.4763 7.20296C15.8378 7.08593 16.26 6.98074 16.743 6.88593C17.2684 6.78545 17.7965 6.69924 18.3267 6.62741C18.924 6.54065 19.5211 6.45176 20.1178 6.36074L19.4015 6.76963C19.4067 6.14741 19.2681 5.68889 18.9844 5.39407C18.7015 5.1 18.2237 4.95259 17.5511 4.95259C17.1459 4.95259 16.7541 5.04741 16.3763 5.2363C15.9985 5.42519 15.7348 5.75037 15.5844 6.21111L13.7511 5.6363C13.9733 4.87481 14.3956 4.2637 15.0178 3.80296C15.6459 3.34148 16.4904 3.11111 17.5511 3.11111C18.3511 3.11111 19.0541 3.24148 19.66 3.50296C20.2551 3.74885 20.7386 4.20568 21.0178 4.78593C21.1793 5.10296 21.2763 5.42741 21.3096 5.76148C21.343 6.08889 21.3593 6.44741 21.3593 6.83556V12.3615H19.6015V10.4111L19.8933 10.7281C19.4874 11.3778 19.0118 11.8556 18.4681 12.1607C17.9289 12.4607 17.2541 12.6111 16.443 12.6111ZM16.843 11.0111C17.2985 11.0111 17.6874 10.9304 18.0096 10.7696C18.3319 10.6081 18.5874 10.4111 18.7763 10.1778C18.9704 9.94444 19.1015 9.72519 19.1681 9.51926C19.2733 9.2637 19.3318 8.97185 19.343 8.64445C19.36 8.31111 19.3681 8.04148 19.3681 7.8363L19.9844 8.01926C19.3793 8.11407 18.86 8.19704 18.4267 8.26963C18.0528 8.33061 17.6804 8.40001 17.3096 8.47778C16.9985 8.53852 16.7237 8.60815 16.4844 8.68593C16.2754 8.7572 16.0764 8.8553 15.8926 8.97778C15.7423 9.07815 15.6146 9.20885 15.5178 9.36148C15.4317 9.51675 15.3885 9.69214 15.3926 9.86963C15.3926 10.0919 15.4489 10.2889 15.56 10.4615C15.6711 10.6281 15.8319 10.7615 16.043 10.8615C16.26 10.9607 16.5267 11.0111 16.843 11.0111ZM6.6963 12.6111C5.4963 12.6111 4.46889 12.3504 3.61333 11.8274C2.75778 11.3 2.09926 10.5667 1.63852 9.62741C1.18296 8.68889 0.954815 7.6 0.954815 6.36074C0.954815 5.12222 1.18296 4.03333 1.63852 3.09407C2.09926 2.15556 2.75778 1.42519 3.61333 0.902964C4.46889 0.374816 5.49704 0.111112 6.69704 0.111112C8.08 0.111112 9.23259 0.458519 10.1548 1.15259C11.077 1.84148 11.7252 2.77259 12.097 3.94444L10.0719 4.50296C9.83852 3.71926 9.44148 3.10815 8.88 2.66963C8.31926 2.22519 7.59111 2.00296 6.69704 2.00296C5.89111 2.00296 5.21926 2.1837 4.68 2.54444C4.14667 2.90593 3.7437 3.41407 3.47185 4.06963C3.20518 4.71926 3.06889 5.4837 3.0637 6.36074C3.0637 7.23852 3.19704 8.00519 3.4637 8.66074C3.73556 9.31111 4.14148 9.8163 4.68 10.1778C5.21926 10.5393 5.89111 10.7193 6.69704 10.7193C7.59111 10.7193 8.31926 10.497 8.88 10.0526C9.44148 9.60815 9.83852 8.99704 10.0719 8.21926L12.097 8.77778C11.7244 9.94963 11.077 10.8837 10.1548 11.5778C9.23259 12.2667 8.08 12.6111 6.6963 12.6111Z" fill="#666666"/>
</svg>
