<svg width="10" height="10" viewBox="0 0 10 10" fill="none" xmlns="http://www.w3.org/2000/svg">
<path fill-rule="evenodd" clip-rule="evenodd" d="M4.95833 0.979167C5.17382 0.979167 5.38048 1.06477 5.53286 1.21714C5.68523 1.36952 5.77083 1.57618 5.77083 1.79167V4.22917H8.20833C8.42382 4.22917 8.63048 4.31477 8.78286 4.46714C8.93523 4.61952 9.02083 4.82618 9.02083 5.04167C9.02083 5.25716 8.93523 5.46382 8.78286 5.61619C8.63048 5.76856 8.42382 5.85417 8.20833 5.85417H5.77083V8.29167C5.77083 8.50716 5.68523 8.71382 5.53286 8.86619C5.38048 9.01856 5.17382 9.10417 4.95833 9.10417C4.74284 9.10417 4.53618 9.01856 4.38381 8.86619C4.23143 8.71382 4.14583 8.50716 4.14583 8.29167V5.85417H1.70833C1.49284 5.85417 1.28618 5.76856 1.13381 5.61619C0.981436 5.46382 0.895833 5.25716 0.895833 5.04167C0.895833 4.82618 0.981436 4.61952 1.13381 4.46714C1.28618 4.31477 1.49284 4.22917 1.70833 4.22917H4.14583V1.79167C4.14583 1.57618 4.23143 1.36952 4.38381 1.21714C4.53618 1.06477 4.74284 0.979167 4.95833 0.979167Z" fill="#DBFB36"/>
</svg>
