<svg width="92" height="11" viewBox="0 0 92 11" fill="none" xmlns="http://www.w3.org/2000/svg">
<path d="M0 0.958H2.393L4.92 7.255H5.028L7.555 0.958H9.941V10.331H8.066V4.232H7.988L5.614 10.286H4.332L1.958 4.209H1.882V10.331H0V0.958ZM13.279 10.463C12.874 10.472 12.472 10.392 12.1 10.228C11.769 10.08 11.487 9.837 11.289 9.529C11.08 9.181 10.977 8.777 10.991 8.369C10.981 8.028 11.053 7.69 11.202 7.384C11.337 7.125 11.535 6.905 11.776 6.744C12.03 6.576 12.309 6.452 12.602 6.378C12.922 6.293 13.248 6.236 13.578 6.206C13.977 6.163 14.3 6.121 14.545 6.083C14.732 6.065 14.913 6.006 15.077 5.911C15.19 5.836 15.254 5.704 15.246 5.567V5.54C15.26 5.286 15.163 5.039 14.979 4.867C14.764 4.696 14.495 4.611 14.223 4.629C13.933 4.614 13.646 4.695 13.404 4.86C13.21 5.001 13.067 5.205 13 5.438L11.235 5.292C11.317 4.882 11.499 4.5 11.765 4.182C12.038 3.859 12.385 3.611 12.776 3.459C13.239 3.282 13.73 3.196 14.225 3.206C14.599 3.206 14.971 3.254 15.333 3.349C15.668 3.433 15.984 3.577 16.268 3.776C16.54 3.964 16.763 4.218 16.917 4.514C17.083 4.846 17.165 5.214 17.156 5.586V10.331H15.345V9.357H15.291C15.181 9.577 15.031 9.773 14.848 9.935C14.65 10.108 14.421 10.241 14.174 10.324C13.886 10.421 13.583 10.468 13.279 10.463ZM13.827 9.119C14.085 9.124 14.34 9.065 14.57 8.947C14.776 8.841 14.951 8.681 15.076 8.482C15.199 8.286 15.263 8.057 15.261 7.823V7.073C15.184 7.12 15.102 7.156 15.017 7.181C14.914 7.212 14.798 7.242 14.669 7.267C14.541 7.293 14.412 7.316 14.284 7.336L13.935 7.39C13.733 7.416 13.535 7.47 13.347 7.55C13.194 7.611 13.06 7.713 12.958 7.844C12.862 7.977 12.814 8.139 12.819 8.303C12.806 8.542 12.913 8.771 13.102 8.911C13.317 9.056 13.57 9.129 13.827 9.119ZM20.986 10.446C20.484 10.453 19.991 10.308 19.568 10.031C19.122 9.733 18.771 9.308 18.557 8.809C18.297 8.183 18.175 7.505 18.198 6.825C18.175 6.134 18.305 5.447 18.579 4.815C18.795 4.322 19.146 3.904 19.59 3.61C20.007 3.345 20.49 3.207 20.981 3.211C21.314 3.199 21.645 3.267 21.947 3.409C22.189 3.526 22.405 3.695 22.579 3.903C22.725 4.079 22.848 4.274 22.944 4.483H23.003V0.958H24.907V10.331H23.02V9.2H22.939C22.84 9.41 22.713 9.606 22.562 9.78C22.385 9.98 22.17 10.141 21.93 10.253C21.633 10.388 21.311 10.454 20.986 10.446ZM21.591 8.897C21.873 8.906 22.149 8.814 22.373 8.639C22.599 8.448 22.769 8.197 22.865 7.915C22.985 7.563 23.042 7.192 23.034 6.82C23.043 6.449 22.985 6.08 22.865 5.731C22.771 5.45 22.6 5.202 22.373 5.016C22.147 4.845 21.871 4.757 21.59 4.765C21.303 4.755 21.023 4.848 20.796 5.027C20.57 5.216 20.401 5.467 20.307 5.75C20.191 6.094 20.134 6.456 20.139 6.82C20.132 7.188 20.189 7.555 20.307 7.903C20.4 8.188 20.569 8.442 20.794 8.636C21.022 8.814 21.304 8.905 21.591 8.894V8.897ZM29.413 10.469C28.777 10.487 28.148 10.334 27.588 10.026C27.082 9.738 26.671 9.302 26.409 8.773C26.121 8.176 25.979 7.515 25.996 6.849C25.981 6.19 26.123 5.536 26.409 4.944C26.669 4.414 27.073 3.971 27.571 3.667C28.107 3.353 28.717 3.195 29.334 3.211C29.767 3.208 30.197 3.282 30.604 3.431C30.99 3.576 31.342 3.803 31.636 4.097C31.941 4.414 32.176 4.794 32.323 5.213C32.496 5.716 32.579 6.247 32.569 6.78V7.316H26.761V6.102H30.776C30.781 5.842 30.719 5.584 30.596 5.355C30.48 5.141 30.31 4.962 30.102 4.839C29.878 4.712 29.625 4.648 29.369 4.653C29.1 4.648 28.834 4.719 28.601 4.858C28.383 4.989 28.202 5.177 28.079 5.402C27.952 5.633 27.885 5.894 27.885 6.159V7.309C27.877 7.62 27.942 7.929 28.075 8.209C28.195 8.454 28.383 8.658 28.616 8.796C28.87 8.938 29.156 9.009 29.445 9C29.643 9.003 29.84 8.972 30.028 8.909C30.197 8.853 30.351 8.76 30.48 8.636C30.607 8.51 30.705 8.357 30.766 8.186L32.532 8.305C32.449 8.725 32.261 9.116 31.984 9.438C31.692 9.772 31.326 10.03 30.916 10.19C30.437 10.38 29.927 10.474 29.413 10.469ZM37.324 2.395C37.053 2.401 36.791 2.296 36.596 2.104C36.404 1.929 36.295 1.679 36.295 1.416C36.295 1.153 36.404 0.903 36.596 0.728C37.007 0.34 37.641 0.34 38.052 0.728C38.245 0.902 38.355 1.153 38.355 1.416C38.358 1.682 38.247 1.937 38.052 2.113C37.856 2.303 37.594 2.404 37.324 2.395ZM36.365 10.331V3.302H38.274V10.331H36.365ZM41.516 6.274V10.331H39.609V3.302H41.427V4.541H41.508C41.655 4.142 41.923 3.801 42.275 3.569C42.665 3.321 43.119 3.197 43.579 3.211C44.016 3.2 44.448 3.311 44.829 3.531C45.186 3.747 45.474 4.064 45.658 4.443C45.864 4.883 45.965 5.367 45.953 5.855V10.329H44.045V6.199C44.068 5.832 43.952 5.47 43.722 5.189C43.487 4.939 43.158 4.807 42.82 4.825C42.585 4.822 42.353 4.882 42.146 4.997C41.949 5.111 41.79 5.283 41.688 5.49C41.572 5.734 41.513 6.003 41.516 6.274ZM50.044 10.331V0.958H56.11V2.592H51.978V4.829H55.711V6.462H51.978V10.334L50.044 10.331ZM57.077 10.331V3.302H58.931V4.528H59.001C59.099 4.136 59.321 3.788 59.633 3.538C59.927 3.311 60.287 3.19 60.656 3.194C60.759 3.195 60.862 3.201 60.964 3.213C61.062 3.223 61.16 3.24 61.256 3.263V4.999C61.134 4.965 61.009 4.941 60.883 4.927C60.739 4.906 60.594 4.895 60.449 4.894C60.187 4.889 59.929 4.953 59.699 5.08C59.482 5.2 59.302 5.379 59.178 5.596C59.049 5.827 58.983 6.089 58.988 6.355V10.331H57.077ZM63.814 10.463C63.408 10.472 63.006 10.392 62.634 10.228C62.302 10.081 62.019 9.838 61.82 9.529C61.611 9.181 61.507 8.777 61.522 8.369C61.512 8.028 61.584 7.69 61.733 7.384C61.868 7.125 62.066 6.905 62.307 6.744C62.561 6.576 62.84 6.452 63.133 6.378C63.453 6.294 63.779 6.236 64.108 6.206C64.508 6.163 64.831 6.121 65.076 6.083C65.263 6.064 65.445 6.006 65.61 5.911C65.722 5.836 65.787 5.704 65.778 5.567V5.54C65.794 5.286 65.696 5.038 65.512 4.867C65.298 4.696 65.03 4.611 64.759 4.629C64.468 4.613 64.18 4.694 63.938 4.86C63.744 5.001 63.601 5.204 63.534 5.438L61.77 5.292C61.851 4.882 62.032 4.5 62.297 4.182C62.574 3.859 62.925 3.611 63.318 3.459C63.781 3.282 64.273 3.196 64.767 3.206C65.138 3.204 65.508 3.25 65.868 3.342C66.202 3.426 66.519 3.571 66.804 3.769C67.075 3.958 67.297 4.211 67.452 4.507C67.617 4.84 67.698 5.211 67.687 5.584V10.331H65.883V9.357H65.829C65.717 9.578 65.563 9.774 65.377 9.935C65.18 10.108 64.951 10.241 64.703 10.324C64.416 10.42 64.116 10.467 63.814 10.463ZM64.366 9.119C64.624 9.124 64.879 9.065 65.109 8.947C65.316 8.841 65.49 8.681 65.615 8.482C65.736 8.285 65.799 8.056 65.795 7.823V7.073C65.719 7.12 65.637 7.156 65.551 7.181C65.446 7.212 65.332 7.242 65.204 7.267C65.076 7.293 64.946 7.316 64.818 7.336L64.467 7.39C64.266 7.417 64.069 7.47 63.881 7.55C63.728 7.611 63.594 7.712 63.492 7.844C63.396 7.977 63.347 8.139 63.352 8.303C63.339 8.542 63.446 8.772 63.637 8.911C63.852 9.058 64.108 9.13 64.366 9.119ZM68.985 10.331V3.302H70.803V4.541H70.884C71.015 4.147 71.266 3.805 71.602 3.567C72.336 3.091 73.273 3.091 74.008 3.567C74.335 3.801 74.57 4.145 74.672 4.54H74.742C74.882 4.138 75.151 3.797 75.506 3.572C75.898 3.323 76.354 3.197 76.817 3.209C77.401 3.186 77.968 3.412 78.384 3.832C78.785 4.25 78.985 4.84 78.985 5.602V10.331H77.081V5.989C77.106 5.665 76.995 5.345 76.776 5.109C76.57 4.913 76.296 4.808 76.015 4.817C75.709 4.799 75.412 4.922 75.204 5.152C75.001 5.4 74.897 5.716 74.913 6.039V10.331H73.059V5.947C73.075 5.644 72.971 5.347 72.771 5.123C72.571 4.916 72.295 4.805 72.011 4.817C71.81 4.813 71.612 4.87 71.442 4.979C71.269 5.09 71.13 5.247 71.039 5.433C70.935 5.647 70.884 5.883 70.891 6.121V10.331H68.985ZM83.439 10.469C82.802 10.487 82.173 10.334 81.612 10.026C81.106 9.737 80.695 9.301 80.433 8.773C80.146 8.175 80.005 7.515 80.021 6.849C80.007 6.19 80.148 5.536 80.433 4.944C80.693 4.414 81.097 3.971 81.595 3.667C82.131 3.353 82.742 3.196 83.359 3.211C83.792 3.208 84.222 3.282 84.63 3.431C85.016 3.576 85.368 3.803 85.661 4.097C85.967 4.413 86.201 4.794 86.347 5.213C86.521 5.716 86.605 6.247 86.595 6.78V7.316H80.786V6.102H84.802C84.806 5.842 84.744 5.584 84.621 5.355C84.506 5.14 84.334 4.962 84.126 4.839C83.902 4.712 83.649 4.647 83.393 4.653C83.124 4.648 82.859 4.719 82.626 4.858C82.408 4.988 82.227 5.176 82.104 5.402C81.977 5.633 81.91 5.894 81.91 6.159V7.309C81.903 7.62 81.968 7.929 82.101 8.209C82.22 8.455 82.409 8.659 82.642 8.796C82.895 8.938 83.181 9.009 83.471 9C83.668 9.003 83.865 8.973 84.052 8.909C84.221 8.853 84.376 8.76 84.505 8.636C84.633 8.51 84.73 8.356 84.792 8.186L86.558 8.305C86.474 8.725 86.285 9.116 86.008 9.438C85.716 9.772 85.351 10.029 84.942 10.19C84.463 10.38 83.952 10.474 83.439 10.469ZM87.654 10.331V3.302H89.508V4.528H89.58C89.677 4.136 89.899 3.787 90.211 3.538C90.505 3.311 90.865 3.19 91.233 3.194C91.336 3.195 91.439 3.201 91.542 3.213C91.64 3.223 91.737 3.24 91.833 3.263V4.999C91.711 4.965 91.587 4.941 91.461 4.927C91.317 4.906 91.173 4.895 91.028 4.894C90.766 4.889 90.507 4.953 90.276 5.08C90.06 5.201 89.88 5.379 89.756 5.596C89.626 5.827 89.56 6.089 89.565 6.355V10.331H87.654Z" fill="#222222"/>
</svg>
