<svg width="22" height="22" viewBox="0 0 22 22" fill="none" xmlns="http://www.w3.org/2000/svg">
<path d="M0.166667 5.04167C0.166667 2.74392 0.166667 1.5945 0.880583 0.880583C1.5945 0.166667 2.74392 0.166667 5.04167 0.166667C7.33942 0.166667 8.48883 0.166667 9.20275 0.880583C9.91667 1.5945 9.91667 2.74392 9.91667 5.04167C9.91667 7.33942 9.91667 8.48883 9.20275 9.20275C8.48883 9.91667 7.33942 9.91667 5.04167 9.91667C2.74392 9.91667 1.5945 9.91667 0.880583 9.20275C0.166667 8.48883 0.166667 7.33942 0.166667 5.04167ZM12.0833 16.9583C12.0833 14.6606 12.0833 13.5112 12.7972 12.7972C13.5112 12.0833 14.6606 12.0833 16.9583 12.0833C19.2561 12.0833 20.4055 12.0833 21.1194 12.7972C21.8333 13.5112 21.8333 14.6606 21.8333 16.9583C21.8333 19.2561 21.8333 20.4055 21.1194 21.1194C20.4055 21.8333 19.2561 21.8333 16.9583 21.8333C14.6606 21.8333 13.5112 21.8333 12.7972 21.1194C12.0833 20.4055 12.0833 19.2561 12.0833 16.9583ZM0.166667 16.9583C0.166667 14.6606 0.166667 13.5112 0.880583 12.7972C1.5945 12.0833 2.74392 12.0833 5.04167 12.0833C7.33942 12.0833 8.48883 12.0833 9.20275 12.7972C9.91667 13.5112 9.91667 14.6606 9.91667 16.9583C9.91667 19.2561 9.91667 20.4055 9.20275 21.1194C8.48883 21.8333 7.33942 21.8333 5.04167 21.8333C2.74392 21.8333 1.5945 21.8333 0.880583 21.1194C0.166667 20.4055 0.166667 19.2561 0.166667 16.9583Z" fill="#DBFB36"/>
</svg>
